/* XPM */
static char *_3aae2199ba84943f85d7d139a72ba57iXoRfZpmKdXFB5Vu[] = {
/* columns rows colors chars-per-pixel */
"60 60 133 2 ",
"   c None",
".  c #501E45",
"X  c #501F45",
"o  c #501F46",
"O  c #511F46",
"+  c #501F47",
"@  c #511F47",
"#  c #521F46",
"$  c #551F46",
"%  c #561F46",
"&  c #631F44",
"*  c #6A1F43",
"=  c #6A1F44",
"-  c #502046",
";  c #512046",
":  c #502047",
">  c #512047",
",  c #532046",
"<  c #572046",
"1  c #582046",
"2  c #582146",
"3  c #5D2044",
"4  c #5F2045",
"5  c #632044",
"6  c #632045",
"7  c #622346",
"8  c #6F2043",
"9  c #6F2044",
"0  c #682447",
"q  c #6F2547",
"w  c #702043",
"e  c #712043",
"r  c #732043",
"t  c #762042",
"y  c #702547",
"u  c #7C2142",
"i  c #792748",
"p  c #7A2748",
"a  c #7F2948",
"s  c #96213F",
"d  c #98213F",
"f  c #A3223E",
"g  c #A5213E",
"h  c #A4223E",
"j  c #A5223E",
"k  c #A5233F",
"l  c #AB223D",
"z  c #B2223D",
"x  c #B9233C",
"c  c #C6233B",
"v  c #C7233B",
"b  c #C8233B",
"n  c #C9233B",
"m  c #CA233B",
"M  c #CE233A",
"N  c #CF233A",
"B  c #CF233B",
"V  c #CA243B",
"C  c #CC243B",
"Z  c #CE243B",
"A  c #CF243B",
"S  c #C8283F",
"D  c #D1243A",
"F  c #D0243B",
"G  c #D1243B",
"H  c #D3253B",
"J  c #D3263C",
"K  c #D9293E",
"L  c #DA2A3F",
"P  c #DB2A3F",
"I  c #832041",
"U  c #842141",
"Y  c #8B2A47",
"T  c #8C2A48",
"R  c #962140",
"E  c #972140",
"W  c #9A2441",
"Q  c #9D2D49",
"!  c #9E2D49",
"~  c #9E2E49",
"^  c #9F2E49",
"/  c #A12E49",
"(  c #A2304B",
")  c #B13149",
"_  c #BD3248",
"`  c #DD2E41",
"'  c #C2344A",
"]  c #CC354A",
"[  c #CD364A",
"{  c #E12E41",
"}  c #E22E41",
"|  c #E22F41",
" . c #E32F42",
".. c #E93345",
"X. c #E0394B",
"o. c #E33A4B",
"O. c #E43B4B",
"+. c #E73B4B",
"@. c #E83B4B",
"#. c #EE3C4C",
"$. c #F03847",
"%. c #F23847",
"&. c #F43948",
"*. c #F63A49",
"=. c #F73B49",
"-. c #F03D4C",
";. c #F83C4A",
":. c #FC3E4B",
">. c #FB3E4C",
",. c #FC3E4C",
"<. c #FD3E4C",
"1. c #FC3F4D",
"2. c #FD3F4D",
"3. c #FE3F4C",
"4. c #FF404D",
"5. c #FF4450",
"6. c #FF4451",
"7. c #FF4551",
"8. c #FF4652",
"9. c #FF4955",
"0. c #E7525F",
"q. c #F9555F",
"w. c #FF5C64",
"e. c #FF5C65",
"r. c #EE6871",
"t. c #FF757A",
"y. c #FF8083",
"u. c #FF8285",
"i. c #FFA2A0",
"p. c #FFA2A1",
"a. c #FFA7A4",
"s. c #FFB7B2",
"d. c #FFB8B3",
/* pixels */
"                                                                                                                        ",
"                                                                                                                        ",
"                                                                                                                        ",
"                                                                                                                        ",
"                                                                                                                        ",
"                                                                                                                        ",
"                                                                                                                        ",
"                                                                                                                        ",
"                                                                                                                        ",
"                                                                                                                        ",
"                                                                                                                        ",
"                              > > > > > > > >                             > > > > > > > >                               ",
"                              > > > > > > > >                             > > > > > > > >                               ",
"                              > > > > > > > >                             > > > > > > > >                               ",
"                              > > > > > > > >                             > > > > > > > >                               ",
"                            7 T T T T T T T T y                         q T T T Y u u u u 4                             ",
"                    @ > > > p 2.2.2.2.2.2.2.2.^ > > > >         > > > > ^ 2.2.2.>.B C C C 8 > > > @                     ",
"                    @ > > > p 4.4.4.4.4.4.4.4.^ > > > >         > > > > ^ 4.4.4.2.B F F F 8 > > > @                     ",
"                    @ > > > p 4.4.4.4.4.4.4.4.^ > > > >         > > > > ^ 4.4.4.2.B F F F 8 > > > @                     ",
"                    < 2 2 2 a 6.6.6.6.6.6.6.6.( 2 2 2 2         2 2 2 2 / 4.4.4.2.F F F F w $ $ $ $                     ",
"            @ @ @ @ ) X.X.X.0.p.p.p.p.p.p.p.p.r.X.X.X.[ @ @ @ @ [ X.X.X.#.4.4.4.2.&.&.&.&.S x x x d @ @ @ @             ",
"            > > > > ' 4.4.4.e.d.d.d.d.d.d.d.d.t.4.4.4.O.> > > > X.4.4.4.4.4.4.4.4.4.4.4.4.P F F F k > > > >             ",
"            > > > > ' 4.4.4.e.d.d.d.d.d.d.d.d.t.4.4.4.O.> > > > X.4.4.4.4.4.4.4.4.4.4.4.4.P F F F k > > > >             ",
"            > > > > ' 4.4.4.e.d.d.d.d.d.d.d.d.t.4.4.4.O.> > > > X.4.4.4.4.4.4.4.4.4.4.4.4.P F F F k > > > >             ",
"            > > > > ' 4.4.4.e.d.d.d.s.u.y.y.y.e.4.4.4.O.> > > > X.4.4.4.4.4.4.4.4.4.4.4.4.P F F F k > > > >             ",
"            > > > > ' 4.4.4.e.d.d.d.d.6.4.4.4.4.4.4.4.O.> > > > X.4.4.4.4.4.4.4.4.4.4.4.4.P F F F k > > > >             ",
"            > > > > ' 4.4.4.e.d.d.d.d.6.4.4.4.4.4.4.4.O.> > > > X.4.4.4.4.4.4.4.4.4.4.4.4.P F F F k > > > >             ",
"            > > > > ' 4.4.4.e.d.d.d.d.6.4.4.4.4.4.4.4.O.> > > > X.4.4.4.4.4.4.4.4.4.4.4.4.P F F F k > > > >             ",
"            > > > > _ ;.;.;.q.a.a.a.a.6.4.4.4.4.4.4.4.@.0 0 0 0 O.4.4.4.4.4.4.4.2.;.;.;.&.P F F F k > > > >             ",
"            > > > > k J J J ` 9.9.9.9.4.4.4.4.4.4.4.4.2.-.-.-.-.2.4.4.4.4.4.4.4.2.F J J J F F F F k > > > >             ",
"            > > > > f F F F P 4.4.4.4.4.4.4.4.4.4.4.4.4.4.4.4.4.4.4.4.4.4.4.4.4.2.B F F F F F F F k > > > >             ",
"            > > > > f F F F P 4.4.4.4.4.4.4.4.4.4.4.4.4.4.4.4.4.4.4.4.4.4.4.4.4.2.B F F F F F F F k > > > >             ",
"            @ @ @ @ f B B B P 2.2.2.2.2.4.4.4.4.4.4.4.4.4.4.4.4.4.4.4.4.2.2.2.2.:.B F F F B B B B f @ @ @ @             ",
"                    t U U U W } } } } 2.4.4.4.4.4.4.4.4.4.4.4.4.4.4.4.4.$.} } } } B F F F s U U U t                     ",
"                    @ > > > 9 F F F B :.4.4.4.4.4.4.4.4.4.4.4.4.4.4.4.4...F F F F F F F F 8 > > > @                     ",
"                    @ > > > 9 F F F B :.4.4.4.4.4.4.4.4.4.4.4.4.4.4.4.4...F F F F F F F F 8 > > > @                     ",
"                    @ > > > 9 F F F B :.4.4.4.4.4.4.4.4.4.4.4.4.4.4.4.4...F F F F F F F F 8 > > > @                     ",
"                    @ @ @ @ = z z z z $.&.&.&.&.&.&.&.&.&.&.&.&.&.&.&.&.} F F F B z z z z * @ @ @ @                     ",
"                              > > > @ V F F F F F F F F F F F F F F F F F F F F b @ > > >                               ",
"                              > > > @ b F F F F F F F F F F F F F F F F F F F F b @ > > >                               ",
"                              > > > @ b F F F F F F F F F F F F F F F F F F F F b @ > > >                               ",
"                              > > > @ v C C C C F F F F F F F F F F F F C C C C v @ > > >                               ",
"                                      w w w w k F F F F F F F F F F F F k w w w w                                       ",
"                                      > > > > R F F F F F F F F F F F F R > > > >                                       ",
"                                      > > > > R F F F F F F F F F F F F R > > > >                                       ",
"                                      > > > > R F F F F F F F F F F F F R > > > >                                       ",
"                                      @ @ @ @ I k k k l B F F B l k k k I @ @ @ @                                       ",
"                                              @ @ @ @ & B F F B & @ @ @ @                                               ",
"                                              @ > > > 7 B F F B 7 > > > @                                               ",
"                                              @ > > > 7 B F F B 7 > > > @                                               ",
"                                              @ > > > 7 v b b v 7 > > > @                                               ",
"                                                        4 4 4 4                                                         ",
"                                                        > > > >                                                         ",
"                                                        > > > >                                                         ",
"                                                        > > > >                                                         ",
"                                                                                                                        ",
"                                                                                                                        ",
"                                                                                                                        ",
"                                                                                                                        ",
"                                                                                                                        "
};
