/* XPM */
static char *_905f706d37e4e38c07e11abfc0a8902GGLSmDE0HN14bc60[] = {
/* columns rows colors chars-per-pixel */
"60 60 125 2 ",
"   c None",
".  c #501E46",
"X  c #501F46",
"o  c #511F46",
"O  c #501F47",
"+  c #661F43",
"@  c #601F44",
"#  c #661F44",
"$  c #671F44",
"%  c #502046",
"&  c #512046",
"*  c #512047",
"=  c #522047",
"-  c #552046",
";  c #5C2045",
":  c #5D2045",
">  c #602044",
",  c #622044",
"<  c #632044",
"1  c #632045",
"2  c #642044",
"3  c #662246",
"4  c #662446",
"5  c #6D2043",
"6  c #6F2043",
"7  c #6A2346",
"8  c #6F2044",
"9  c #6B2447",
"0  c #762042",
"q  c #7F2142",
"w  c #782647",
"e  c #792747",
"r  c #792748",
"t  c #7A2748",
"y  c #7E2848",
"u  c #95213F",
"i  c #9B213F",
"p  c #9C213F",
"a  c #A0213E",
"s  c #A1213E",
"d  c #A1223E",
"f  c #A0223F",
"g  c #A3223E",
"h  c #A4223E",
"j  c #C0233B",
"k  c #C5233B",
"l  c #C0223C",
"z  c #C0233C",
"x  c #C1233C",
"c  c #C9233B",
"v  c #CA233B",
"b  c #CB233B",
"n  c #CD233A",
"m  c #CF233A",
"M  c #CF233B",
"N  c #CF243B",
"B  c #D0243B",
"V  c #D1243B",
"C  c #D6273C",
"Z  c #D6273D",
"A  c #D6283D",
"S  c #D5293F",
"D  c #D7283E",
"F  c #D9293E",
"G  c #DA293E",
"H  c #DB2A3F",
"J  c #842140",
"K  c #862242",
"L  c #8B2140",
"P  c #8E2E4B",
"I  c #962140",
"U  c #972140",
"Y  c #9D2D49",
"T  c #9E2E49",
"R  c #9F2E49",
"E  c #A02D48",
"W  c #A12E49",
"Q  c #B92F47",
"!  c #AC3049",
"~  c #BD334A",
"^  c #AD3850",
"/  c #DB2B40",
"(  c #C2344A",
")  c #DD394B",
"_  c #DE394B",
"`  c #E02D40",
"'  c #E93345",
"]  c #EA3445",
"[  c #ED3645",
"{  c #EE3646",
"}  c #E33A4B",
"|  c #E43B4B",
" . c #EA3C4C",
".. c #EB3C4C",
"X. c #F13847",
"o. c #F23847",
"O. c #F63E4C",
"+. c #FA3C4A",
"@. c #FC3E4B",
"#. c #FD3E4B",
"$. c #F93E4C",
"%. c #F93F4C",
"&. c #FC3E4C",
"*. c #FD3F4C",
"=. c #FE3F4C",
"-. c #FE3F4D",
";. c #FE404D",
":. c #FF404D",
">. c #FF434F",
",. c #FF4350",
"<. c #FF4551",
"1. c #F44E5A",
"2. c #FF515C",
"3. c #FF525C",
"4. c #FF535D",
"5. c #F85962",
"6. c #FF5C64",
"7. c #FF6B72",
"8. c #FF6E75",
"9. c #FA7177",
"0. c #FF757A",
"q. c #FF9897",
"w. c #FFB1AD",
"e. c #FFB7B2",
"r. c #FFB8B3",
/* pixels */
"                                                                                                                        ",
"                                                                                                                        ",
"                                                                                                                        ",
"                                                                                                                        ",
"                                                                                                                        ",
"                                                                                                                        ",
"                                                                                                                        ",
"                                                                                                                        ",
"                              * * * * * * * *                             * * * * * * * *                               ",
"                              * * * * * * * *                             * * * * * * * *                               ",
"                              * * * * * * * *                             * * * * * * * *                               ",
"                              * * * * * * * *                             * * * * * * * *                               ",
"                            4 W W W W W W W W e                         e W W W W L L L L 1                             ",
"                    O * * * t -.:.:.:.:.:.:.:.R * * * *         * * * * R :.:.:.-.m N N N 5 * * * O                     ",
"                    O * * * t :.:.:.:.:.:.:.:.R * * * *         * * * * R :.:.:.-.m B B B 5 * * * O                     ",
"                    O * * * t :.:.:.:.:.:.:.:.R * * * *         * * * * R :.:.:.-.m B B B 5 * * * O                     ",
"                    3 9 9 9 P 3.3.3.3.3.3.3.3.^ 9 9 9 7         7 9 9 9 ! :.:.:.-.C S S C q 3 3 3 @                     ",
"            * * * * ~ O.O.O.5.w.w.w.w.w.w.w.w.9.O.O.O._ * * * * _ O.O.O.%.:.:.:.-.@.@.@.@.S v v v g * * * *             ",
"            * * * * ( :.:.:.6.r.r.r.r.r.r.r.r.0.:.:.:.| * * * * } :.:.:.:.:.:.:.:.:.:.:.:.G B B B h * * * *             ",
"            * * * * ( :.:.:.6.r.r.r.r.r.r.r.r.0.:.:.:.| * * * * } :.:.:.:.:.:.:.:.:.:.:.:.G B B B h * * * *             ",
"            * * * * ( :.:.:.6.r.r.r.r.e.e.e.e.0.:.:.:.| * * * * } :.:.:.:.:.:.:.:.:.:.:.:.G B B B h * * * *             ",
"            * * * * ( :.:.:.6.r.r.r.r.8.7.7.7.3.:.:.:.| * * * * } :.:.:.:.:.:.:.:.:.:.:.:.G B B B h * * * *             ",
"            * * * * ( :.:.:.6.r.r.r.r.<.:.:.:.:.:.:.:.| * * * * } :.:.:.:.:.:.:.:.:.:.:.:.G B B B h * * * *             ",
"            * * * * ( :.:.:.6.r.r.r.r.<.:.:.:.:.:.:.:.| * * * * } :.:.:.:.:.:.:.:.:.:.:.:.G B B B h * * * *             ",
"            * * * * ( :.:.:.6.r.r.r.r.<.:.:.:.:.:.:.:.| * * * * } :.:.:.:.:.:.:.:.:.:.:.:.G B B B h * * * *             ",
"            * * * * Q o.o.o.1.q.q.q.q.,.:.:.:.:.:.:.:...y y y y ..:.:.:.:.:.:.:.-.o.o.o.o.S B B B h * * * *             ",
"            * * * * h B B B / :.,.,.,.:.:.:.:.:.:.:.:.-.%.%.%.%.-.:.:.:.:.:.:.:.-.B B B B B B B B h * * * *             ",
"            * * * * g B B B G :.:.:.:.:.:.:.:.:.:.:.:.:.:.:.:.:.:.:.:.:.:.:.:.:.-.m B B B B B B B h * * * *             ",
"            * * * * g B B B G :.:.:.:.:.:.:.:.:.:.:.:.:.:.:.:.:.:.:.:.:.:.:.:.:.-.m B B B B B B B h * * * *             ",
"            O O O O g v v v S @.@.@.@.-.:.:.:.:.:.:.:.:.:.:.:.:.:.:.:.:.-.@.@.@.+.m B B B v v v v g O O O O             ",
"                    + 5 5 5 K G G G G @.:.:.:.:.:.:.:.:.:.:.:.:.:.:.:.:.[ G G G G m B B B K 5 5 5 +                     ",
"                    O * * * 8 B B B m @.:.:.:.:.:.:.:.:.:.:.:.:.:.:.:.:.' B B B B B B B B 5 * * * O                     ",
"                    O * * * 8 B B B m @.:.:.:.:.:.:.:.:.:.:.:.:.:.:.:.:.' B B B B B B B B 5 * * * O                     ",
"                    O * * * 8 B B B m @.:.:.:.:.:.:.:.:.:.:.:.:.:.:.:.:.' B B B B B B B B 5 * * * O                     ",
"                      O O O # g g g g ] [ [ [ [ [ [ [ [ [ [ [ [ [ [ [ [ ` B B B m g g g g # O O O                       ",
"                              * * * O v B B B B B B B B B B B B B B B B B B B B v O * * *                               ",
"                              * * * O v B B B B B B B B B B B B B B B B B B B B v O * * *                               ",
"                              * * * O v B B B B B B B B B B B B B B B B B B B B v O * * *                               ",
"                              * * * O l k k k v B B B B B B B B B B B B v k k k j O * * *                               ",
"                                      : : : : i B B B B B B B B B B B B p : : : :                                       ",
"                                      * * * * I B B B B B B B B B B B B I * * * *                                       ",
"                                      * * * * I B B B B B B B B B B B B I * * * *                                       ",
"                                      * * * * I N N N N B B B B N N N N I * * * *                                       ",
"                                              0 L L L u m B B m u L L L 0                                               ",
"                                              O * * * 1 m B B m 1 * * * O                                               ",
"                                              O * * * 1 m B B m 1 * * * O                                               ",
"                                              O * * * 1 m B B m 1 * * * O                                               ",
"                                                * * * 1 l l l l 1 * * *                                                 ",
"                                                        - - - -                                                         ",
"                                                        * * * *                                                         ",
"                                                        * * * *                                                         ",
"                                                        * * * *                                                         ",
"                                                                                                                        ",
"                                                                                                                        ",
"                                                                                                                        ",
"                                                                                                                        ",
"                                                                                                                        ",
"                                                                                                                        ",
"                                                                                                                        ",
"                                                                                                                        "
};
