/* XPM */
static char *_f22cfd4567345fb85d0dc85f59c59667f36Obj16zvw1bvh[] = {
/* columns rows colors chars-per-pixel */
"60 60 129 2 ",
"   c None",
".  c #501F46",
"X  c #511F46",
"o  c #501F47",
"O  c #5C1F44",
"+  c #601E43",
"@  c #661F44",
"#  c #691F43",
"$  c #502046",
"%  c #502047",
"&  c #512047",
"*  c #522046",
"=  c #522047",
"-  c #562045",
";  c #572046",
":  c #5E2044",
">  c #602044",
",  c #632045",
"<  c #6F2043",
"1  c #682044",
"2  c #6E2044",
"3  c #6F2044",
"4  c #722042",
"5  c #732042",
"6  c #712547",
"7  c #722447",
"8  c #792042",
"9  c #7A2142",
"0  c #7A2647",
"q  c #7E2747",
"w  c #7A2748",
"e  c #99213F",
"r  c #9C213E",
"t  c #A2223E",
"y  c #A3223E",
"u  c #A4223E",
"i  c #A7223E",
"p  c #A8223E",
"a  c #A9223E",
"s  c #B5223C",
"d  c #B5223D",
"f  c #B9233C",
"g  c #C5223B",
"h  c #C5233B",
"j  c #C2223C",
"k  c #C9233B",
"l  c #CA233B",
"z  c #CC233A",
"x  c #CD233B",
"c  c #CE233A",
"v  c #CF233A",
"b  c #CE233B",
"n  c #CF233B",
"m  c #CF243B",
"M  c #CE283F",
"N  c #D0233A",
"B  c #D0243B",
"V  c #D4263C",
"C  c #D5273C",
"Z  c #D5273D",
"A  c #D82A3F",
"S  c #DA2A3E",
"D  c #DB2A3E",
"F  c #DB2A3F",
"G  c #802041",
"H  c #852141",
"J  c #862141",
"K  c #8B2241",
"L  c #8A2948",
"P  c #8B2A48",
"I  c #952140",
"U  c #962140",
"Y  c #972140",
"T  c #982D48",
"R  c #9E2E49",
"E  c #9F2E49",
"W  c #9C344F",
"Q  c #B52C45",
"!  c #B73249",
"~  c #DE2E41",
"^  c #C0334A",
"/  c #C2344A",
"(  c #C6344A",
")  c #C7354A",
"_  c #C7354B",
"`  c #E33042",
"'  c #E93344",
"]  c #E93345",
"[  c #EB3344",
"{  c #EA3345",
"}  c #EB3445",
"|  c #E03A4B",
" . c #E13A4B",
".. c #E33A4B",
"X. c #E43B4B",
"o. c #EE3C4C",
"O. c #EF3C4C",
"+. c #F73A49",
"@. c #F93C4A",
"#. c #FC3E4B",
"$. c #FA3F4C",
"%. c #FC3E4C",
"&. c #FD3E4C",
"*. c #FC3F4C",
"=. c #FD3F4C",
"-. c #FD3F4D",
";. c #FE3F4C",
":. c #B74055",
">. c #FE404D",
",. c #FF404D",
"<. c #FF414D",
"1. c #FF414E",
"2. c #FF434F",
"3. c #EF4754",
"4. c #FF4551",
"5. c #FF4955",
"6. c #FF555F",
"7. c #FB5A63",
"8. c #FF5962",
"9. c #FF5C64",
"0. c #FF5F67",
"q. c #FC7379",
"w. c #FF7378",
"e. c #FF757A",
"r. c #FF8688",
"t. c #FFB2AE",
"y. c #FFB4B0",
"u. c #FFB5B0",
"i. c #FFB8B3",
/* pixels */
"                                                                                                                        ",
"                                                                                                                        ",
"                                                                                                                        ",
"                                                                                                                        ",
"                                                                                                                        ",
"                              & & & & & & & &                             & & & & & & & &                               ",
"                              & & & & & & & &                             & & & & & & & &                               ",
"                              & & & & & & & &                             & & & & & & & &                               ",
"                              & & & & & & & &                             & & & & & & & &                               ",
"                      & & & 7 ) ) ) ) ) ) ) ) P & & & o         o & & & P ) ) ) ) u u u u 1 & & &                       ",
"                    o & & & w ,.,.,.,.,.,.,.,.E & & & &         & & & & E ,.,.,.-.v B B B < & & & o                     ",
"                    o & & & w ,.,.,.,.,.,.,.,.E & & & &         & & & & E ,.,.,.-.v B B B < & & & o                     ",
"                    o & & & w ,.,.,.,.,.,.,.,.E & & & &         & & & & E ,.,.,.-.v B B B < & & & o                     ",
"                    7 q q q W 9.9.9.9.9.9.9.9.:.q q q 0         0 q q q ! ,.,.,.-.F F F F K 5 5 5 #                     ",
"            & & & & ^ $.$.$.7.y.y.y.y.y.y.y.y.q.$.$.$. .& & & &  .$.$.$.-.,.,.,.-.-.-.-.-.F v v v y & & & &             ",
"            & & & & / ,.,.,.9.i.i.i.i.i.i.i.i.e.,.,.,.X.& & & &  .,.,.,.,.,.,.,.,.,.,.,.,.F B B B u & & & &             ",
"            & & & & / ,.,.,.9.i.i.i.i.i.i.i.i.e.,.,.,.X.& & & &  .,.,.,.,.,.,.,.,.,.,.,.,.F B B B u & & & &             ",
"            & & & & / ,.,.,.9.i.i.i.i.t.t.t.t.q.,.,.,.X.& & & &  .,.,.,.,.,.,.,.,.,.,.,.,.F B B B u & & & &             ",
"            & & & & / ,.,.,.9.i.i.i.i.8.6.6.6.5.,.,.,.X.& & & &  .,.,.,.,.,.,.,.,.,.,.,.,.F B B B u & & & &             ",
"            & & & & / ,.,.,.9.i.i.i.i.4.,.,.,.,.,.,.,.X.& & & &  .,.,.,.,.,.,.,.,.,.,.,.,.F B B B u & & & &             ",
"            & & & & / ,.,.,.9.i.i.i.i.4.,.,.,.,.,.,.,.X.& & & &  .,.,.,.,.,.,.,.,.,.,.,.,.F B B B u & & & &             ",
"            & & & & / ,.,.,.9.i.i.i.i.4.,.,.,.,.,.,.,.X.& & & &  .,.,.,.,.,.,.,.,.,.,.,.,.F B B B u & & & &             ",
"            & & & & Q } } } 3.r.r.r.r.,.,.,.,.,.,.,.,.O.T T T T O.,.,.,.,.,.,.,.-.] } } ] V B B B u & & & &             ",
"            & & & & y B B B F ,.,.,.,.,.,.,.,.,.,.,.,.,.-.-.-.-.,.,.,.,.,.,.,.,.-.N B B B B B B B u & & & &             ",
"            & & & & y B B B F ,.,.,.,.,.,.,.,.,.,.,.,.,.,.,.,.,.,.,.,.,.,.,.,.,.-.v B B B B B B B u & & & &             ",
"            & & & & y B B B F ,.,.,.,.,.,.,.,.,.,.,.,.,.,.,.,.,.,.,.,.,.,.,.,.,.-.v B B B B B B B u & & & &             ",
"            o o o o r j j j M @.@.@.@.-.,.,.,.,.,.,.,.,.,.,.,.,.,.,.,.,.#.@.@.@.+.v B B B h j j j r o o o o             ",
"                    O : : : 9 V V V V #.,.,.,.,.,.,.,.,.,.,.,.,.,.,.,.,.} V V V V v B B B 9 : : : O                     ",
"                    o & & & 2 B B B v #.,.,.,.,.,.,.,.,.,.,.,.,.,.,.,.,.] B B B B B B B B < & & & o                     ",
"                    o & & & 2 B B B v #.,.,.,.,.,.,.,.,.,.,.,.,.,.,.,.,.] B B B B B B B B < & & & o                     ",
"                    o & & & 2 v m m v #.,.,.,.,.,.,.,.,.,.,.,.,.,.,.,.,.] B B B B m m m v < & & & o                     ",
"                            + H H H H ~ ` ` ` ` ` ` ` ` ` ` ` ` ` ` ` ` F B B B v H H H H +                             ",
"                              & & & o k B B B B B B B B B B B B B B B B B B B B k o & & &                               ",
"                              & & & o k B B B B B B B B B B B B B B B B B B B B k o & & &                               ",
"                              & & & o k B B B B B B B B B B B B B B B B B B B B k o & & &                               ",
"                              & & & o d f f f h B B B B B B B B B B B B h f f f d o & & &                               ",
"                                      ; ; ; ; e B B B B B B B B B B B B e ; ; ; ;                                       ",
"                                      & & & & I B B B B B B B B B B B B I & & & &                                       ",
"                                      & & & & I B B B B B B B B B B B B I & & & &                                       ",
"                                      & & & & I v v v v B B B B v v v v I & & & &                                       ",
"                                              @ 5 5 5 G v B B v G 5 5 5 @                                               ",
"                                              o & & & , v B B v , & & & o                                               ",
"                                              o & & & , v B B v , & & & o                                               ",
"                                              o & & & , v B B v , & & & o                                               ",
"                                                & & & , p p p p , & & &                                                 ",
"                                                        & & & &                                                         ",
"                                                        & & & &                                                         ",
"                                                        & & & &                                                         ",
"                                                        & & & &                                                         ",
"                                                                                                                        ",
"                                                                                                                        ",
"                                                                                                                        ",
"                                                                                                                        ",
"                                                                                                                        ",
"                                                                                                                        ",
"                                                                                                                        ",
"                                                                                                                        ",
"                                                                                                                        ",
"                                                                                                                        ",
"                                                                                                                        "
};
