/* XPM */
static char *_5a1336ff5be4f0dac2f483f0d72cf1bEJtnGSxXc4SGStAt[] = {
/* columns rows colors chars-per-pixel */
"60 60 57 1 ",
"  c #76E53F",
". c #238E5F",
"X c #2F9D57",
"o c #26925D",
"O c #2B965E",
"+ c #2E9A5C",
"@ c #309E57",
"# c #319A5C",
"$ c #3FB34F",
"% c #36A555",
"& c #36A954",
"* c #3BAD53",
"= c #36A25E",
"- c #3AA65F",
"; c #3BA95A",
": c #3EB051",
"> c #228C60",
", c #40B34F",
"< c #45BC4D",
"1 c #56BA4F",
"2 c #5BBD4D",
"3 c #41AC54",
"4 c #44AE5A",
"5 c #42B550",
"6 c #49B357",
"7 c #47B159",
"8 c #49C24A",
"9 c #4BC549",
"0 c #4CC44A",
"q c #4ECC49",
"w c #50CF47",
"e c #59CE46",
"r c #58C54B",
"t c #5FC54A",
"y c #51CE48",
"u c #53D146",
"i c #55D245",
"p c #55D446",
"a c #59D644",
"s c #57D845",
"d c #5BDA43",
"f c #5DDB43",
"g c #5ADA44",
"h c #5CDA44",
"j c #63CB46",
"k c #64CC46",
"l c #61C34B",
"z c #6DDE41",
"x c #72D348",
"c c #6DE141",
"v c #75E440",
"b c #8EEB3E",
"n c #8CED3D",
"m c #90EC3E",
"M c #97F23B",
"N c #97F23C",
"B c #85E340",
/* pixels */
"8:::::************o>>>=NMMN ggggs:::::OooooO-----#.....2BBBB",
"$:::::;-----------o>>>%MNMN ggggp*::::o>>>>O-----+>>>>>lNNNN",
"::::::;-----------o>>>=NNNN ggggp*::::o>>>>O-----+>>>>>lNNNN",
"::::::;-----------o>>>=NNNN sgggp*::::o>>>>O-----+>>>>>lNNNN",
"::::::;-----------o>>>=MMMM ssssp*****o>>>>O-----+>>>>>lNNNN",
":::::*;----=====;4####%cccce<<<<<;;;;;o....o=====#oooootnnnn",
",::::;-----.>>>>1NNNNMggggg8::::*-----O>>>>......&wwwwwaffff",
",::::;-----.>>>>1NNNNMggggg8::::*-----O>>>>.>>>>>&gggggggggg",
",::::;-----.>>>>1NNNNMggggs8::::*-----O>>>>.>>>>>&ggggggssss",
",::::;-----.>>>>1NNNNMggggs8::::*-----O>>>>.>>>>>&ggggggssss",
":****;-----.>>>>1nnnnniuuuu<*****-----O>>>>.>>>>>&ggggggggss",
"=----------.>>>>*ggggg$::::;----------O>>>>.ooooo*uuuuuuuuuu",
"=----------.>>>>*ggggg:::::;----------O>>>>.&*****$$$$$$$$$$",
"=----------.>>>>*ggggg:::::;----------O>>>>.*:::::::::::::::",
"=----------.>>>>*ggggg:::::;----------O>>>>.*:::::::::::::::",
"=---------=.>>>>*sssss:::::;----------O>>>>.******::::::::::",
"OOOOOOOOOOO+++++=&&&&&*::::;-----xxxxxr<<<<,XXXXX%*****&%%%%",
".>>>>>>>>>.=----+>>>>>*::::;----;MNNNNvgggguo>>>>+----=.>>>>",
".>>>>>>>>>.=----+>>>>>*::::;----;MNNNNvgssguo>>>>+----=.>>>>",
".>>>>>>>>>.=----+>>>>>*::::;----;MNNNNvgsssuo>>>>+----=.>>>>",
".>>>>>>>>>.=----+>>>>>*::::;----;MNNNNvgssguo>>>>+----=.>>>>",
".>>>>oOOOO+;;;;;=ooooo&&&&&377776nnnnnzuuuuqO....+=====+OOOO",
".>>>>*uuuuuppppp8*****.....2mmmmbdhhhh9$$$$:-----+>...oquuuu",
".>>>>:gggggggggg9:::::.>>>>2NNNNNsgggg8::::*-----+>>>>ougggg",
".>>>>:ggggggggss9:::::.>>>>2NNNNNsgggg8::::*-----+>>>>ougggg",
".>>>>:ggggggggss9:::::.>>>>2NNNNNsgggg8::::*-----+>>>>ougggg",
".>>>>:ggggggssss9:::::.>>>>2NNNNNsgggs8::::*-----+>>>>ougggg",
":::::<88888888885;;;;;.>>>>3kkkkj888885;;;;;-----+>>>>o<8888",
"pgggg9::::::::::;-----.>>>>X::::::::::;----------+>>>>.*::::",
"pgggs9::::::::::;-----.>>>>X::::::::::;----------+>>>>.*::::",
"psggg9::::::::::;-----.>>>>X::::::::::;----------+>>>>.*::::",
"psggg9::::::::::;-----.>>>>X::::::::::;----------+>>>>.*::::",
"yuuuu<&&&&&*****;-----.>>>>X&&&&&*****;-----=====O>>>>.&****",
"*$,,,%....o-----------.>>>>......----------=.>>>>>>>>>.=----",
"*::::X>>>>.=----------.>>>>>>>>>.----------=.>>>>>>>>>.=----",
"*::::X>>>>.=----------.>>>>>>>>>.----------=.>>>>>>>>>.=----",
"*::::X>>>>.=----------.>>>>>>>>>.----------=.>>>>>>>>>.=----",
"*::::X.....=----------...........----------=.>>>>......=----",
"09999:@@@@XOOOOOOOOOOO:::::::::::OOOOOOOOOOO.>>>>o+++++OOOOO",
"fgggg8::::*.>>>>>>>>>>pgggggsgggp>>>>>>>>>>>>>>>>+----=.>>>>",
"fgggg9::::*.>>>>>>>>>>pgggssggggp>>>>>>>>>>>>>>>>+----=...>>",
"fgggg9::::*.>>>>>>>>>>pggsssggggp>>>>>>>>>>>>>>>>+----=....>",
"fgggg9::::*.>>>>>>>>>>pgggssggggp>>>>>>>>>>>>>>>>+----=...>>",
"aiiii8::::*.>>>>.ooooouiiiuuuiiiu......>>>>......#;;;;;o....",
",$$$,:::::*.>>>>&uuuuu,,,,,,,,,,,*****X>>>>.&****<uuiiy*****",
"$:::::::::*.>>>>*sssgg::::::::::::::::X>>>>.*::::9ssggp,::::",
",:::::::::*.>>>>*ggggg::::::::::::::::X>>>>.*::::9ggggp,::::",
",:::::::::*.>>>>*ggggg::::::::::::::::X>>>>.*::::9ggggp,::::",
"$**********.>>>>*sssss::::::**::****:*X>>>>.*****9ssssp,****",
"*;;;;;;;;;;.>>>>%88888:::::*;;;;;;;;;;X>>>>o<8888888888*;;;;",
"-----------.>>.>X::::::::::;----------O>>>>oigggg8::::*-----",
"-----------.>>.>X::::::::::;----------O.>>>oigggg8::::*-----",
"-----------.>>>>X::::::::::;----------O>>>>oigggg8::::*-----",
"-----------.>>>>X::::::::::;----------O>>>>oigggg8::::*-----",
"-----======.>>>>X::::******;-----=====O>>>>owpppp8*****-----",
"-----+......>>>>X::::*-----------......>>>>.$,,,,*----------",
"-----+>>>>>>>>>>X::::*-----------.>>>>>>>>>.*::::;----------",
"-----+>>>>>>>>>>X::::*-----------.>>>>>>>>>.*::::;----------",
"-----+>>>>>>>>>>X::::*-----------.>>>>>>>>>.*::::;----------",
"-----+>>>>>>>>>>X::::*-----------.>>>>>>>>>.*::::;----------"
};
