/* XPM */
static char *result[] = {
/* columns rows colors chars-per-pixel */
"60 60 115 2 ",
"   c #76E53F",
".  c #238E5F",
"X  c #2A8D5E",
"o  c #2F9D57",
"O  c #26925D",
"+  c #2B965E",
"@  c #2E9A5C",
"#  c #309E57",
"$  c #38915A",
"%  c #319B5C",
"&  c #3FB34F",
"*  c #34A456",
"=  c #36A954",
"-  c #3BAD53",
";  c #36A25E",
":  c #3AA65F",
">  c #3CAA5A",
",  c #3EB051",
"<  c #228C60",
"1  c #2A8F62",
"2  c #2A9362",
"3  c #439358",
"4  c #549653",
"5  c #40B34F",
"6  c #45BC4D",
"7  c #56BA4F",
"8  c #5BBD4D",
"9  c #40AD55",
"0  c #42A25B",
"q  c #46AA5C",
"w  c #49B357",
"e  c #47B159",
"r  c #6EAB49",
"t  c #7BA94D",
"y  c #74BF44",
"u  c #77B14B",
"i  c #69A752",
"p  c #78A350",
"a  c #78AF52",
"s  c #48AA61",
"d  c #72B567",
"f  c #73B961",
"g  c #4AC34A",
"h  c #4FCC49",
"j  c #51CF47",
"k  c #59CE46",
"l  c #5CC54B",
"z  c #52CF48",
"x  c #54D346",
"c  c #59D645",
"v  c #57D844",
"b  c #58D945",
"n  c #61C34B",
"m  c #6DDE41",
"M  c #72D349",
"N  c #7BC650",
"B  c #78C15C",
"V  c #6DE141",
"C  c #75E440",
"Z  c #AFB23E",
"A  c #B8B13D",
"S  c #C9AA38",
"D  c #D9AD35",
"F  c #C6B33D",
"G  c #DCB13B",
"H  c #E2B436",
"J  c #EBBA37",
"K  c #E3B538",
"L  c #E5B939",
"P  c #ECBC38",
"I  c #8DED3D",
"U  c #90EC3E",
"Y  c #97F23C",
"T  c #DAC03F",
"R  c #EFC33B",
"E  c #F6C43A",
"W  c #F8C53B",
"Q  c #8CAC44",
"!  c #82A94C",
"~  c #89AA4B",
"^  c #99A144",
"/  c #9FAA44",
"(  c #A1AA43",
")  c #A9B145",
"_  c #B2B246",
"`  c #BBB444",
"'  c #BCBD43",
"]  c #A9BC70",
"[  c #CEB941",
"{  c #E5BC4C",
"}  c #90CC46",
"|  c #97D654",
" . c #9DDA5C",
".. c #AACB4A",
"X. c #85E340",
"o. c #A7EE46",
"O. c #B2EB4D",
"+. c #BDCF69",
"@. c #A6D661",
"#. c #A9D762",
"$. c #BCDA66",
"%. c #D9D25D",
"&. c #F8C640",
"*. c #F2CC57",
"=. c #FACD54",
"-. c #FBD05B",
";. c #C4CE60",
":. c #CBDB6B",
">. c #F1CA62",
",. c #FCD467",
"<. c #FCD569",
"1. c #E7D379",
"2. c #ECD57A",
"3. c #FCD977",
"4. c #FEDB7B",
/* pixels */
"g , , , , , - - 5 , , , , - , , , - O < < < # Y Y Y Y   b b b b c - & & , , @ O O . O + : : : : : ; < O < 2 O 7 I X.X.I ",
"& , , , , , > > : : : : : : : : : : O < < < $ Y Y Y Y   b b b b v & , - , , 2 < < < < O : : : : > 2 < < < < < l Y Y U Y ",
"- , , , , , > : : : : : : : : : : : O < . < # Y Y Y Y   b b b b c - , , - , 2 . < < < 2 : : : : : 2 2 < < < < n Y Y Y Y ",
", , , , , , > : : : : : : : : : : ; O < . X ; Y Y Y Y   b b b b c , , , & , 2 . < < < + : : : : : % < < < < < n Y Y Y Y ",
", , , , , , = : : : : : : : : : : : 2 < < < * Y Y Y Y C b b b b b , , , , , 2 < < < < 2 : : : : ; @ . . < . < l Y Y Y Y ",
", , , , , , = : : : : ; ; : ; ; : e % % % % *   V V V k g 6 6 g 6 > = : > - 2 < < < < < ; ; ; ; ; o O O O + + l I Y I I ",
"5 - , , 9 > : : : : ; < 2 < < < 7 Y Y Y Y Y b b v v b g , , , , , ; : : : : @ < < < < 1 < O < < < - j j j j j c b b m b ",
"5 5 , , 5 > : : : : ; < < < < < 7 Y Y Y Y Y b b v v b g , , , , , : : : : : 2 < < < < 2 < < < < < - b b b b v b b b v v ",
"5 5 - 9 , > : : : : : O < < < < 8 Y Y Y Y Y b b v v v g 5 5 , , , ; : : : : @ < < < < 1 < < < < < - v v b v b v v b b b ",
"5 - , 5 , > : : : : : < < < < < 8 Y Y Y Y Y b b b v v g 5 > , , , ; : : : : 2 < < < < 1 . < < < < = b b b v v v v v b b ",
"5 - - - 9 > : : : : ; < < < < < 7 I I I I I x j x x z 6 - - - - , : : : : : % < < < . < < < . . < = b b v v b b b c b b ",
"; ; : : : : : : : ; ; O < < < < , c b b b b & , 5 5 , > : : : : : : : : : : 2 < < < . . O . O O + = x x j x j x x x x x ",
"; : : : : : : : : : : < < < < < - v v v b b & , , , & > : : : : : : : : : : 2 < < < < < = - = - - - & & & & & & & & & & ",
"; : : : : : : : : : ; < < < < < - v b b b v , , , , & > : : : : : : : : : : @ < < < < < - & & & , , , , , , , , , - , , ",
"; : : : : : : : : : : < < < < < - v b b b b , , , , , > : : : : : : : : : : @ < < < < < = & & - , & - , , , , , , , , , ",
"; : : : : : : : : : ; 2 < < < < - v v v v v , , , , 5 > : : : : : : : : : : @ < < < < < - & & - , , , , , , , , , , , , ",
"+ + + 2 O + + + + 2 2 2 @ @ ; 2 * = = = * = - & - & - > : : : : : M M M M M l 6 6 6 5 & @ @ o + @ = , , > , - - > > > : ",
". < < < < < < < . . O : : : : : @ < < < < < - & , - & - : : : : : Y Y Y Y Y C b b b b x O < < < < 2 : : : ; ; < . < < < ",
". < < < < < < < . . < : : : : : @ < < < < < - , , , , > : : : : > Y Y Y Y Y C b b b b x O < < < < 2 : : : : ; O < < < < ",
". < < < < < < < < < < : : : : : @ < < < < . & , , , , > : : : : > Y Y Y Y Y C b b b b x O < < < O 2 : : : : ; . < < < < ",
"O < < < < < < < < < < ; : : : : 2 . < < < < - , , , - > : : : : > Y Y Y Y Y C b b b b x 2 < < < < 2 > : ; : ; . < < < < ",
". < < < < O + @ + + + = > > > e * O < O O O = = = - - 9 e e e e w I I I I I V j x x x h + < O < < @ ; ; ; ; ; + @ @ @ O ",
". < < < < = x x x x x v c x c c g = - , - - . O . . . 8 U U U U I b b b b b g & , , , , ; : ; : ; ; < < < < + h x x x x ",
". < < < < , b b b b v v b b b b @.4.4.2.4.4.2.4.3.1.1 l Y Y Y Y Y b b b b b g , , , , , : : : : : 2 < < < < O x v v v v ",
". < < < < = b b b b b b b v v v #.4.4.4.4.4.4.4.4.2.1 8 Y Y Y Y Y v b b b b g - , , , , > : : : : @ < < < < + j b b v b ",
". < < < < & b b b b b b b b  .$.%.=.=.&.-.=.-.=.=.*.] +.o.Y Y Y Y b b b b b g , , , , > : : : : > 2 < < < < O j b b b b ",
"< < < < . = b b b b b b b b :.4.-.W E E W W W E E &.4.4.O.U Y Y X.b b v b v g , , , 5 , : : : : : 2 + < < < O j b b b b ",
"& 6 & & 6 6 g g 6 g g 6 g 6 ;.<.=.W E A ;.F ` G E W ,.<...} } | | y y N | B B f f f f f d d d : : 2 < < < < . g g 6 g g ",
"x b b b v g , , - 5 - 5 & & ' E W W T > : : . p W W W W H D { 4.4.G D >.4.4.4.4.4.4.4.4.4.4.4.s : + < < < < . - , , , , ",
"x b b b b g , , , , 5 - & & ' R W W T : : : . p W W W W H D { 3.4.G D *.4.4.4.4.4.4.4.4.4.4.4.s : + < < < < . - , , , , ",
"x b v b v g , , , , & - & - T R W W T q ; > X p W W W W H D K W W D D R W &.&.W &.W W W W &.&.q : @ < < < < . - , , , , ",
"x b v v v h , , & - , & - & ' W W W T : > ; . p E E W W H D K W W D D R W W W W W W W W W E E e : 2 < < < < . - , , , , ",
"z x x x x 6 = - = - = , - , Z G P W R ' ' ' _ [ E E H H Q r r u u r r A L H H H H H ) a ~ L L 0 ; + < < < < < - - , - - ",
"> 6 & & & * O < . . . ; : : Z D L E W W E E E E W E D D 4 O . O . ; : ( D D D D D D ! ; 3 D D + . < < < < < O ; : : > ; ",
"= , , , , @ < < . < . ; : : t / F P P P J P P P P L ^ ^ $ . < < O : : t ( ( / / ( ( i ; $ ^ ^ X < < < < < < < ; : : : : ",
", , , , & # < < . . . ; : : : : ~ D D D D D D D D S X . < < < < . : : : : : : : : : : ; < . . . < . < < < < < ; : : : : ",
"= & - , , # < < < < . ; : : : : ~ D D D D D D D D S . . . < < < < : : : : : : : : : : ; . < < < < < < < < < < ; : : : : ",
"- , , - , # < < . . < ; : ; : : : ; ; : : ; < < . . < < < < < . O ; : ; ; : : : : : : ; . < < < < < < < < < < ; : ; : ; ",
"h g h g g & # # o o o + + @ @ + @ + + + @ + , & & & , , & & , , , + + + 2 @ 2 @ + + O O < < < < < + % 2 @ @ @ + 2 @ 2 @ ",
"b b b b b g & - , , - . < < < < < < < < < < x b c c b b b c v v v < < < < < < < < < < < < < < < O 2 : : : : : < O < < < ",
"b v b b v g , , , , - . . < < < < < < < < < x b b b b b b b b b x < < < < < < < < < < < < < < < < 2 > : : : ; . < < < < ",
"b v v b v g , , , , - O < < < < < < < < < < c v b b b b b b b b x < < < < < < < < < < < < < < < < @ : : : : ; 2 < < < < ",
"m v b b v g , , , , - . < < < < . < < . < < x v b b b b b b c v x < . . < < < < < < < < < . < < < 2 : : : : : < < < < < ",
"b x x c c g , , , , - . < < < < . O O O O O j x x x x x x x x j j . . . . . < < < < < < . O . . < ; > : > > > 2 . O . O ",
"5 5 5 5 & & - , , , - . < < < < = j x j j j 5 5 5 5 5 5 5 5 5 5 & - = - - = o < < < . . - - - - = g x x x x x - - - - = ",
", , , , , , , , , , - . < < < < & v b b c c 5 , , , , , , , , , & , , & , , o . < < < . - - , , , g v v b b c & & - - & ",
"5 , , , - & , , , , - O < < < < - v b b b b 5 , , , , , , , 9 5 , , , , , , o < < < . . - , , , , g b b b b x & - & & & ",
"5 , , , , , , , , , - . < < < < - b b b b b , , , , , , , , , - , , , , , - o < < < . . - , , , , g v b b b c 5 & - & - ",
", , , , & - & - , , - O < < < < - b b v v v & , , , , - , , - 5 , , 5 - , - o . < < < O = & & , , g v v v v v & , , , - ",
"- > > - > > > - > = = < < < < < * g g g g g & , , , , - - = > > = = > > - - + . < < < O 6 g g g g g g g g g 6 - > q - > ",
": : : : : : ; > : : : < < < < < o , , , , , - , , , , > : : : : : : : : : : + . < < < O x b b b v g & , 5 - , > : : : : ",
": : : : : : : : : : : 2 < < < < o , , , , , , , , , , - : : : : : : : : : ; X . < < < O x v b v v g , , - - - > : : : : ",
": : : : : : : : : : : < < < < < o , , , , , - & , , - > : : : : : : : : : : + < < < < O c b b b b g 5 - 5 , - > : : : : ",
": > : : : : : : : : ; < < < < < o , , , , , , , , , & > : : : : : ; : : : : % < < < < O x v b v b 6 - 5 9 & - ; : : : : ",
": : : : : ; ; ; : ; ; < < < < < o - , , & - - - - , - > : : : : : ; ; ; ; ; 2 < < < < O j x v x c 6 5 - - - - > : : : : ",
": : : : : 2 . . < < < < < < < < o , , , , , ; > > : : : : : : : : < < . . . . < < < < . & & 5 5 5 9 ; > ; > : ; : : : : ",
": : : : : @ 2 < < < < < < < < < o , , , , , ; : : : : : : : : : : . < < < < < < < < < . - , , - 5 > : : : : : : : : : : ",
": : : : : @ < < < < < < < < < < o - , , , , : : : : : : : : : : : . < < < < < < < < . . - , , , , - : : : : : : : : : : ",
": : : : > @ < < < < < < < < < < o , , , & , : : : : : : : : : : ; < < < < < < < < < < . - & , , , > : : : : : ; : : : : ",
": : : : : 2 < < < < < < < < < < o , , , - , : ; : : : : : : : : ; . < < < < < . < < < . - , , - , > : : : : : > : : : : "
};
