/* XPM */
static char *result[] = {
/* columns rows colors chars-per-pixel */
"60 60 152 2 ",
"   c #4F2748",
".  c #4E2949",
"X  c #512047",
"o  c #5D2146",
"O  c #522748",
"+  c #4C334A",
"@  c #453A4D",
"#  c #4B3E4C",
"$  c #523447",
"%  c #523C46",
"&  c #5B3D45",
"*  c #642045",
"=  c #6B2144",
"-  c #602946",
";  c #712244",
":  c #7A2143",
">  c #732E45",
",  c #722648",
"<  c #702948",
"1  c #7E2848",
"2  c #623047",
"3  c #663C46",
"4  c #6D3E48",
"5  c #783746",
"6  c #743E43",
"7  c #375A54",
"8  c #356155",
"9  c #3E6354",
"0  c #2B765B",
"q  c #297C5C",
"w  c #357557",
"e  c #397C56",
"r  c #4C4349",
"t  c #494F4F",
"y  c #5C4245",
"u  c #534E46",
"i  c #465751",
"p  c #485751",
"a  c #465D52",
"s  c #674444",
"d  c #69494C",
"f  c #47674C",
"g  c #49654C",
"h  c #4B6C4A",
"j  c #546B46",
"k  c #556C4C",
"l  c #5D7945",
"z  c #597A4C",
"x  c #456854",
"c  c #447155",
"v  c #417957",
"b  c #9C223F",
"n  c #AF223D",
"m  c #B7233D",
"M  c #BC233C",
"N  c #C6233B",
"B  c #CB233B",
"V  c #D0243B",
"C  c #D7283D",
"Z  c #DA2A3F",
"A  c #842242",
"S  c #8C2141",
"D  c #922241",
"F  c #9B2240",
"G  c #8F354B",
"H  c #AF2640",
"J  c #A02E49",
"K  c #BE344A",
"L  c #D72E42",
"P  c #DD2C40",
"I  c #C0344A",
"U  c #CE364B",
"Y  c #D5394B",
"T  c #DC3A4B",
"R  c #E53042",
"E  c #EB3445",
"W  c #E23A4C",
"Q  c #EC3C4C",
"!  c #F63B4A",
"~  c #FB3F4C",
"^  c #B84156",
"/  c #FF404D",
"(  c #EC4452",
")  c #FF4652",
"_  c #FF5660",
"`  c #FE5E67",
"'  c #FF6169",
"]  c #FE767B",
"[  c #FF797D",
"{  c #76E53F",
"}  c #3F8D4F",
"|  c #26825E",
" . c #248E5F",
".. c #30855B",
"X. c #3F8659",
"o. c #3E8C5A",
"O. c #2F9D57",
"+. c #26925D",
"@. c #2B965E",
"#. c #2E9A5C",
"$. c #309E57",
"%. c #3D9F55",
"&. c #3C965C",
"*. c #319B5C",
"=. c #3C9D5D",
"-. c #3FB34F",
";. c #34A456",
":. c #3FA550",
">. c #36A954",
",. c #3CAD53",
"<. c #36A25E",
"1. c #3AA65F",
"2. c #3BAA5A",
"3. c #3EB051",
"4. c #228C60",
"5. c #288F64",
"6. c #2A9362",
"7. c #449B4D",
"8. c #559445",
"9. c #539946",
"0. c #448956",
"q. c #428258",
"w. c #42A24E",
"e. c #57AD45",
"r. c #40B34F",
"t. c #45BC4D",
"y. c #53BE46",
"u. c #56BA4F",
"i. c #5ABC4D",
"p. c #45AE5B",
"a. c #4AC34A",
"s. c #4ECC49",
"d. c #53C546",
"f. c #52CE47",
"g. c #59CE46",
"h. c #5FC54A",
"j. c #52CF48",
"k. c #54D346",
"l. c #58D645",
"z. c #57D844",
"x. c #58D945",
"c. c #61C34B",
"v. c #72D348",
"b. c #6DE141",
"n. c #8DED3C",
"m. c #91E13C",
"M. c #97F23C",
"N. c #85E340",
"B. c #FF8487",
"V. c #FFB3AE",
"C. c #FFB5B1",
"Z. c #FFB8B3",
/* pixels */
"a.3.3.3.3.3.,.,.3.,.,.-.,.,.-.3.,.,.+.4.4.4.<.M.M.M.M.{ z.z.x.x.z.3.,.3.,.r.*.+.+. .+.@.1.1.1.1.1.*.4.6.+.4.+.u.n.N.N.N.",
"-.3.3.3.3.3.2.2.1.1.1.1.<.2.1.1.2.<.+.4.4.4.%.M.M.M.M.{ x.x.x.x.x.:.-.3.r.,.6.4.4.4.4.+.1.1.1.1.1.*.4.4.4.4.4.h.M.M.M.M.",
",.3.3.3.3.3.2.1.1.1.1.1.1.1.1.1.1.1.+.4.4.4.%.M.M.M.M.{ x.z.z.x.k.3.r.,.,.r.6.4.4.4.4.6.1.1.1.1.1.6.5.4.4.4.4.c.M.M.M.M.",
"3.3.3.3.3.-.2.1.1.1.1.1.1.1.1.1.1.1.4.4.4.4.%.M.M.M.M.{ x.x.x.x.l.r.,.r.r.,.6. .4.4.4.@.1.1.1.1.1.*.4.4.4.4.4.c.M.M.M.M.",
"3.3.3.3.3.3.2.1.1.1.1.1.1.1.1.1.1.1.4.4.4.4.<.M.M.M.M.b.z.x.z.x.z.3.3.,.3.3.6.4.4.4.4.+.1.1.1.1.1.#.4. .4.4.4.h.M.M.M.M.",
"3.3.3.3.3.,.>.1.1.1.1.1.<.1.1.1.2.p.<.*.*.*.>.b.b.b.b.g.t.t.t.a.t.2.>.2.>.2.6.4.4.4.4.6.<.<.<.<.<.#.+.+.+.@.+.h.n.n.n.n.",
"r.3.3.3.3.2.1.1.1.1.1.4.4.4.4.4.u.M.M.M.M.M.x.x.x.x.z.a.3.3.3.3.,.1.1.1.1.1.@.4.4.4.4.6.4.4.+.4.+.>.s.k.k.k.k.k.x.b.x.x.",
"r.3.3.3.3.2.1.1.1.1.1.4.4.4.4.4.u.M.M.M.M.M.x.x.x.x.z.a.3.3.3.3.,.1.1.1.1.1.@.4.4.4.4.5.4.4.4.4.4.>.z.z.z.x.x.x.x.x.x.z.",
"r.3.3.3.3.2.1.1.1.1.1.4.4.4.4.4.i.M.M.M.M.M.x.x.x.x.x.a.r.r.,.r.,.1.1.1.1.1.@.4.4.4. .5.4.4.4.4.4.>.x.x.z.z.x.x.x.x.z.x.",
"r.3.3.3.3.2.1.1.1.1.1.4.4.4.4.4.i.M.M.M.M.M.x.x.x.x.x.a.r.,.r.,.3.1.1.1.1.1.@.4.4.4.4.5.4.4.4.4.4.,.x.x.z.z.x.x.x.x.x.x.",
"r.,.,.,.3.2.1.1.1.1.1.4.4.4.4.4.u.n.n.n.n.n.k.f.k.k.k.t.,.,.,.,.p.1.1.1.1.1.@. .4.4.4. .4.4. . .4.>.x.x.z.z.z.z.z.k.x.x.",
"1.<.1.1.1.1.1.1.1.1.1.4.4.4.4.4.,.z.x.x.x.x.r.3.r.3.,.2.1.1.1.1.1.1.1.1.1.1.@. .4.4.4. .+.+.+.+.+.,.k.j.f.k.f.k.k.k.k.k.",
"=.<.1.1.1.1.1.1.1.1.1.4.4.4.4.4.,.z.z.x.x.x.r.3.3.3.-.2.1.1.1.1.1.1.1.1.1.1.@.4.4.4.4. .>.,.,.,.3.3.-.-.-.-.-.-.-.-.-.-.",
"<.1.1.1.1.1.1.1.1.1.1.4.4.4.4.4.,.z.x.x.x.x.3.3.3.3.-.2.1.1.1.1.1.1.1.1.1.1.@.4.4.4. . .,.3.-.3.3.3.,.3.3.-.3.3.3.3.3.3.",
"<.1.1.1.1.1.1.1.1.1.1.4.4.4.4.4.,.x.z.x.z.x.3.3.3.3.3.2.1.1.1.1.1.1.1.1.1.1.@.4.4.4.4. .,.3.3.-.3.-.3.3.3.3.3.3.3.3.3.3.",
"<.1.1.1.1.1.1.1.1.1.1.4.4.4.4.4.,.z.z.z.z.z.3.3.3.3.3.2.1.1.1.1.1.1.1.1.1.1.+.4.4.4. . .,.3.3.,.3.,.3.3.3.3.3.3.3.3.3.3.",
"@.@.@.@.@.+.@.@.6.@.#.6.6.<.6.<.;.>.>.>.0.h f f f f -.2.1.1.1.1.2.v.z k k k g } r.t.r.r.O.@.#.@.#.2.,.3.,.3.,.2.2.2.2.2.",
"4.4.4.4.4.4.4.4.4.4.+.<.2.1.1.1.#.4.4.4.7 X X X X   ,.2.1.1.1.1.1.M.& X X X X j k.x.x.k.+.4. .4.4.6.1.1.1.1.<.4.4.4.4.4.",
"4.4.4.4.4.4.4.4.4.4.4.1.1.1.1.1.+.4.| | 7 * o o o o w.%.=.1.1.=.=.m.3 o o o o j g.g.k.k.+.4.4.4.4.#.1.1.1.1.1.4.4.4.4.4.",
"+.4.4.4.4.4.4.4.4.4.4.1.1.1.1.1.#.q + + G W W W W T % + t 1.1.a # y Y W W M m b % % e.k.+.4.4.4.4.#.1.1.1.1.<. .4.4.4.4.",
"4.4.4.4.4.4.4.4.4.4.4.;.1.1.1.1.6.0 X X J / / / ~ ! X   r 1.1.t X X W / ~ V B b X X 9.k.+.4.4.4.4.6.1.1.<.<.<. .4. . .4.",
"+.4.4.4.4.+.@.@.@.@.#.2.2.p.2.0.e 9 1 1 ^ ' ` ' ` ` 1 1 4 0.0.d 1 1 Q / ~ Z P H ; = l 9.0 +. . .4.#.<.<.<.<.<.#.@.@.@.@.",
"4.4.4.4.4.>.k.k.k.k.k.k.k.k.l.$   < / ! ] V.V.V.C.V./ ! Y X O K ! / ~ / ~ ~ ~ E B B : X X 1.<.1.1.#. .4. . .+.s.k.k.k.k.",
"4.4.4.4.4.-.x.x.x.x.x.z.x.x.x.$ X , / / ] Z.Z.Z.C.V./ / Y X X K / / / / / / / E V V : X X 1.1.1.1.#.4.4.4.4.+.k.z.z.z.z.",
"+.4.4.4.4.>.x.x.x.x.x.x.x.x.x.$ X , ~ ~ ] Z.Z.B.[ ] / / Y X X K / / / / / / / E B L : X X 1.1.1.1.6.4.4.4.4.@.k.x.x.x.x.",
"4.4.4. .4.-.x.x.x.x.l.x.x.x.x.$ X , ~ ) ] Z.Z._ / / / / Y X X I / / / / / / / E B B : X X 1.1.1.2.6.4.4.4.4.4.k.x.x.x.x.",
"+.4.4. . .>.x.x.x.x.x.l.x.x.x.$ X , ~ ~ ] C.C._ / / / / T X X I / / / / / ~ ~ E V V : X X 1.1.1.1.#.4.4.4.4.+.k.x.x.z.x.",
"-.-.-.-.t.t.a.a.a.a.t.t.a.t.a.$ X ; P P ( ` ` ) / / / / ! U U Q / / / / ~ P P Z V V : X X 1.1.1.1.6.4.4.4.4.+.t.a.t.a.a.",
"k.x.x.x.z.s.>.-.,.r.,.r.r.r.,.+ X = B V R ~ ~ ) ~ ~ ) ~ ~ ~ ~ ~ / / / / ~ V V V V V : X X 1.1.1.1.@.4.4.4.4.4.,.3.3.3.3.",
"k.z.x.x.z.a.,.-.r.2.r.,.,.,.r.r + 2 M M L ! ! ~ ) ~ ~ ~ ) ~ ~ ) ~ ~ ! ! ! V V N M M < . + 1.1.1.1.#.4.4.4.4.4.,.3.3.3.3.",
"k.x.x.x.z.a.-.-.r.r.r.,.r.,.3.:.%.q.o o D V C ! ~ ~ ~ ~ ~ ~ ~ ~ ~ ~ Z V V V V b o o c =.1.1.1.1.1.#.4.4.4.4.+.,.3.3.3.3.",
"k.x.x.z.z.s.-.2.,.r.,.r.,.r.3.3.2.X.X X S V V ! ~ ~ ) ~ ~ ~ ) ~ ~ ~ C V V V V F X X v 1.1.1.1.1.2.6.4.4.4.4.4.,.3.3.3.3.",
"s.k.k.k.k.a.>.>.,.>.>.,.,.,.,.,.1.&.p p 4 b b L E E E E E E E E E E V V B F F 5 p p o.1.<.<.<.<.<.#.4.4.4.4.+.>.,.,.,.,.",
"3.-.-.-.-.$.4.+.+.4.+.<.2.<.<.2.1.1.1.1.x X X m V V V V V V V V V V V V B X X p 1.1.1.<.4.4.4.4.4.4.4.4.4.4.4.<.1.1.1.1.",
"2.3.3.3.3.$.4.4.4.4.4.2.1.1.1.1.1.1.1.1.x X X m V V V V V V V V B V V V B X X i 1.1.1.<.4.4.4.4.4.4.4.4.4.4.4.<.1.1.1.2.",
"-.3.3.3.-.$.4.4.4.4.4.<.1.1.1.1.1.1.1.1.o.c 8 > A A V V V V V V V V D A A w x X.1.1.1.1.4.4.4.4.4.4.4.4.4.4.+.1.1.1.1.1.",
">.3.3.3.3.$.4.4.4.4.4.<.1.1.1.1.1.1.1.1.1.1. .@ X X V V V V V V V V * X   1.1.1.1.1.1.<.+.4.4.4.4.4.4.4.4.4.4.1.1.1.1.1.",
"2.3.3.3.3.$.4.4. .4. .<.1.1.1.1.1.1.1.1.1.1. .@ O O N N N V V N N N -   . 1.1.1.1.1.1.1.4.4.4.4.4.4.4.4.4.4.4.<.<.1.1.1.",
"s.s.a.a.a.-.$.$.O.O.O.@.#.#.#.6.@.@.@.@.@.@.3.:.7.7.* * : V V S * * w ....#.6.#.6.@.#.@.4.4.4.4.4.@.#.6.#.#.#.@.#.@.@.6.",
"x.x.z.z.x.a.3.3.3.3.,. .4.4.4.4.4.4.4.4.4.4.k.z.x.k.X X ; V V : X X 0  .4.4.+.4.4.4.4.4.4.4.4.4.4.6.2.1.1.1.<.4.4.4.4.4.",
"x.x.x.x.x.a.3.3.3.3.,.+.4.4.4.4.4.4.4.4.4.4.z.z.z.l.u u s n n 6 u @ q 4.4.4.4.4.4.4.4.4.4.4.4.4.4.*.1.1.1.1.1.4.4.4.4. .",
"x.x.z.x.x.a.3.3.3.3.,. .4.4.4.4.4.4.4.4.4.4.k.z.z.z.z.z.e.X X 8.k.4.4.4.4.4.4.4.4.4.4.4.4.4.4.4.4.*.1.1.1.1.1.4.4.4.4. .",
"x.x.x.x.x.a.3.3.3.3.,. .4.4.4.4.4.4.4.4.4.4.k.z.l.x.z.z.e.X X 8.k.4. .4.4.4.4.4.4.4.4.4. . .4.4.4.6.1.1.1.1.1.+.4.4. . .",
"l.x.k.k.k.a.3.3.3.3.,.+.4.4.4.4.+.+.+.+.+.+.k.k.k.k.k.k.d.8.8.y.k. . . . . .4.4.4.4.4. . . . . .+.6.2.2.2.2.1.6. . . . .",
"t.r.r.r.-.-.3.3.,.-.,.4.4.4.4.4.>.j.k.j.f.f.r.r.r.r.r.r.-.-.-.r.-.>.3.>.,.>.O.4.4.4.4. .>.,.,.,.,.a.k.k.k.k.f.3.>.,.,.,.",
"r.r.r.r.3.3.3.3.-.-.,.+.4.4.4.4.3.z.z.z.x.l.r.r.r.,.,.r.3.3.3.3.3.3.3.-.3.3.O. .4.4.4. .,.3.3.,.3.a.z.z.x.z.k.r.3.3.-.,.",
"r.r.,.r.3.3.3.3.3.3.,.4.4.4.4.4.,.z.x.z.x.x.r.2.r.,.r.,.3.3.3.3.3.3.3.3.,.-.O.4.4.4.4. .,.3.3.3.3.a.x.x.x.x.k.r.3.3.3.3.",
"r.,.r.2.3.,.3.3.-.,.,. .4.4.4.4.,.x.x.x.x.x.r.,.r.r.,.r.3.3.3.3.3.3.3.3.-.,.O.4.4.4. . .,.3.3.3.-.a.x.x.z.x.k.-.3.3.3.3.",
"r.,.-.3.,.,.-.3.-.,.,. .4.4.4.4.,.z.z.z.z.z.-.-.r.,.r.:.3.3.,.-.3.3.-.:.3.,.O. .4.4.4. .,.,.-.3.,.a.z.z.z.z.k.-.r.3.3.3.",
":.2.2.2.,.2.>.>.2.2.>. .4.4.4.4.;.a.a.a.a.a.-.,.,.r.r.2.,.2.2.2.>.>.2.2.,.2.@. .4.4.4.+.a.a.a.a.a.a.a.a.a.a.a.,.2.2.2.2.",
"1.1.1.1.1.1.1.1.1.1.1.+.4.4.4.4.O.3.3.3.3.3.,.-.r.,.r.2.1.1.1.1.2.1.1.1.1.1.@. .4.4.4.+.k.z.z.z.z.a.-.3.3.3.3.1.1.1.1.1.",
"1.1.1.1.1.1.1.1.1.1.1.4.4.4.4.4.O.3.3.3.3.3.-.,.,.r.,.>.1.1.1.1.1.1.1.1.1.1.@.4.4.4.4.+.k.z.z.z.x.a.-.3.3.3.3.1.1.1.1.1.",
"1.1.1.1.1.1.1.1.1.1.1.4.4.4.4.4.O.3.3.3.3.3.3.3.3.3.3.,.1.1.1.1.1.1.1.1.1.1.@. .4.4.4.+.k.x.x.x.z.a.3.3.3.3.,.1.1.1.1.1.",
"1.1.1.1.1.1.1.1.1.1.1.4.4.4.4.4.O.3.3.3.3.3.3.3.3.3.3.2.1.1.1.1.1.1.1.1.1.1.@. .4.4.4.+.k.x.x.x.z.a.3.-.3.3.3.1.1.1.1.1.",
"1.1.1.1.1.<.1.=.<.<.<.+.4.4.4.4.O.3.3.3.3.3.,.,.3.,.r.2.1.1.1.1.1.<.<.<.<.<.+.4.4.4. .+.k.k.k.k.k.a.,.,.:.3.,.<.1.1.1.1.",
"1.1.1.1.1.#. . .+.4.4.4.4.4.4.4.O.,.3.3.3.3.1.;.1.1.1.1.1.1.1.1.1.4. . . .4. .4.4.4.4. .-.-.r.-.-.,.1.1.2.<.>.1.1.1.1.1.",
"1.1.1.1.1.6.4.4.4.4.4.4.4.4.4.4.O.3.3.3.3.3.<.1.1.1.1.1.1.1.1.1.1.4. .4.4.4.4.4.4.4.4. .,.-.,.-.-.,.1.1.1.1.1.1.1.1.1.1.",
"1.1.1.1.1.<.4.4.4.4.4.4.4.4.4.4.O.,.3.3.3.3.1.1.1.1.1.1.1.1.1.1.<. .4.4.4.4.4.4.4.4.4. .,.,.-.,.3.2.1.1.1.1.1.1.1.1.1.1.",
"1.1.1.1.1.6.4.4.4.4.4.4.4.4.4.4.O.r.,.-.3.3.1.1.1.1.1.1.1.1.1.1.<.4.4.4.4.4.4. .4.4.4. .,.-.3.3.3.2.1.1.1.1.1.1.1.1.1.1.",
"1.1.1.1.2.6.4.4.4.4.4.4.4.4.4.4.O.,.-.,.3.,.1.1.1.1.1.1.1.1.1.1.<.4.4.4.4.4.4. .4.4. . .,.3.3.,.3.2.1.1.1.1.1.1.1.1.1.1."
};
