/* XPM */
static char *result[] = {
/* columns rows colors chars-per-pixel */
"60 60 203 2 ",
"   c black",
".  c #1B0404",
"X  c #450B09",
"o  c #550D0C",
"O  c #68100E",
"+  c #70110F",
"@  c #721210",
"#  c #642C1F",
"$  c #67301D",
"%  c #69321C",
"&  c #6D391A",
"*  c #6B3E2C",
"=  c #52422F",
"-  c #5C4C2F",
";  c #584C31",
":  c #6A4B2D",
">  c #586E36",
",  c #527137",
"<  c #686025",
"1  c #666F29",
"2  c #3B5D55",
"3  c #35784E",
"4  c #327450",
"5  c #2D5F7C",
"6  c #3C6560",
"7  c #2D677D",
"8  c #387279",
"9  c #455444",
"0  c #454557",
"q  c #436953",
"w  c #746A42",
"e  c #707E56",
"r  c #735E61",
"t  c #526E70",
"y  c #6A6C73",
"u  c #68797C",
"i  c #A83324",
"p  c #885231",
"a  c #B24A31",
"s  c #BD4E3E",
"d  c #C5442F",
"f  c #C34A2F",
"g  c #C05C2D",
"h  c #A44D43",
"j  c #8B6741",
"k  c #CA7A46",
"l  c #D97346",
"z  c #FB6644",
"x  c #FC6D45",
"c  c #F46A48",
"v  c #FD7347",
"b  c #F77D42",
"n  c #F87A42",
"m  c #FD7B4A",
"M  c #F27457",
"N  c #5DB13A",
"B  c #76E53F",
"V  c #2A8158",
"C  c #248E5F",
"Z  c #38885D",
"A  c #2F9D57",
"S  c #26925D",
"D  c #2B965E",
"F  c #2E9A5C",
"G  c #3E9757",
"H  c #31995B",
"J  c #3FB34F",
"K  c #35A257",
"L  c #3CAD52",
"P  c #37A25E",
"I  c #3AA65F",
"U  c #3CAB5A",
"Y  c #3EB051",
"T  c #3AB058",
"R  c #1D8D70",
"E  c #228C60",
"W  c #288F64",
"Q  c #388D65",
"!  c #299164",
"~  c #34A368",
"^  c #2FB16D",
"/  c #2AA37A",
"(  c #45884F",
")  c #489044",
"_  c #5E8F57",
"`  c #729B4D",
"'  c #689A56",
"]  c #57A74F",
"[  c #40B34F",
"{  c #45BC4C",
"}  c #44A956",
"|  c #6BA559",
" . c #54926C",
".. c #6C9572",
"X. c #59A667",
"o. c #65A767",
"O. c #4AC34A",
"+. c #4ECC49",
"@. c #51CF47",
"#. c #57CB49",
"$. c #54D346",
"%. c #59D745",
"&. c #57D844",
"*. c #58D945",
"=. c #4BCE57",
"-. c #6ACB47",
";. c #77CA57",
":. c #F29B3F",
">. c #EEB33E",
",. c #ACDC3F",
"<. c #96EC3C",
"1. c #97F23C",
"2. c #98F03B",
"3. c #A5E33E",
"4. c #ECC63D",
"5. c #EBCD3D",
"6. c #F0CF3F",
"7. c #EED03E",
"8. c #8F954A",
"9. c #B48248",
"0. c #8DB444",
"q. c #B4B15D",
"w. c #A89B76",
"e. c #B49879",
"r. c #CF9147",
"t. c #EC8E4B",
"y. c #F88442",
"u. c #FF854C",
"i. c #FC8C4B",
"p. c #FE984A",
"a. c #F48759",
"s. c #F4885C",
"d. c #FD9753",
"f. c #FF9D54",
"g. c #D0A946",
"h. c #FCAC4F",
"j. c #E58270",
"k. c #9ED541",
"l. c #99C365",
"z. c #FFCC49",
"x. c #FEDD44",
"c. c #FFE146",
"v. c #FAE658",
"b. c #FFD868",
"n. c #FEE96E",
"m. c #FFEF70",
"M. c #F2F374",
"N. c #FEF572",
"B. c #97748C",
"V. c #CA7998",
"C. c #158F84",
"Z. c #259F83",
"A. c #1BB597",
"S. c #1AB398",
"D. c #0B92A8",
"F. c #0293BF",
"G. c #089AB8",
"H. c #0EB3B0",
"J. c #5EAF9A",
"K. c #65B2AF",
"L. c #31C38E",
"P. c #14CEA7",
"I. c #24D1B9",
"U. c #3CD5B1",
"Y. c #42D6AF",
"T. c #0093C4",
"R. c #0992C1",
"E. c #019BC5",
"W. c #00A1C6",
"Q. c #00ACC9",
"!. c #02B6C5",
"~. c #00BEC3",
"^. c #00B6CC",
"/. c #00BACA",
"(. c #01C3C7",
"). c #00CBC5",
"_. c #09CDC1",
"`. c #00C2C8",
"'. c #979794",
"]. c #A68B87",
"[. c #B19385",
"{. c #BDA284",
"}. c #8B9EA6",
"|. c #ADABA2",
" X c #ABB1A0",
".X c #DC8E83",
"XX c #CB9485",
"oX c #D59787",
"OX c #DB9186",
"+X c #D88795",
"@X c #EE8A85",
"#X c #FA8787",
"$X c #E89C8B",
"%X c #F5978C",
"&X c #F39D8E",
"*X c #C4A186",
"=X c #D2B794",
"-X c #E6A58F",
";X c #EBA18E",
":X c #F2BD8A",
">X c #EFA591",
",X c #F2A792",
"<X c #83E09A",
/* pixels */
"@ @ @ @ @ @ @ @ @ @ @ @ @ @ @ @ @ @ @ @ @ @ @ @ @ @ @ @ @ @ @ @ @ @ @ @ @ @ @ @ @ @ @ @ @ @ @ @ @ @ @ @ @ @ @ @ @ @ @ @ ",
"@ @ @ @ @ @ @ @ @ @ @ @ @ @ @ @ @ @ @ @ @ + @ @ @ @ @ @ @ @ @ @ @ @ @ @ @ @ @ @ @ @ @ @ @ @ @ @ @ @ @ @ @ @ @ @ @ @ @ @ ",
"@ @ @ @ @ @ @ @ @ @ @ @ @ @ @ @ @ @ @ @ + + + + @ @ @ @ @ @ @ @ @ @ @ @ @ @ @ @ @ + @ @ @ @ @ @ @ @ @ @ + + @ @ @ @ @ @ ",
"@ @ @ Y Y Y @ @ @ I I I I I I I @ @ @ E C C K 2.2.2.1.B *.*.*.*.&.Y Y Y , @ @ = E C C S I I I ( @ @ # E E E E -.1.@ @ @ ",
"@ @ @ Y Y Y @ @ @ I I I I I I I @ @ @ E E E K 3.3.3.<.k.-.-.-.-.-.] ] ] > @ @ = E E C S I I I ( @ @ # E E E E -.1.@ @ @ ",
"@ @ @ Y Y L @ @ @ I I I P I P P @ @ @ H H H K q.u.u.u.u.i.u.i.i.u.v z c p @ @ = E E C ! P P P ( @ @ # S C S C #.1.@ @ @ ",
"@ @ @ Y L L @ @ @ I I E E E E E @ @ @ 1.1.2.%.g.u.u.m u.u.u.u.u.u.n x c p + @ = E E E W E C E 3 @ @ & @.@.@.+.%.*.@ @ @ ",
"@ @ @ Y Y U @ @ @ I I E E E E E @ @ @ 1.,.g.r.d.u.i.z.6.p.x x x x x x x a @ @ = E E E W E E E 4 @ @ & *.*.*.%.%.&.@ @ @ ",
"@ @ @ L L U @ @ @ I I C E E E E @ @ @ 2.,.i.u.u.u.p.x.x.p.x x x z z z z d + @ = E C C W E E E 4 @ @ & %.*.*.*.*.*.@ @ @ ",
"@ @ @ [ Y U @ @ @ I I C E E E E @ @ @ ,.g.u.u.u.n u.x.v.h.y.b x z z z z d + @ * e Z C W E E E 4 @ @ & *.*.*.*.*.*.@ @ @ ",
"@ @ @ L L U @ @ @ I P C E E E E @ @ @ u.d.y.u.v z m n.N.v.5.4.n z z z z d @ @ i c e E C E E E 4 @ @ & *.&.&.*.%.*.@ @ @ ",
"@ @ @ I I I @ @ @ I I C E E E E @ @ + u.u.u.u.v z m n.N.v.5.4.n z z z z d + @ i c e E C S S S 3 @ @ & @.@.@.$.$.$.@ @ @ ",
"@ @ @ I I I @ @ @ I I E E E E E @ @ @ u.d.b.b.d.z n n.N.v.5.4.n z y.>.>.g @ @ i z e V E L L L ) @ @ % J J J [ Y J @ @ @ ",
"@ @ @ I I I @ @ @ I I C E E E E @ @ @ u.f.m.N.f.z y.n.N.v.4.4.n z y.5.5.a @ @ i c e E E L Y L ) @ @ % Y [ L [ L L @ @ @ ",
"@ @ @ I I I @ @ @ I I C E E E E @ @ @ u.f.N.N.h.y.p.m.N.v.7.5.t.y.:.7.7.g @ @ i z e E E L Y Y ) @ @ $ Y L [ L [ J @ @ @ ",
"@ @ @ I I I @ @ @ I P E E E E E @ @ @ u.f.N.N.v.x.c.N.N.v.c.6.5.5.5.7.7.g @ O i z e E E L Y Y ) @ @ % L [ L [ L L @ @ @ ",
"@ @ + D D D @ @ @ D ! F F F H ~ @ @ @ u.f.N.N.v.c.c.N.N.v.x.x.6.z.5.5.4.a @ @ i x 8.J J A F F 3 @ @ % U Y L L U U @ @ @ ",
"@ @ @ E E E @ @ @ E S P I I I I @ @ @ u.i.d.f.d.p.p.f.f.p.y.y.b b b y.b a @ @ i x 0.&.&.C E C 4 @ @ $ I I I P C C @ @ @ ",
"@ @ @ E E E @ @ @ E E P I I I I @ @ @ m u.u.u.u.i.u.u.u.v z z z z z z z f @ @ i z 0.&.&.S C E 4 @ @ $ I I I P C E @ @ @ ",
"@ @ + E E E @ @ @ E W I I I I I @ @ @ u.u.s.s.s.s.s.s.s.M M M M M c z z f @ @ i r.-.&.$.C E E 4 @ @ $ I I I P C E @ @ @ ",
"@ @ @ E E E + + @ C C P I I I I @ @ @ u.a.j.OXOXOXOXOXOXOXOX.XOXj.j.c z d @ + < #.%.&.@.S C C 4 @ @ $ I P I P C E @ @ @ ",
"@ @ @ E E S + + @ D D U } U T T @ @ @ u.s.oXOXOXOXOXOXOXOXOXOXOXOXj.x z d @ + < $.$.$.@.S C C 3 @ @ $ P P P P D D @ @ @ ",
"@ @ @ E C T @ @ @ $.$.$.$.$.$.$.@ @ @ | ' u u [.;X;X;X;X].u u oX;X$Xj.j.f @ + - [ 8.k 9.I I P ( @ @ # E C C S +.$.@ @ @ ",
"@ @ @ E C Y @ @ @ *.*.*.*.*.*.&.@ @ @ L I 8 8 ].,X,X,X,X'.8 8 oX,X;XOXOXs @ + : } k z l K I I ( @ @ # E E E S $.*.@ @ @ ",
"@ @ @ E E Y @ @ @ 1 1 1 1 1 1 1 @ @ @ Y } u u [.,X,X,X,X[.u u $X&X$X.X.Xh i + * ` k z l I I I ( @ @ # E E E E +.*.@ @ @ ",
"@ @ @ E E T @ @ @ @ @ @ @ @ @ @ @ @ @ L o.#X#X%X,X,X,X,X%X#X#X#X#X@XOX.Xi O + i z z z l I I I ( @ @ # E E E S @.*.@ @ @ ",
"@ @ @ E E T @ @ @ @ @ @ @ @ @ @ @ @ @ L o.#X#X%X,X,X,X,X%X#X#X#X#X@XOXoXh O O i z z z l I I I ( @ @ # E E E W $.$.@ @ @ ",
"@ @ @ J J O.@ @ @ @ @ @ @ @ @ @ @ @ @ L o.$X&X+XV.V.,X,X,X&X&X%X,X$XOXoXj i + * ' ' ' ] I I I ( @ @ # E E E S { O.@ @ @ ",
"@ @ @ *.&.O.+ + @ @ @ o . o @ @ @ @ @ I o.>X>X+XV.V.>X,X,X,X,X,X,X-XOXj.w @ @ - I I I I I I I ( @ + # E E E C K Y @ @ @ ",
"@ @ @ *.&.O.@ @ @ @ @ X   X @ @ @ @ @ I X.{.{.].B.B.$X$X;X;X&X>X-XoXe.w.w @ @ - I I I I I I I ( @ O # E E E S J Y @ @ @ ",
"@ @ @ *.&.O.@ @ @ @ + O   o @ @ @ @ @ I I I E E E Q XX.XOXOXOXOXOXw.Y } , @ @ - I I I I I I I ( @ @ # E E E E L Y @ @ @ ",
"@ @ + *.*.+.@ @ @ @ @ o   o @ @ @ @ @ I P P E E E Q XXOXOXOXOXOXOXw.Y [ , @ @ - I I I I I I I ( @ @ # E E E E L Y @ @ @ ",
"@ @ @ $.$.O.+ @ @ @ @ X   X @ @ @ @ @ H.H.D.D.J.XXXX;X;X>X>X>X$X>XoXe.e.t @ @ 0 D./ I I P P P ( @ @ # E E E W L L @ @ @ ",
"@ @ @ Y Y K + @ @ @ @ + + + @ @ @ @ @ ^.Q.T.T.}.&X,X,X,X,X,X,X,X,X$XOXXXy @ @ 0 R.Z.I P C C C 4 @ @ # E E E E H I @ @ @ ",
"@ @ @ Y Y A @ @ @ @ @ @ @ @ @ @ @ @ @ ^.^.E.E.K. X X:X:X=X X X|.|.|.'.}.t @ @ 0 R.Z.I I C E C 4 @ @ # E E E E P I @ @ @ ",
"@ @ @ Y Y A @ @ @ @ @ @ @ @ @ @ @ @ @ /.^.^.^.`.).I.M.N.<X_.)./.^.^.^.^.7 @ @ 0 T.Z.I P C E C 4 @ @ # E E E E P I @ @ @ ",
"@ @ @ Y Y A @ @ @ @ @ @ @ @ @ @ @ @ @ /.^.^.^._.).I.M.M.K._.).^.^.^.^.^.7 @ @ 0 R.Z.I P C E E 4 @ @ # E E E C P I @ @ @ ",
"@ @ + Y Y A @ @ @ V V G G G G G @ @ @ / J.|.|.Y.)._.U.Y.I._.)./.^.Q.W.R.y @ @ ; / ~ I P E E E 4 @ @ # E C C C I I @ @ @ ",
"@ @ @ +.O.Y @ @ @ A A D D F ! F @ @ + D _ -X,XK.).).).)._.).).^.^.^.T.R.r @ @ = D D S S E E E 4 @ @ # F D F F ! D @ @ @ ",
"@ @ @ *.&.O.@ @ @ Y T S E E E E @ @ @ E  .-X,XJ.P.P.(.(.).P.`.^.Q.G.D.D.r @ @ *  .Q E E E E E 4 @ @ $ I I I I C E @ @ @ ",
"@ @ @ *.*.O.@ @ @ Y L S E E E E @ @ @ E  .-X,Xl.*.=.G.T.T.T.T.T.F.D.E E 9 @ @ h >X..E E E E E 4 @ @ # I I I P E C @ @ @ ",
"@ @ @ *.*.O.@ @ @ Y L C E E E E @ @ @ C  .-X,Xl.*.=.G.T.T.T.T.T.F.D.E E 9 @ @ h >X..E E E E E 4 @ @ $ I I I I C E @ @ @ ",
"@ @ @ *.*.O.@ @ @ Y L C E E E E @ @ + *X[. .;.L.H.P.~.`.^.Q.Q.T.T.F.D.D.2 + @ h >X..C E E C E 4 @ @ $ I I I ~ E E @ @ @ ",
"@ @ @ $.$.O.@ @ @ Y L S E E E E @ @ + >X{.D @.L.^.^.).).`.^.^.E.T.T.E.F.2 @ @ h >X..E C C C S 4 @ @ $ U U U U ! C @ @ @ ",
"@ @ @ [ J Y @ @ + J L E E E E E @ @ @ =Xq.%.[ A.^.^.).).`.^.^.E.T.T.T.F.q @ @ h -X..E E K L L ) @ @ & $.%.$.@.J L @ @ @ ",
"@ @ @ Y Y Y @ @ + J L S E E E E @ @ @ *.*.*.T S.^.^.).).`.^.^.E.T.T.T.F.q @ @ h >X..E S L J L ) @ @ & *.*.*.$.[ L @ @ @ ",
"@ @ @ Y Y Y @ @ + Y L E E E E E @ @ @ *.*.*.[ S.^./.).).`.^.^.E.T.T.T.F.q @ @ h >X..E C L J J ) @ @ & *.*.*.$.[ J @ @ @ ",
"@ @ @ Y Y Y @ @ @ Y L C E E E E @ @ @ *.*.*.T S.^.^.).)./.^.^.E.T.T.T.F.q @ @ :  .Q E C L L L ) @ @ & *.*.*.$.[ L @ @ @ ",
"@ @ @ Y Y L @ @ @ Y L C E E E E @ @ @ &.&.&.Y S.^./.).).`.^.^.E.T.T.T.T.q @ @ = E E E E L Y L ) + + & &.&.&.$.[ L @ @ @ ",
"@ @ @ U L U @ @ @ U L E E E E E @ @ @ O.O.O.Y S.^./.).).`.^.^.W.E.T.T.T.6 @ @ = E E E S O.O.O.] + + % O.O.O.{ L } @ @ @ ",
"@ @ @ I I I @ @ @ I I E E E E E @ @ @ Y Y Y Y S.^./.).).`.^.^.^.^.Q.T.T.5 @ @ = E E E S $.&.&.N + @ % Y L [ [ I I @ @ @ ",
"@ @ @ I I I @ @ @ I I E E E E E @ @ @ L Y Y Y S.^.^.).).`.^.^./.^.Q.T.T.5 @ @ = E E E S $.&.&.N @ @ % [ [ Y Y I I @ @ @ ",
"@ @ @ I I I @ @ @ I I S E E E E @ @ @ L Y Y L S.^./.).).`.^.^.^.^.Q.T.T.5 @ @ = E E E S $.&.&.N @ @ $ [ L [ L I I @ @ @ ",
"@ @ @ I I I @ @ @ I P E E E E E @ @ @ Y Y Y L S.^.^.).).`.^.^.^.^.Q.T.T.5 @ @ = E E E S $.&.&.N @ @ $ [ [ L L I I @ @ @ ",
"@ @ @ I I P @ @ @ P P C E E E E @ @ @ Y T ^ ^ S./.`.).).`.`././.^.Q.E.E.5 @ @ = R R E S @.$.&.N @ @ $ L L [ L I I @ @ @ ",
"@ @ @ I I F @ @ @ E C E E E E E @ @ @ Y ^ !.^.`.).).).).).).)./.^.^.^.^.7 @ @ 0 T.C.E S J J [ ) @ @ $ I K I K I I @ @ @ ",
"@ @ @ I I ! @ @ @ S E E E E E E @ @ @ J ^ !.^.(.).).).).).).)./.^.^.^.^.7 @ @ 0 T.C.W E L T Y ) @ @ # I I I I I I @ @ @ ",
"@ @ @ @ @ @ @ @ @ @ @ @ @ @ @ @ @ @ @ @ @ @ @ @ @ @ @ @ @ @ @ @ @ @ @ @ @ @ @ @ @ @ @ @ @ @ @ @ @ @ @ @ @ @ @ @ @ @ @ @ ",
"@ @ @ @ @ @ @ @ @ @ @ @ @ @ @ @ @ @ @ @ @ @ @ @ @ @ @ @ @ @ @ @ @ @ @ @ @ @ @ @ @ @ @ @ @ @ @ @ @ @ @ @ @ @ @ @ @ @ @ @ ",
"@ @ @ @ @ @ @ @ @ @ @ @ @ @ @ @ @ @ @ @ @ @ @ @ @ @ @ @ @ @ @ @ @ @ @ @ @ @ @ @ @ @ @ @ @ @ @ @ @ @ @ @ @ @ @ @ @ @ @ @ "
};
