/* XPM */
static char *result[] = {
/* columns rows colors chars-per-pixel */
"60 60 154 2 ",
"   c #1D304B",
".  c #1D394C",
"X  c #1F3451",
"o  c #1F3B52",
"O  c #25364C",
"+  c #28394D",
"@  c #313D4A",
"#  c #213654",
"$  c #223956",
"%  c #233A5A",
"&  c #283E5C",
"*  c #263F62",
"=  c #1E444F",
"-  c #21434D",
";  c #244E4F",
":  c #264954",
">  c #234459",
",  c #2E425D",
"<  c #264B59",
"1  c #334253",
"2  c #3A4A5E",
"3  c #255856",
"4  c #2D6E4D",
"5  c #38714C",
"6  c #206355",
"7  c #2B6556",
"8  c #206F59",
"9  c #2F7353",
"0  c #217F5C",
"q  c #3A7F56",
"w  c #274164",
"e  c #284266",
"r  c #2A456B",
"t  c #2E5863",
"y  c #315C6F",
"u  c #2C4770",
"i  c #2D4A74",
"p  c #2F4D79",
"a  c #344F75",
"s  c #304E7A",
"d  c #31517E",
"f  c #366471",
"g  c #59524C",
"h  c #554F50",
"j  c #715A47",
"k  c #796D44",
"l  c #7A7246",
"z  c #71735B",
"x  c #4B5865",
"c  c #5B676D",
"v  c #6E6F6C",
"b  c #786E6F",
"n  c #8A7241",
"m  c #817F63",
"M  c #76E53F",
"N  c #348E4F",
"B  c #3B964F",
"V  c #21845E",
"C  c #248E5F",
"Z  c #348453",
"A  c #348C5A",
"S  c #2F9D57",
"D  c #26925D",
"F  c #2B965E",
"G  c #2D995D",
"H  c #359155",
"J  c #309E57",
"K  c #319B5C",
"L  c #3DA94F",
"P  c #3FB34F",
"I  c #34A456",
"U  c #36A954",
"Y  c #3BAD53",
"T  c #36A25E",
"R  c #3AA65F",
"E  c #3BAA5A",
"W  c #3EB051",
"Q  c #228C60",
"!  c #288F64",
"~  c #368A63",
"^  c #2A9362",
"/  c #4F8545",
"(  c #40884E",
")  c #52894D",
"_  c #40B34F",
"`  c #45BC4D",
"'  c #4FBF48",
"]  c #56BA4F",
"[  c #5ABC4D",
"{  c #43AE58",
"}  c #47B159",
"|  c #4AC34A",
" . c #4FCC49",
".. c #50C247",
"X. c #51CE47",
"o. c #59CE46",
"O. c #5CC54B",
"+. c #52CF48",
"@. c #54D346",
"#. c #59D645",
"$. c #57D844",
"%. c #58D945",
"&. c #61C34B",
"*. c #6DDE41",
"=. c #72D349",
"-. c #6DE141",
";. c #75E440",
":. c #A6823F",
">. c #D6883B",
",. c #D09B3B",
"<. c #F19B3D",
"1. c #FC9B38",
"2. c #F2AD3C",
"3. c #FFAA38",
"4. c #E1B43F",
"5. c #FDB638",
"6. c #FFB938",
"7. c #8DED3D",
"8. c #97F23C",
"9. c #FFC43C",
"0. c #9B8953",
"q. c #B98B47",
"w. c #9A9771",
"e. c #ADA67B",
"r. c #DAA747",
"t. c #CFB045",
"y. c #DEBE4E",
"u. c #C7B25A",
"i. c #85E340",
"p. c #FFD242",
"a. c #FFD652",
"s. c #FFDB66",
"d. c #FFE077",
"f. c #335383",
"g. c #36578A",
"h. c #37598C",
"j. c #395D93",
"k. c #3B6097",
"l. c #3D629B",
"z. c #40649C",
"x. c #617790",
"c. c #8D938B",
"v. c #9C9C83",
"b. c #808E98",
"n. c #AAAA95",
"m. c #AEB5AD",
"M. c #FFE485",
"N. c #FFE998",
"B. c #D7D3B0",
"V. c #FCEAA9",
"C. c #FAEEBA",
"Z. c #FDF0B7",
"A. c #F6EFC6",
"S. c #FFF7CB",
/* pixels */
"| W W W W W Y Y W W W W W Y W W W U D C Q Q B 8.8.8.8.;.%.%.%.%.@.P W W W W G D D D C F R R R R R K ^ D D C C O.7.7.*.i.",
"P W W W W W E E R R T R R E R R R E D C Q Q K 8.8.8.8.;.%.%.%.%.$.Y W W W W ^ Q Q Q Q F R R R R R ^ Q Q C Q Q O.8.8.8.8.",
"Y W W W W W E R R R R R T R R R R T D Q Q Q J 8.8.8.8.;.%.%.%.%.$.P W W W W ^ C Q Q Q D R R R R R ^ Q Q Q Q Q O.8.8.8.8.",
"W W W W W P E R R R R R R R R R R R Q Q Q Q { 8.8.8.8.;.%.%.%.%.@.P W W W W ^ C Q Q Q ^ R R R R R T Q Q Q Q Q &.8.8.8.8.",
"W W W W W W E R R R R R R R R R R R ! C C Q J 8.8.8.8.;.%.%.%.%.$.W W L W L ^ Q Q Q Q F T R T R R G Q C Q Q Q &.8.8.8.8.",
"W W W W W Y U R R R R T T T R T R } T K K G I M *.-.;.o.` | ` ` ` E E E E E ^ Q Q Q Q ^ T I T T T G D F D D F &.7.7.7.7.",
"_ W W W W E R R R R T ! Q Q Q Q ] 8.8.8.8.8.%.%.$.$.%.| _ Y _ Y W T R R T R F Q Q Q Q ! Q Q ! D D U @. .X.X. .$.*.%.%.%.",
"_ W W W W E R R R R R Q Q Q Q Q ] 8.8.8.8.8.%.%.%.%.%.| Y _ Y _ W R R R R R G Q Q Q Q ! Q Q Q Q Q U %.$.%.%.%.%.%.%.%.$.",
"_ W W W W E R R R R R Q Q Q Q Q [ 8.8.8.8.8.%.#.%.$.%.| P W W W W R R R R R G Q Q Q Q ! Q Q Q Q Q U %.%.%.%.%.%.%.%.%.%.",
"_ W W W W E R R R R R C Q Q Q Q [ 8.8.8.8.8.%.%.%.%.%.| W W W W Y R R R R R G Q Q Q Q ! Q Q Q C Q Y $.%.%.%.%.%.%.%.%.%.",
"_ Y Y Y Y E R R R R R Q Q Q Q Q ] 7.7.7.7.7.@.@.@.@.@.` W Y Y Y Y R R R R R ^ Q Q Q C ! Q Q C C Q Y %.%.$.$.$.$.$.$.%.%.",
"R T R R R R R R R R R C Q Q Q Q Y #.%.%.%.%.P P W W W E R T R R R R R R R R G Q Q Q C C C D D D D U @.@.X.X.@.@.X.@.@.X.",
"K R R R R R R R R R T C Q Q Q Q Y %.%.%.%.%.P W W W W E R R R R R R R R R R G Q Q Q Q C U Y Y Y Y W P P P P P P P P P P ",
"R R R R R R R R R R R ! Q Q Q Q Y %.%.%.$.%.P Y W W W Y R R R R R R R R R R F Q Q Q Q C Y P P W W W W W W W W W W P W W ",
"R R R R R R R R R R R Q Q Q Q Q U $.%.%.$.%.W W W W W E R R R R R R R R R R F Q Q Q Q C U P W W W L W W W W W W W W W W ",
"T R R R R R R R R R T Q Q Q Q Q W $.$.$.$.%.W W W W W E R R R R R R R R R R F Q Q Q Q C U W W P Y P W W W W W W W W W W ",
"F ^ ^ D F D F ^ F ^ G ^ G G T ^ I U U U U U P W W W Y E E R R R R =.=.=.=.=.O.` _ ` ` W S G S F G U W E W W W E E E E R ",
"D C C Q C Q Q Q C C D T R R R R G Q Q Q Q Q U P W W P U R R R R E 8.8.8.8.8.;.%.%.%.%.@.Q C Q Q Q ^ R R R R R Q C Q Q Q ",
"C Q Q Q C Q Q Q Q Q C T R R R R G Q Q Q Q Q L W W W W E R R R R R 8.8.8.8.8.;.%.%.%.%.+.D C Q Q Q ^ R R R R T Q Q Q Q Q ",
"C Q Q Q Q Q Q Q Q Q ! R R R R R ^ Q Q Q Q Q L W W W W E R R R R R 8.8.8.8.8.;.%.%.%.%.@.Q Q Q Q Q G R R R R T Q Q Q Q Q ",
"D Q Q Q C Q Q C Q Q Q I R R R R G Q Q Q Q Q W W W W W E R R R R { 8.8.8.8.8.;.%.%.%.%.@.D Q C Q Q ^ R R T R T C Q C Q Q ",
"C Q Q Q C D F F F F G E E R } E I D D Q D D U U U L U { } } } } } 7.7.7.7.7.*.@.+.@.@.+.F Q Q ! F G T I T I T F F F F F ",
"C Q Q Q Q U @.@.@.@.@.@.@.$.@.@.| W U W U W D Q C C 6 5 / ) ) ) ) ( %.%.%.*.| _ W W W W I T R R R G Q Q Q D D  .@.@.@.@.",
"C Q Q Q Q W %.%.%.$.$.$.%.%.%.%.| W W W W W Q V 0 0 o #   % * * & e ....| @.` _ W W W W R R R R R ^ Q Q Q Q D @.$.$.$.$.",
"C Q Q Q Q P $.$.%.%.%.%.%.%.$.%.| W W W W W 0 .     i p p p f.l.l.l.% & % | ` _ W W W Y R R E R R ^ Q Q Q Q ^ @.%.%.%.%.",
"C Q Q Q Q U $.$.%.$.%.%.%.%.%.%.| W W P W N 3 * & & * * * i s g.h.h.p s s q B _ W W W W R R R R E G Q Q Q Q F @.%.%.%.%.",
"C Q Q Q C U $.$.$.$.$.$.%.%.%.$. .Y Y Y Y 4 X i p p X     r p p p p l.l.k.e 7 _ W W P W R R R R R G Q Q Q C D @.%.%.$.$.",
"P P P ` ` ` | | | ` ' ' | ` | | _ E U H . w u X                 r p p p d j.d > A E E E R R R R R ^ Q Q Q C D P ` | | | ",
"@.%.%.%.$.| W W W W W W W W W W E R R A   % *                   % r r r r h.f.* ~ R R R R R R R E ^ Q Q Q Q C Y W W W W ",
"@.$.%.%.%.| W W W W W W W W W W Y R R A                                   u p p ~ R R R R R R R R F Q Q Q Q D U W W W W ",
"@.%.$.%.$. .W W W W W W W W W W Y R 7 ;     X X X X X % r r *             X * f.t 7 R R R R R R R ^ Q Q Q Q Q Y W W W W ",
"@.%.$.$.$.| W W W W W W W W W W E R -       X X % X o * b.a u X   O       X o f.e > R R R R R R R G Q Q Q Q D Y W W W W ",
"+.@.@.@.@.` U U U U U W Y Y Y Y E R -               % % e.z > p 0.l         % s * > R R K R K R T ^ C Q Q Q C U W W U W ",
"E ` P W W I D D D ^ D T U R R R R R -   X X X         # w.9.q.o g >.j X 1 O X % % > R R D ! Q Q Q Q Q Q Q Q C T R R R R ",
"E W W W W S Q Q Q Q C T R R R R R R =   % % X     x 1 # B.a.5.@ :.1.<.h t.+     # > R K C Q Q Q Q Q Q Q Q Q C T R R R R ",
"Y W W W W J Q Q Q Q C T R R R R R R -             v.m O c.M.9.q.,.3.1.>.2.l     # > R R C Q Q Q Q Q Q Q Q Q C T R R R R ",
"Y P W W W S Q Q Q Q C T R R R R R R : X   X % r e z y.n.c Z.p.6.5.5.1.1.<.m %   # > R T C Q Q Q C Q Q Q Q Q C T R R R R ",
"Y W W Y W S Q Q Q C Q I R R R R R R < o   * p l.z.u.p.V.A.S.s.6.5.5.q.b z.z.s   # & R R C Q Q Q C C C C C C Q E R R R T ",
" .| |  .| P J J S S S G G ^ ^ G ^ G > %   e p , v w.p.d.S.S.N.4.n @ p r % j.s     . F F Q Q Q Q C Q G G ^ G ^ ^ G G ^ G ",
"%.$.$.$.$.| W W W W Y Q C Q C C Q Q > X   * i % r.r.p.a.C.m.x.    O p r # g.i     . Q Q Q Q Q Q ! ^ E R R R T C Q Q Q Q ",
"%.%.%.%.%.| W W W W Y C C Q Q Q Q Q > %   * p p n 5.t.k O u u       p p p p e     . Q Q Q Q Q Q Q ^ E R R R T C Q Q Q Q ",
"%.%.$.%.%.| W W W W Y C C Q Q Q Q Q > o X e i * 2 x       r u       p r % * X     . Q Q Q Q Q Q Q G E R R R T C Q Q Q Q ",
"%.%.%.%.%.| W W W W Y C Q Q Q Q Q Q > % % r i   e f.      r u       p r           . Q Q Q C Q Q Q ^ R R R R R ! Q Q Q Q ",
"%.%.@.@.@.| W W W W Y C Q Q Q Q D D > $ % r i   * s X     r r     X p r   X % %     Q C C C D C F ^ E E E E E ^ D D D D ",
"` _ _ _ P W W W W W Y C Q Q Q Q U @.t w % * *   % *       % *       * %   X X % X o Q Q U U L Y Y | @.+.@.@.X.W U U Y Y ",
"P W W W W W W W W W Y C Q Q Q Q Y $.f p %                                   X % % > Q C Y W W P W | %.%.$.$.$.P W W P P ",
"_ W W W W W W W W W Y C Q Q Q Q Y $.f i %                                         . Q D Y W W W W | %.%.$.%.$.W W W W Y ",
"_ W W W W W W W W W Y C Q Q Q Q Y #.f i % X                 X       % % X         . Q C Y W W W W | %.%.%.%.@.P W W W P ",
"W W Y W W P L P W W Y D Q Q Q Q U %.f u % % X             X % % % % f.p p X         Q C L P W W W | $.$.$.$.@.P W W W W ",
"Y Y Y E E E E E E E U ! Q Q Q Q U | f i % % %                   X % * * * %       . Q C | | | | | | | | | | | W E E E E ",
"R R R R R R R R R R R Q Q Q Q Q S W y u * % X X                 X % # # # % X     . C D X.$.%.%.%.| W W W W L R R R R R ",
"R R R R R R T R R R T Q Q Q Q Q S Y < & i * %                                     . C D @.$.%.$.%.| W W W W Y E R R R R ",
"E R R R R R R R R R R Q Q Q Q Q J Y < * p r X X                               X # # C D @.%.%.%.$.| W W W W W T R R R R ",
"R R R R R R R R R R R Q Q Q Q Q S Y < * p r % % X                           X % % > C C @.%.%.%.$.| W W W W W R R R R R ",
"R R R R R T T T I T G Q Q Q V =   .     % % % % r i p f.k.k.j.p p p j.l.j.l.j.l.k.k.d e : X.@.@.@.| W Y P L Y T R R R R ",
"R R R R R ^ D D D Q Q Q Q Q Q .         X # # # & e r u f.f.d r * u f.f.g.f.f.f.f.f.r % - L _ _ P Y R T I R E R R R R R ",
"R R R R R T Q Q Q Q Q Q Q Q Q =                                                         O L W W W Y R R R R R R R R R R ",
"R R R R R G Q Q Q Q Q Q Q 8 =     # # # # # # r r r r r r d f.r f.f.f.g.f.g.f.* * u u * # 3 Z W W E R R R R R R R R R R ",
"R R R R E ^ Q Q Q Q Q Q Q 6       # # # # # % r u u r u u g.g.u f.j.h.h.h.h.f.u u u u * # # 9 Y W E R R R R R R R R R R ",
"R R R R E ^ Q Q Q Q Q Q Q 6   X                                                             4 U W E R R R R R R R R R R "
};
