/* XPM */
static char *result[] = {
/* columns rows colors chars-per-pixel */
"60 60 147 2 ",
"   c #1D304A",
".  c #1D394C",
"X  c #1F3450",
"o  c #1F3B52",
"O  c #22334B",
"+  c #213654",
"@  c #223956",
"#  c #2D3E53",
"$  c #233A5A",
"%  c #263E62",
"&  c #1E444F",
"*  c #21434D",
"=  c #244E4F",
"-  c #3C4448",
";  c #264954",
":  c #234459",
">  c #264B59",
",  c #33455B",
"<  c #255856",
"1  c #2D6E4D",
"2  c #38714C",
"3  c #206355",
"4  c #2B6556",
"5  c #206F59",
"6  c #2F7353",
"7  c #217F5C",
"8  c #3A7F56",
"9  c #274164",
"0  c #294265",
"q  c #2A446B",
"w  c #2E5863",
"e  c #38586D",
"r  c #2C4770",
"t  c #2D4A74",
"y  c #2F4D79",
"u  c #304E7B",
"i  c #2F5179",
"p  c #31517E",
"a  c #366471",
"s  c #454747",
"d  c #4A5048",
"f  c #5D5745",
"g  c #545D5F",
"h  c #6C6847",
"j  c #726644",
"k  c #4D5A64",
"l  c #565E6E",
"z  c #435873",
"x  c #5D6367",
"c  c #687169",
"v  c #7D7560",
"b  c #6A757A",
"n  c #887A4A",
"m  c #967B43",
"M  c #76E53F",
"N  c #348E4F",
"B  c #3B964F",
"V  c #21845E",
"C  c #248E5F",
"Z  c #348453",
"A  c #348C5A",
"S  c #2F9D57",
"D  c #26925D",
"F  c #2B965E",
"G  c #2D995D",
"H  c #359155",
"J  c #309E57",
"K  c #319B5C",
"L  c #3DA94F",
"P  c #3FB34F",
"I  c #34A456",
"U  c #36A954",
"Y  c #3BAD53",
"T  c #36A25E",
"R  c #3AA65F",
"E  c #3BAA5A",
"W  c #3EB051",
"Q  c #228C60",
"!  c #288F64",
"~  c #2A9362",
"^  c #48874A",
"/  c #52894D",
"(  c #40B34F",
")  c #45BC4D",
"_  c #56BA4F",
"`  c #5ABC4D",
"'  c #43AE58",
"]  c #46B454",
"[  c #47B159",
"{  c #4AC34A",
"}  c #4FCC49",
"|  c #50C247",
" . c #51CE47",
".. c #59CE46",
"X. c #5CC54B",
"o. c #52CF48",
"O. c #54D346",
"+. c #59D645",
"@. c #57D844",
"#. c #58D945",
"$. c #61C34B",
"%. c #6DDE41",
"&. c #72D349",
"*. c #6DE141",
"=. c #75E440",
"-. c #BA8F3D",
";. c #D79C3A",
":. c #FF9B38",
">. c #EEA139",
",. c #FFAF38",
"<. c #FEB538",
"1. c #FFBA39",
"2. c #8DED3D",
"3. c #97F23C",
"4. c #FFC73D",
"5. c #8B8659",
"6. c #9C8557",
"7. c #BA8949",
"8. c #AB9648",
"9. c #BBA24A",
"0. c #99956A",
"q. c #CF8947",
"w. c #C89E49",
"e. c #E19041",
"r. c #CEAE4C",
"t. c #D3B958",
"y. c #85E340",
"u. c #FFD243",
"i. c #FFD85C",
"p. c #FFDE72",
"a. c #335383",
"s. c #365789",
"d. c #37598C",
"f. c #395D93",
"g. c #3D629B",
"h. c #43689F",
"j. c #A3A697",
"k. c #C7BD88",
"l. c #EFD782",
"z. c #FFE484",
"x. c #D6D3B4",
"c. c #FFEBA3",
"v. c #E6E0BA",
"b. c #FFEFB2",
"n. c #FEF1BB",
"m. c #FFF5C6",
"M. c #FFF7CC",
/* pixels */
"{ W W W W W Y Y W W W W W Y W W W U D C Q Q B 3.3.3.3.=.#.#.#.#.@.W W W W W G D D D D F R R R R R ~ ~ D C C ~ _ 2.y.y.y.",
"P W W W W W E E R R T R R E R R R E D C Q Q K 3.3.3.3.=.#.#.#.#.@.W W W W W ~ Q Q Q Q D R R R R R T Q Q Q Q Q X.3.3.3.3.",
"Y W W W W W E R R R R R T R R R R T D Q Q Q J 3.3.3.3.=.#.#.#.#.@.L W W W W ~ Q Q Q Q ~ R R R R R K Q Q Q Q Q X.3.3.3.3.",
"W W W W W P E R R R R R R R R R R R Q Q Q Q ' 3.3.3.3.=.#.#.#.#.O.P W Y W W ~ C Q Q Q F R R R R R ~ Q Q Q C C $.3.3.3.3.",
"W W W W W W E R R R R R R R R R R R ! C C Q J 3.3.3.3.=.#.#.#.#.#.P L P L P ~ Q Q Q Q F T R T R R G Q C Q C C X.3.3.3.3.",
"W W W W W Y U R R R R T T T R T R [ T K K G I M %.*.=...) { ) ) ) R E E U R F Q Q Q Q ~ T T T T T G D D D D D $.2.2.2.2.",
"( W W W W E R R R R T ! Q Q Q Q _ 3.3.3.3.3.#.#.@.@.#.{ ( Y ( Y W T R R R R G Q Q Q Q ! D Q Q D D U  .O. .O.O.O.#.*.#.#.",
"( W W W W E R R R R R Q Q Q Q Q _ 3.3.3.3.3.#.#.#.#.#.{ Y ( Y ( W R R R R R ~ Q Q Q Q ! Q Q Q Q Q Y #.#.@.#.#.#.#.#.#.@.",
"( W W W W E R R R R R Q Q Q Q Q ` 3.3.3.3.3.#.+.#.@.#.{ P W W W W R R R R R G Q Q Q Q ! Q Q Q Q Q Y #.#.#.@.#.@.#.@.#.#.",
"( W W W W E R R R R R C Q Q Q Q ` 3.3.3.3.3.#.#.#.#.#.{ W W W W W R R R R R G Q Q Q Q ! Q Q Q Q Q U #.#.#.#.#.#.#.#.@.#.",
"( Y Y Y Y E R R R R R Q Q Q Q Q _ 2.2.2.2.2.O.O.O.O.O.) W Y Y Y Y R R R R R ~ Q Q Q Q ! Q Q D C Q W #.#.#.@.#.#.#.#.@.@.",
"R T R R R R R R R R R C Q Q Q Q Y +.#.#.#.#.P P W W W E R T R R R R R R R R G Q Q Q C C D D D D D U  .o. .O.O. .O.O.O. .",
"K R R R R R R R R R T C Q Q Q Q Y #.#.#.#.#.P W W W W E R R R R R R R R R R F Q Q Q Q C U P Y U Y W P P P P P P P P P P ",
"R R R R R R R R R R R ! Q Q Q Q Y #.#.#.@.#.P Y W W W Y R R R R R R R R R R F Q Q Q Q C U P P W W W W W W W W W L P W W ",
"R R R R R R R R R R R Q Q Q Q Q U @.#.#.@.#.W W W W W E R R R R R R R R R R G Q Q Q Q C Y P Y P W Y P W W W W W W W W W ",
"T R R R R R R R R R T Q Q Q Q Q W @.@.@.@.#.W W W W W E R R R R R R R R R R F Q Q Q Q C U Y P Y W P Y W W W W W W W W W ",
"F F F F F D F D F F G G K G T ~ I U U U U U P W W W Y E E R R R R &.&.&.&.&...) ] ) P P S G G S G E Y Y W W W E E E E R ",
"C Q Q Q Q Q C Q Q Q Q T R R R R G Q Q Q Q Q U P W W P U R R R R ' 3.3.3.3.y.=.#.#.#.#.@.D Q Q Q Q ~ R R T R T C Q Q Q Q ",
"C Q Q Q Q Q Q Q Q Q Q R R R R R G Q Q Q Q Q L W W W W E R R R R R 3.3.3.3.3.y.#.#.#.#.O.C Q Q Q Q G R R R R T C Q Q Q Q ",
"C Q Q Q Q Q Q Q Q Q Q R R R R R ~ Q Q Q Q Q L W W W W E R R R R ' 3.3.3.3.3.=.#.#.#.#.O.C Q Q Q Q ~ R R R R T C Q Q Q Q ",
"C Q Q Q Q Q Q Q Q Q Q T R R R R G Q Q Q Q Q W W W W W E R R R R ' 3.3.3.3.3.M #.#.#.#.O.~ Q Q Q Q ~ E R R R T C Q Q Q Q ",
"C C Q Q Q D F G F F G E E ' [ E I D D Q D D U U U L U ' [ [ [ [ ] 2.2.y.2.2.%.O.O.O.O.} D Q ~ Q D G T T K T T G G F F F ",
"C Q Q Q Q U O.O.O.@.O.O.O.O.O.+.{ W U W U W D Q C C 3 2 ^ / / / / Z #.#.#.#.{ ( W W P W T T R R E G Q Q C Q D } O.O.O.O.",
"C Q Q Q Q W @.@.@.@.@.@.#.#.#.#.{ W W W W W Q V 7 7 @ O O $ % % % , | | | +.{ W Y W W W E R R R R ~ Q Q Q C D O.@.@.@.@.",
"C Q Q Q Q Y #.#.#.#.#.#.#.#.#.#.{ ( ( Y Y P 7 .     t y y y p g.g.f.$ $ $ | { W W W W W R R R R R ~ Q Q Q Q D O.#.#.#.#.",
"C Q Q Q Q Y #.#.#.#.#.#.#.#.#.#.{ Y ( ( W N < 9 9 $ % 9 % t p d.s.s.a.u u 8 B W W W W W R R R R R G Q Q Q Q C O.#.#.#.#.",
"C C Q Q Q Y @.#.+.#.#.#.#.#.#.#.{ ( Y Y Y 1 X t y u       q y y u a.g.f.g.0 4 P W W P W R R R R R ~ ~ Q Q Q D O.#.#.#.#.",
"P P P ) P ) { { { { ) ) ) { { ) ( E E H . : r X                 % y a.a.u f.a.$ A R E E R R R R R G Q Q Q Q C ) { ) { { ",
"O.#.#.#.@.{ Y Y W W W W Y ( Y ( E R R A   $ %                   @ % q q q s.a.% A R R R R R R R R F Q Q Q Q C Y W W W W ",
"O.#.#.#.@.} W P W W W W ( Y ( Y E R R A                                   t y u ! R R R R R R R R F Q Q Q Q C Y W W W W ",
"O.#.#.#.@.{ W W W W W W Y ( ( ( E R 4 =       + X X + $ q q 9             @ % y w 4 R R R R R R R F Q Q Q Q C Y W W W W ",
"O.#.@.@.@.} W W W W W W Y ' Y ( U E *         + + @ $ $ t t q + X           % a.% : R R R R R R R G Q Q Q Q D Y W W W W ",
"o.O.O.O.@.) U U U U U W Y Y Y Y E R *               + @ @ $ % y $           $ y % $ R R T R K R T F Q Q Q Q C U W W U W ",
"E ) P P P S C D D F D T R E R R R R *   + X X       X X X   X $ X   + X +   X $ $ : R T Q ! Q Q C Q Q Q Q Q C T R R R E ",
"U W W W W S Q Q Q Q C T R R T R R R *   @ @ @                       + $ + X     + : R T C Q Q Q Q Q Q Q Q Q C T R R R R ",
"Y W W W W S Q Q Q Q C T R R R R R R *                                           + : R T C Q Q Q Q Q Q Q Q Q C T R R R R ",
"Y W W Y P J Q Q Q Q Q T R R R R R R ; X   + $ 0 % %       % b       $ % % q $   + : R T C Q Q Q Q Q Q Q Q Q C T R R R R ",
"Y W W Y W J Q Q C Q C T R R T R T R > +   0 p g.h.h.,   O h.k.+     u s.g.h.y   + : T R Q Q Q Q Q Q Q Q Q C C T R R T T ",
"} { } { } W G S S S S F F G G G F F > @   9 i $ a.h.k.+ g k.r.s     u r % f.u     + F F C Q Q Q Q ~ G G ~ G ~ G G G F G ",
"#.#.@.@.@.{ W W W W Y D Q Q Q Q Q C : +   % t @ e 0.w.$ 0.z.1.j   8.c % + s.y     . Q Q Q Q Q Q ! ~ E R R R R C Q Q Q Q ",
"#.#.#.#.#.{ W W W W Y C Q Q Q Q Q Q : o   9 z x 5.4.l.b j.p.1.d s q.l u y u %     . Q Q Q Q Q Q Q ~ E E R R T C Q Q Q Q ",
"#.#.#.#.#.{ W W W W Y C Q Q Q Q Q Q : o X q v 7.9.u.c.x.v.i.1.f ;.:.m r $ % @     . Q Q Q Q Q Q D ~ R R R R T C Q Q Q Q ",
"*.@.#.#.#.{ W W W W Y D Q Q Q Q Q Q : $ $ q 6.<.4.u.b.M.m.u.1.<.,.:.q.k d         . C V C C Q Q Q ~ R R R R R C Q Q Q Q ",
"@.O.O.O.O.{ W W W W Y C Q Q Q Q C F : $ $ q x n 8.t.n.M.n.4.<.<.,.:.e.w.h + $ @   . C C C C C C ~ G E E E E R ~ D D D D ",
"P P P ( P P W W W W U D Q Q Q Q U o.w 9 o % %   : 9   # k n m -.>.:.:.1.- X @ $ X o C C U U W Y W { o.O.O.O.O.W U Y U Y ",
"P W W W W W W W W W L Q Q Q Q Q W @.a t $ X     .           O     O - j     X @ $ o Q C U ( W W W { #.#.#.@.O.( W W W W ",
"( W W W W W W W W W Y D Q Q Q Q Y @.a t $ X                                     X . C C Y W W W W { #.#.#.#.O.( W W W W ",
"( W W W W W W W W W Y C Q Q Q Q W O.a t $ X                 X       $ $ @         . C C L W W W W { #.#.@.#.O.P W W W W ",
"P W W P Y L W P W W Y C Q Q Q Q Y @.a t o o $             O $ $ $ $ a.u u +       . Q C L P W W W { #.#.#.#.O.P W W W W ",
"Y Y E E E Y U E Y E U Q Q Q Q Q I { a t o % +                   + $ % % % + X     . Q C ) { { { { { { { { { { L E E E E ",
"R R R R R R R R R R R Q Q Q Q Q S W e r % % + X                 X + + + + + X     . Q D O.@.@.#.#.{ W W W W P T R R R R ",
"R R R R R R R R R R R Q Q Q Q Q S W > 9 y % +                                     . Q D O.@.@.@.@.{ W W W W Y E R R R R ",
"E R R R R R R R R R T D Q Q Q Q G ( : % y % % +                             X X O o Q D O.#.#.#.@.{ W W W W Y R R R R R ",
"R R R R R R R R R T R Q Q Q Q Q S Y > % y % % + +                           X + @ : Q F O.#.#.#.@.{ W P W W W R R R R R ",
"R R R R R T T T T T T Q Q Q V &   .     % + + + q y y a.f.g.f.y y y f.g.g.f.f.g.g.g.p 0 ;  .O.O.O.{ L L Y Y Y E R R R R ",
"R R R R R G ! Q Q Q Q Q Q Q Q .         + + + + $ q q r a.a.u q r % a.a.s.a.a.s.a.p q $ @ L ( ( P Y R R E E T T R R R R ",
"R R R R R ~ Q Q Q Q Q Q Q Q Q .                                               X   X     O L P W W U R R R R R R R R R E ",
"R R R R R T Q Q Q Q Q Q Q 5 & .   + + + + + @ q q q q q q a.a.q a.s.s.a.s.s.u % r % % % @ < Z W W E R R R R R R R R R R ",
"R R R R E ~ Q Q Q Q Q Q Q 3       + + + + + $ q r t r r t a.a.t a.s.s.s.s.s.a.r r r t % + + 6 Y W E R R R R R R R R R R ",
"R R R R E ~ Q Q Q Q Q Q Q 3   .                                     X   X                   1 ' W E R R R R R R R R R R "
};
