/* XPM */
static char *result[] = {
/* columns rows colors chars-per-pixel */
"60 60 145 2 ",
"   c #1D304B",
".  c #1D394C",
"X  c #1F3450",
"o  c #1F3B52",
"O  c #29384B",
"+  c #303C49",
"@  c #213654",
"#  c #223956",
"$  c #2B3D54",
"%  c #233A5A",
"&  c #263E62",
"*  c #1E444F",
"=  c #21434D",
"-  c #244E4F",
";  c #38444C",
":  c #264954",
">  c #234459",
",  c #264B59",
"<  c #344456",
"1  c #384555",
"2  c #255856",
"3  c #2D6E4D",
"4  c #38714C",
"5  c #206355",
"6  c #2B6556",
"7  c #206F59",
"8  c #2F7353",
"9  c #217F5C",
"0  c #3A7F56",
"q  c #274064",
"w  c #284266",
"e  c #2A456B",
"r  c #2E5863",
"t  c #315C6F",
"y  c #2C4770",
"u  c #2D4A74",
"i  c #2F4D79",
"p  c #304E7A",
"a  c #2F5179",
"s  c #31517E",
"d  c #366471",
"f  c #544B45",
"g  c #555847",
"h  c #474851",
"j  c #6A6248",
"k  c #7B6942",
"l  c #786455",
"z  c #666E6B",
"x  c #76E53F",
"c  c #348E4F",
"v  c #3B964F",
"b  c #21845E",
"n  c #248E5F",
"m  c #348453",
"M  c #348C5A",
"N  c #2F9D57",
"B  c #26925D",
"V  c #2B965E",
"C  c #2D995D",
"Z  c #309E57",
"A  c #319B5C",
"S  c #3DA94F",
"D  c #3FB34F",
"F  c #34A456",
"G  c #3BA550",
"H  c #36A954",
"J  c #3BAD53",
"K  c #36A25E",
"L  c #3AA65F",
"P  c #3BAA5A",
"I  c #3EB051",
"U  c #228C60",
"Y  c #288F64",
"T  c #368A63",
"R  c #2A9362",
"E  c #4F8545",
"W  c #52894D",
"Q  c #40B34F",
"!  c #45BC4D",
"~  c #4FBF48",
"^  c #56BA4F",
"/  c #5ABC4D",
"(  c #43AE58",
")  c #46B454",
"_  c #47B159",
"`  c #4AC34A",
"'  c #4FCC49",
"]  c #50C247",
"[  c #51CE47",
"{  c #59CE46",
"}  c #5CC54B",
"|  c #52CF48",
" . c #54D346",
".. c #59D645",
"X. c #57D844",
"o. c #58D945",
"O. c #61C34B",
"+. c #6DDE41",
"@. c #72D349",
"#. c #6DE141",
"$. c #75E440",
"%. c #D6873B",
"&. c #D68B3B",
"*. c #CD993B",
"=. c #D69F3B",
"-. c #EC923A",
";. c #FB9B38",
":. c #D6A83E",
">. c #FFA338",
",. c #F5B238",
"<. c #FDB638",
"1. c #FEB939",
"2. c #8DED3D",
"3. c #97F23C",
"4. c #FEC23C",
"5. c #FFD13F",
"6. c #958546",
"7. c #B89946",
"8. c #A59550",
"9. c #80857B",
"0. c #C88640",
"q. c #CAAA42",
"w. c #C0A84F",
"e. c #D6B441",
"r. c #D6BE67",
"t. c #85E340",
"y. c #D6C278",
"u. c #FDDB6C",
"i. c #335384",
"p. c #355789",
"a. c #37598C",
"s. c #395D93",
"d. c #3B6097",
"f. c #3D629C",
"g. c #7E8582",
"h. c #828984",
"j. c #8F958B",
"k. c #939584",
"l. c #AFAC8D",
"z. c #A7AA99",
"x. c #FBDF80",
"c. c #FFE382",
"v. c #D6D3B4",
"b. c #F7F0C7",
"n. c #FDF5CB",
/* pixels */
"` I I I I I J J I I I I I J I I I H B n U U v 3.3.3.3.$.o.o.o.o.X.I I I I I C B n B B B L L L L L C R n U B U } 2.t.t.t.",
"D I I I I I P P L L K L L P L L L P B n U U A 3.3.3.3.$.o.o.o.o.X.I I I I I C U U U U R L L L L L K U U U U U } 3.3.3.3.",
"J I I I I I P L L L L L K L L L L K B U U U Z 3.3.3.3.$.o.o.o.o.X.S I D I I R U U U U B L L L L L A U U U U U } 3.3.3.3.",
"I I I I I D P L L L L L L L L L L L U U U U ( 3.3.3.3.$.o.o.o.o. .D I S I I R U U U U B L L L L L R U U U U U O.3.3.3.3.",
"I I I I I I P L L L L L L L L L L L Y n n U Z 3.3.3.3.$.o.o.o.o.X.I I D D S R U U U U R L L L L L C n n U U U O.3.3.3.3.",
"I I I I I J H L L L L K K K L K L _ K A A C F x +.#.$.{ ! ` ! ! ! P P L P P R U U U U R K K K K K N B B B V B } 2.2.2.2.",
"Q I I I I P L L L L K Y U U U U ^ 3.3.3.3.3.o.o.X.X.o.` Q J Q J I K L L K L V U U U U R U B U U U P | |  .| | ..+.o.o.o.",
"Q I I I I P L L L L L U U U U U ^ 3.3.3.3.3.o.o.o.o.o.` J Q J Q I L L L L L V U U U U R U U U U n H o.X.o.o.o.o.o.o.o.X.",
"Q I I I I P L L L L L U U U U U / 3.3.3.3.3.o...o.X.o.` D I I I I L L L L L C U U U U R U U U U n H o.o.X.o.o.X.X.X.X.X.",
"Q I I I I P L L L L L n U U U U / 3.3.3.3.3.o.o.o.o.o.` I I I I I L L L L L C U U U U R U U U U U H o.o.o.o.o.X.X.X.X.o.",
"Q J J J J P L L L L L U U U U U ^ 2.2.2.2.2. . . . . .! I J J J J L L L L L R U U U U U U U U U n J o.o.o.o.X.X.X.X.o.o.",
"L K L L L L L L L L L n U U U U J ..o.o.o.o.D D I I I P L K L L L L L L L L C U U U n n B B B B B H  . . . .[ [  . . . .",
"A L L L L L L L L L K n U U U U J o.o.o.o.o.D I I I I P L L L L L L L L L L R U U U U U J J J J J S D D D D D D I D D D ",
"L L L L L L L L L L L Y U U U U J o.o.o.X.o.D J I I I J L L L L L L L L L L C U U U U U H I D I I I I I I I I I I I I I ",
"L L L L L L L L L L L U U U U U H X.o.o.X.o.I I I I I P L L L L L L L L L L C U U U U B J D D D I I I I I I I I I I I I ",
"K L L L L L L L L L K U U U U U I X.X.X.X.o.I I I I I P L L L L L L L L L L V U U U U n J D H H I D I I I I I I I I I I ",
"V V V R V V B B V V C C K R K R F H H H H H D I I I J P P L L L L @.@.@.@.@.} ! ! Q ! D V N V N C P J J J J I J P P P L ",
"B U U U U U U U U U U K L L L L C U U U U U H D I I D H L L L L L 3.3.3.3.3.$.o.o.o.o. .B U n n U R L L L L K U n U n U ",
"n U U U U U U U U U U K L L L L C U U U U U S I I I I P L L L L P 3.3.3.3.3.$.o.o.o.o. .B U U U U R L L L L K U U U U U ",
"B U U U U U n n U U n L L L L L R U U U U U S I I I I P L L L L L 3.3.3.3.3.$.o.o.o.o. .B U U U R A L L L L K n U U U U ",
"n U U U U U U n U U n K L L L L C U U U U U I I D D I P L L L L ( 3.3.3.3.3.$.X.o.o.o. .R U U U U R P L K L K n U n n b ",
"n U U U U R V V V V C H P L _ P F B B U B B H H H H G ( _ _ _ _ _ 2.t.3.2.2.+.X. .|  .' B U n R n C K K K K K V V V V V ",
"n U U U U H  . . . . .X.o. . . .` I H I H I B U n n 5 4 E W W W W m o.o.o.o.` Q I I D I L L K K L C U U U n B '  .X. . .",
"n U U U U I o.X.X.X.X.X.o.o.o.o.` I I I I I U b 9 9 o @   % & & & < ] ] ] ..` I I I I I L L L L P R U U U U B  .X.X.X.X.",
"n U U U U I X.X.o.X.o.X.o.o.o.o.` I I I I I 9 .     u p i i i.f.f.f.% % > ~ ` I I I I I L L L L L R U U U U R  .o.o.o.X.",
"U U U U U D X.X.o.o.o.o.o.o.o.o.` I I I I c 2 q q % & q & u s p.a.a.i i p 0 v I I I I I L L L L P R U U U U B  .o.o.o.o.",
"B U U U U I o.X.o.o.o.o.o.o.o.o.` D D J J 3 X u i p       e i i i i f.f.f.e 6 I I I D I L L L L L C U U U U B  .o.o.o.X.",
"D D D D D ! ` ` ! ` ~ ` ` ! ` ` Q P P c . q y X                 q i i.i p s.s % M P P P L L L L L C U U U B B D ` ! ` ` ",
" .o.o.X.o.` I I Q J Q J J I I I J L L M   % &                   % q e e e a.i.q T L L L L L L L P C U U U U B H I I I I ",
" .o.o.X.X.` I I J I J Q D I I I P L L M                                   u i i T L L L L L L L L R U U U U B H I I J I ",
"o.o.X.X.X.' I I I I J I I I J I J L 6 -       X X X @ % e e &             X q i r 6 L L L L L L L R U U U U B H I I I I ",
" .o.X.X.X.` I I I I D I I I D D P L =         @ % @ % % y u e @ X           % i.q > L L L L L L L C U U U U B H I I I I ",
"'  . . . .` H H H H H I J I J J P L =               @ # # # & i %           % i & % L L K L A L K V U U U U B H I J J J ",
"P ! I I D Z B B B B B K L L L L L L =   X X X       X X X   @ % @   @ X @   X & % > L L U U U U U U U U U U U K L L L P ",
"I I I I I N U U U U U K L L L L L L =   % # #                       @ # @       @ > L A U U U U U U U U U U B K L L L L ",
"P I I I I N U U U U n K L L K P L L =                                           @ > L L B U U U U U U U U U U K L L L L ",
"H D I I I C U U U U n K L L L L L L : .   X & q & e       & &       % & & y %   @ > L A U U U U U U U U U U U K L L L L ",
"H D I I D Z U U U U U K K L L L L L , #   & i.f.f.f.@     i.s.      p p.f.f.i   @ > L L U U U U U U n U U n R K K L L L ",
"' ' ` ` ` D C Z N Z N C V C C R R R > #   & i % i.s.@     i.a.      p y & s.i.  @ O C V n U U U U B C C V C V V C V R C ",
"o.o.o.o.o.` D D I I J U U U U B U U > X   & i X y p.X     i.i.      p & @ p.u     . U U U U U U n R L L L L K n U U n U ",
"o.o.o.o.o.` I I I I J B U U U U U U > o   q i i &         e y     X i i i i q     . U U U U U U U R P L L L K R U U U U ",
"o.o.X.o.o.` I I I I H B U U U U U U > o X e u & & &       e y       i y & & X     . U U U U U U U C L L L L K U U U U U ",
"+.X.X.X.X.` I I I I J n U U U U U U > % % e u X & i X     e y       i e           . b U U n U U U R L L L L L B U U U U ",
"X. . . .X.` I I I I J B U U U U B B > % % e u   q i       y e       i q   X % %   . U n n n n n B K L P P P L R B n n B ",
"Q Q Q Q D D I I I I H n U U U U H  .r q X & &   % q       % %       & %   X X % X o U U H H J S J !  . . . .| I H H I H ",
"I I I I I I I I I I S n U U U U J o.d u % X               @ O               X % % > U n S I I I I ` o.o.X.X.X.Q I I I D ",
"Q I I I I I I I I I J B U U U U J X.d u % X               k.9.                    . U B I I I I I ` o.o.o.o. .D I I I I ",
"Q I I I I I I I I I J n U U U U J X.d u % X       $ <   $ 8.6.$   1 $ # X         . n B H I I I I ` o.o.o.o.X.D I I I I ",
"I I I D I J D S I I J n U U U U H o.d u % # #   . z l.  g.x.1.j # 7.z i i @       . U n H I I S D ` X.X.X.X. .D ) I I I ",
"J J P P J P P J J P P n U U U U H ` d u # % #   . k w.: h.c.4.j 1 0.l w & @ @     . U n ! ` ` ` ` ` ` ` ` ` ` J P P P J ",
"L L L L L L L L L L K U U U U U N I t u & & @ + g 4.u.z.j.c.4.k 7.;.-.h ; @ @     . U B ..o.o.o.o.` D I I I S P L L L L ",
"L L L L L L L L L L K U U U U U N I , % i & # *.j 5.u.n.b.c.4.,.<.;.;.f q.        . U B  .o.o.o.o.` D I I I I K L L L L ",
"L L L L L L L L L L K B U U U U N I < & i & & <.1.5.u.n.n.c.4.1.1.>.;.;.,.    X X o U B  .o.o.X.X.` I I I I J L L L L L ",
"L L L L L L L L L K L B U U U U N ( > & i & % q.:.e.r.v.v.y.:.=.=.&.%.%.q.  X % % > U B  .o.o.o.X.` I D I I J L L L L L ",
"P L L L L P K K K K K U U U b *   .     % % % @ e i u i.f.f.s.i i i d.f.f.d.f.f.d.d.a w : [ X. . .` J J D S S L L L L L ",
"L L L L L R U U U U U U U U U .         @ @ @ @ % e e y i.i.p e e e i.i.i.i.i.i.i.i.e % $ G Q Q D J L F L L P L L L L L ",
"L L L L L C U U U U U U U U b o                                                         . G I I I J K L L L L L L L L L ",
"L L L L L C U U U U U U U 7 * .   @ @ @ @ @ # e e e e e e i.s e i p.p.i.p.p.i e e e y % # 2 m I I P L L L L L L L L L L ",
"L L L L L C U U U U U U U 5   .   @ @ @ @ @ % e y u e y u i.i.u i.a.a.a.a.a.i.y y y y & X # 8 I I P L L L L L L L L L L ",
"L L L L L R U Y U U U U U 5   .                                                             3 J I P L L L L L L L L L L "
};
