/* XPM */
static char *result[] = {
/* columns rows colors chars-per-pixel */
"60 60 153 2 ",
"   c #1D304A",
".  c #1D394C",
"X  c #1F3450",
"o  c #1F3B52",
"O  c #21344C",
"+  c #283749",
"@  c #333F48",
"#  c #213654",
"$  c #223956",
"%  c #2C3D53",
"&  c #233A5A",
"*  c #263E62",
"=  c #1E444F",
"-  c #21434D",
";  c #244E4F",
":  c #3E4347",
">  c #264954",
",  c #234459",
"<  c #264B59",
"1  c #255856",
"2  c #2D6E4D",
"3  c #38714C",
"4  c #206355",
"5  c #2B6556",
"6  c #206F59",
"7  c #2F7353",
"8  c #217F5C",
"9  c #3A7F56",
"0  c #274064",
"q  c #284266",
"w  c #2A446B",
"e  c #3A4C62",
"r  c #315C6F",
"t  c #2C4770",
"y  c #2D4A74",
"u  c #2F4D79",
"i  c #304E7B",
"p  c #31517E",
"a  c #366471",
"s  c #464A4A",
"d  c #4D5247",
"f  c #5D5745",
"g  c #454D5E",
"h  c #666446",
"j  c #746E46",
"k  c #545C69",
"l  c #58636C",
"z  c #6C7169",
"x  c #656F73",
"c  c #8F6948",
"v  c #8D7445",
"b  c #947441",
"n  c #76E53F",
"m  c #348E4F",
"M  c #3B964F",
"N  c #21845E",
"B  c #248E5F",
"V  c #348453",
"C  c #348C5A",
"Z  c #2F9D57",
"A  c #26925D",
"S  c #2B965E",
"D  c #2D995D",
"F  c #359155",
"G  c #309E57",
"H  c #319B5C",
"J  c #3DA94F",
"K  c #3FB34F",
"L  c #34A456",
"P  c #3BA550",
"I  c #36A954",
"U  c #3BAD53",
"Y  c #36A25E",
"T  c #3AA65F",
"R  c #3BAA5A",
"E  c #3EB051",
"W  c #228C60",
"Q  c #288F64",
"!  c #368A63",
"~  c #2A9362",
"^  c #4F8545",
"/  c #52894D",
"(  c #40B34F",
")  c #45BC4D",
"_  c #56BA4F",
"`  c #5ABC4D",
"'  c #43AE58",
"]  c #47B159",
"[  c #77807E",
"{  c #4AC34A",
"}  c #4FCC49",
"|  c #50C247",
" . c #51CE47",
".. c #59CE46",
"X. c #5CC54B",
"o. c #52CF48",
"O. c #54D346",
"+. c #59D645",
"@. c #57D844",
"#. c #58D945",
"$. c #61C34B",
"%. c #6DDE41",
"&. c #72D349",
"*. c #6DE141",
"=. c #75E440",
"-. c #A7833E",
";. c #C9813C",
":. c #CC993B",
">. c #DA903B",
",. c #E8923F",
"<. c #F39A39",
"1. c #FE9B38",
"2. c #D6A03B",
"3. c #E8AC3D",
"4. c #FFA538",
"5. c #FFAD38",
"6. c #FFB43A",
"7. c #FFB938",
"8. c #8DED3D",
"9. c #97F23C",
"0. c #FFC33B",
"q. c #888358",
"w. c #B28D42",
"e. c #AD9644",
"r. c #BAA450",
"t. c #A0986B",
"y. c #D8AE40",
"u. c #CEB34E",
"i. c #DFBB41",
"p. c #85E340",
"a. c #FFD242",
"s. c #FFD34A",
"d. c #FED95D",
"f. c #F9D766",
"g. c #335384",
"h. c #355789",
"j. c #37598C",
"k. c #395D93",
"l. c #3B6097",
"z. c #3D629C",
"x. c #486183",
"c. c #808784",
"v. c #ACAF9D",
"b. c #B6B59C",
"n. c #9DA6A2",
"m. c #B9B9A3",
"M. c #FFE487",
"N. c #E6DFB9",
"B. c #FFEBA4",
"V. c #FFEDA8",
"C. c #FFF1B8",
"Z. c #FFF4C4",
"A. c #FFF7CB",
/* pixels */
"{ E E E E E U U E E E E E U E E E I A B W W M 9.9.9.9.=.#.#.#.#.@.E E E E E D A A A B S T T T T T Y W ~ A W W X.8.p.p.p.",
"K E E E E E R R T T Y T T R T T T R A B W W H 9.9.9.9.=.#.#.#.#.@.E E E E E ~ W W W W S T T T T T ~ W W W W W X.9.9.9.9.",
"U E E E E E R T T T T T Y T T T T Y A W W W G 9.9.9.9.=.#.#.#.#.+.J E K E E ~ B W W W A T T T T T H W W W W W $.9.9.9.9.",
"E E E E E K R T T T T T T T T T T T W W W W ' 9.9.9.9.=.#.#.#.#.+.E E U E E ~ B W W W ~ T T T T T D W W W W W $.9.9.9.9.",
"E E E E E E R T T T T T T T T T T T Q B B W G 9.9.9.9.=.#.#.#.#.@.E E J E K ~ W W W W S Y Y Y Y T D B B W W W X.9.9.9.9.",
"E E E E E U I T T T T Y Y Y T Y T ] Y H H D L n %.*.=...) { ) ) ) R I R R R ~ W W W B ~ Y Y Y Y Y D A A S S A X.8.8.8.8.",
"( E E E E R T T T T Y Q W W W W _ 9.9.9.9.9.#.#.@.@.#.{ ( U ( U U T T T T T S W W W W Q W Q A A B R  .O. . . .+.%.#.#.#.",
"( E E E E R T T T T T W W W W W _ 9.9.9.9.9.#.#.#.#.#.{ U ( U ( U T T T T T H W W W W Q W W W W B I #.#.#.#.#.#.#.#.#.@.",
"( E E E E R T T T T T W W W W W ` 9.9.9.9.9.#.+.#.@.#.{ K E E E U Y T T T T ~ W W W W Q W W W W B I #.#.#.#.#.@.@.@.#.#.",
"( E E E E R T T T T T B W W W W ` 9.9.9.9.9.#.#.#.#.#.{ E E E E ( T T T T T D W W W W Q W W W B B I @.#.@.#.@.#.@.@.@.#.",
"( U U U U R T T T T T W W W W W _ 8.8.8.8.8.O.O.O.O.O.) E U U U U T T T T T D W W W B Q W W B B B U #.#.#.#.@.@.@.@.#.#.",
"T Y T T T T T T T T T B W W W W U +.#.#.#.#.K K E E E R T Y T T T T T T T T ~ W W W B B A B A A A I O.O.O.O. . .O.O. .O.",
"H T T T T T T T T T Y B W W W W U #.#.#.#.#.K E E E E R T T T T T T T T T T S W W W W B I U U U U J K K K K K K K K K K ",
"T T T T T T T T T T T Q W W W W U #.#.#.@.#.K U E E E U T T T T T T T T T T S W W W W B I K ( E E E E E E E E E E E E E ",
"T T T T T T T T T T T W W W W W I @.#.#.@.#.E E E E E R T T T T T T T T T T S W W W W B U K U K E E E E E E E E E E E E ",
"Y T T T T T T T T T Y W W W W W E @.@.@.@.#.E E E E E R T T T T T T T T T T S W W W B B I K U K E K E E E E E E E E E E ",
"S S S ~ S S S S S ~ D ~ Y ~ Y ~ L I I I I I K E E E U R R T T T T &.&.&.&.&.X.) ( ) ( ( Z S Z S ~ I E E E I E R R R R T ",
"B W W W W W W W B B A Y T T T T D W W W W W I K E E K I T T T T ' 9.9.9.9.9.=.#.#.#.#.O.A W W W W ~ T T T T Y B W W W W ",
"B B W W W W W W W W B Y T T T T D W W W W W J E E E E R T T T T T 9.9.9.9.9.%.#.#.#.#.O.A W W W W D T T T T Y B W W W W ",
"B W W W W W W W W W B Y T T T T ~ W W W W W J E E E E R T T T T T 9.9.9.9.9.n +.#.#.#.O.A W W W W D T T T T Y B W W W W ",
"B W W W W W W W W W W L T T T T D W W W W W E E K K E R T T T T ' 9.9.9.9.9.=.#.#.#.@.O.Q W W W W ~ T T Y T Y B W B B B ",
"B W W W B A S S S S D R R ' R ] L A A W A A I I I I P ' ] ] ] ] ] 8.8.8.8.8.%...o.O.O.o.S A W A W Y Y Y Y Y Y S D D S S ",
"B W W W W I O.O.O.O.O.O.O.O.O.+.{ E I E I E A W B B 4 3 ^ / / / / m %.#.#.#.{ ( E E E E Y Y Y T R ~ B B W B A } O.O.O.O.",
"B W W W W E #.#.#.@.@.@.#.#.#.#.{ E E E E E W N 8 8 o #   & * * * 0 { | | +.) ( E E E E T T T T T ~ W B W W A O.@.@.@.@.",
"B W W W W I #.#.#.#.#.#.#.#.#.#.{ E E E E U N .     y i u u g.z.z.k.* & & { ) ( E E E U R T T T T ~ W W W W ~ O.#.#.O.#.",
"B W W W W K #.#.#.#.#.#.@.#.#.#.{ E E E E m 1 * 0 & * 0 * y p h.j.j.u u i 9 M ( E E E E T T T T T D W W W W A O.#.#.#.#.",
"B W W A B I @.#.#.+.#.#.#.#.#.#.{ ( E E U 2 X y u i       w u u u u z.z.z.w 5 ( E E K E T T T T T D W W W W A O.O.#.#.#.",
"K K K K ) ) { { { { ) { { ) { ) ( R R F   , t X                 * u g.g.i k.p , C R R R T T T T T D W W W W W ) { { { { ",
"O.@.#.#.@.) E E E E E E E E E E U T T C   & 0                   o * t * w j.g.0 ! T T T T T T T R D W W W W W I E E E E ",
"O.#.#.#.@.} E E E E E E E E E E R T T C                             X     t u u ! T T T T T T T Y ~ W W W W A E E E E E ",
"O.#.#.#.@.{ E E U E E E E E E E U T 5 ;       # X X # & w w *             o 0 u r 5 T T T T T T T ~ W W W B A I E E E E ",
"O.#.@.@.@.} E E E E E E E E E E R T -         # # # & & y y w # X           * u * , T T T T T T T D W W W B A I E E E E ",
"} @.O.O.O.) I I U I U I E E I E R T -               # & & & & p &           & i 0 , T T Y Y H T Y S W W W W W U E E U U ",
"E K E E E L A B A A B Y T T R T T T -   # X X         X     # & X   X # #   X & & , T Y Q B W W B W W W W W W L T T T T ",
"R E E E E Z W W B W B Y T T T T T T -   & # #                       # & #       # , T Y B W W W W W W W W W B Y T T T T ",
"U E E E E Z W W B W W Y T T T T T T -                                           # , T Y B W W W W W W W W W B Y T T T T ",
"U K E E E G W W W W W Y T T T T T T > X   X * w w q       * 0       & * w w &   # , T T W W W W W W W W W W B T T T T T ",
"I K E I E G W W W B W Y T Y T T T T < #   * g.k.z.z.#     h.h.      i h.z.z.i   # & T T B W W W W B W W W W B Y T T T L ",
"} } { } { E G G Z Z L S D D ~ D ~ ~ , #   * u & p z.X     h.h.      i w & k.i     . S S B W W W B ~ D ~ D D ~ D ~ ~ D ~ ",
"#.#.@.@.#.{ E E E E I A W W W W W W , #   * u o t h.X     p h.      i w & h.y     . W W W W W W B ~ R T T T Y B B B B B ",
"#.#.#.#.#.{ U E E E U A W W W W W W , &   * u u *       x n.t       u u u i *     . W W W W W W B ~ R T T T Y B W W W W ",
"#.@.#.@.#.{ K E E E U B W W W W W W , o X q y * * q   O s u.k   s e.g.t * & #       W W W W W W B D T T T T Y B W W W W ",
"%.@.#.#.#.{ E E E E U B W W W W B W , & & w y X * x., O b.s.3.+ : >.k *           . W W W W W W B ~ T T T T T B W W B B ",
"+.O.O.O.+.{ E E E E U A W W W W B S , & & w y   * v.z   b.f.7.s b <.,.g j # & &   . W W B B A A W Y T R R R T ~ B B B B ",
"( K ( ( ( K E E E E I A W W W W I O.1 * & & *   # q.r.l c.M.0.-.2.4.1.c y.% # & X o W B I U U U U { o.O.O.O.o.E P I U J ",
"K E E E U E E E E K U B W W W W U #.a u & X     @ i.d.N.m.V.a.6.7.5.1.1.6.h X & & , W B U E E E E { #.#.@.@.@.K K E E E ",
"( E E E E E K U E E E A W W W W U #.a y & X   f : i.s.C.A.Z.s.6.6.6.1.;.b d       . W B U E E E E { #.#.@.#.O.K E E E E ",
"( E E E E E E E E E I W W W W W U #.a y & # O j :.0.a.B.A.Z.f.w.v d $ & X         . B B U E E E E { #.#.#.#.@.K E E E E ",
"E E K E K J K J E E I A W W W W I #.a y & & X : 7.0.3.t.[ e & o & & i i u X       . W B J K E K U { #.@.@.@.O.K U E E K ",
"U U R R R R U I U R R B W W W W I { a y & & &   f + .     .     # & 0 * * & X     . W B { { { { { { { { { { { U R ' R R ",
"T T T T T T T T T T Y A W W W W Z E r t * & &                   X # & # & # X     . W A  .@.@.#.@.{ K E E E K Y T T T T ",
"T T T T T T T T T T T Q W W W W Z J < , u * #                                     . W A O.@.#.#.@.{ E E E E U R T T T T ",
"T T T T T T T T T T Y W W W W W G U , * i w & #                               X # $ A A O.#.@.@.+.{ E E E E U T T T T T ",
"T T T T T T T T T Y T W W W W W Z ( < * i * & & O                             & # , W A O.#.#.@.#.{ E E E E U R T T T T ",
"T T T T T Y Y Y Y Y D W W W N =         & & & # w u u p l.l.k.u u u z.z.z.k.k.z.z.l.p q <  .+.O.O.{ I E J I I R T T T T ",
"T T T T T Y W W W A W W W W W =         # # # # & w w t g.g.p w t * g.g.g.g.g.g.g.p w & $ J ( ( ( R R T R R T T T T T T ",
"T T T T T D B W W W W W W W W .                                                         + P E E K I T T T T T T T T T T ",
"T T T T T ~ W W W W W W W 6 =     # # # # # # w w w w w w g.p t g.g.g.g.g.h.g.* t t * & # 1 V E E R T T T T T T T T T T ",
"T T T T T Y W W W W W W W 4       # # # # # & t t t y t t g.h.t g.h.j.j.h.j.g.t t t u * # # 7 U ( R T T T T T T T T T T ",
"T T T T T ~ W W W W W W W 4   .                                   X   X                     2 U ( R T T T T T T T T T T "
};
