/* XPM */
static char *_3cc3034e04a409eba36d5a89a3adbbcEJe4Z3qmM4J1MEMD[] = {
/* columns rows colors chars-per-pixel */
"60 60 249 2 ",
"   c None",
".  c #192E55",
"X  c #182E56",
"o  c #182F56",
"O  c #192F56",
"+  c #182F57",
"@  c #192F57",
"#  c #1A2F56",
"$  c #193056",
"%  c #193057",
"&  c #1A3056",
"*  c #1A3057",
"=  c #1B3157",
"-  c #1A3158",
";  c #1B3158",
":  c #1A3159",
">  c #1B3159",
",  c #1B325A",
"<  c #1D3258",
"1  c #1C325A",
"2  c #1C335B",
"3  c #1E3459",
"4  c #1C335C",
"5  c #1D355E",
"6  c #203459",
"7  c #20355A",
"8  c #20355B",
"9  c #21365B",
"0  c #22365B",
"q  c #24375B",
"w  c #24305E",
"e  c #25305F",
"r  c #25385B",
"t  c #22385F",
"y  c #27395C",
"u  c #273B5E",
"i  c #293D5F",
"p  c #303F5F",
"a  c #1F3862",
"s  c #203862",
"d  c #203964",
"f  c #2C3F61",
"g  c #223C68",
"h  c #233D69",
"j  c #243E6B",
"k  c #2D4266",
"l  c #25406D",
"z  c #25426F",
"x  c #2C446F",
"c  c #324160",
"v  c #324161",
"b  c #354363",
"n  c #314465",
"m  c #314466",
"M  c #394563",
"N  c #394665",
"B  c #384B6B",
"V  c #274370",
"C  c #274371",
"Z  c #274472",
"A  c #224074",
"S  c #234174",
"D  c #284371",
"F  c #284372",
"G  c #284472",
"H  c #284473",
"J  c #294573",
"K  c #284574",
"L  c #294574",
"P  c #284674",
"I  c #2A4675",
"U  c #334A73",
"Y  c #364D77",
"T  c #324C79",
"R  c #344C78",
"E  c #434C67",
"W  c #474F68",
"Q  c #474F6B",
"!  c #44546F",
"~  c #415270",
"^  c #455570",
"/  c #4C5B74",
"(  c #4F5E76",
")  c #536178",
"_  c #576178",
"`  c #546279",
"'  c #556379",
"]  c #55637A",
"[  c #5F6C7F",
"{  c #6A6775",
"}  c #6A6776",
"|  c #6B6877",
" . c #6B6977",
".. c #6E6A79",
"X. c #6B6E7E",
"o. c #756F7A",
"O. c #274882",
"+. c #284882",
"@. c #294982",
"#. c #415A84",
"$. c #4D6285",
"%. c #4F6385",
"&. c #4F6386",
"*. c #556382",
"=. c #556388",
"-. c #546788",
";. c #616D81",
":. c #766F8F",
">. c #677384",
",. c #697585",
"<. c #6A7586",
"1. c #6B7586",
"2. c #6F7989",
"3. c #7C7581",
"4. c #747A87",
"5. c #717A89",
"6. c #73798B",
"7. c #707B8A",
"8. c #717B8A",
"9. c #727C8B",
"0. c #737D8C",
"q. c #797E8B",
"w. c #7B6B94",
"e. c #777690",
"r. c #8C38A8",
"t. c #8D39A8",
"y. c #8E39AA",
"u. c #8F39AB",
"i. c #8E3BAA",
"p. c #8E3AAB",
"a. c #8F3AAB",
"s. c #903AAC",
"d. c #903BAC",
"f. c #973EB1",
"g. c #973FB1",
"h. c #827880",
"j. c #857B82",
"k. c #8C7F84",
"l. c #8B7F88",
"z. c #9148AE",
"x. c #9348AF",
"c. c #9D59AB",
"v. c #9F44B7",
"b. c #9E54B5",
"n. c #A044B8",
"m. c #A346BB",
"M. c #A848BE",
"N. c #A84DBF",
"B. c #A25AB7",
"V. c #A367A7",
"C. c #AD72AD",
"Z. c #B07BA8",
"A. c #AC4AC1",
"S. c #AC4CC1",
"D. c #AC4CC2",
"F. c #AE4DC3",
"G. c #AF4DC3",
"H. c #AF4DC4",
"J. c #B04CC4",
"K. c #B04EC5",
"L. c #B34DC7",
"P. c #B14EC7",
"I. c #B24FC6",
"U. c #B34FC6",
"Y. c #B24FC7",
"T. c #B250C6",
"R. c #B250C7",
"E. c #B350C7",
"W. c #7C808C",
"Q. c #7F8692",
"!. c #798395",
"~. c #7C8696",
"^. c #81838C",
"/. c #86858D",
"(. c #8C818C",
"). c #8E828D",
"_. c #958588",
"`. c #848691",
"'. c #828893",
"]. c #818894",
"[. c #828994",
"{. c #81819A",
"}. c #848C99",
"|. c #848C9B",
" X c #868E9D",
".X c #8D8C9C",
"XX c #918692",
"oX c #9E8E95",
"OX c #9F8F95",
"+X c #938A99",
"@X c #938D9F",
"#X c #948D9F",
"$X c #8A929E",
"%X c #8A929F",
"&X c #9D969B",
"*X c #A39297",
"=X c #AA9490",
"-X c #A89595",
";X c #AF9B95",
":X c #A79D9F",
">X c #B19993",
",X c #B29A94",
"<X c #B39B95",
"1X c #B39B96",
"2X c #B59F99",
"3X c #B89F99",
"4X c #BEA297",
"5X c #BCA198",
"6X c #BEA298",
"7X c #BEA299",
"8X c #BFA399",
"9X c #8992A1",
"0X c #8C94A2",
"qX c #8E96A2",
"wX c #8F96A3",
"eX c #9198A4",
"rX c #9199A5",
"tX c #9298A5",
"yX c #9299A5",
"uX c #9D9DA6",
"iX c #BA8FAC",
"pX c #BF8CAF",
"aX c #A1A0A8",
"sX c #B9A4A9",
"dX c #B9ABAC",
"fX c #C3A79D",
"gX c #CA9CB1",
"hX c #CAACA3",
"jX c #CBACA3",
"kX c #CCACA2",
"lX c #CCADA3",
"zX c #C9ACA6",
"xX c #C7ADAE",
"cX c #C8ADAA",
"vX c #CCAFAB",
"bX c #C3B0AE",
"nX c #D6B5AB",
"mX c #D9B8AE",
"MX c #D9B8AF",
"NX c #CFA4B2",
"BX c #D6ADB3",
"VX c #D1B6B1",
"CX c #D6B7B1",
"ZX c #DBBBB3",
"AX c #DEBCB4",
"SX c #E0BDB3",
"DX c #E0BDB4",
"FX c #E1BDB4",
"GX c #E1BEB5",
/* pixels */
"                                                                                                                        ",
"                                                                                                                        ",
"                                                                                                                        ",
"                                                                                                                        ",
"                                                                                                                        ",
"                                                                                                                        ",
"                                            + * * * * * 2 I I                                                           ",
"                                            + * * * * * 2 I I                                                           ",
"                                            + * +     * 2 I I I I                                                       ",
"                                            + * +     * 2 I I I I                                                       ",
"                                                      * - a s F I                                                       ",
"                                                      * * * * V I                                                       ",
"                                                      * * * * V I I I                                                   ",
"                                                      * * * * V I I I                                                   ",
"                                                      * * * * V I I I I                                                 ",
"                                                      * * * * V I I I I I I                                             ",
"                                                      * * - - V I J F F F l                                             ",
"                                                  + + * 2 I I I I 5 * * * + + +                                         ",
"                                                + * * * 2 J J J J t 0 0 0 2 * *                                         ",
"                                            + + + * * * * - - - - j.=X=X=Xo.* * + + + +                                 ",
"                                            + * * * * * * * * * * _.8X8X8Xh.* * * * * *                                 ",
"                                    * * * * + * * * M k.3.S S XX*XzXnX+X=.*._ _ _ _                                     ",
"                                    * * * * * * * * W 8X-X+.+.xXDXDXDX{.O.#.8.8.8.8.                                    ",
"                            yX      ).)._ / / / / / X.8X3X#X@XCXDXDXDXsX@X.X|.|.|.|.wXyX                                ",
"                            yXyX    DXAX`.8.8.8.8.8./.8XfXDXDXDXDXDXDXDXDXbXyXyXyXyXyXyX                                ",
"                            yXyX    oXoXq.8.8.8.8.8./.8XfXDXDXDXDXNXgXBXDXbXyXyXyXyXyXyX                                ",
"                                yX X* - ;.8.8.8.8.8./.8XfXDXDXDXDXC.c.pXDXbXyXyXyXyX                                    ",
"                                yX X* * ) [ <.8.8.8.^.;X2XMXMXMXMXZ.V.iXVXdXyXyXyXyX                                    ",
"                      [.[.'.    yX X* * * * _ 8.8.8.8.8.W.8X8X8X8X8X8X:XyXyXyXyXyXyXyXyX                                ",
"                      [.[.Q.    wX|.0 0 * * ( <.<.<.<.<.4.>X<X<X<X<X<X&X9XwXyXyXyXyXyXyX                                ",
"                            8.8.0.9.<.>.y * 3 0 0 0 0 0 0 y y U Y Y Y R T -.yXyX    yXyX                                ",
"                            8.8.8.8.8.2.i * * * * * * * * * * V I I I I I %.yXyX    yXyX                                ",
"                                    %X%X~.!.B * * * * * * * * V I I I I I x m m                                         ",
"                                    yXyXyXyX~ * * * * * * * * V I I I I I g * *                                         ",
"                                                    + * * * * V I I I I I g * *                                         ",
"                                                      * * * * V I I I I I g * *                                         ",
"                                                      * * * * V I I I I I g * +                                         ",
"                                                      * * * * V I I I I I g * * * +                                     ",
"                                                      * * * * g j j j j j d * + * +                                     ",
"          E.E.E.E.E.E.E.E.Y.                      * * * * * * * * * * * * +     * +                                     ",
"          E.Y.F.F.F.F.F.F.H.                      * * * * - - - - - - - - -     * +                                     ",
"              d.d.d.d.d.d.n.E.Y.    a.a.F.E.      * * * 2 J J J J J J J J Z         + *                                 ",
"              a.a.a.a.a.a.v.E.Y.    a.a.F.E.      * * * 2 I I I I I I I I I         + *                                 ",
"          Y.Y.F.F.F.F.F.F.Y.E.x.+ w a.a.w.e.8.8.! * * * * - - - - l I I I %.yXyXyXyXcXvXuXyXyXyXyXyXyX                  ",
"          E.E.E.E.E.E.E.E.E.E.x.* w a.a.:.8.8.8.^ * * * * * * * * l I I I %.yXyXyXyXZXDXaXyXyXyXyXyXyX                  ",
"              g.g.g.g.g.g.n.E.N.    a.a.b.B.    f * * * * * * * * 4 5 5 5 k                                             ",
"              a.a.a.a.a.a.v.E.Y.    a.a.F.E.      * * * * * * * * * * * * +                                             ",
"            Y.n.n.n.n.n.n.M.Y.      a.a.A.Y.      * * * r } | q * * * E | }                                             ",
"          E.E.E.E.E.E.E.E.Y.                      * * * c 8X8Xp * * * ..8X4X                                            ",
"          Y.Y.Y.Y.Y.Y.Y.Y.                      + * + + W hXhXc * + + l.lXlX                                            ",
"                                            + * * * *     DXDXb *     DXDXSX                                            ",
"                                            + + + + +     DXDXN +     DXDXSX                                            ",
"                                                          DXDX        DXDXSX                                            ",
"                                                          DXDX        DXDXSX                                            ",
"                                                                                                                        ",
"                                                                                                                        ",
"                                                                                                                        ",
"                                                                                                                        ",
"                                                                                                                        ",
"                                                                                                                        "
};
