/* XPM */
static char *result[] = {
/* columns rows colors chars-per-pixel */
"60 60 191 2 ",
"   c #1A3057",
".  c #1C3B57",
"X  c #1C325A",
"o  c #1B3D58",
"O  c #21355B",
"+  c #26395D",
"@  c #293D5F",
"#  c #1F3862",
"$  c #203862",
"%  c #233D6A",
"&  c #1E4558",
"*  c #1C4B59",
"=  c #1D555B",
"-  c #214554",
";  c #244D53",
":  c #245755",
">  c #1F6D5D",
",  c #1F725D",
"<  c #2D6651",
"1  c #286655",
"2  c #336F55",
"3  c #2C7054",
"4  c #2D7658",
"5  c #217C5D",
"6  c #26426B",
"7  c #334263",
"8  c #394867",
"9  c #295A6E",
"0  c #345863",
"q  c #264371",
"w  c #2A4674",
"e  c #354C76",
"r  c #334C79",
"t  c #2F696C",
"y  c #367364",
"u  c #357467",
"i  c #454E68",
"p  c #445A6D",
"a  c #435470",
"s  c #4D5C74",
"d  c #556279",
"f  c #6B6A79",
"g  c #756F7A",
"h  c #76E53F",
"j  c #39844E",
"k  c #398B4D",
"l  c #3E984C",
"z  c #26865C",
"x  c #238E5F",
"c  c #338C52",
"v  c #328859",
"b  c #2F9D57",
"n  c #26925D",
"m  c #2B965E",
"M  c #2E995D",
"N  c #359C52",
"B  c #329B5D",
"V  c #3FB34F",
"C  c #34A456",
"Z  c #3AA153",
"A  c #35A954",
"S  c #3CAD52",
"D  c #36A25E",
"F  c #3AA65F",
"G  c #3CAA59",
"H  c #3EB051",
"J  c #228C60",
"K  c #2F8369",
"L  c #358D64",
"P  c #33846C",
"I  c #2A9362",
"U  c #379463",
"Y  c #3E8F71",
"T  c #3CA461",
"R  c #429A4E",
"E  c #44A74A",
"W  c #40B34F",
"Q  c #45BC4D",
"!  c #4EBE4C",
"~  c #55B94D",
"^  c #56BA4F",
"/  c #42AC55",
"(  c #47A65B",
")  c #4FB656",
"_  c #55B959",
"`  c #4E886C",
"'  c #499C6C",
"]  c #59966D",
"[  c #5E8F75",
"{  c #55827B",
"}  c #529974",
"|  c #678B7B",
" . c #76887A",
".. c #639875",
"X. c #43A465",
"o. c #4BA36D",
"O. c #52A467",
"+. c #53AA65",
"@. c #52A96B",
"#. c #5CB960",
"$. c #57A176",
"%. c #61AE6C",
"&. c #74AC6E",
"*. c #76B778",
"=. c #4AC34A",
"-. c #4ECC49",
";. c #51CE47",
":. c #57CC48",
">. c #5CCD4E",
",. c #54D346",
"<. c #59D446",
"1. c #57D844",
"2. c #58D945",
"3. c #61C34B",
"4. c #64CB5A",
"5. c #6DE141",
"6. c #6AC463",
"7. c #8DED3C",
"8. c #97F23C",
"9. c #8FA77E",
"0. c #85E340",
"q. c #284882",
"w. c #4E6385",
"e. c #556486",
"r. c #557784",
"t. c #6A7586",
"y. c #6C7A86",
"u. c #6F718B",
"i. c #717B8A",
"p. c #777C88",
"a. c #6D6C95",
"s. c #78699A",
"d. c #8A3DA7",
"f. c #8E3AAA",
"g. c #903BAC",
"h. c #973FB1",
"j. c #867B82",
"k. c #81739B",
"l. c #9149AE",
"z. c #8B5BAA",
"x. c #9D59AB",
"c. c #9E44B7",
"v. c #9659B1",
"b. c #A044B8",
"n. c #A64EBD",
"m. c #A55BB9",
"M. c #AB71A9",
"N. c #AE4DC3",
"B. c #B04EC5",
"V. c #AD52C2",
"C. c #B350C7",
"Z. c #6E8383",
"A. c #7B848C",
"S. c #749F8A",
"D. c #7B8596",
"F. c #6FA282",
"G. c #79A786",
"H. c #85858D",
"J. c #8D828D",
"K. c #849285",
"L. c #858797",
"P. c #858D9B",
"I. c #998E92",
"U. c #938C9E",
"Y. c #86979B",
"T. c #87979E",
"R. c #8A999F",
"E. c #AA9491",
"W. c #A89999",
"Q. c #B39B95",
"!. c #B79F99",
"~. c #8EA98C",
"^. c #90B28B",
"/. c #BFA399",
"(. c #A4B595",
"). c #8C96A1",
"_. c #9299A5",
"`. c #BD8EAE",
"'. c #A1A0A8",
"]. c #B9A8AB",
"[. c #C3A79D",
"{. c #CA9CB1",
"}. c #CAACA4",
"|. c #C9AEAB",
" X c #C3B0AE",
".X c #D6B5AB",
"XX c #D9B8AF",
"oX c #D3A9B3",
"OX c #D4B7B1",
"+X c #DDBDB4",
"@X c #E1BEB5",
/* pixels */
"=.H H H H H S S V S H H H A H H H H n J J J N 8.8.8.8.h 2.2.2.2.1.H H H H H M n n n n m F F F F F M I n J n J =.7.5.0.0.",
"V H H H H H G G F F F F G F F F F D n J J J B 8.8.8.8.h 2.2.2.2.2.H H H H G I J J J J I F F T F T M J J J J I 3.8.8.8.8.",
"S H H H H H G F F F F F F F F F F F n J J J N 8.8.8.8.0.2.2.2.2.2.H H H H H I J J J J n T F F F F M J J J J J 3.8.8.8.8.",
"H H H H H H G F F F F F F F F F F D n J J J F 8.8.8.8.5.2.2.2.2.2.H H H H H m J J J J n F F F F F b J J J J J 3.8.8.8.8.",
"H H H H H H G F F F F F G T F T F F n J J J C 8.8.8.8.5.2.2.2.2.1.S S H H H I J J J J I T T T F G M J z J J J >.8.8.8.8.",
"H H H H H S A F F F F D D D D D G G D D B B C h 5.5.5.:.=.Q =.Q Q A A A A A m J J J J J D F D D T b n m I n x >.7.7.8.7.",
"W H H H H G F F T F T J J J J J >.8.8.8.8.8.<           X w w Z V T F F T T I J J J J I n J n J J A ;.;.;.;.;.<.5.2.2.2.",
"W H H H H G F F A T F J J J J J _ 0.8.8.8.8.<           X w w Z S F F T T T M J J J J I J J J J J A 2.2.2.2.1.1.2.2.2.2.",
"W H S W H G F F F F F n J J J J ~ 8.8.8.8.8.<   2 =.l   X w w 9 9 L T T T T M J J J J I J J J J J H 2.2.1.2.2.2.2.2.2.2.",
"W H W S H G F F F F T J J J J J ^ 8.8.8.8.8.<   j 2.E   X w w w w L T T F F I J J J J I J J J J J A 2.2.1.1.2.2.2.2.2.2.",
"S S S S S A F F T F D J J J J J ~ 7.7.7.7.7.E k E ,.E     $ $ % w U T T F T M J J J J x J J z x J S 2.2.1.1.2.2.1.1.2.2.",
"F F F F F F F T D F T n J J J J S 2.2.2.2.1.V V W W k         w w I T T F F M n J J J x n n n n n A ;.;.;.,.;.,.,.;.,.;.",
"B F F T F F F F F F T J J J J J S 2.2.2.2.1.V H H S c         w w t u U F F m J J J J x A S S S H H V V V V V V V V V V ",
"F F F F F F F F T F T J J J J J S 2.2.2.2.2.H S H / c         % w w w u F T m J J J J x S H H H H H H H H H H H H V S H ",
"F T F F F T T F F F F n J J J J S 1.2.2.2.2.W H H H c       X q w w w t L U m J J J J x S H H H H A V H H H H H H H H H ",
"D F F F G T T F F F D n J J J J S 1.1.1.2.<.W H H H c         q w w w w w t m J J J x x S H H H H V H H H H H H S V S V ",
"m m m n m m m m m I m M M M D T C A A A A A S H S Z j         q w w q q q p ~ H W Q W V M b m m b D H H G V G A G G G F ",
"J J J J J J J J J J x D T T T F I J J x J J S H 3         q w w w X       .   ; 1.1.1.,.n J x x J m F F F F T x n J J J ",
"n J J J J J J J J J x D F F F F M J J J x x S S <       X q w w q + O O O .   ; :.,.,.;.n J J J J m F F F F D x J J J J ",
"J J J J J J J J J J x D F F F F M J J J x x : . .         X X X   j.E.E.E.g     - - - - 5 J J J J m F F F F D J J J J J ",
"n J J J x J J J J J J F T T F F I n x J J J :         X           J.[.!./.j.        X   5 x J J J m F F D F D n J J J J ",
"J J J J x n m m m M M A G F G G B x * * * * .       8 j.p.% % L.E.}..XU.e.e.d d d d R R x n x x x M D D D C D m I M m m ",
"x J J J J A ,.,.,.,.,.1.2.2.,.<.=.Z                 i !.W.q.q.oX@X@X@XL.q.q.i.i.y.i.W W F F F F T M x J x x n -.,.,.,.,.",
"x J J J J S 2.2.1.1.1.1.2.4.G.6.=./ J.J.d s s s s s t././.U.U.OX@X@X@X XU.U.P.Y.L.P.S...X.F F F F m J J J J n ,.1.1.1.1.",
"x J J J J A 2.2.2.2.2.2.2.*._.~.=.+.@X@XH.i.i.i.p.i.H.[.[.@X@X@X@X@X@X@X@X X_._._._._._.o.F F F F m J J J J I -.1.2.2.2.",
"x J J J J V 2.2.2.2.2.2.2.6.G.G.#.%.I.I.A.i.i.i.i.i.H./.[.+X@X@X+XoX{.oX@X X_._._._.S.G.T F F F F M J J J J n ,.2.2.2.1.",
"x J J J J A 2.2.2.2.2.2.2.2.2.4._.P.    t.t.i.i.i.i.H.[.[.@X@X@X@XM.x.`.@X X_._._._.G H T T F F F M J J J J n ,.1.1.1.1.",
"Q V V V Q Q Q -.) =.=.=._ =.=.#._.U.  O d e.t.i.i.i.j.W.!.XXXXXXXXM.M.`.OX]._._._._.@.@.T T F F F M J J J J x Q =.=.=.Q ",
",.2.2.2.2.Q H H H H H ..L...H +._.P.X       d i.i.i.i.i.p././././././.W._._._._._._._._.o.F F F F M J J J J x S H H H H ",
",.2.2.2.2.-.H H H H H ..A.] / +.).P.O O     s t.t.t.t.t.p.Q.Q.Q.Q./.Q._.D._._.'._.R._._.o.F F F F m J J J J n A H H H H ",
",.2.1.2.1.=.H H H H H H / ] Z.i.i.i.t.t.@   X O O O O O O + + e r e e q.q.r._.D.T T _._.o.F F F F M J J J J x S H H H H ",
",.2.2.2.1.-.H H H H H H V ] i.i.i.i.i.t.@                     6 w r r q.q.e.'.S.T F R._.o.F F F F M J J J x x S H H H V ",
"-.,.,.,.,.Q A A A A A S S G ( X.X.o.T.T.D.p.8 X X             q w w w w w q 7 0 T T o.o.T D D B T I J J J J J A V S S S ",
"G Q Q H V A n x n n n D F A D G T T _._._._.e   X             q w w w w w %   - F F F D x J J J J J J J J J J F T F F F ",
"A H A H V b J J x J x D F F G T F T $.$.$.$.u , > > = .       q w r w w w %   & D F F D n J J J J J J J J J n D G F F F ",
"H H H H A n J J J J x C F F T T F F F F T T J J x x ,         q w w w w w %   & F T F D J J J J J J J J J J J D T F F F ",
"A V H H H b J J J J J D F F F F T T F T T G J J x J ,         q w w w w w %   . 4 4 F D J J J J J J J J J J J F T F F F ",
"G V H H H b J J J J n F T F D F T G F F T F J J J x ,         q w w w w w %   .     B D x J J J J J J J J J x D D T F T ",
"-.-.=.=.=.[ Z.Z.{ { { { { Y M I M I m m m m H H N z 1         $ % % % % 6 6 * *     I m J J J J J I M M m M M m M M m m ",
"2.2.1.1.>.C.V.V.C.B.C.C.C.a.J x J J J J J J ,.1.j               X       X * x ,     z J J J J J J M F F F F D x J J J J ",
"2.2.2.2.>.m.m.N.B.N.N.N.N.s.P K x J u 5 P P <.2.j               X X X X X * J 5 o o , z J J J J J M F F F F D x J J J J ",
"2.2.2.2.2.=./ f.f.f.g.g.g.c.V.z.x K l.d.n.B.&.2.j         w w w w w q w w t J J z J .   , J J J J I F F F F D x J J J J ",
"2.2.2.2.2.-./ f.f.f.f.f.f.c.C.v.J K f.g.N.C.&.2.j       O w w w q w w w w 9 J J J J     , J J J J M T T F F T n J J J J ",
"<.1.,.<.3.m.n.B.B.V.N.N.B.C.C.l.X O f.f.s.i.i.Z.p         X     X 6 w w w w.T.T.).Y. X|._.T.T.T.).R.F.G G G F n x n n n ",
"Q W W W / C.C.C.C.C.C.C.C.C.C.l.  O g.f.u.i.i.i.a               X 6 q w w w._._._._.+X+X'._._._._._.G.1.,.,.,.V A S S S ",
"W / H H / ] ..l.h.h.h.h.l.b.C.v.c E g.g.n.m.| ( 2                 X # # o 0 ' Y Y Y } } +.+.+.+.+.#.4.2.2.2.,.V H H H S ",
"W W H H / H G f.g.f.f.f.f.c.C.v.S >.f.g.n.C.[ / 3                         : b J x J J x H H V H H =.2.1.1.2.,.V H H H H ",
"W S W S / p.p.b.b.b.b.c.b.z.a.r.S :. . .K.K.O./ 3       O f f O       8 f ` b J J J x I A H H H H =.2.2.2.2.,.V H H H H ",
"W S V H ( C.C.C.C.C.C.C.C.a.J J G 1.1.1.1.1.V S 3       7 /./.7       f /.9.N x J J J x S V V A V =.1.1.1.1.,.V V S V H ",
"S G G G G k.k.k.D.s.s.s.a.Z.J J D =.=.=.=.=.c z :   . 1 y }.}.7   = 1 A.}.^.M x J J J x =.=.=.-.=.=.=.=.=.=.=.S A G A G ",
"F F F F F F F F T T F J J J J J b V V H H H :       : A O.@X@X7   v T ^.@X(.m x J J x n ;.1.1.2.1.=.V H V S V D G T F F ",
"F F F F F F F F A T F J J J J J b A H H H V < - & & 1 H @.@X@X8 & v T ^.@X(.m x J J J n ;.1.2.2.1.=.H H S V H F T F F F ",
"F F T G F F F F D F F n J J J J b H H H H H H H S V S G @.+X+X@.T T T ^.@X(.m x J J J n <.2.1.1.2.=.W S H H S F F F F F ",
"F T T T F F F F T T F J J J J J M H H H H H H H S V V A @.+X+X@.F T G ^.@X(.m J J J J n ,.1.2.1.2.! S W H H H F F F T F ",
"G F F F T F F B D D D J J J J J b H H H H H S S S S H A G T F F D D D D B D m J J J J n ;.,.,.,.,.Q S S S H H F T F F T ",
"F F F F F B x x n J J J J J J J b H H H H S G C F F T G F F F F D n J n J J x J J J J n V V V V W S G D A F F D F F F T ",
"F F F T T M J J J J J J J J J J b H H H H V D F F T T T F F F T F J J J J J J J J J J n S H H H W G F F F F F F F F F F ",
"F F F F G M J J J J J J J J J J b S H H H S F F F G F F F T F F F J J J J J J J J J J n S H H H V G F F F F F F T F F F ",
"F F F F F I J J J J J J J J J J b H S H H H G D F F F T F F F F D J J J J J J J J J J J S V H H S S F F F F F F G T F T ",
"F T F F T M J J J J J J J J J J b H H H H H T T F F F F F F F T D J J J J J J J J J J n A H H H H G F F F F F F T T T G "
};
