/* XPM */
static char *result[] = {
/* columns rows colors chars-per-pixel */
"60 60 201 2 ",
"   c #356879",
".  c #2C7B70",
"X  c #38727E",
"o  c #785D79",
"O  c #466A7D",
"+  c #427B77",
"@  c #9D7B5F",
"#  c #A47F5E",
"$  c #957372",
"%  c #76E53F",
"&  c #248E5F",
"*  c #2C8F5E",
"=  c #2F9D57",
"-  c #26925D",
";  c #2B965E",
":  c #2D995D",
">  c #309E57",
",  c #3E965B",
"<  c #329B5C",
"1  c #3FB34F",
"2  c #34A356",
"3  c #36A954",
"4  c #3CAD53",
"5  c #36A25E",
"6  c #3AA65F",
"7  c #3BAA59",
"8  c #3EB051",
"9  c #228C60",
"0  c #288966",
"q  c #34826E",
"w  c #2A9362",
"e  c #3A9B65",
"r  c #509C56",
"t  c #7E9E49",
"y  c #40B34F",
"u  c #45BC4D",
"i  c #56BA4F",
"p  c #5ABC4D",
"a  c #44AA5A",
"s  c #58AB5A",
"d  c #41B351",
"f  c #73AD52",
"g  c #439369",
"h  c #54956E",
"j  c #4A8778",
"k  c #64966E",
"l  c #5DA36F",
"z  c #5BB660",
"x  c #6DAB69",
"c  c #4AC24A",
"v  c #4ECC49",
"b  c #51CF47",
"n  c #56CB49",
"m  c #54D346",
"M  c #59D645",
"N  c #57D844",
"B  c #58D945",
"V  c #5EC25B",
"C  c #61C34B",
"Z  c #72D349",
"A  c #6DE141",
"S  c #75E440",
"D  c #AEA93C",
"F  c #A9B13B",
"G  c #CCAE35",
"H  c #E3B330",
"J  c #E9BD31",
"K  c #8DEE3C",
"L  c #97F23C",
"P  c #CED03D",
"I  c #C8D83C",
"U  c #E5D53A",
"Y  c #FEDE36",
"T  c #F8DB38",
"R  c #839F47",
"E  c #AE924E",
"W  c #A98457",
"Q  c #85A348",
"!  c #98A442",
"~  c #89B24C",
"^  c #94B74A",
"/  c #A78466",
"(  c #B88466",
")  c #9AA16D",
"_  c #CA994A",
"`  c #CA915B",
"'  c #D2A044",
"]  c #D9B25C",
"[  c #CAA06B",
"{  c #E4A471",
"}  c #89D54F",
"|  c #85E340",
" . c #E5C14F",
".. c #F3C54F",
"X. c #47369C",
"o. c #463B98",
"O. c #463A99",
"+. c #4B3C9E",
"@. c #4D34A4",
"#. c #5332AD",
"$. c #5F2FBF",
"%. c #5A37B7",
"&. c #5D30BB",
"*. c #386E82",
"=. c #3A5EAA",
"-. c #326DA9",
";. c #2A79A7",
":. c #464D8E",
">. c #50478E",
",. c #455B88",
"<. c #595E9F",
"1. c #6C5285",
"2. c #426481",
"3. c #456A84",
"4. c #4C6195",
"5. c #5D7B90",
"6. c #636E9A",
"7. c #627694",
"8. c #574AA9",
"9. c #4F51A5",
"0. c #5250A8",
"q. c #6259AC",
"w. c #6647B8",
"e. c #7C43BB",
"r. c #5D74A5",
"t. c #7578B4",
"y. c #6B2DCF",
"u. c #6734C7",
"i. c #7436C6",
"p. c #702CD3",
"a. c #7629DB",
"s. c #7C28E1",
"d. c #7A4ACB",
"f. c #7955CA",
"g. c #7D42D4",
"h. c #997098",
"j. c #AD798B",
"k. c #BF6C9B",
"l. c #9654BB",
"z. c #B15EB9",
"x. c #BE77A3",
"c. c #BA69B0",
"v. c #953DD0",
"b. c #A13DD3",
"n. c #8525EB",
"m. c #8929EE",
"M. c #982EEE",
"N. c #8924F1",
"B. c #9223FA",
"V. c #904ECE",
"C. c #A748C9",
"Z. c #A443D7",
"A. c #53808C",
"S. c #5B839D",
"D. c #638F83",
"F. c #728C9F",
"G. c #6DA59B",
"H. c #70AA95",
"J. c #5C96B4",
"K. c #7AA7A8",
"L. c #A18998",
"P. c #8586BC",
"I. c #8789BD",
"U. c #8794BF",
"Y. c #B394AE",
"T. c #8CB7AB",
"R. c #C8898B",
"E. c #DB9285",
"W. c #D4978C",
"Q. c #C88091",
"!. c #C0999E",
"~. c #E39989",
"^. c #EFA793",
"/. c #F2A792",
"(. c #C59EA0",
"). c #CDA7A7",
"_. c #D0A8A8",
"`. c #97C7B7",
"'. c #A0D4B6",
"]. c #8D9CC2",
"[. c #929CC5",
"{. c #9E99D0",
"}. c #95A7C7",
"|. c #9DA7C3",
" X c #97A8C7",
".X c #9BABCA",
"XX c #9EB0CD",
"oX c #A2A7CE",
"OX c #A2B3CE",
"+X c #A9B4CB",
"@X c #AAB8CF",
"#X c #B7B6CC",
"$X c #A4B7D2",
"%X c #AEBBD1",
"&X c #AAB8D9",
"*X c #B9BBD3",
"=X c #AEC1D9",
"-X c #B4C4D9",
";X c #BCCFE2",
":X c #BED2E5",
">X c #D1C1C6",
/* pixels */
"c 8 8 8 8 8 4 4 8 4 8 8 4 4 8 8 4 4 - 9 9 9 < L L L L % M B B B N 4 8 8 8 8 ; & - & & : 6 6 6 6 6 e - 9 9 - w p K | | | ",
"1 8 8 8 8 8 7 7 6 6 6 6 6 7 6 6 7 6 - 9 9 & > L L L L % B B B B N 1 8 8 8 8 w 9 & 9 & ; 6 6 6 6 6 ; 9 9 9 9 9 n L L L L ",
"4 8 8 8 8 8 7 6 6 6 6 6 6 6 6 6 6 6 - 9 & & , L L L L % B B M B N 4 1 1 8 8 ; 9 9 9 9 & 6 6 6 6 6 : 9 9 9 9 9 C L L L L ",
"8 8 8 8 8 8 7 6 6 6 6 6 6 6 6 6 6 5 - 9 & & 7 L L L L % B B B B N 4 4 4 8 8 ; & 9 9 9 ; 6 6 6 6 6 : 9 9 9 9 9 C L L L L ",
"8 8 8 8 8 1 7 6 6 6 6 6 6 6 6 6 6 5 ; 9 9 9 > L L L L % B B B B N 8 4 1 1 1 w 9 9 9 9 - 6 6 6 6 6 : & & 9 & 9 C L L L L ",
"8 8 8 8 8 4 7 6 6 6 6 5 5 6 5 6 7 a 6 6 < < 7 A A A A n u u u u u 7 7 6 3 6 w 9 9 9 & w 5 5 5 6 5 : - ; ; - * n K K K K ",
"1 8 8 8 8 7 6 6 6 6 6 9 9 9 9 9 i L L L L L M B M 6.y.p.B.B.5.y 8 5 5 6 6 6 w - 9 9 9 w 9 9 & 9 & 3 b b b b b M A B B B ",
"1 8 8 8 8 7 6 6 6 6 6 9 9 9 9 9 i | L L L L B B B 6.y.p.B.B.5.y 8 6 6 6 6 6 ; 9 9 9 9 0 9 9 9 9 & 7 B B B B M M B B B M ",
"y 8 8 8 8 7 6 6 6 6 6 & 9 9 9 9 p L L L L L M 7.7.w.y.p.B.B.d.q.7.5 6 6 6 6 ; 9 9 9 & 0 9 9 9 9 & 3 N B B B B B B B B B ",
"y 8 8 8 d 7 6 6 6 6 5 & 9 9 9 9 p L L L L L M y.y.y.y.p.B.B.B.B.g.5 6 6 6 6 ; 9 9 9 9 w 9 9 9 & 9 3 N B B N B B B B B B ",
"8 8 4 4 4 7 6 6 6 6 6 9 9 9 9 9 i K K K | } z w.w.u.y.y.Z.b.M.B.g.2 6 6 6 6 w - 9 9 & 9 9 9 & & & 4 B B N N B N N N N B ",
"5 6 6 5 6 6 6 6 6 6 6 & 9 9 9 9 4 M B M 6.y.y.d y <.y.l.T T c.B.g.6 6 6 6 6 w w 9 9 & & & & - - - 3 m m b b m b m b b m ",
"5 6 6 6 6 6 6 6 6 6 6 9 9 9 9 9 4 N N N 7.y.y.d 4 <.y.l.T T c.B.g.6 6 6 6 6 ; 9 9 9 9 & 3 4 4 4 4 4 1 1 1 1 1 1 1 1 1 1 ",
"5 6 6 6 6 6 6 6 6 6 6 9 9 9 9 9 4 N N N z l + d 4 9.y.y.h.h.b.B.m.f.f.j 6 6 ; 9 9 9 & & 4 1 8 8 4 1 8 8 8 8 8 8 8 1 8 8 ",
"5 6 6 6 6 6 6 6 6 6 6 9 9 9 9 9 4 B N B N N 1 4 4 <.y.y.y.y.n.B.B.B.B.A.6 6 ; 9 9 9 9 & 4 4 1 4 1 8 8 8 8 8 8 8 8 8 8 8 ",
"5 6 6 6 6 6 6 6 6 6 5 9 9 9 9 9 8 B N N N M 1 1 1 <.y.y.y.y.v.C.b.B.B.A.6 6 ; 9 9 9 & & 4 8 8 1 8 4 8 8 8 8 8 8 8 8 8 8 ",
"; ; ; ; ; - ; ; ; : : w : : w e > 3 3 3 3 3 4 8 8 <.y.y.y.y.( H ` B.B.H.Z Z n 1 u 1 u 1 = ; ; ; = 6 8 7 8 8 8 7 7 7 7 7 ",
"& 9 9 9 9 9 9 9 9 9 9 5 6 6 7 7 w 9 9 9 9 9 4 8 8 <.y.p.y.y.( H ` B.B.) L L S B B B B m - 9 & & & w 6 6 6 6 5 9 9 9 9 9 ",
"& 9 9 9 9 9 9 9 9 9 9 5 6 6 6 6 w 9 9 9 9 9 4 8.8.$ ` ( y.y.v.C.b.B.B.V.V.V.V.V.V B B m - 9 9 9 9 ; 6 6 6 6 5 9 9 9 9 9 ",
"& 9 9 9 9 9 9 9 9 9 w 6 6 6 6 6 > 9 9 9 9 9 4 y.p.( H ' y.y.s.B.B.B.B.B.M.B.M.B.z B B m ; 9 9 9 9 ; 6 6 6 6 5 9 9 9 9 9 ",
"& 9 9 9 9 9 9 9 9 & & 5 6 6 6 6 : 9 *.*.*.*.+ $.$.$ W W $.$.a.s.n.n.n.n.n.n.n.n.D.l l l *.9 9 9 9 w 7 6 6 6 5 - 9 & 9 9 ",
"- 9 9 9 9 - ; ; ; ; ; 7 a 4 7 7 2 w u.y.y.y.y.X.@.X.+.X.@.X.$.p.y.y.p.y.y.y.p.y.y.p.y.y.y.0 9 0 - ; 5 5 5 5 < ; ; ; ; ; ",
"& 9 9 9 9 4 m m m m m m m m m b c 3 u.y.y.y.y.X.X.X.X.X.X.X.$.y.y.y.y.y.y.y.p.y.y.y.y.y.y.6 6 6 6 : 9 9 & & - v m m m m ",
"9 9 9 9 9 1 N N N B N N B B B h :.:.@.@.@.@.@.].].L.j.j.;.;.h.Q.Q.Q.Q.r.-.=.@.@.@.@.4.e q 6 6 6 6 w 9 9 9 9 - m N N N N ",
"& 9 9 9 9 3 B B B B B B B B M h X.X.X.X.X.o.X.}.[.!.E.R.;.;.L.W.E.E.E.S.;.-.X.X.X.X.*.8 6 6 6 6 6 w 9 9 9 9 w m B B B B ",
"& 9 9 9 9 1 B B B B B B B B B s O O ,.O 4.q.q.}.}.(.~.W.F.F.Y.)._._._.U.J.S.O   O ,.+ 8 6 6 6 6 6 > 9 9 9 9 - m B B B B ",
"9 9 9 9 & 3 B B B B B M B B B B c 8 4 y H. X}.}.}.)././.^.^.>X:X:X:X:X:X:X'.v 1 4 4 8 8 6 6 6 6 6 : 9 9 9 9 - m B B B B ",
"1 u 1 1 u u c c c u c u u c u c y 7 7 7 H. X}.}.}.)./.^.^.^.>X:X;X;X;X:X:X=X1 8 7 7 7 7 7 6 6 6 6 w 9 9 9 9 - u c c u c ",
"m B B B N v 3 1 4 y 4 d 8 8 8 8 7 6 6 6 G.}.}.}. X+X#X#XT.|.*X:X*Xx.x.*X:X`.7 6 6 6 6 6 6 6 6 6 7 w 9 9 9 9 9 4 8 8 8 8 ",
"m B B B N c 8 8 d 4 y 4 8 8 8 8 4 5 6 6 G.}.}.}. X+X@X@X X X=X:X*Xk.k.*X:X`.7 6 6 6 6 6 6 6 6 6 6 ; 9 9 9 9 & 4 4 8 8 8 ",
"m B B B B c 8 8 4 y 4 y 4 y 8 8 7 6 6 6 G.}.}.t.t.[.%X$X X X&X-X*XY.Y.#X-X`.7 6 6 6 6 6 6 6 6 6 6 w 9 9 9 9 & 4 8 8 8 8 ",
"m B B B B c 1 8 y 4 d 4 y 4 8 y 7 6 6 6 G.}.}.X.o.I.%X$X X XOX%X%X%X%X%X@XT.7 6 6 6 6 6 6 6 6 6 6 : 9 9 9 & & 4 8 8 8 8 ",
"v m m m m c 3 3 4 4 3 4 4 4 4 4 7 6 6 6 G.].].X.X.P.@XOX|..X+X=X@X@X%X@X%XT.7 6 6 6 6 6 5 5 5 5 < < 9 9 9 9 & 4 4 4 4 4 ",
"1 1 1 1 8 2 & - & & - 6 6 6 6 7 6 6 6 6 3.+.8.X.X.t. X X@X@X@X@X-X;X;X+X}.K.6 6 6 6 6 5 - 9 9 9 9 9 9 9 9 9 & 5 7 , 6 6 ",
"7 8 8 8 8 > 9 9 9 9 9 5 6 6 6 6 6 6 6 6 2.X.X.X.+.t. X X%X%X@X@X=X:X:XOX}.K.6 6 6 6 6 5 9 9 9 9 9 9 & & 9 0 & 6 6 6 6 6 ",
"8 8 8 8 8 > 9 9 9 9 9 2 6 6 6 6 6 6 6 6 2.X.X.X.+.t. X X@X=X+XOX$X:X:XOX}.K.6 6 6 6 6 5 - 9 9 9 9 & ^ ^ s & & < 6 6 6 6 ",
"3 1 8 8 8 : 9 9 9 9 9 5 6 6 6 6 6 6 6 5 *.X.X.X.X.t..X.X%X%X.X XXX:X:XOX}.K.6 6 6 6 6 5 9 9 9 9 9 9 T Y ~ 9 - 6 6 6 6 6 ",
"3 1 8 4 8 > 9 9 9 9 & 6 6 6 6 6 6 5 e e ,.X.X.X.X.t.U.U.@X-X.X}.XX;X:X.X].K.6 6 5 6 6 < 9 9 9 ; , , P U ~ 9 9 6 6 6 6 6 ",
"v v v v c 8 > > = = = ; ; ; ; ; ; ; o.o.o.X.X.X.X.X.+.8.:X:X$X X.X=X@Xf.y.8.w w w < ; ; & & 9 f T T a < : : : w : : ; ; ",
"B B m m B c 8 8 4 1 4 & & 9 9 9 9 9 O.X.X.X.X.X.X.X.X.8.:X:X$X X.X@X%XV.y.8.9 9 9 9 9 9 9 & & f Y T a 6 6 6 6 9 9 9 9 9 ",
"B B B B B c 8 8 1 4 4 - 9 9 9 9 9 9 X.X.X.X.X.X.X.X.X.8.:X:X$X X.X%X%Xf.y.u.9.0.0 9 9 9 9 ! ! Q f f a 6 6 6 5 9 9 9 9 9 ",
"B B B B B c 8 8 8 1 4 & 9 9 9 9 9 9 o.X.X.X.X.X.X.X.X.8.:X:X$X X.X%X%Xf.y.y.y.y.. 9 9 9 9 H H ! 9 w 6 6 6 6 6 9 9 9 9 9 ",
"B B B B B c 8 8 8 4 4 & 9 9 9 9 9 9 O.X.o.:.:.X.X.X.X.8.&X&XXX|. XoXoXf.%.u.y.y.*.. q g g D G t 9 : 6 6 6 6 6 9 9 9 9 9 ",
"M M m m m c 8 8 8 8 4 - 9 9 9 9 & - O.X.  - v X.X.X.X.X.X.X.P.%X{.y.y.X - X y.y.y.y.l././.w & 9 - : 7 6 7 a 7 - & - & - ",
"u y y y 1 8 8 8 1 1 4 & 9 9 9 9 3 b O.X.g b y X.X.X.X.X.X.X.P.%X{.y.y.j 3 j y.y.y.u.l././.a y y 4 u M M m m b 8 3 4 3 4 ",
"y y 4 d 8 8 8 8 8 1 3 & 9 9 9 f I I j.j._ I P X.X.X.X.X.X.X.I.%X{.y.y.j 4 a + *.# ( / k x d a y 1 c N N B B m y 1 1 8 1 ",
"y 4 d 4 8 8 8 8 8 8 4 - 9 9 9 ~ Y Y ~.W. .Y Y X.X.o.X.X.X.X.I.#X{.y.y.j 8 8 = & G H D & 4 y 4 4 4 c N B B B m y 8 8 8 8 ",
"y d 4 d 8 8 8 8 8 8 3 9 9 9 9 ~ Y Y { { ..Y Y X.X.o.1.o #.#.t.{.{.y.y.j 8 8 : & ! D R & 3 4 y y 1 c B B B B m 1 8 8 8 8 ",
"y 4 4 y 4 4 4 y 1 8 4 & & & & ~ Y Y Y Y Y Y Y X.X.W H ' y.y.y.y.y.y.y.j 4 1 = 9 9 9 9 & 4 4 1 4 1 c N N N N N 1 8 8 1 4 ",
"4 4 7 7 4 7 2 4 7 7 7 & 9 & & ~ Y Y Y Y Y Y Y X.X.# H ' y.y.y.y.y.y.y.j 3 7 ; 9 9 9 9 & c c c c c c c c c c u 4 7 a 7 7 ",
"5 6 6 6 6 6 6 6 6 6 5 & 9 9 9 t J J J J J J J X.X.>.1.1.y.y.n.N.v.] ] f 6 6 ; & 9 9 9 - m N N N N c 1 8 8 8 8 6 6 6 6 6 ",
"7 6 6 6 6 6 6 6 6 6 5 w 9 9 9 t H H H H H H H X.X.X.X.@.y.y.n.N.C.Y Y f 6 6 ; & 9 9 9 - m N N B B c 8 8 8 8 8 6 6 6 6 6 ",
"6 6 6 6 6 6 6 6 6 6 6 & 9 9 & r F F F F E W W o.X.@.#.#.y.y.n.B.b.[ [ s 6 6 ; 9 9 9 9 - m N N N M c 4 y 8 8 8 5 6 6 6 6 ",
"6 6 6 6 a 5 6 6 6 6 5 9 9 9 9 9 = 4 1 4 O X.X.X.X.&.y.y.y.y.n.B.N.y.y.A.6 6 ; 9 9 9 9 - m B B N B u y y 8 8 4 7 6 6 6 6 ",
"7 6 6 6 6 6 < 5 5 5 < & 9 9 9 9 = 4 4 4   o.X.X.X.$.y.y.y.y.n.B.N.y.y.+ 5 6 ; 9 9 9 & - b m N m M u 4 4 d 4 4 7 6 6 6 6 ",
"6 6 6 6 6 w & w 9 & 9 & 9 9 9 9 = 4 :.:.@ ' _ X.X.$.y.e. . .z.B.N.y.y.X & 9 9 9 9 9 & & 1 y 1 1 y 4 6 7 < 5 7 5 6 6 6 6 ",
"6 6 6 6 6 w 9 9 9 9 9 9 9 9 9 9 = y o.X.# H H X.X.&.y.e.Y Y c.B.N.y.y.*.& 9 9 9 9 9 9 & 4 4 1 1 y 7 6 6 6 6 6 6 6 6 6 6 ",
"6 6 6 6 6 : 9 9 9 9 9 9 9 9 9 .   . o.X.o # @ X.X.&.y.i.E.R.C.B.N.s.s.0.=.*.9 9 9 9 9 & 4 1 1 4 d 7 6 6 6 6 6 6 6 6 6 6 ",
"6 6 6 6 6 e 9 9 9 9 9 9 9 9 9   X.X.X.X.X.X.X.X.X.&.y.p.B.B.B.B.B.B.B.a.y.8.9 9 9 9 9 - 4 4 1 4 8 7 6 6 6 6 6 6 6 6 6 6 ",
"6 6 6 6 7 w 9 9 9 9 9 9 9 9 9   X.X.X.X.X.X.X.X.X.&.y.p.B.B.B.B.B.B.B.a.y.8.9 9 9 9 9 & 4 1 4 1 8 7 6 6 6 6 6 6 6 6 6 6 "
};
