/* XPM */
static char *result[] = {
/* columns rows colors chars-per-pixel */
"60 60 191 2 ",
"   c #1A3057",
".  c #1C3B57",
"X  c #1C335B",
"o  c #1D3D58",
"O  c #21355A",
"+  c #263A5D",
"@  c #1E3760",
"#  c #223A65",
"$  c #2B3F63",
"%  c #243E6B",
"&  c #513B7F",
"*  c #1F4356",
"=  c #1E4458",
"-  c #1D4A5A",
";  c #1D595B",
":  c #204757",
">  c #234954",
",  c #235857",
"<  c #225159",
"1  c #1E665C",
"2  c #1F6D5D",
"3  c #3E684E",
"4  c #2A6856",
"5  c #2B715B",
"6  c #297858",
"7  c #2B426A",
"8  c #354464",
"9  c #3B4764",
"0  c #2E596D",
"q  c #2A4675",
"w  c #284A72",
"e  c #364D77",
"r  c #324C79",
"t  c #33616C",
"y  c #237D64",
"u  c #387465",
"i  c #4E566F",
"p  c #4C5B74",
"a  c #4A597F",
"s  c #55647B",
"d  c #5D6A7E",
"f  c #4C7875",
"g  c #477B7A",
"h  c #676678",
"j  c #66757D",
"k  c #76E53F",
"l  c #3A844D",
"z  c #288459",
"x  c #238E5F",
"c  c #338B5A",
"v  c #368959",
"b  c #2F9D57",
"n  c #26925D",
"m  c #2B965E",
"M  c #2E9A5C",
"N  c #309E57",
"B  c #389C52",
"V  c #34955D",
"C  c #349B5D",
"Z  c #3FB34F",
"A  c #34A456",
"S  c #39A655",
"D  c #3CAD52",
"F  c #36A25E",
"G  c #3AA65F",
"H  c #3BA959",
"J  c #3EB051",
"K  c #228C60",
"L  c #2B8866",
"P  c #32846B",
"I  c #2A9362",
"U  c #339463",
"Y  c #3C8771",
"T  c #3DA462",
"R  c #45975D",
"E  c #40B34F",
"W  c #44BB4D",
"Q  c #4CB84C",
"!  c #56BA4F",
"~  c #5ABC4D",
"^  c #46AB59",
"/  c #52AF56",
"(  c #57BC5A",
")  c #65B551",
"_  c #459E67",
"`  c #56837E",
"'  c #4B9572",
"]  c #529A74",
"[  c #6A9A79",
"{  c #729576",
"}  c #48A464",
"|  c #52AA65",
" . c #5CA76F",
".. c #5FB265",
"X. c #57A176",
"o. c #6AAE69",
"O. c #63A576",
"+. c #67A47A",
"@. c #77B679",
"#. c #4AC34A",
"$. c #4FCC49",
"%. c #51CF47",
"&. c #57C94A",
"*. c #54D346",
"=. c #59D645",
"-. c #57D944",
";. c #58D945",
":. c #5CCB53",
">. c #61C34B",
",. c #6DDE41",
"<. c #72D349",
"1. c #68C956",
"2. c #6DE141",
"3. c #75E440",
"4. c #87D93F",
"5. c #8DED3D",
"6. c #97F23C",
"7. c #85A97D",
"8. c #85E340",
"9. c #9DCB7D",
"0. c #543681",
"q. c #2D4C84",
"w. c #514080",
"e. c #576485",
"r. c #567585",
"t. c #626C86",
"y. c #786C8F",
"u. c #6A7585",
"i. c #6B7789",
"p. c #717B8A",
"a. c #666D93",
"s. c #76689B",
"d. c #797894",
"f. c #8F3AAB",
"g. c #903BAC",
"h. c #973FB1",
"j. c #8B7F84",
"k. c #877E94",
"l. c #8F48A9",
"z. c #9342AE",
"x. c #9D5AAB",
"c. c #9D58B7",
"v. c #A044B8",
"b. c #A74EBE",
"n. c #A458BA",
"m. c #9164A6",
"M. c #A368A7",
"N. c #AE4DC3",
"B. c #B24FC6",
"V. c #AD51C2",
"C. c #B350C7",
"Z. c #6A8282",
"A. c #7A898A",
"S. c #669F81",
"D. c #759D8C",
"F. c #7A8698",
"G. c #6EA281",
"H. c #79A587",
"J. c #8D878D",
"K. c #96878A",
"L. c #8B8393",
"P. c #848992",
"I. c #848C9A",
"U. c #978D98",
"Y. c #819D94",
"T. c #87979E",
"R. c #8A9B9D",
"E. c #9D9192",
"W. c #A8938F",
"Q. c #AA9692",
"!. c #A79698",
"~. c #B39B95",
"^. c #94B786",
"/. c #88A494",
"(. c #BFA399",
"). c #ADB995",
"_. c #8D97A2",
"`. c #9299A5",
"'. c #9898A4",
"]. c #AB9CA6",
"[. c #A2A0A7",
"{. c #B8A9AA",
"}. c #CA9CB1",
"|. c #CAACA7",
" X c #D0B1A7",
".X c #D5B4AB",
"XX c #D0BCAB",
"oX c #D9B8AF",
"OX c #D0ADB2",
"+X c #D9B8B3",
"@X c #E1BEB5",
/* pixels */
"#.J J J J J D D J D D D Z D Z D D D n K K K B 6.6.6.6.3.;.;.;.;.-.J J J J J m n x x n m G G G G G M K I n n n ! 5.5.<.5.",
"Z J J J J J H H G G G G H G G G G H n K K K C 6.6.6.6.k ;.;.;.;.*.Z J J J J I K x K K n T G G G T M K K K K K :.6.6.6.6.",
"D J J J J J H G G G G G G G G G G F n K K K B 6.6.6.6.3.;.;.;.;.;.D J J J J m x K K K m G G F T T M K K K K K &.6.6.6.6.",
"J J J J J Z H G G G G G G G G G G F n K x x G 6.6.6.6.3.;.;.;.;.-.D J J J J I x K K x I G G G G H M K K K K K >.6.6.6.6.",
"J J J J J Z S T G G G G G G G G G G I x K K N 6.6.6.6.k ;.;.;.;.;.D Z D D Z I K K K K I G T G G G M x x K x K >.6.6.6.6.",
"J J D J J D H G G G G G F F F G H H G } M C A k ,.2.2.=.#.W W W W H S H S H I K K K K K F F F F F M n m n n m >.6.6.5.5.",
"Z J J J J D G G G G G K K K K K :.8.6.6.6.6.;.;.u q #             V G G F G M K K K K I n x x x x S %.%.%.%.%.*.;.;.;.;.",
"E J J J J H G G G G G K K K K K #.8.6.6.6.6.;.;.u q #             C G G T G I K K K K I K K K K K D ;.;.;.;.;.;.;.;.;.;.",
"E J J J D H T G G G G x K K K K ! 6.6.6.6.6.u t w q # X > B l     V G G G G M K K K K I K K K K K S -.;.-.-.-.;.;.;.;.;.",
"E J J J D D G G G G G x K K K K ! 6.6.6.6.6.t q q q #   , D A     V G G G G M K K K K I K K K K K D ;.-.-.-.;.;.;.;.;.;.",
"J D D D D D G T G G F x K K K K ! 5.5.5.5.5.t q % @ X   < D S 6 6 F G G G G M K K K K K K K K K x D ;.;.-.-.-.-.-.-.;.;.",
"F G G G G G G H G G G x K K K K D ;.;.;.;.=.0 q +   X   < G G H G G G G G G I x K K K K n n n n x D %.%.%.%.*.%.%.*.*.%.",
"F T G G G G G T G G G K K K K K D ;.;.*.R v r q @       < G G G G G G G G T m K K K K K S D D D D Z Z Z Z Z Z Z Z Z Z Z ",
"F G G G G G G G G G G K K K K K D ;.;.$.w q q q @       > G G G G G G G G T M K K K K x D D Z Z D J J J J J J J Z Z J J ",
"F G G G T T G G G G G K K K K K D &.Q ^ q q q q @       < G G G G G G G G G m K K K K x D Z D Z Z J J J J J J J J J J J ",
"F G G T H T G G G G G K K K K K D Q q q q q q q @       < G G G G G G G G G m K K K K n D D Z D D Z J J J J J J J J J J ",
"m m n m m m n n n m m C M C M V M c q 7 % q q q # X X   > V C T G <.<.<.<.<.&.W W E W E b M M b M H H J D J D D H H H G ",
"x K K K K K x K K K x F G G G 5             % q q q #       : G G 6.6.6.6.6.3.;.;.;.;.%.n K K K K m G G G T F K x K x K ",
"x K K K K K K K K K x C F F N 5     X X O O % q q % #       o V F 6.6.6.6.6.k ;.;.;.;.%.n K K K K M G G G G G K K K K K ",
"x K K K K K x x K K x < o o . .   8 Q.Q.W.Q.8 X X X X         : . 4.6.6.6.6.3.;.;.;.;.%.n K K K K m G G G G G x K K K K ",
"n K K K K K K x K x x =           9 (.(.(.(.8         X           4.6.6.6.6.3.;.;.;.;.*.n K K K K m G G T G G x K K K K ",
"x K K K K n n m m m M c v f s s s s e.a..X.X!.!.w.% s j.h         3 3 3 3 ) 2.*.*.*.*.$.n K K n K M F F F A F n I M M M ",
"x K K K K D *.*.*.-.*.*.=.[ p.p.p.t.q.q.@X@X@X@Xa.q.p.(.K.                l #.J E E E J F G F G G M K K K x n %.%.-.%.%.",
"K K K K K Z -.-.-.-.-.@.@.D.I.I.P.I.U.'.@X@X@X@X]._.!.(.K.p p p p i a j.j.o.#.| G.+.^ D G G T G G m K K K K n %.-.-.-.-.",
"n K K K K J -.-.;.;.;./.`.`.`.`.`.[.@X@X@X@X@X@X+X@X X(.Q.p.p.p.p.p.p.|.@X9.#. .`.D.J H G G G G G m K K K K I *.;.;.;.;.",
"K K x x K J -.-.;.;.;.@././.`.`.`.[.@X@X}.}.+X@X@X@X X(.!.p.p.p.p.p.p.J.E.7...+.H.G.J J G G G G G M K K K K n *.-.-.;.;.",
"K n K x K H ;.;.;.;.;.;.-.@.`.`.`.[.+X+Xx.x.OX@X@X@X X(.Q.p.p.p.p.p.p.8 X s `.G.H J J J G G G G G I K K K K n %.-.-.-.-.",
"Z Z Z Z Z W #.#.#.#.W ( ( H.`.`.`.'.+XOXM.M.OX+X+XoX|.~.E.p.p.p.p.t.d + X s `.G.H G } | G G G G G M K K K K K W #.#.#.W ",
"*.;.;.;.;.#.J J E D E Y.`.`.`.`.`.`.`.'.(.(.(.(.(.(.E.p.p.p.p.p.p.+       e.`.D.G } F.T.G G G G G m K K K K n D J J J J ",
"*.;.;.;.;.$.J J D E ^ D.`.`.R._.`.`._._.~.~.~.~.~.~.J.u.u.u.u.u.u.+   X   e.`.D.} } A.A.G G G G G m K K K K K D J J J J ",
";.;.;.-.-.#.J J E D E /.`.O.^ +.`.F.r r e e e e $ + + O O O . X +     s u.i.p.p.Z.Z.T T G G G G G m K K K K K D D Z Z D ",
"*.;.-.-.-.#.J J D E D D.`.O.D +.`.F.q q q q q q X             X       e.p.Z.p.p.p.Z.T T G G G G G m K K K K n D Z Z D Z ",
"$.*.*.*.*.#.D D D D D H | J D L 8 7 q q q q q q #                 i.F.I._.S.T U } } G G b F F F F n K K K K K D D Z D D ",
"J J Z Z Z N K K K K x G T G G 5   @ q q q q q q @                 F.`.`.`.G.T T T T T F n x x K K K K K K K K T F G G F ",
"H J J J J b K K K K K N G G G 5   X q q q q q q @       = 2 2 1 2 ] X.X.X.T G G T G T T K K K K K K K K K K n A T H G G ",
"J J J J Z b K K K K K G G G G 5   @ q q q q q q @       - K K K n G G T T T H G F G G A x K K K K K K K K K K T T G G G ",
"D J J J J b K K K K K F G c 5 <   @ q q q q q q @       = K x K K G G G G G G G G G G M K K K K K K K K K K x F G G G G ",
"D J J Z Z b K K K K K T G 4       X q q q q q q @       - K x x n F F T F T G G G G G m x K K K K K K x K x x T G G G T ",
"#.$.#.#.#.J N N b b N M I <   . ; - % # % % # % @       = z l Z J m M m M M m I m I Z.Z.r.r.r.Z.r.` Y M M m M m m m m m ",
";.;.-.;.-.#.J J J Z J K K ;   ; K 2 X   X X             X   - *.*.K K K K K K K K Y V.V.n.V.V.b.C.C.d.G F T F x K K K K ",
";.;.;.;.;.#.J J J J D z y ; . 1 K 2 X X X X   X X           > =.;.P P P P y K L L g V.N.N.N.N.N.b.n.d.G G G T x K K K K ",
";.;.;.;.;.#.J J J J D -   1 K K K y w q q q q q q q #       > =.*.c.V.g.f.e.K r.V.n.g.g.g.g.g.g.e.U T G G G G K K K K K ",
";.;.;.;.;.#.J J J J D =   1 K K K y q q q q q q q q #       : &.*.c.N.h.f.e.K r.C.V.g.g.g.g.g.f.e.M G G G T G K K K x K ",
"=.;.*.*.:./.R.R.R.R.R.{. X[.T.F.T.F.q q q q X X             O { Z.d.p.l.f.0.X i C.C.V.N.N.N.N.N.b.n.F.G H H H n x x x x ",
"W E E E | `.`.`.`.`.`.XX@X[.`.`.`.F.q q q q                 + p.p.p.p.l.f.&   & C.C.C.B.C.C.C.C.C.C.J.*.*.*.%.D D D D D ",
"E E H E J | | | | | | ' ] ' Y ' | / X @ X X                 : R ^ x.c.l.f.e.z e.C.N.h.h.h.h.h.h.y. .1.;.-.*.-.Z Z Z D D ",
"E D E D J J J J J J D x K K K K D Q                         O D E n.C.z.f.j n r.C.N.f.f.f.f.g.g.j $.-.;.-.-.-.Z Z D Z Z ",
"E E D E J J J J J J D n K K K K D ~ h h         i h i       * D E Z.A.u.j _ n r.a.s.v.v.v.v.v.v.m.A.o.;.;.-.-.J D Z Z D ",
"E D E J J J J J D D D K K K K K D :.(.Q..       J.(.h O     : D H E J J D J b x K Y V.C.C.C.C.C.C.C.J.-.-.-.*.E Z J J Z ",
"H H H H S H H S D H D K K K K K A 1.|.{.4 4 .   K.|.{ , <   . 5 6 B H D D H m K K L s.s.L.L.L.L.L.k.[ #.#.#.#.D H D H H ",
"G G G G G G H G G G G x K K K K M ..@XXXJ J >   E.@X^.S v         V T G G G m x K K K n *.;.;.;.;.#.J D J J D H G G G G ",
"H G G G G G G G G G G x K K K K b ..@XXXJ J , > !.@X^.D v = = : : V T G G G m K K K K n *.;.;.;.;.#.J J J J D G G G G G ",
"G T G G G T G G G G G K K K K K b ..@XXXJ J J D ).@X^.H G T G G G G G G G G M K K K K n *.;.-.-.;.#.Z D J J D G H T G G ",
"H G G G G G G G G G F K K K K K b ..@XXXJ J J J ).@X^.H G G G G G T G F T G m K K K K n *.;.-.-.;.#.D Z J J D H T G G G ",
"G G G G G F F F G F F K K K K K b D J J J J D D D D J D G G G G G F F F F F m K K K K n *.*.*.*.*.#.S J D S D G G G G G ",
"G G G G G I n x x x K K K K K K b D J J J D S S H G F G G G G G F n K x x x K K K K K n Z Z Z Z E D F H H H H G G G G G ",
"G G G G G m K K K K K K K K K K b D E D J J H G G G G G G G G T G K K K K K K K K K K n D Z D J J H G G G T G G G G G T ",
"G G G G G M K K K K K K K K K K b D D E J D G F G G G G G G G G F K K K K K K K K K K K D J Z D J H G G G G G G G G G G ",
"G G G T T M K K K K K K K K K K C D E D J J G G G G G G G G G G F K K K K K K K K K K n D J J J J H G G G G G G G G G G ",
"H T T H T M K K K K K K K K K K b E D E J J G G G G G G T G G G H K K K K K K K K K K K D J J J J D G G G G G G T G G G "
};
