/* XPM */
static char *_3c79424fd7c41edafd805339e1de5bcU8p2SXQu9fXwDlYb[] = {
/* columns rows colors chars-per-pixel */
"60 60 149 2 ",
"   c None",
".  c #765B7B",
"X  c #7C6075",
"o  c #8F6F69",
"O  c #947465",
"+  c #9B7863",
"@  c #A66F7F",
"#  c #D9AA36",
"$  c #D3A53A",
"%  c #E4B42F",
"&  c #E3B330",
"*  c #FFDE36",
"=  c #F8D73C",
"-  c #AA8557",
";  c #B38C50",
":  c #A28A68",
">  c #CD9B4A",
",  c #C59B44",
"<  c #D2A045",
"1  c #DBA641",
"2  c #E9BC58",
"3  c #C9866C",
"4  c #C89E6D",
"5  c #DF9B7B",
"6  c #E09E78",
"7  c #D1A864",
"8  c #F3C54F",
"9  c #F7D242",
"0  c #F1C153",
"q  c #3528B5",
"w  c #4D3B97",
"e  c #47369C",
"r  c #49359E",
"t  c #4A3B9E",
"y  c #443C9D",
"u  c #523C9B",
"i  c #4B34A2",
"p  c #5232AC",
"a  c #5E2FBD",
"s  c #5933B4",
"d  c #5D30BB",
"f  c #5631B2",
"g  c #3858A2",
"h  c #297AA7",
"j  c #297CA9",
"k  c #5B468E",
"l  c #57438F",
"z  c #725681",
"x  c #6C4C96",
"c  c #62529B",
"v  c #715292",
"b  c #4F41A0",
"n  c #564AA5",
"m  c #584CA6",
"M  c #5B53A7",
"N  c #7E44BA",
"B  c #546AAD",
"V  c #6562AC",
"C  c #6D6EB1",
"Z  c #7071B2",
"A  c #7A78B6",
"S  c #4F21DB",
"D  c #642EC6",
"F  c #672DCA",
"G  c #6B2DCF",
"H  c #6532CB",
"J  c #6E35CE",
"K  c #7336C6",
"L  c #7B3DC4",
"P  c #7434C9",
"I  c #733FCE",
"U  c #6D2CD1",
"Y  c #702BD5",
"T  c #7729DC",
"R  c #7E27E4",
"E  c #7643CF",
"W  c #7048C5",
"Q  c #7D54CE",
"!  c #8F559E",
"~  c #99599D",
"^  c #AC7C8A",
"/  c #BF6C9B",
"(  c #A26987",
")  c #894FA5",
"_  c #854BAA",
"`  c #9458A3",
"'  c #B165AE",
"]  c #BD7AA5",
"[  c #C67D9A",
"{  c #9F39D9",
"}  c #9D36E1",
"|  c #8C24F4",
" . c #9223FA",
".. c #9F4EC1",
"X. c #AB50C9",
"o. c #8361CF",
"O. c #778D9F",
"+. c #7E8298",
"@. c #7C83B9",
"#. c #639EBF",
"$. c #808796",
"%. c #BD898C",
"&. c #BF8984",
"*. c #8081BA",
"=. c #8793BF",
"-. c #8895BF",
";. c #BC84AC",
":. c #A29BA5",
">. c #BD8EB3",
",. c #BD90B5",
"<. c #ABA7BA",
"1. c #C28E8A",
"2. c #D58C89",
"3. c #D38C87",
"4. c #DB9186",
"5. c #D4978C",
"6. c #C88097",
"7. c #C78F91",
"8. c #CE9490",
"9. c #D59B93",
"0. c #E3998A",
"q. c #E2A79A",
"w. c #F2A792",
"e. c #CFAAAB",
"r. c #C0A8AD",
"t. c #D7BCBB",
"y. c #8C92C5",
"u. c #8E9EC3",
"i. c #929CC3",
"p. c #95A7C7",
"a. c #9CA5C7",
"s. c #99A9C8",
"d. c #A0AFCB",
"f. c #A3A4CF",
"g. c #A3B2CC",
"h. c #AAB7CF",
"j. c #AEB8CF",
"k. c #BDB4C1",
"l. c #B5B7C8",
"z. c #A4A7D0",
"x. c #A4A8D0",
"c. c #ADBBD1",
"v. c #AAB9D2",
"b. c #B0BFD4",
"n. c #B2C3D7",
"m. c #B4C5DB",
"M. c #B7CADF",
"N. c #BACDE1",
"B. c #BED2E5",
/* pixels */
"                                                                                                                        ",
"                                                                                                                        ",
"                                                    G G Y  . .                                                          ",
"                                                    G G Y  . .                                                          ",
"                                                G G G G Y  . . . . .                                                    ",
"                                                G G G G Y  . . . . .                                                    ",
"                                                G G G G P X.X.}  . .                                                    ",
"                                          G G       G G N * * [  . .                                                    ",
"                                          G G       G G N * * 6. . .                                                    ",
"                                                    G G K ^ ^ .. . . . .                                                ",
"                                                    G G G G G R  . . . . .                                              ",
"                                                    G G G G G R  . . . . .                                              ",
"                                                    G G G G G ( 1 1 {  . .                                              ",
"                                                    G G G G G @ & & {  . .                                              ",
"                                                    ) ! ) G G ~ 3 3 }  . .                                              ",
"                                                G G > & < G G R  . . . . . . . . . .                                    ",
"                                                G G > & < G G R  . . . . . . . . . .                                    ",
"                                    G G G G G a p p z . . p p D T T T T T T T T T T U G G G G                           ",
"                                    G G G G G s e e e e e e e s G G G G G G G G G G G G G G G                           ",
"                                    F F F F F s t t u u u y y s P P P P P H H H F F F F F G G                           ",
"                                e e r r r r r C p.p.7.3.%.h h +.2.2.2.2.%.h h g r r r r r                               ",
"                                e e e e e e e C p.p.8.4.1.j j $.4.4.4.4.1.j j g e e e e e                               ",
"                                e e e e b V V @.p.p.9.0.5.O.O.:.e.e.e.e.r.#.#.B e e e e e                               ",
"                                          p.p.p.p.p.q.w.w.w.w.t.B.B.B.B.B.B.B.                                          ",
"                                          p.p.p.p.p.q.w.w.w.w.t.B.B.B.B.B.B.B.                                          ",
"                                          p.p.p.p.p.k.k.k.<.<.j.B.B.,.;.>.B.B.                                          ",
"                                          p.p.p.p.p.h.c.h.p.p.v.B.B.] / ] B.B.                                          ",
"                                          p.p.u.-.-.g.c.h.p.p.v.N.N.;.] ;.N.N.                                          ",
"                                          p.p.C t t a.c.h.p.p.g.c.c.j.j.j.c.c.                                          ",
"                                          p.p.C e e a.c.h.p.p.g.c.c.c.c.c.c.c.                                          ",
"                                          Z Z M e e i.g.g.d.d.g.c.c.n.m.n.g.g.                                          ",
"                                          e e e e e =.p.s.c.c.c.c.c.N.B.N.p.p.                                          ",
"                                          e e e e e =.p.s.c.c.c.c.c.N.B.N.p.p.                                          ",
"                                          e e e e e =.p.s.c.c.g.s.s.M.B.N.p.p.                            * *           ",
"                                          e e e e e =.p.s.c.c.g.p.p.M.B.N.p.p.                            * *           ",
"                                          e e e e e @.=.y.b.b.g.p.p.m.N.m.y.y.                            * *           ",
"                                    e e e e e e e e r t m B.B.v.p.p.h.c.x.G G                       * * *               ",
"                                    e e e e e e e e e e n B.B.v.p.p.h.c.z.G G                       * * *               ",
"                                    e e e e e e e e e e n B.B.v.p.p.h.c.z.G G G U U             % %                     ",
"                                    e e e e e e e e e e n B.B.v.p.p.h.c.z.G G G G G             & &                     ",
"                                    e e e e e e e e e e n N.N.v.p.p.g.j.f.G G G G G             & &                     ",
"                                    e e e     q e e e e t m m *.h.h.Q E I     S G G G G L w.w.                          ",
"                                    e e e       e e e e e e e A c.c.E G G       G G G G L w.w.                          ",
"                                    v x v     c e e e e e e e A c.c.E G G       G G _ ) ` w.w.                          ",
"                                * * 6 4.5 * * : e e e e e e e A c.c.E G G           % & %                               ",
"                                * * 6 4.5 * * : e e e e e e e A c.c.E G G           % & %                               ",
"                                * * 8 0 8 * * : e e + - + d d W o.o.J G G                                               ",
"                                * * * * * * * : e e , & < G G G G G G G G                                               ",
"                                * * * * * * * : e e , # > G G U U U K K K                                               ",
"                                % % % % % % % O e e w w u G G R  . .2 = =                                               ",
"                                & & & & & & & O e e e e i G G R  . .2 * *                                               ",
"                                & & & & $ - - . e e p p f G G R  . .&.4 4                                               ",
"                                          e e e e e D G G G G R  . .Y G G                                               ",
"                                          e e e e e D G G G G R  . .Y G G                                               ",
"                                    e e l ; ; X e e D G L 7 7 '  . .Y G G                                               ",
"                                    e e k & & O e e D G N * * 6. . .Y G G                                               ",
"                                    e e k # # o e e D G N 9 9 [  . .Y U U                                               ",
"                                e e e e e e e e e e D G Y  . . . . . . .| G G                                           ",
"                                e e e e e e e e e e D G Y  . . . . . . .| G G                                           ",
"                                                                                                                        "
};
