/* XPM */
static char *result[] = {
/* columns rows colors chars-per-pixel */
"60 60 189 2 ",
"   c #277F69",
".  c #287E68",
"X  c #307075",
"o  c #3A777A",
"O  c #427178",
"+  c #7E6274",
"@  c #9A7C5E",
"#  c #8E6F69",
"$  c #9C7668",
"%  c #AF7873",
"&  c #C67F77",
"*  c #76E53F",
"=  c #248E5F",
"-  c #2F9D57",
";  c #26925D",
":  c #2B965D",
">  c #2D995D",
",  c #329B58",
"<  c #319B5C",
"1  c #3FB34F",
"2  c #35A256",
"3  c #35A954",
"4  c #3BAD52",
"5  c #36A25E",
"6  c #3AA65F",
"7  c #3BAA59",
"8  c #3EB051",
"9  c #228C60",
"0  c #2A8568",
"q  c #378E6A",
"w  c #2A9362",
"e  c #3AA460",
"r  c #459959",
"t  c #40B34F",
"y  c #45BC4D",
"u  c #56BA4F",
"i  c #5ABA4D",
"p  c #45AA5B",
"a  c #54AD59",
"s  c #42B550",
"d  c #55B558",
"f  c #72AA50",
"g  c #449C63",
"h  c #419269",
"j  c #4B9A6B",
"k  c #458973",
"l  c #709F64",
"z  c #5DA36F",
"x  c #4AC34A",
"c  c #4ECC49",
"v  c #51CF47",
"b  c #56CB49",
"n  c #54D346",
"m  c #59D645",
"M  c #57D844",
"N  c #58D945",
"B  c #61C34B",
"V  c #71CD4F",
"C  c #6DE141",
"Z  c #75E440",
"A  c #AEB639",
"S  c #C8B335",
"D  c #E3B330",
"F  c #E9BD31",
"G  c #91C93C",
"H  c #A9CA3B",
"J  c #8DED3C",
"K  c #97F23C",
"L  c #C2CF3E",
"P  c #E7D63A",
"I  c #FEDF36",
"U  c #FCDA3A",
"Y  c #829F47",
"T  c #B18E4F",
"R  c #B28C51",
"E  c #93A544",
"W  c #96B949",
"Q  c #A0A540",
"!  c #AEAF56",
"~  c #B68865",
"^  c #CA9D45",
"/  c #C59256",
"(  c #D5AE53",
")  c #CAA06B",
"_  c #E3A272",
"`  c #88C652",
"'  c #A9CA42",
"]  c #85E340",
"[  c #DFC246",
"{  c #E2C24A",
"}  c #F5CA4A",
"|  c #47369C",
" . c #483A9B",
".. c #4D34A5",
"X. c #4F33A8",
"o. c #5432AE",
"O. c #5F2FBF",
"+. c #3A5586",
"@. c #3A6C85",
"#. c #3B56A5",
"$. c #2A79A7",
"%. c #3270AD",
"&. c #425C86",
"*. c #424493",
"=. c #444891",
"-. c #644C88",
";. c #6C5187",
":. c #476586",
">. c #487489",
",. c #57758E",
"<. c #54659B",
"1. c #636C9B",
"2. c #534AA7",
"3. c #5F49B4",
"4. c #655BAD",
"5. c #755CAA",
"6. c #6444BA",
"7. c #7355BD",
"8. c #4A76A5",
"9. c #6C66B0",
"0. c #7173B2",
"q. c #632FC3",
"w. c #6B2DCF",
"e. c #6935C7",
"r. c #7638CC",
"t. c #702BD5",
"y. c #742AD9",
"u. c #7D27E2",
"i. c #7443CF",
"p. c #7251C2",
"a. c #7C45D0",
"s. c #9F7195",
"d. c #AD778F",
"f. c #BF6C9B",
"g. c #8D57AA",
"h. c #854AB7",
"j. c #A455BB",
"k. c #BC71A9",
"l. c #AE6AB0",
"z. c #9E3ADA",
"x. c #8525EB",
"c. c #8825EF",
"v. c #9132E7",
"b. c #8B24F2",
"n. c #9427F4",
"m. c #9223FA",
"M. c #9241CD",
"N. c #A549C7",
"B. c #A341D9",
"V. c #8B72CF",
"C. c #5F808A",
"Z. c #5B9894",
"A. c #61828A",
"S. c #728C9F",
"D. c #69A59A",
"F. c #74A69E",
"G. c #7590BA",
"H. c #74A6A2",
"J. c #70AFA3",
"K. c #B58A8F",
"L. c #828BBC",
"P. c #8794BF",
"I. c #B68FB3",
"U. c #C9888B",
"Y. c #DB9186",
"T. c #C88091",
"R. c #CB9894",
"E. c #DBA79E",
"W. c #EFA793",
"Q. c #F2A792",
"!. c #C0A3A7",
"~. c #D0A8A8",
"^. c #968DCD",
"/. c #8D9CC2",
"(. c #9299C4",
"). c #9689D0",
"_. c #95A7C7",
"`. c #9CA5C7",
"'. c #97A8C7",
"]. c #9BACCA",
"[. c #A6B4CE",
"{. c #ABB7CE",
"}. c #B6B4CB",
"|. c #A3A3D0",
" X c #A6B6D5",
".X c #AEBBD1",
"XX c #B7C5DA",
"oX c #BED2E5",
"OX c #C6CAD7",
/* pixels */
"x 8 8 8 8 8 4 4 4 8 4 8 4 8 8 4 4 4 ; 9 9 9 , K K K K * N N N N M 4 1 4 1 4 < ; = ; = > 6 6 6 6 6 < 9 w ; 9 ; u J J G * ",
"1 8 8 8 8 8 7 7 6 6 6 6 7 6 6 6 7 6 ; 9 9 9 r K K K K * N N N N m 8 4 1 8 8 w 9 9 9 9 ; 6 6 6 6 e < 9 9 9 9 9 b K K J K ",
"4 8 8 8 8 8 7 6 6 6 6 6 6 6 6 6 6 5 ; 9 9 9 2 K K K K * N N N N M 4 8 8 8 8 w 9 9 9 9 w 6 6 6 6 6 5 9 9 9 9 9 B K K K K ",
"8 8 8 8 8 8 7 6 6 6 6 6 6 6 6 6 6 5 ; 9 9 w 2 K K K K Z N N N N M 8 8 8 8 8 > 9 9 9 9 : 6 6 6 6 e w 9 9 9 9 9 B K K K K ",
"8 8 8 8 8 1 7 6 6 6 6 6 6 6 6 6 6 6 : 9 9 9 , K K K K * N N N N M 1 4 4 8 8 w 9 9 9 9 w 6 6 6 6 6 > = = 9 = = B K K K K ",
"8 8 8 8 8 4 7 6 6 6 6 6 5 5 5 6 7 p 5 6 < < 2 * C C * b y x y y y 7 3 7 7 7 : 9 9 9 9 w 5 5 5 5 5 > ; : ; : ; b J J J J ",
"1 8 8 8 8 7 6 6 6 6 6 9 9 9 9 9 u K K K K K N N N N N x 8 8 j m.m.y.w.3.6 6 w 9 9 9 9 9 = 9 ; 9 = 7 v v v v b m C N N N ",
"1 8 8 8 8 7 6 6 6 6 6 9 9 9 9 9 u ] K K K K N N N N N x 8 4 j m.m.y.w.3.6 6 w 9 9 9 9 w 9 9 9 9 = 3 N N N N N m N N N m ",
"t 8 8 8 4 7 6 6 6 6 6 = 9 9 9 9 i K K K K K N N N N N x C.9.7.m.m.y.w.e.<.<.0 9 9 9 9 w 9 9 9 9 = 3 N N N N N N N N N N ",
"t 8 8 8 t 7 6 6 6 6 6 9 9 9 9 9 i K K K K K N m N N M x 7.m.m.m.m.y.w.w.w.w.q 9 9 9 9 w 9 9 9 = = 3 N N N M N N N N M N ",
"8 4 4 4 t 6 6 6 6 6 6 = 9 9 9 9 u J J J J J n v v v n y 7.m.n.B.B.r.w.e.e.3.@.X   9 = 9 9 9 = = = 3 N N M M N M M M N N ",
"5 6 6 5 6 6 6 6 6 6 6 9 9 9 9 9 4 N N N N N 1 1 1 1 4 7 7.m.B.U I g.w.3.6 6 3.w.2.9 = = ; = ; ; ; 4 v n v n v v n v v n ",
"5 6 6 6 6 6 6 6 6 6 6 = 9 9 9 9 4 M N N N M 1 8 8 8 8 p p.m.B.I I g.w.3.6 6 3.w.2.9 9 9 3 4 4 4 4 4 1 1 1 1 1 1 1 1 1 1 ",
"5 6 6 6 6 6 6 6 6 6 6 9 9 9 9 9 4 M N M N N 1 8 8 g 7.7.x.m.v.s.s.r.w.6.6 6 @.@.X 9 9 9 4 8 8 8 8 1 8 8 8 8 8 8 8 8 8 8 ",
"5 6 6 6 6 6 6 6 6 6 6 9 9 9 9 9 8 N N N M M 8 8 8 j m.m.m.m.b.w.w.w.e.3.6 6 > 9 9 9 9 w 4 8 1 4 8 1 8 8 8 8 8 8 8 8 8 8 ",
"5 6 6 6 6 6 6 6 6 6 e 9 9 9 9 9 4 M M M m m 1 8 1 j m.m.z.N.M.w.w.w.w.6.6 6 w 9 9 9 9 ; 4 8 4 4 8 4 8 8 8 8 8 8 8 8 8 8 ",
": ; : : w : : : : : w > w 5 w 5 - 3 3 3 5 3 8 8 8 j m.m.& D / w.w.w.w.3.V Z B s s s s 1 - > > - > 3 8 8 7 8 4 3 7 7 7 6 ",
"; 9 9 9 9 9 9 9 9 9 = 6 7 6 6 6 > 9 9 9 9 9 8 8 8 j m.m.& D ^ w.w.w.w.5.K K Z N N N N N ; 9 9 9 9 w e 6 6 6 5 ; 9 9 9 9 ",
"9 9 9 9 9 9 9 9 9 9 9 6 6 6 6 6 > 9 9 9 0 r.a.a.a.a.m.m.z.N.N.w.w.% / ~ 5.5.V N N N N n ; 9 9 9 9 w 6 6 6 6 5 = 9 9 9 9 ",
"; 9 9 9 9 9 9 9 9 9 9 6 6 6 6 6 > 9 9 9   m.m.m.m.m.m.m.m.m.b.w.w./ D / w.w.V b N N N n : 9 9 9 9 > 6 6 6 6 5 = 9 9 9 9 ",
"9 9 9 9 9 9 9 9 9 9 9 3 6 6 6 6 @.@.@.@.@.c.x.x.x.x.x.x.x.x.u.q.O.$ R $ O.O.z z z z z c = 9 9 9 9 > 6 6 6 6 5 9 9 = 9 9 ",
"; 9 9 9 9 ; > : : : > 7 7 p 7 p w.e.w.w.w.w.w.w.w.w.w.w.w.w.q.| | | | | | ..w.w.w.w.w.a : = 9 9 w : 5 6 5 5 5 : > > : : ",
"9 9 9 9 9 3 n n n n v n n n m m w.w.w.w.w.w.w.w.w.w.w.w.w.w.q... . .| | | | q.w.w.w.w.g 5 5 6 5 5 : 9 9 = 9 ; c n n n n ",
"9 9 9 9 9 8 N N N M M M N N N N d g :.........#.%.8.T.T.T.T.d.$.$.s.T.d./.G.2.........#.=.O 6 6 6 : 9 9 9 9 ; n N M M M ",
"; 9 9 9 9 1 N N N N N N N N N N y 4 O | | |  .#.$.%.Y.Y.Y.Y.K.$.$.K._ R._._.2...| ..| ....:.6 6 6 w 9 9 9 9 ; n N N M N ",
"9 9 9 9 9 3 N N N N N N N N N N x 4 k O O o +.8.G.G.~.~.~.~.!.D.S.R.Y.R._._.9.4.<.&.O O @.q 6 6 6 > 9 9 9 9 ; n N N N N ",
"; 9 9 9 9 3 N N m N m m N N N N c t 4 8 7 4 9 J.oXoXoXoXoXoXOXQ.Q.Q.Q.E._._._._.F.4 4 4 e e 6 e 6 5 9 9 9 9 ; v N N M M ",
"1 1 y 1 y y x x x x y y y x x y t 4 7 7 p 2 ; J.oXoXoXoXoXoXOXW.Q.Q.Q.E._._._._.F.4 7 7 5 e 6 6 6 w 9 9 9 9 ; y y x x x ",
"n N N N M x 8 8 4 t 4 4 t 4 t t 4 p e 5 6 6 = J.oXOXk.k.}.oXXX`.`.}.}.{._._.'._.F.e e 6 6 6 6 6 6 : 9 9 9 9 ; 4 8 8 8 8 ",
"n N N N M x 8 8 t 4 t t 7 t 4 4 4 < 6 e 6 6 = F.oXXXf.f.}.oXXX]._.[.{.[._._._._.F.e 6 e 6 6 6 6 6 : 9 9 9 9 9 4 8 8 8 8 ",
"n N M M M x 8 8 7 t 4 t t 4 4 t 7 6 6 6 6 6 ; D.XXXXI.I.}.XXXX'._.{..X].0.0.(._.H.6 6 6 6 6 6 6 6 w 9 9 9 9 = 4 8 8 8 8 ",
"N N M M M c 8 8 t 4 t t 4 t t t 7 6 6 6 6 6 = D..X.X.X.X.X.X{.'._.{..X(.| | P.'.H.6 6 e 6 6 6 6 7 > 9 9 9 9 = 4 8 8 8 8 ",
"c M n n n x 3 3 4 4 4 4 4 4 4 4 7 6 6 6 6 6 w D.{..XXX{..X.X[._.'.[..X/.| | L.(.H.6 6 6 5 5 5 5 5 : 9 9 9 9 ; 3 8 8 4 4 ",
"7 1 1 1 8 3 = = = = = 5 6 6 5 7 6 6 6 6 6 6 9 Z.'.].XXoXXX.X.X{.{.].'.L.| | ..*.:.6 6 5 9 9 9 9 9 9 9 9 9 9 = 5 6 6 5 6 ",
"7 8 8 8 8 - 9 9 9 = = 5 6 6 7 5 6 6 6 6 6 6 9 Z.'.].oXoXXX.X.X.X.X].'.G.| | | | &.6 6 e 9 9 9 9 9 9 9 9 9 9 = 6 6 6 6 6 ",
"3 8 8 8 8 - 9 9 > W W p 6 6 6 6 6 6 6 6 6 6 9 Z.'.].oXoX X].[..X.X].'.L.| | | | &.6 6 e w 9 9 9 9 9 9 9 9 9 9 5 6 6 6 6 ",
"8 8 1 8 8 - 9 9 r I I p 6 6 6 6 6 6 6 6 6 6 9 Z.'.].oXoX X_.]..X.X].(.L.| | | | &.6 6 5 = 9 9 9 9 9 9 9 9 9 9 5 6 6 6 6 ",
"4 8 4 4 8 - 9 9 r P P a a p 6 5 6 6 6 5 6 5 9 Z./._.oXoX[._._..X.X(.(.G.| | | | &.e q 5 = = 9 9 9 = 9 = 9 9 ; 6 6 6 6 6 ",
"c c x x c 4 - - - 2 2 P U W > w : > : > w w 8 ,.w.i..X.X]._.].oXoX4. . .| | | | | | | 0 = 9 9 9 9 : > w w > w > : : : : ",
"N N N N N x 4 1 t t 4 P I W 9 = 9 9 9 9 9 = n C.w.i..X.X]._.].oXoX4. .| | | | | | | | . 9 9 9 9 9 w 6 6 6 7 6 9 = 9 9 9 ",
"N N N N m x 8 8 4 t 4 f f Y Q E 9 9 9 9 0 2.1.4.w.i..X.X]._.].oXXX4.| | | | |  .| | | 0 9 9 9 9 9 w 7 6 6 6 5 9 9 9 9 9 ",
"N N N N M x 8 8 t 4 4 = = Y D D 9 9 9 9 0 w.w.w.w.r..X.X]._.[.oXoX4.| | | | |  .| | | . 9 9 9 9 9 > 6 6 6 6 5 ; 9 9 9 9 ",
"N N M M M x 8 8 4 t 4 = . f S S k h q 0 X w.w.e.6.7.|.|.].].]. X.X4.| | | |  . . .| | . 9 9 9 9 9 w 6 6 6 6 6 ; 9 9 9 9 ",
"m m n n m x 8 8 t 4 4 = 9 9 9 9 W.W.l.w.w.w.w.A.M d w.w.)..X`.| | | | | | | . = X | | . = = = 9 = 5 6 7 7 7 6 w = = ; ; ",
"y t t t 8 8 8 8 8 8 4 = 9 9 9 9 W.W.l.w.w.t.w.,.8 g w.w.)..X`.| | | | | | | . = X | | . 3 4 4 4 8 x v n n n v 8 4 4 4 3 ",
"t t t t 8 8 8 8 8 8 4 = 9 9 9 9 l ` ! ~ ~ z k g 8 g w.w.)..X`.| | | | | | | ! H ! d.d.! L ` 1 1 8 x M N N N n 1 8 8 8 1 ",
"t 4 4 t 8 8 8 8 8 8 4 = 9 9 9 9 4 M H F S N 8 8 8 g w.w.^..X`.| | | | | | | [ U } Y.Y.U U H 4 1 8 x N N N N n 1 8 8 8 8 ",
"t t 4 t 8 8 8 8 8 8 3 = 9 9 9 9 4 m G S H N s 8 8 g w.w.V.^.).X...-.;.-.| | [ U } _ _ U I H 1 4 8 x N N N N n 1 8 8 8 8 ",
"t 4 t 4 t t 4 t 8 1 4 ; 9 9 9 9 4 N M M M M 1 1 8 g w.w.w.w.w.w.w./ D ^ | | ( I I I I I I ' 1 4 4 x M M M M m 1 8 8 8 8 ",
"t 2 7 7 2 7 p 2 7 7 3 9 9 9 9 9 2 x x x x x 1 4 8 g w.w.w.w.w.w.w./ D T | | { I I I I I I H x x x x x x x x x 4 7 7 7 4 ",
"6 6 6 6 6 6 5 6 6 6 5 9 9 9 9 9 - 8 8 8 8 8 4 1 s d ( ( j.b.c.w.w.;.;.-.| | S F F F D D P H m M M x 1 4 8 8 4 6 6 6 6 6 ",
"6 6 6 6 6 6 6 6 6 6 6 ; 9 9 9 9 - 8 8 8 8 4 1 4 s d I I l.m.b.w.w...| | | | ^ D D D D D D A m M N x 1 1 8 8 8 6 6 6 e 6 ",
"6 6 6 6 6 6 6 6 6 6 5 9 9 9 9 9 - 8 8 8 8 8 8 8 8 d ) ) N.m.b.w.w.o.o.X.| | @ R T E Q A A G N N N x 4 8 8 8 8 5 6 p e e ",
"6 6 6 6 6 6 6 6 6 6 5 9 9 9 9 9 - 8 8 8 8 8 8 8 8 g w.w.x.m.b.w.w.w.w.q.| | | | +.9 = = M N N N N y t t 8 8 8 6 6 e e e ",
"6 6 6 6 6 5 5 5 5 5 5 9 9 9 9 9 - 4 8 8 8 8 4 8 8 g w.w.x.n.m.w.w.w.w.q.| | | | +.9 9 ; v n n n m y 8 4 4 8 4 5 6 6 6 6 ",
"6 6 6 6 6 > = = ; 9 9 ; 9 9 9 9 - 4 8 8 8 8 6 6 7 q w.w.x.m.B.{ { h.w.O.| | R ^ @ | +.9 1 1 t t t 4 5 7 2 5 7 6 6 6 6 6 ",
"6 6 6 6 6 w w 9 9 9 9 9 9 9 9 9 - 8 8 8 8 4 6 6 6 h t.w.x.m.B.I I g.w.q.| | ^ D R | | 0 8 1 8 8 t 7 5 6 6 6 6 6 6 6 6 6 ",
"6 6 6 6 6 < 9 9 9 9 9 9 9 9 9 9 - 4 8 8 1 4 6 k >.<.u.u.b.m.v.U.U.h.w.q.| | # @ + | | +.O q 8 8 t 7 6 6 6 6 6 6 6 6 6 6 ",
"6 6 6 6 6 w 9 9 9 9 9 9 9 9 9 9 - 8 8 8 1 4 3 <.w.t.m.m.m.m.m.m.m.y.w.q.| | | | | | | | | O 8 8 t 7 6 6 6 6 6 6 6 6 6 6 ",
"6 6 6 6 6 < 9 9 9 9 9 9 9 9 9 9 - 8 8 8 1 4 6 <.w.t.m.m.m.m.m.m.m.y.w.q.| | | | | | | | | O 8 1 t 7 6 6 6 6 6 5 6 6 6 6 "
};
