/* XPM */
static char *result[] = {
/* columns rows colors chars-per-pixel */
"60 60 201 2 ",
"   c #030000",
".  c #1D0403",
"X  c #390908",
"o  c #470B0A",
"O  c #610F0D",
"+  c #6B110F",
"@  c #6E1F15",
"#  c #721210",
"$  c #63291F",
"%  c #6C2B1D",
"&  c #6C341A",
"*  c #5C2A32",
"=  c #632921",
"-  c #6D2A21",
";  c #5F592E",
":  c #6A782C",
">  c #397E4F",
",  c #317450",
"<  c #3D4E64",
"1  c #3D5465",
"2  c #395B6B",
"3  c #36716F",
"4  c #356974",
"5  c #367374",
"6  c #484B4D",
"7  c #6D484A",
"8  c #67797C",
"9  c #8C221A",
"0  c #83281A",
"q  c #882E28",
"w  c #B23B29",
"e  c #BB3E2B",
"r  c #AE3E30",
"t  c #AA4B2B",
"y  c #B8482A",
"u  c #BB4B32",
"i  c #AF682D",
"p  c #B37528",
"a  c #BD7F2B",
"s  c #E1563A",
"d  c #A54C45",
"f  c #A9544D",
"g  c #BA504F",
"h  c #B35D52",
"j  c #90665C",
"k  c #AF6852",
"l  c #D87645",
"z  c #D17049",
"x  c #FC6644",
"c  c #F66B44",
"v  c #FA7845",
"b  c #FD7B4A",
"n  c #F56E50",
"m  c #F37557",
"M  c #5CAC3C",
"N  c #5DB33B",
"B  c #76E53F",
"V  c #248E5E",
"C  c #2F9D57",
"Z  c #26925D",
"A  c #2B965E",
"S  c #2D995D",
"D  c #339B5A",
"F  c #319B5C",
"G  c #3FB34F",
"H  c #35A556",
"J  c #3BAD53",
"K  c #36A25E",
"L  c #3AA65F",
"P  c #3CAA59",
"I  c #3EB051",
"U  c #3AB058",
"Y  c #1A8E77",
"T  c #228C60",
"R  c #288F64",
"E  c #2A9263",
"W  c #339069",
"Q  c #2CA76F",
"!  c #2FB16D",
"~  c #2CA671",
"^  c #2CA977",
"/  c #549B4C",
"(  c #458950",
")  c #6D9053",
"_  c #50AB4F",
"`  c #40B44F",
"'  c #46BD4C",
"]  c #56BA4F",
"[  c #46AA57",
"{  c #67A659",
"}  c #70A350",
"|  c #4D916A",
" . c #54966A",
".. c #5AA464",
"X. c #63A865",
"o. c #4AC34A",
"O. c #4ECC49",
"+. c #51CF47",
"@. c #57CB49",
"#. c #53D346",
"$. c #58D645",
"%. c #57D844",
"&. c #58D945",
"*. c #4BCE57",
"=. c #68C948",
"-. c #71CB54",
";. c #EEB33E",
":. c #ACDC3F",
">. c #93EC3C",
",. c #97F23C",
"<. c #98F03B",
"1. c #A5E33E",
"2. c #EBCC3D",
"3. c #F0D23F",
"4. c #B49649",
"5. c #9A967B",
"6. c #B2917D",
"7. c #B1B973",
"8. c #C98E4E",
"9. c #D29B4A",
"0. c #C38651",
"q. c #F68141",
"w. c #FC8244",
"e. c #FF854C",
"r. c #FC8C4B",
"t. c #FE984A",
"y. c #F48759",
"u. c #F4885C",
"i. c #FD9753",
"p. c #FF9D54",
"a. c #D0A946",
"s. c #F7AA4D",
"d. c #E48473",
"f. c #88D841",
"g. c #81CB59",
"h. c #99C365",
"j. c #FFD247",
"k. c #FFE146",
"l. c #FFE957",
"z. c #F5E359",
"x. c #FFD868",
"c. c #FEE96E",
"v. c #FFF46E",
"b. c #FFEF70",
"n. c #E4F17B",
"m. c #FEF572",
"M. c #97748C",
"N. c #CA7998",
"B. c #1E9F8A",
"V. c #1AAF9B",
"C. c #1BB597",
"Z. c #1AB398",
"A. c #0A91AB",
"S. c #0893AD",
"D. c #0E8EB3",
"F. c #0797B6",
"G. c #0294BF",
"H. c #0FB2AF",
"J. c #12B7AA",
"K. c #0FB4B1",
"L. c #789090",
"P. c #58B79C",
"I. c #65B2AF",
"U. c #31C38E",
"Y. c #14CEA7",
"T. c #24D1B9",
"R. c #3CD5B1",
"E. c #42D6AF",
"W. c #0093C4",
"Q. c #0992C1",
"!. c #009CC5",
"~. c #00AFCA",
"^. c #02B6C5",
"/. c #01BFC3",
"(. c #00B7CC",
"). c #00BACA",
"_. c #01C3C7",
"`. c #00CBC5",
"'. c #09CDC1",
"]. c #00C2C8",
"[. c #958D8A",
"{. c #A58A87",
"}. c #B19385",
"|. c #BDA284",
" X c #B0AF9E",
".X c #8B9EA6",
"XX c #B0ABA1",
"oX c #ACB1A0",
"OX c #DB8F82",
"+X c #D08B8C",
"@X c #DB9186",
"#X c #EB8F87",
"$X c #FA8787",
"%X c #F49A8D",
"&X c #C7A287",
"*X c #D2B794",
"=X c #E6A58F",
"-X c #EBA18E",
";X c #F0AF8E",
":X c #F2A792",
">X c #83E09A",
/* pixels */
"# # # # # # # # # # # # # # # # # # # # # # # # # # # # # # # # # # # # # # # # # # # # # # # # # # # # # # # # # # # # ",
"# # # # # # # # # # # # # # # # # # # # # # # # # # # # # # # # # # # # # # # # # # # # # # # # # # # # # # # # # # # # ",
"# # # # # # # # # # # # # # # # # # # # # # # # # # # # # # # # # # # # # # # # # # # # # # # # # # # # # + # # # # # # ",
"# # # I I J P L # # # L L L L L L K E T T T D ,.,.,.,.B &.&.: # + ; [ ` I I E $ # # , A L L L L L E Z T T T T =.,.# # # ",
"# # # I I I P L # # # K L L L L L L T T T T H <.1.1.1.f.=.=.: # # ; / _ ` I Z $ # # , E K L L L L F T T T T T =.,.# # # ",
"# # # I I I P L # # # L K L L K [ [ K S F F U a.e.e.e.w.r.e.u # # y x c ) J Z $ # # , E K K K K K F Z A Z Z Z @.>.# # # ",
"# # # I I P L L # # # T T T T T ] ,.,.,.,.<.&.4.e.e.r.r.e.e.u # # w x c ) L C $ # # , E Z T Z T T H +.+.+.+.O.$.&.# # # ",
"# # # I I P L L # # # T T T T T ] ,.,.,.:.a.9.r.r.r.s.j.t.v y # # w x x z z k $ # # , E T T T T T J &.&.&.&.&.$.&.# # # ",
"# # # I I P L L # # # V T T T T ] <.<.<.:.r.e.e.e.t.j.k.t.v y # # w x x x x z $ # # , R T T T T T U &.&.%.&.&.&.&.# # # ",
"# # # I I P L L # # # V T T T T ] <.:.:.a.r.e.b b w.k.l.s.q.y # # w x x x x l @ # # , R T T T V T J &.&.%.%.&.&.&.# # # ",
"# # # J J P L L # # # V T T T T ] >.9.r.t.e.e.n x b c.m.z.2.p # # w x x x x x 9 # # , Z T T V V T J &.&.%.%.%.%.&.# # # ",
"# # # K L L L L # # # V T T T T J &.9.e.e.e.e.v x b c.m.z.2.p # # w x x x x x 9 # # , V V V Z Z Z J +.+.+.+.#.#.#.# # # ",
"# # # L L L L L # # # T T T T T J &.9.e.i.x.x.i.x b c.m.z.2.p # # y ;.;.v x x 9 # # , V H I J J J G G G G G ` ` ` # # # ",
"# # # L L L L L # # # V T T T T J &.9.e.p.b.m.p.x e.c.v.z.2.p # # i 2.2.q.x x 9 # # , V J I G I G J G J J G J I ` # # # ",
"# # # P L L L L # # # T T T T T I &.9.e.p.m.m.s.w.t.c.v.k.3.p # + t 2.2.q.x x 9 # # , V J I I I J G J G I I I I J # # # ",
"# # # K L L L L # # # V T T T T J &.9.e.p.m.m.l.k.k.v.v.l.3.4.# + i 2.2.q.x x 9 # # , V J I J I G J G J I I I I ` # # # ",
"# # # Z A A A A # # # E S K E K C H 8.r.p.b.m.l.k.k.m.m.l.k.a # # i 2.2.q.c x 9 + # / G C S S A C H J J I J J P P # # # ",
"# # # T T T T T # # # K L L L L S T 0.e.r.p.p.p.t.t.p.p.i.w.y # # r v v c x x 9 # # N %.Z T V V T E L L L L K E T # # # ",
"# # # V T T T T # # # K L L L L S T 0.e.e.e.e.e.e.e.e.e.v x e # # w x x x x x 9 + + N #.Z T T T T E L L L L K T T # # # ",
"# # + T T T T T # # # K L L L L E T 0.e.e.u.u.u.u.u.u.u.m m u # # r x x x x c 0 # + N #.Z T T T E S L L L L K V T # # # ",
"# # # V T T T T # # # L L L L L F T 0.r.y.OX@X@X@X@X@X@X@X@Xf # # r x x x x l & # # N +.V V T T T E L L K L K V T # # # ",
"# # # T T Z A A # # # U P [ U P K Z 0.q.y.OX@X@X@X@X@X@X@X@Xf # # y x x x x 8.& # # M +.A V T Z Z A K K K K K A A # # # ",
"# # # T T U #.#.# # # $.$.#.$.$.o.I { } ) 8 8 }.-X-X%X-X{.8 7 # # d d.d.c x l & # # i 0.L K P K K S Z T V V Z O.#.# # # ",
"# # # T T I &.&.# # # &.&.$.$.&.o.I G J L 5 5 [.:X:X:X:X[.4 6 # # d @XOXn x z $ # # s l K K L L L A T T T T Z #.&.# # # ",
"# # # T T U %.%.# # # &.&.&.&.&.o.I I I  .8 8 }.:X:X:X:X}.j 7 @ # q d d r w t @ # # s l L L L L L E T T T T Z #.&.# # # ",
"# # # T T I &.%.# # # %.&.&.&.&.o.I I I X.$X$X%X:X:X:X:X%XN.g # # # # # # # # # # + s l L L L L P E T T T T Z #.&.# # # ",
"# # # V T U &.&.# # # %.&.&.&.&.o.` J I X.#X$X%X:X:X:X:X%X$Xg # # # # # # # # # # # s l L L L L L K T T T T Z +.$.# # # ",
"# # # I G ' o.o.# # # ' ' o.' o.` P J [ X.-X%X+XN.+X:X:X:X:Xh # # # # # # # # # # # ) ..L L L L L E T T T T Z ' o.# # # ",
"# # # &.%.o.I I # # # I J [ ` J P L L L X.=X:X+XN.N.-X:X:X:Xh # # # # o . + # # # # ( D L L L L L E T T T T T J I # # # ",
"# # # &.%.o.I I # # # I G ` J ` J L L L ..|.|.{.M.M.=X-X%X:Xh # # # # X   O # # # # ( P L L L L L A T T T T V J I # # # ",
"# # # &.&.o.I I # # # I J G ` J P L L L L L T T T W +X@X@X@Xf # # # + o   + # # # # ( L L L L P L S T T T T Z J I # # # ",
"# # # &.&.o.I I # # # I I J ` J J L L L L H T T 3 W +X@X@X@Xf # # # # o   + # # # # ( L L L L L L E T T T T V J I # # # ",
"# # # %.#.o.J J + + # J J J J J P L V.H.H.A.A.L.|.&X=X-X-X-Xh # # # # X   O # # # # ( L K D L D K A T T T T V P J # # # ",
"# # # G G C T Z # # # K L P L L L L H.(.(.W.Q..X:X:X:X-X:X;Xk # # # # # + # # # # # ( K E V T R T T T T T T V K K # # # ",
"# # # I I C T T # # # K L L L L L L H.(.~.!.!.I.oX X;X;X*XoXj # # # # # # # # # # # ( K T T T T T T T T T T T K P # # # ",
"# # # I I C T T # # # K L L L L L L H.(.(.(.(._.'.T.n.m.>X'.3 # # # # # # # # # # # ( D T T T T T T T T T T V L L # # # ",
"# # # I I C T T # # # L L L L L L L H.(.(.(.^./.`.T.n.m.P.'.5 # # # # # # # + # # # ( L Z T T T T T T T T T T K L # # # ",
"# # # I I C T Z # # # D L L L L L K ~ ^ P.XXXXE.`.'.R.E.T.'.5 # # 6 D.D.L.{.[.= # # ( K T T T T T T T T T T E K L # # # ",
"# # # o.o.G C C # # # S A A A A Z A C Z  .-X:XI.`.`.`.`.'.`.5 # # 1 W.Q.{.@X}.% # # > A T T T T T Z S S A S A A A # # # ",
"# # # &.&.o.I I # # # Z T T T T V V V V  .-X;XI.Y.Y.'.].`.`.5 # # 1 S.A.L.}.5.- # # , T T T T T T S L L L L K E T # # # ",
"# # # $.%.o.I I # # # V V T T T T T T T | =X:Xh.&.*.F.W.W.W.2 # + 6 T T V V | q # # , T T T T T T S L L L L K T V # # # ",
"# # # $.%.o.I I # # # V V V T T T T T T | =X:Xh.&.*.F.W.W.W.2 # + 6 T T V V | q # # , T T T T T T S L L L L K T V # # # ",
"# # # $.%.o.I I # # # V T T T T T T 5.&X}. .-.U.Y.K.).].~.~.4 # + 6 A.A.Y T | q # # , T V V T T T E L L L L L Z T + # # ",
"# # # $.$.o.I I # # # E T T T T Z C 6.:X|.F #.U.(.(.`.`.).(.4 # # < W.G.Y V | q # # , V V V V V Z F P L U P L E V # # # ",
"# # # G G G I I # # # V T T T T X.g.7.*X7.@.` C.(.).`.`.].(.4 # # < W.W.~ J  .q # # , V H J J J J ' $.#.#.#.+.I J # # # ",
"# # # G I J I I # # # V T T T T &X:Xg.&.&.&.I Z.(.).`.`.].(.4 # # < W.W.~ ` ..q # # , V J G I J I o.&.&.&.%.#.` I # # # ",
"# # # J I I J ` # # # V T T T T &X:Xg.&.&.&.` Z.(.(.`.`.].(.4 # # < W.G.Q J ..q # # , V J I I I I o.&.&.&.&.#.G I # # # ",
"# # # G I I [ ` # # # V T T T T X.g.&.&.&.&.U Z.(.(.`.`.].(.4 # # 1 W.G.Q G D % # # , V J I I I I o.&.&.&.&.$.` I # # # ",
"# # # I I J I I # # # V V T T T J $.%.%.%.%.G Z.(.).`.`.].(.4 # # < W.G.Q J C = # # , T J I J G I o.%.%.%.%.$.G [ # # # ",
"# # # P P J J J # # # V T T T T H o.o.o.o.o.I Z.(.).`.`.].(.4 # # 1 W.G.B.~ Y $ # # , Z o.o.o.o.o.o.o.o.o.o.o.J P # # # ",
"# # # L L L D L # # # V T T T T C I I I I I J C.(.).`.`.].(.4 # # 1 W.W.W.W.A.$ # # , Z #.&.&.&.%.o.I I ` J J K L # # # ",
"# # # L L L L L # # # T T T T T C J I I I I I Z.(.(.`.`.].(.4 # # 1 W.W.W.W.S.$ # # , Z #.&.&.&.&.o.I I J G G K L # # # ",
"# # # L L L L L # # # T T T T T C I I I I I I Z.).).`.`.].).4 # # 1 W.W.W.W.S.= # # , Z #.&.&.&.&.' ` J ` ` J L L # # # ",
"# # # L L L L L # # # T T T T T C I I I I I J Z.).).`.`.].).4 # # 1 W.W.W.W.S.$ # # , Z #.&.&.&.&.' J ` ` J J L L # # # ",
"# # # L L L L K # # # T T T T T C J I I J ! ! J.].).`.`.].).4 # # 2 !.W.W.W.S.= # # , Z +.#.$.#.$.' J J J J J L L # # # ",
"# # # L L E T T # # # T T T T T C I J G ! ^.)._.`.`.`.`.`.`.3 # # 2 (.(.!.W.W.* # + , Z G G ` ` ` ` P P H L L L L # # # ",
"# # # L L K T T # # # T T T T T C J I ` ! ^.(._.`.`.`.`.`.`.5 # # 2 ).(.!.Q.W.* # # , Z J I I I ` P L L L L L L L # # # ",
"# # # # # # # # # # # # # # # # # # # # # # # # # # # # # # # # # # # # # # # # # # # # # # # # # # # # # # # # # # # # ",
"# # # # # # # # # # # # # # # # # # # # # # # # # # # # # # # # # # # # # # # # # # # # # # # # # # # # # # # # # # # # ",
"# # # # # # # # # # # # # # # # # # # # # # # # # # # # # # # # # # # # # # # # # # # # # # # # # # # # # # # # # # # # "
};
