/* XPM */
static char *result[] = {
/* columns rows colors chars-per-pixel */
"60 60 206 2 ",
"   c #050101",
".  c #1E0404",
"X  c #350807",
"o  c #430A09",
"O  c #65100E",
"+  c #6C110F",
"@  c #691612",
"#  c #721210",
"$  c #65251C",
"%  c #692A1A",
"&  c #6E3118",
"*  c #4C4B35",
"=  c #575535",
"-  c #2E7853",
";  c #387279",
":  c #5C7E5E",
">  c #44747B",
",  c #68797C",
"<  c #74797E",
"1  c #CF6E49",
"2  c #C77848",
"3  c #D87545",
"4  c #FC6644",
"5  c #F56B47",
"6  c #FB6D45",
"7  c #FD7347",
"8  c #F77D42",
"9  c #F87A42",
"0  c #F07048",
"q  c #FD7B4A",
"w  c #F27256",
"e  c #F37D59",
"r  c #5BB83C",
"t  c #76E53F",
"y  c #298058",
"u  c #248E5F",
"i  c #378252",
"p  c #2F9D57",
"a  c #26925D",
"s  c #2B965D",
"d  c #2E9A5C",
"f  c #309E57",
"g  c #329C5C",
"h  c #3FB34F",
"j  c #35A655",
"k  c #3BAD53",
"l  c #36A25E",
"z  c #3AA65F",
"x  c #3CAA59",
"c  c #3EB051",
"v  c #1D8D6E",
"b  c #1A9579",
"n  c #228C60",
"m  c #2F8E61",
"M  c #2B9461",
"N  c #39A660",
"B  c #34B26A",
"V  c #2DA770",
"C  c #2BA876",
"Z  c #45894F",
"A  c #489645",
"S  c #458C57",
"D  c #52885A",
"F  c #699A55",
"G  c #5BA94F",
"H  c #40B34F",
"J  c #45BD4C",
"K  c #56BA4F",
"L  c #48A957",
"P  c #56AB54",
"I  c #6AA756",
"U  c #4E8D69",
"Y  c #4D916A",
"T  c #55946B",
"R  c #79916F",
"E  c #59A667",
"W  c #65A767",
"Q  c #3DC168",
"!  c #4AC34A",
"~  c #4ECC49",
"^  c #55CD48",
"/  c #54D346",
"(  c #58D645",
")  c #57D845",
"_  c #58D945",
"`  c #6ECE45",
"'  c #61C34B",
"]  c #60D548",
"[  c #76CC54",
"{  c #45C960",
"}  c #F29B3F",
"|  c #EEB33E",
" . c #A4DF3C",
".. c #8DEE3D",
"X. c #99EE3B",
"o. c #97F23C",
"O. c #A4E13D",
"+. c #ECC63D",
"@. c #EBCD3D",
"#. c #F0CF3F",
"$. c #EED03E",
"%. c #AF914F",
"&. c #8DBB43",
"*. c #9F9566",
"=. c #998E78",
"-. c #999B7C",
";. c #A98F7B",
":. c #A7947D",
">. c #B6917D",
",. c #CA8744",
"<. c #CE9049",
"1. c #D29B4A",
"2. c #C38651",
"3. c #CA8D51",
"4. c #E78548",
"5. c #F68141",
"6. c #FF854C",
"7. c #FA8848",
"8. c #FE984A",
"9. c #F6875A",
"0. c #F4885B",
"q. c #FD9753",
"w. c #FF9D54",
"e. c #FCAC4F",
"r. c #DD8F7D",
"t. c #E6816E",
"y. c #E48473",
"u. c #88D841",
"i. c #FFC446",
"p. c #FEDD44",
"a. c #FEDC50",
"s. c #FFE044",
"d. c #FFE34A",
"f. c #FFE957",
"g. c #F5E359",
"h. c #FFD868",
"j. c #FEE96E",
"k. c #FFF46E",
"l. c #FFEF70",
"z. c #E4F17B",
"x. c #FEF572",
"c. c #9E7D88",
"v. c #BF6C9B",
"b. c #CA7998",
"n. c #17A393",
"m. c #18AF9D",
"M. c #19B298",
"N. c #22A896",
"B. c #0D98AA",
"V. c #109AA7",
"C. c #0997B5",
"Z. c #0294BE",
"A. c #17A4A4",
"S. c #0CB6AE",
"D. c #11B3AB",
"F. c #09ADB5",
"G. c #0EB0B0",
"H. c #33A8B2",
"J. c #60A79B",
"K. c #67B2AA",
"L. c #24D1B9",
"P. c #3CD5B1",
"I. c #42D6AF",
"U. c #0093C4",
"Y. c #0992C1",
"T. c #019BC5",
"R. c #00A3C7",
"E. c #00ACC9",
"W. c #01B5C6",
"Q. c #00BEC3",
"!. c #00B6CC",
"~. c #00BACA",
"^. c #01C3C7",
"/. c #00CBC5",
"(. c #09CDC1",
"). c #00C2C8",
"_. c #8F908B",
"`. c #9A9899",
"'. c #A78A87",
"]. c #B18F87",
"[. c #AC9782",
"{. c #B1968B",
"}. c #8CA382",
"|. c #B2A893",
" X c #8B9EA6",
".X c #ADABA2",
"XX c #ABB1A0",
"oX c #DC8E83",
"OX c #CD9785",
"+X c #D49587",
"@X c #DB9186",
"#X c #D88795",
"$X c #EE8A85",
"%X c #FA8787",
"&X c #E69A89",
"*X c #E99D8C",
"=X c #F5978C",
"-X c #F39D8E",
";X c #C5A584",
":X c #D2B794",
">X c #E6A68F",
",X c #EBA18E",
"<X c #F2BD8A",
"1X c #EEA292",
"2X c #F2A792",
"3X c #83E09A",
/* pixels */
"# # # # # # # # # # # # # # # # # # # # # # # # # # # # # # # # # # # # # # # # # # # # # # # # # # # # # # # # # # # # ",
"# # # # # # # # # # # # # # # # # # # # # # # # # # # # # # # # # # # # # # # # # # # # # # # # # # # # # # # # # # # # ",
"# # # # # # # # # # # # # # # # # # # # # # # # # # # # # # # # # # # # # # # # # # # # # # # # # # # # # # # # # # # # ",
"# # # c c k x z N # # # L N N N N N # # # u x X.X.X.o.t _ _ _ _ / h k c h c M u n n - # # % z N N g n # # # n ' o.# # # ",
"# # # c c c x z z # # # z N N z N N # # # n g X. .O.O.u.` ` ` ` ` G G P L c M n n n - # # % z z N d n # # # n ' X.# # # ",
"# # # c c c x z z # # # l l l l x L # # # g k &.5 4 q 6.6.6.6.6.6.6.7.6.%.z M n n n - # # $ l l N g a # # # a ' ..# # # ",
"# # # c c x z z z # # # n n n n K o.# # # X._ &.5 4 q 6.6.6.6.6.8.6.6.6.%.x m m n n - # # $ n u u j / # # # / / ] # # # ",
"# # # c c x z z N # # # n n n n K o.# # # 1.,.3 4 4 6 6 6 6 6 8.i.e.q.6.4.3.%.i n n - # # $ n n n k _ # # # _ _ ( # # # ",
"# # # c k x z z z # # # n n n n K o.# # + 4.4 4 4 4 4 4 4 4 4 } p.p.6.6.6.6.4.D u u - # + $ u u n k _ # # # ) _ _ # # # ",
"# # # c H x z z z # # # n n n n K o.# # + 8 4 4 4 4 4 4 6 } 5.e.d.a.6.6.6.6.8 *.D D - # # $ n u n j _ # # # ) ) _ # # # ",
"# # # k k x N N z # # # n n n n K ..# # # 4 4 4 4 4 4 4 9 +.@.d.x.j.q 4 6 6.6.6.q 2.- # # $ u u v k _ # # # ) ) _ # # # ",
"# # # l z z N N z # # # n n u n k ) # # # 4 4 4 4 4 4 4 9 +.@.g.x.l.q 4 7 6.6.6.6.2.- # # $ a a a k / # # + / / / # # # ",
"# # # z z z z x z # # # n n n n k ) # # # 4 4 9 | | 9 4 9 +.@.g.x.j.q 4 q.h.h.w.6.2.- # # % c k k k H # # # H H H # # # ",
"# # # z z z z N z # # # n n n n k ) # # # 4 4 8 @.@.5.4 9 +.@.g.x.j.q 4 w.x.j.w.6.2.- # # % c c k h c # # # c c H # # # ",
"# # # x N z N z z # # # n n n n h ) # # # 4 4 5.+.@.} } 7.#.#.g.x.j.8.7.e.x.l.w.6.2.- # # % c c h h k # # # c c c # # # ",
"# # # l z z z z z # # # n n n n k ) # # + 4 4 5.@.@.@.@.$.p.s.f.x.k.d.d.f.x.l.w.6.2.- # + % c c c k h + # # c c c + # # ",
"# # # a s a s a M # # # d d d N f j + # # 4 4 } | @.@.@.#.p.s.f.x.x.d.s.f.x.j.w.6.<.A # # $ d p s j k # # # j k x # # # ",
"# # # n u u u n n # # # N N N N d n # # + 4 4 6 8 8 8 8 8 5.5.q.w.w.8.8.w.w.w.8.6.1.r # # $ u v u g z # # # z u n # # # ",
"# # # u n n n n n # # # N N N N p v # # # 4 4 4 4 4 4 4 4 4 4 7 6.6.6.6.6.6.6.6.6.1.r # # $ n n n s x # # # N v n # # # ",
"# # + n n n n n n # # # x N x N s a # # # 5 4 4 4 4 5 w w w w e 0.0.0.0.0.0.0.6.6.1.r # # $ n n n s l # # # N a n # # # ",
"# # # n u u n n n # # # N z z N d u # # # 1 4 4 4 4 t.@X@X@X@XoX@X@X@X@X@X@Xr.9.6.1.r + # $ n n n M N # # # l n n # # # ",
"# # # n v a a d s # # # x L x x g a # # # 1 4 4 4 4 t.@X@X@X@X@X@X@X@X@X@X@Xr.9.7.1.r # # $ n a n g l # # # g d s # # # ",
"# # # n n k / / / # # # / / / ( %.2 # # # 1 4 0 y.y.&X,XOX< , '.,X,X,X,X]., , F I I A # # % N N N s u # # # a ~ / # # # ",
"# # # n n c _ _ _ # # # _ _ _ _ ,.4 # # # 3 4 w oX@X1X2XOX> ; _.2X2X2X2X'.; ; g H H A # # % N N N s n # # # a / _ # # # ",
"# # # n n c _ _ _ # # # _ _ _ _ 2 4 # # # 3 4 w oX@X*X-X@X< , ].2X2X2X2X].< , L k k A # # @ = = = = * # # # u / _ # # # ",
"# # # n n c _ _ _ # # # _ _ _ _ ,.4 # # # 4 4 w oX@X$X%X%X%X%X=X2X2X2X2X=X%X$XW h L A # # # # # # # # # # # a ^ _ # # # ",
"# # # n v c _ _ _ # # # _ _ _ _ ,.4 # # # 4 4 0 oX@X$X%X%X%X%X=X2X2X2X2X=X%X$XI k H A # # # # # # # # # # # a / _ # # # ",
"# # # H h H ! ! J # # # ! J ! J G F # # # F : R +XoX*X-X-X-X-X2X2X2Xb.b.#X2X*XW k x A # # # # # # # # # # # u J ! # # # ",
"# # # _ _ ! h k k # # # k H k H k z # # # z u U +X@X,X2X2X2X2X2X2X1Xb.v.@X2X>XW N z Z # # # # o . O # # # # u j c # # # ",
"# # # _ _ ~ c h L # # # H k H H k l # # # z u U ;.;.+X1X1X1X,X,X,X&Xc.c.].>.|.E N l Z # # # # X   O # # # # a k c # # # ",
"# # # _ ) ! c c k # # # H k H k x z # # # z u n u n =.@X@X@X@X@X@XOXP H H H x z N N Z # # # # o   + # # # # u k c # # # ",
"# # # _ _ ! c c H # # # k H k H k z # # # l u n n n =.@X@X@X@X@XoXOXE k H H L z z N Z # # # # X   + # # # # u k k # # # ",
"# # # / / J j j k # # # k k k c L N # # # G.F.H.:.;.+X1X,X,X,X,X,X,X;X;XJ.V.V.G.G.N.Z # # # # X   O # # # # a x k # # # ",
"# # # h h j u a u # # # l x z z z z # # # E.!.H.+XoX,X2X2X2X2X2X2X2X2X2X XU.Y.E.~.G.Z # # # # # + # # # # # n l l # # # ",
"# # # h c p n n u # # # z z z z z z # # # R.E.H.`.`..X.X.XXXXX:X<X<XXXXXK.U.T.!.~.G.S # # # # # # # # # # # n N x # # # ",
"# # # k k p n n u # # # z z l z z z # # # U.U.T.!.!.!.!.~./.(.3Xx.z.P.(.^.!.!.!.!.G.Z # # # # # # # # # # # n N z # # # ",
"# # # c c p n n n # # # z z z z z z # # # U.Y.T.!.!.!.!.~././.3Xx.z.L././.~.Q.W.!.D.Z # # # # # # # # # # # u N z # # # ",
"# # # h h p u u u # # # z z z z z g # # # _.`.J.T.T.E.!.~././.L.P.P.(./.I..X|.J.C V S # # $ y y y - y # # # u N z # # # ",
"# # # ! ! h p p f # # # s s s s s s # # # ].+X{.Z.Y.E.!.!./././././././.K.2X,XT M d i # # $ u n n u s # # # s s d # # # ",
"# # # _ _ ! c c k # # # n n n u u u # # # =.>.}.A.A.F.E.!.~.~.Q.^.Q.S.S.K.2X,XT n n - # # $ n n n s N # # # l u n # # # ",
"# # # _ _ ! k H H # # # n n n n n n + # # Y ) ) _ _ N.U.U.U.U.U.Z.Z.v u R 2X>XY n n - # # $ n n n M N # # # N n u # # # ",
"# # # ( _ J H k k # # # n n n n n n # # # Y / ) _ _ N.U.U.U.U.U.U.C.v v R 2X>XY n n - # # % n n n d x # # # N a u # # # ",
"# # # ( _ ! k H H # # # n n n n u n # # # Y / { A.A.Z.U.U.E.!.!.Q.Q.F.F.N.Y T [.;X-.- # # $ n n n M z # # # N n n # # # ",
"# # # / ( ! H H H # # # n n n n u a # # # T / Q U.T.U.U.T.!.!.)././.~.~.A.M M OX2X{.- # # $ u a a d x # # # z a u # # # ",
"# # # H H k H k k # # # n n n n j / # # # [ H V Z.U.U.U.T.E.!.)././.!.!.M.k g -.;X:.: # # % k k k ! / # # # ^ c j # # # ",
"# # # H H H x H H # # # n n n n c _ # # # [ H V U.U.U.U.T.!.!.)././.~.!.M.c f u n T r.# # % c c c ! _ # # # / H H # # # ",
"# # # H H k H x k # # # n n n n k _ # # # [ c V Z.U.U.U.T.!.!.)././.~.!.M.k g n n T r.# # % c c c ! _ # # # / H c # # # ",
"# # # k k H k H H # # # n n n n k _ # # # ] c V Z.U.U.U.T.!.!.)././.~.!.M.k g n n m D # # % k c c ! _ # # # / H c # # # ",
"# # # H k k H k c # # # u u n n j _ # # # _ H V U.U.U.U.T.!.!.)././.~.!.M.k p u n n - # # % h h k ! ) # # # / h c # # # ",
"# # # x k x x k x # # # n n n n j ! # # # B N n.U.U.U.T.T.!.!.)././.~.~.M.x s n n n - # # % ! ! ! ! ! # # # ! k x # # # ",
"# # # N N N l l z # # # n n n n p c # # # B.U.U.U.U.E.!.!.!.!.)././.!.!.m.N s u n n - # # & ) _ ) ! h # # # k l z # # # ",
"# # # N N L N z z # # # n n n n p c # # # B.U.U.U.U.E.!.~.!.!.)././.!.!.m.N s n n n - # # & _ _ _ ! h # # # k x z # # # ",
"# # # N N N l N N # # # n n n n p c # # # B.U.U.U.U.E.!.!.!.~.^././.~.~.m.N s n n n - # # & _ _ _ ! H # # # k x z # # # ",
"# # # N N N z z z # # # n n n n p h # # # B.U.U.U.U.E.!.!.~.!.^././.~.~.m.N M n n n - # # & _ _ _ J k # # # k z z # # # ",
"# # # L N N l l l # # # n n n n p k # # # C.U.U.T.T.E.!.!.~.~.^././.~.~.D.C b n n n - # # & / / ( J k # # # k z z # # # ",
"# # # l N d u u n # # # n n n n p c # # # U.U.T.!.!.!.~.~./././././././.^.~.~.b n a - # # % H H H H z # # # x z z # # # ",
"# # # N N M n n n # # # n n n n p k # # # U.U.T.!.!.!.!.~./././././././.^.!.!.b n n - # # % c c H x l # # # z z z # # # ",
"# # # # # # # # # # # # # # # # # # # # # # # # # # # # # # # # # # # # # # # # # # # # # # # # # # # # # # # # # # # # ",
"# # # # # # # # # # # # # # # # # # # # # # # # # # # # # # # # # # # # # # # # # # # # # # # # # # # # # # # # # # # # ",
"# # # # # # # # # # # # # # # # # # # # # # # # # # # # # # # # # # # # # # # # # # # # # # # # # # # # # # # # # # # # "
};
