/* XPM */
static char *result[] = {
/* columns rows colors chars-per-pixel */
"60 60 207 2 ",
"   c #090201",
".  c #190403",
"X  c #270605",
"o  c #6E110F",
"O  c #721210",
"+  c #5F2E22",
"@  c #563B2B",
"#  c #5A3F2A",
"$  c #5F442B",
"%  c #4A4F38",
"&  c #515934",
"*  c #565C37",
"=  c #614926",
"-  c #654B25",
";  c #695622",
":  c #576031",
">  c #586130",
",  c #507A3A",
"<  c #666F29",
"1  c #65742A",
"2  c #3D6244",
"3  c #387279",
"4  c #436942",
"5  c #4D7344",
"6  c #707E56",
"7  c #44747B",
"8  c #68797C",
"9  c #74797E",
"0  c #A3794E",
"q  c #CE7448",
"w  c #D97545",
"e  c #FC6644",
"r  c #F36B47",
"t  c #FB6D45",
"y  c #FD7347",
"u  c #F77D42",
"i  c #F87A42",
"p  c #FD7B4A",
"a  c #F56E50",
"s  c #F27256",
"d  c #F37D59",
"f  c #609234",
"g  c #76E53F",
"h  c #298058",
"j  c #248E5F",
"k  c #38885D",
"l  c #26925D",
"z  c #2B965E",
"x  c #2D995D",
"c  c #329959",
"v  c #319B5C",
"b  c #3FB34F",
"n  c #35A655",
"m  c #3BAD53",
"M  c #36A25E",
"N  c #3AA65F",
"B  c #3CAA59",
"V  c #3EB051",
"C  c #3AB058",
"Z  c #1F8C68",
"A  c #1A8D78",
"S  c #228C60",
"D  c #288F64",
"F  c #388D65",
"G  c #2A9263",
"H  c #229772",
"J  c #30A56C",
"K  c #2FB16D",
"L  c #2CA671",
"P  c #2BA479",
"I  c #5E8F57",
"U  c #6F9252",
"Y  c #699955",
"T  c #57A74F",
"R  c #40B34F",
"E  c #45BC4D",
"W  c #56BA4F",
"Q  c #44AC55",
"!  c #6DA54E",
"~  c #67A75B",
"^  c #4D916A",
"/  c #599D67",
"(  c #54926C",
")  c #6C9572",
"_  c #5AA464",
"`  c #63A865",
"'  c #4AC34A",
"]  c #4ECC49",
"[  c #51CF47",
"{  c #57CB49",
"}  c #54D246",
"|  c #5AD645",
" . c #57D844",
".. c #58D945",
"X. c #4BCE57",
"o. c #6ACB47",
"O. c #71CB54",
"+. c #F29B3F",
"@. c #EEB33E",
"#. c #ACDC3F",
"$. c #93EC3C",
"%. c #97F23C",
"&. c #98F03B",
"*. c #A5E33E",
"=. c #ECC63D",
"-. c #EBCD3D",
";. c #EFD03E",
":. c #8F954A",
">. c #B48248",
",. c #8DAF4A",
"<. c #B9A849",
"1. c #9A967B",
"2. c #AD8F7C",
"3. c #A89B76",
"4. c #B4967A",
"5. c #B1B973",
"6. c #CB8947",
"7. c #D29B4A",
"8. c #C38651",
"9. c #EC8E4B",
"0. c #F68141",
"q. c #F98643",
"w. c #FF854C",
"e. c #FC8C4B",
"r. c #FE984A",
"t. c #F48759",
"y. c #F4885C",
"u. c #FD9753",
"i. c #FF9D54",
"p. c #D0A946",
"a. c #F7AA4D",
"s. c #E58270",
"d. c #88D841",
"f. c #81CB59",
"g. c #99C365",
"h. c #FFCC49",
"j. c #FEDD44",
"k. c #FFE146",
"l. c #FAE658",
"z. c #FFD868",
"x. c #FEE96E",
"c. c #FFEF70",
"v. c #F2F374",
"b. c #FEF572",
"n. c #97748C",
"m. c #CA7998",
"M. c #189486",
"N. c #259F83",
"B. c #1AAF9B",
"V. c #1BB597",
"C. c #1AB398",
"Z. c #3CAD9F",
"A. c #0A91AB",
"S. c #0A93AA",
"D. c #0797B6",
"F. c #0293BF",
"G. c #0FB3AF",
"H. c #12B7AA",
"J. c #0CAFB3",
"K. c #33AABA",
"L. c #78948F",
"P. c #5FAE9E",
"I. c #65B2AF",
"U. c #31C38E",
"Y. c #14CEA7",
"T. c #24D1B9",
"R. c #3CD5B1",
"E. c #42D6AF",
"W. c #0093C4",
"Q. c #0992C1",
"!. c #019BC5",
"~. c #00A4C7",
"^. c #00ACC9",
"/. c #02B6C5",
"(. c #00BEC3",
"). c #00B6CC",
"_. c #00BACA",
"`. c #01C3C7",
"'. c #00CBC5",
"]. c #09CDC1",
"[. c #00C2C8",
"{. c #8F918B",
"}. c #9A9899",
"|. c #A68B87",
" X c #AD9389",
".X c #BDA284",
"XX c #8B9EA6",
"oX c #ADABA2",
"OX c #ABB1A0",
"+X c #DC8E83",
"@X c #CB9485",
"#X c #D59787",
"$X c #DB9186",
"%X c #D88795",
"&X c #EE8A85",
"*X c #FA8787",
"=X c #E89C8B",
"-X c #F5978C",
";X c #F39D8E",
":X c #C7A287",
">X c #D2B794",
",X c #E6A58F",
"<X c #EBA18E",
"1X c #F2BD8A",
"2X c #EEA591",
"3X c #F2A792",
"4X c #83E09A",
/* pixels */
"O O O O O O O O O O O O O O O O O O O O O O O O O O O O O O O O O O O O O O O O O O O O O O O O O O O O O O O O O O O O ",
"O O O O O O O O O O O O O O O O O O O O O O O O O O O O O O O O O O O O O O O O O O O O O O O O O O O O O O O O O O O O ",
"O O O O O O O O O O O O O O O O O o O O O O O O O o O O O O O O O O O O O O O O O O O O O O O O O O O O O O O O O O O O ",
"O O O O > V B N N 5 O O $ N N N N N G S j j n %.&.&.&.g ........ .V V R V V z j S S S j N N N N N G G j S S S { %.O O O ",
"O O O O > V B N N 5 O O $ N N N N N G S S S M *.*.*.*.d.o.o.o.o.o.T T T b b l j S S S l N N N N N v j j S j j W %.O O O ",
"O O O O > m B N N 5 O O $ N M M N Q v M v v n <.w.w.w.w.w.w.e.e.w.p e r U n l j S S j G M N M v M v j z l z j o.%.O O O ",
"O O O O > B N N N 5 O O @ S S S W %.%.%.&.&.| p.w.w.p w.w.w.w.w.w.p e r U N l l S S S D D j j j j n [ [ [ [ [  ...O O O ",
"O O O O > B N N N 5 O O @ S S S W %.%.%.#.p.7.9.w.e.h.h.r.y t t t e e e q q 0 h S S S D j j S S S m ........ . ...O O O ",
"O O O O > n N N N 5 O O @ S S S W &.&.&.#.e.w.w.w.r.j.j.r.t t e e e e e e e w 3 j j j D S S S S S m } .. .| ......O O O ",
"O O O O > B N N N 5 O O @ S S S W &.#.#.p.e.w.w.p q.j.l.a.q.0.t e e e e e e w I 6 k j j S S S S S m .... .| ......O O O ",
"O O O O > B N N N 5 O O @ S S S W $.7.w.e.e.w.y e p x.b.l.-.=.i e e e e e e e e r 6 S j S S j S S m .... . .......O O O ",
"O O O O * N N N N 5 O O @ S S S m ..7.w.w.e.w.y e p x.b.l.-.=.i e e e e e e e e e 6 S j l l l l l m } [ } [ [ } } O O O ",
"O O O O * N N N N 5 O O @ j S S m ..7.w.i.z.z.u.e p c.b.l.-.=.i e 0.@.@.i e e e e 6 S S m m m m m m b b b b b b b o O O ",
"O O O O * N N N N 5 O O @ S S S V ..7.w.i.x.b.i.e u x.b.l.-.=.i r 0.-.-.u e e e r 6 S S m b b m b b b m b m V V V O O O ",
"O O O O * N N N N 5 O O @ S S S m ..7.w.i.b.b.a.q.r.c.b.l.;.=.9.0.+.-.=.u e e e e 6 S S m b b b b m b b V V V V V O O O ",
"O O O O * N N N N 5 O O @ S S S m ..7.w.i.b.b.l.k.k.b.b.l.k.;.-.-.-.-.-.0.e e e e 6 S j m m m m m V b m m b V V V O O O ",
"O O O O & z l l G 4 O O $ M G v n n 8.e.i.c.b.l.k.k.b.b.l.j.j.;.h.-.-.=.0.r e e e :.b b x x x x x n m V V C m B B O O O ",
"O O O O % j j S S 2 O O $ N N N z S 8.w.e.u.i.i.r.r.i.i.r.q.q.u u u 0.0.e r e e e ,. . .j S S S S x N N N N M S j O O O ",
"O O O O % S S S S 2 O O $ N N N x S 8.w.w.w.w.e.w.w.w.w.y e e e e e e e e e e e e ,. .} l j S S S G N N N N M S j O O O ",
"O O o o % S S S S 2 O O $ N N N x j 8.w.w.t.y.t.y.y.y.y.d s s s s a e e e e r 6.6.o. .} j S S j S v N N N N N S S O O O ",
"O O O O % j j j S 2 O O = N N N x S 8.w.y.&X$X$X$X$X$X$X$X+X$X$X#Xs.e e e e w | | |  .} l j j j S x N N M N N l S O O O ",
"O O O O % l l x z 4 O O = C Q N M l >.q.t.#X+X$X$X$X$X$X$X$X$X$X%Xd e e e t w | } |  .[ l j j j G z M M M M M l z O O O ",
"O O O O % C } } } f O O ; } } } ' m ~ ! Y 8 8  X<X<X;X<X|.8 8 #X2X=Xs.s.a e w R R 0 q >.n M M N N z j S j j l ] } O O O ",
"O O O O % C ......f O O ; ......' V V V M 3 3 |.3X3X3X3X{.3 7 :X3X2X#Xs.s e w Q R >.e w n N N N N z S S S S l }  .O O O ",
"O O O O + * < < < - O O ; | ....' V V V Q 8 9  X3X3X3X3X X9 9 $X;X=X$X+Xs e w U U q e w N N N N N G S S S S l } ..O O O ",
"O O O O O O O O O O O O ; | .. .' V V V ` &X*X-X3X3X3X3X-X*X*X*X*X&X$X+Xs e e e t e e w N N N N N x S S S S l } ..O O O ",
"O O O O O O O O O O O O ;  ... .' R Q V ~ *X*X-X3X3X3X3X-X*X*X*X*X&X$X#Xs t t e e e e w N N N N N v S S S S l [ | O O O ",
"O O O O O O O O O O O O - ' ' ' R B B B ` =X3X%Xm.m.3X3X3X;X;X;X3X=X$X#X:.! ! Y Y Y Y T N N N N N G S S S S l E E O O O ",
"O O O O O O X X O O O O = V V V B N N N _ ,X3X%Xm.m.<X3X3X3X3X3X2X<X$Xs.` V B N N N N N N N N N N G S S S S S m b O O O ",
"O O O O O O     O O O O = V V V m N N N _ .X.X|.n.n.=X<X2X<X<X<X,X#X4.3.~ V m N N N N N N N N N N z S S S S l m m O O O ",
"O O O O O O X X O O O O = V V V B N N N ^ N S S Z F @X$X$X$X$X$X$X3.V V V V B N N N N N N N N N N x S S S S l n b O O O ",
"O O O O O o . . O O O O = V V b B N N N M M S S S F @X$X$X$X$X$X#X3.V V V V B N N N N N N N N N N x S S S S l m m O O O ",
"O O O O O O     O O O O = m m m B N B.G.J.S.A.L..X@X,X2X<X<X<X<X<X#X4.3.Z.G.G.S.S.P N N M M M M M z S S S S j n V O O O ",
"O O O O O O O o O O O O = N N B N N G.).^.W.W.XX3X3X3X2X3X3X3X3X3X;X$X#XK.).^.W.Q.N.N M j D j j D S S S S S j M N O O O ",
"O O O O O O O O O O O O = N N N N N G._.).!.!.I.OXOX1X1X>XOXOXOXoXoX}.}.K.^.~.W.W.N.N N j S j S S S S S S S j M N O O O ",
"O O O O O O O o O O O O # N N N N N G.).).).).`.'.T.v.b.4X].'._.).).)._.!.W.W.W.W.N.N N j S S S S S S S S S j M N O O O ",
"O O O O O O o o O O O O = N N N N N G.)./.).).].'.T.v.v.I.].'.).).).).).!.Q.W.W.F.N.N M S S S S S S S S S S G M N O O O ",
"O O O O : c h h 2 2 O O $ M N N N N L P P.oXoXE.'.].R.E.T.].'._._.^.~.Q.L.}.{.P P J N M j S S S S S S S S S l M N O O O ",
"O O O O < b c c M 2 O O # z G G z z z z / =X3XI.'.'.'.'.].'.'._.).^.W.Q.}.+X2.F z z l z S S S S S l x x z z G z x O O O ",
"O O O O < E b V C f O O @ S S D j j j j ^ ,X3XP.Y.Y.`.(.'.'.`./.^.~.A.A.{.|.1.( ( F S S S S S S l G N N N N M l j O O O ",
"O O O O 1 ' V V C , O O $ S S S S S S S ( ,X3Xg...X.D.W.W.W.W.W.F.S.S S S S ^ 2X3X) S S S S S S S G B N N N M S j O O O ",
"O O O O 1 ' V V m , O O @ S S S S S S S ^ ,X3Xg...X.D.W.W.W.W.W.F.S.S S S S ^ 2X2X) S S S S S S S x N N N N M l j O O O ",
"O O O O 1 ' V V b , o O @ S S S l S 1.:X X( O.U.Y.G.(._.).^.^.W.W.F.A.A.A S ^ 2X2X) j S S j S S S G N N N N N G j o O O ",
"O O O O 1 ' V V m , o O @ S S S l x 4.3X:Xx } U.).).'.'.[.).).!.W.F.W.F.A S ^ 2X3X) j S j j j j S M B B C N B G j O O O ",
"O O O O > b V V V , O O @ S S S ` O.5.>X5.{ R V.).[.'.'.[.).).!.W.W.W.F.L m _ 2X<X) S j n m m m m E } } } } [ V n O O O ",
"O O O O > V V V V , O O @ S S S :X3Xf.| ....C V.).).'.'.[.).).!.W.W.W.F.J V _ ,X<X) S j m V b m V ' ........} R R O O O ",
"O O O O > V V V V , O O @ S S S :X3Xf.......R V.).).'.'.[.).).!.W.W.W.F.J V _ 2X2X) S j m V m b V ' ........} R V O O O ",
"O O O O > V V V V , o o @ S S S ` f.| ......C C.).).'.'._.).).!.W.W.W.F.L Q n ( ( F j j m V V b R ' ........} R V O O O ",
"O O O O > b V V m , o O @ j S S m  . . . . .b C.)._.'.'.[.).).!.W.W.W.W.L m c S S S S j V V b m b '  . . . . .b b O O O ",
"O O O O * B B n B , O O @ S S S n ' ' ' ' ' m C.).).'.'.[.).).~.!.W.W.W.N.P H S S S S j E ' ' ' ' ' ' ' ' ' ' n B O O O ",
"O O O O * N N N N 5 O O @ S S S x b V V V V b C.)._.'.'.[.).).).).^.W.W.W.W.A.S S S S l }  . .....' V V V V V N N O O O ",
"O O O O * N N N N 5 O O @ S S S c b V V V b m C.)._.'.'.[.).).).).^.W.W.W.W.D.S S S S l }  . .....' V V V V V N N O O O ",
"O O O O * N N N N 5 O O @ S S S c m R m V V m C.)._.'.'.[.)._._.).~.W.W.W.W.A.S S S S l } .. . . .' V V V V V M N O O O ",
"O O O O * N N N M 5 O O @ S S S c R m b V V V C.)._.'.'.[.).)._.).^.W.W.W.W.A.S S S S l } ..|  .| ' V V V V V N N O O O ",
"O O O O * M M M M 5 O O @ S S S c b b m C K K H._.[.'.'.[._._.)._.^.!.!.W.W.F.A A Z S l [ }  .}  .E m m Q m m N N O O O ",
"O O O O * x j j G 2 O O @ S S S c b m b K /./.`.'.'.'.'.'.'.'._.).).).).!.W.W.W.F.M.S l b b R b R m N n N n B M N O O O ",
"O O O O * x S S S 2 O O @ S S S x b V V K (.).`.'.'.'.'.'.'.'._._.).).).!.W.W.W.W.M.S S B V V V b B N N N N N N N O O O ",
"O O O O O O O O O O O O O O O O o o O o O O O O O O O O O O O O O O O O O O O O O O O O O O O O O O O O O O O O O O O O ",
"O O O O O O O O O O O O O O O O O O O O O O O O O O O O O O O O O O O O O O O O O O O O O O O O O O O O O O O O O O O O ",
"O O O O O O O O O O O O O O O O O O O O O O O O O O O O O O O O O O O O O O O O O O O O O O O O O O O O O O O O O O O O "
};
