/* XPM */
static char *result[] = {
/* columns rows colors chars-per-pixel */
"60 60 212 2 ",
"   c #090201",
".  c #190403",
"X  c #270605",
"o  c #6E110F",
"O  c #721210",
"+  c #5F2E22",
"@  c #563B2B",
"#  c #5A3F2A",
"$  c #5F4726",
"%  c #5F442B",
"&  c #4A4F38",
"*  c #515934",
"=  c #565C37",
"-  c #614926",
";  c #654B25",
":  c #695622",
">  c #576031",
",  c #586130",
"<  c #507A3A",
"1  c #666F29",
"2  c #65742A",
"3  c #3D6244",
"4  c #387279",
"5  c #436942",
"6  c #4D7344",
"7  c #707E56",
"8  c #44747B",
"9  c #68797C",
"0  c #74797E",
"q  c #BE704B",
"w  c #CC7348",
"e  c #D87645",
"r  c #FC6644",
"t  c #F56B47",
"y  c #FB6D45",
"u  c #FD7347",
"i  c #F77D42",
"p  c #F87A42",
"a  c #F07048",
"s  c #FD7B4A",
"d  c #F27256",
"f  c #F37D59",
"g  c #609234",
"h  c #76E53F",
"j  c #29835A",
"k  c #248E5F",
"l  c #26925D",
"z  c #2B965D",
"x  c #2D995D",
"c  c #319A57",
"v  c #329B5C",
"b  c #3FB34F",
"n  c #36A755",
"m  c #3CAD53",
"M  c #36A25E",
"N  c #3AA65F",
"B  c #3BAA59",
"V  c #3EB051",
"C  c #1C9174",
"Z  c #228C60",
"A  c #2C8F63",
"S  c #2A9263",
"D  c #2EA96E",
"F  c #38A562",
"G  c #3ABA64",
"H  c #2DA872",
"J  c #2AA37A",
"K  c #478A5C",
"L  c #54875A",
"P  c #76974D",
"I  c #679A55",
"U  c #5BA94F",
"Y  c #40B44E",
"T  c #45BC4D",
"R  c #56BA4F",
"E  c #46AC55",
"W  c #56AB54",
"Q  c #6AA756",
"!  c #4E8D69",
"~  c #4D916A",
"^  c #54926C",
"/  c #59936C",
"(  c #559969",
")  c #76946F",
"_  c #6C9572",
"`  c #59A667",
"'  c #65A767",
"]  c #3DC168",
"[  c #4AC34A",
"{  c #4FCC49",
"}  c #51CF47",
"|  c #59CA49",
" . c #54D346",
".. c #58D645",
"X. c #57D844",
"o. c #58D945",
"O. c #6ACB47",
"+. c #63D54A",
"@. c #7ACB56",
"#. c #45C960",
"$. c #B4BD3F",
"%. c #F29B3F",
"&. c #EEB33E",
"*. c #ACD43D",
"=. c #93EE3C",
"-. c #97F23C",
";. c #98F03C",
":. c #A3E23D",
">. c #ECC63D",
",. c #EBCD3D",
"<. c #F0CF3F",
"1. c #EED03E",
"2. c #8D8A51",
"3. c #B08E4D",
"4. c #8CB444",
"5. c #93B343",
"6. c #988E78",
"7. c #99977B",
"8. c #A7947D",
"9. c #AD907C",
"0. c #B9A276",
"q. c #CA8744",
"w. c #CE9049",
"e. c #D29B4A",
"r. c #C38651",
"t. c #CA8D51",
"y. c #E78648",
"u. c #F68141",
"i. c #FF854C",
"p. c #FA8848",
"a. c #FE984A",
"s. c #F6875A",
"d. c #F4885B",
"f. c #FD9753",
"g. c #FF9D54",
"h. c #D1A040",
"j. c #FCAC4F",
"k. c #E58270",
"l. c #88D841",
"z. c #8EC561",
"x. c #FFCC49",
"c. c #FEDD44",
"v. c #FFE146",
"b. c #FFE957",
"n. c #F5E359",
"m. c #FFD868",
"M. c #FEE96E",
"N. c #FFEF70",
"B. c #F2F374",
"V. c #FEF572",
"C. c #AF7592",
"Z. c #CA7998",
"A. c #259F83",
"S. c #18AF9D",
"D. c #19B397",
"F. c #19B298",
"G. c #22A896",
"H. c #0D98AB",
"J. c #109AA7",
"K. c #0997B6",
"L. c #0294BE",
"P. c #17A4A4",
"I. c #0FB1AD",
"U. c #0CB6AE",
"Y. c #09ADB5",
"T. c #33A8B2",
"R. c #60A79B",
"E. c #67B2AA",
"W. c #24D1B9",
"Q. c #3CD5B1",
"!. c #42D6AF",
"~. c #0093C4",
"^. c #0992C1",
"/. c #019BC5",
"(. c #00A4C7",
"). c #00ACC9",
"_. c #01B5C6",
"`. c #00BEC3",
"'. c #00B6CC",
"]. c #00BACA",
"[. c #01C3C7",
"{. c #00CBC5",
"}. c #09CDC1",
"|. c #00C2C8",
" X c #8F918B",
".X c #9A9899",
"XX c #A78A87",
"oX c #AF9487",
"OX c #8CA194",
"+X c #B2A893",
"@X c #ADABA2",
"#X c #ABB1A0",
"$X c #DC8E83",
"%X c #CD9785",
"&X c #D49587",
"*X c #DB9186",
"=X c #D88795",
"-X c #EE8A85",
";X c #FA8787",
":X c #E69A89",
">X c #E99D8C",
",X c #F5978C",
"<X c #F39D8E",
"1X c #C5A584",
"2X c #D2B794",
"3X c #E6A68F",
"4X c #EBA18E",
"5X c #F2BD8A",
"6X c #EEA591",
"7X c #EEA890",
"8X c #F2A792",
"9X c #83E09A",
/* pixels */
"O O O O O O O O O O O O O O O O O O O O O O O O O O O O O O O O O O O O O O O O O O O O O O O O O O O O O O O O O O O O ",
"O O O O O O O O O O O O O O O O O O O O O O O O O O O O O O O O O O O O O O O O O O O O O O O O O O O O O O O O O O O O ",
"O O O O O O O O O O O O O O O O O O O O O O O O O O O O O O O O O O O O O O O O O O O O O O O O O O O O O O O O O O O O ",
"O O O O , m B N N 6 O O % F N N N F l k k k M ;.;.;.;.h o.o.o.o.X.b b b V V S k Z Z Z l F N N N B x Z Z Z Z Z O.-.O O O ",
"O O O O , V B N N 6 O O % N N M N N S k Z Z n ;.:.:.:.l.O.O.O.O.O.U U W W Y A Z Z Z Z l F N N N N x Z k Z Z Z | -.O O O ",
"O O O O , V B N N 6 O O % F M M F E v v v v m 5.r r s i.i.i.i.p.i.i.i.i.3.M z Z Z Z Z S M M M M M v l l S l k O.=.O O O ",
"O O O O , B N N N 6 O O @ Z Z Z R -.-.-.;.;.o.4.t r u i.i.i.i.i.p.p.i.i.3.N v Z Z Z Z S k k k Z k n } } } } {  .o.O O O ",
"O O O O , B N N N 6 O O @ Z Z Z R -.-.-.;.h.q.e r r y y y u p a.x.j.f.i.y.t.3.K Z Z Z S Z Z Z Z Z m o.o.o.o.o.o.X.O O O ",
"O O O O , B N N N 6 O O @ Z Z Z R ;.;.;.=.y.r r r r r r r r r %.c.c.i.i.i.i.s.L Z Z k A Z Z Z Z Z m X.o.X.X.o.o.o.O O O ",
"O O O O , m N N N 6 O O @ Z Z Z R ;.:.$.*.p r r r r r r r u.p.j.b.v.i.s i.i.y.2.L L k l Z Z Z Z Z m o.o.X.X.o.o.o.O O O ",
"O O O O = B N N N 6 O O @ Z Z Z R =.$.r r r r r r r r r i >.1.n.V.M.s r u i.i.i.i.r.Z k Z Z Z Z Z n o.o.X.X.X.X.o.O O O ",
"O O O O = N N N N 6 O O @ Z Z Z b X.5.r r r r r r r r r i ,.1.n.V.M.s r u i.i.i.i.r.Z Z l l l l l m  .} } }  . . .O O O ",
"O O O O = N N N N 6 O O @ k Z Z m X.4.r r r r i &.&.u.r p >.,.n.V.M.s r f.m.m.f.i.r.Z k n V m m m V b b b b b b b O O O ",
"O O O O = N N N N 6 O O @ k Z Z m X.4.r r r r u.,.1.u.r p >.,.n.V.M.s r g.V.V.g.i.r.k k m V V V V V V V V V V V V O O O ",
"O O O O = N N N N 6 O O @ Z Z Z m X.5.r r r r u.,.,.%.u.%.1.1.n.V.M.a.i.j.V.N.g.i.r.Z k m V V V V b b V V V V V V O O O ",
"O O O O = N N N N 6 O O @ Z Z Z m ..4.r r r r u.,.,.,.>.<.c.c.b.V.V.v.v.b.V.N.g.i.r.k k m V V V V m V V V V V V V O O O ",
"O O O O * z z l z 5 O O % F S v c n P r r r r p x.,.,.,.,.c.v.b.V.V.v.v.b.V.V.g.i.w.T V c z x x x n m E m m m B B O O O ",
"O O O O & Z Z Z Z 3 O O % B F B x k 7 r r r r t i i i a u.u.i a.g.g.a.a.g.g.g.i.i.e.o. .k k Z Z Z x F B F N N k k O O O ",
"O O o O & Z Z Z Z 3 O O % F F F z Z 7 r r r r r t r r r r y r u i.i.i.i.i.i.i.i.i.e.o. .k k k k Z z N F N N M k Z O O O ",
"O O o o & Z Z Z Z 3 O O % N B F z k L q q t r r r r t d d d d f d.d.d.d.d.d.d.i.i.e.o. .k Z Z k k S N N N N M k Z O O O ",
"O O O O & Z Z Z Z 3 O O % F F F z k Z Z j w r r r r k.*X$X$X*X*X$X*X*X*X$X$X$Xd.i.e... .k k k k k S N N F N M k Z O O O ",
"O O O O & l z x z 3 O O % E E B v l l l l w r r r r k.*X*X*X*X*X*X*X*X*X*X$X$Xd.s.e.} } l k l k l x M M M v M z z O O O ",
"O O O O & m  . . .g O O :  . . .3.w 2.m m e r t k.k.:X>X&X9 9 XX6X4X4X6XXX9 _ I Q U Y V N M N M F x k Z k k z {  .O O O ",
"O O O O & V o.o.o.g O O : o.o.o.q.r q.b Y e r t $X*X6X8X&X8 4  X6X8X6X6XXX4 4 K Y V Y E N N N N F x Z Z k k k  .o.O O O ",
"O O O O + > 1 1 1 : O O : o.o.o.q.r w P P e r d $X*X>X<X*X0 9 oX8X8X8X8XoX0 9 E V V V m N N F N N z Z Z Z Z l  .o.O O O ",
"O O O O O O O O O O O O : o.o.o.q.r y r r r r d $X*X-X;X;X;X;X,X8X8X8X8X,X;X-X' V V V E N N N F F x Z Z Z Z l } o.O O O ",
"O O O O O O O O O O O O : X.o.o.q.r r r r r r d $X*X-X;X;X;X;X,X8X8X7X6X,X;X-XQ V V Y m N N F F N v Z Z Z Z l } o.O O O ",
"O O O O O O O O O O O O ; [ T [ U I I I I I 6 ) &X*X>X<X<X<X<X<X8X7XZ.Z.=X8X>X' B n B m N N E F N S Z Z Z Z l T T O O O ",
"O O O O O O X X O O O O $ V V V B F N N N N k ! &X$X4X8X8X8X8X8X6X6XZ.C.=X8X6X' N N N N N N N N M x Z Z Z Z l B Y O O O ",
"O O O O O O     O O O O $ V V V B N N N N N k K 9.oX&X4X6X4X4X6X4X:XC.C.oX0.+X` N N N N F F N N M x Z Z Z Z k m m O O O ",
"O O O O O O X X O O O O $ V V V m F N N N N Z Z Z Z 6.*X*X*X*X*X$X%XW V Y Y B F N N N N F B F B N x Z Z Z Z k m b O O O ",
"O O O O O o . . O O O O $ V V E m N N N N M Z Z Z Z 6.*X*X*X*X*X$X%XW V V E m N N N F N F B F N N S Z Z Z Z k m m O O O ",
"O O O O O O     O O O O - m V m B N J H.H.I.Y.T.8.9.&X6X6X>X4X4X4X4X1X1XR.J.J.Y.I.S.N N M M M M v z Z Z Z Z k m m O O O ",
"O O O O O O o o O O O O % N N N N N A.~.~.(.'.T.&X$X>X8X8X8X8X8X8X8X8X8XOX~.^.).'.I.N N A Z Z A Z Z Z Z Z Z k M N O O O ",
"O O O O O O O O O O O O % N N N N N A.~.~.(.).T..X.X@X@X@X#X#X2X5X5X#X#XE.~.(.).'.I.F F Z Z Z Z Z Z Z Z Z Z Z N N O O O ",
"O O O O O O O O O O O O - N N N N N A.~.~.~.~./.'.'.'.'.].{.}.9XV.B.W.}.[.'.'._.'.I.N F k Z Z Z Z Z Z Z Z Z Z F N O O O ",
"O O O O O O o o O O O O % N N N N N A.~.~.^.^./.'.'.'.'.'.{.{.9XV.B.W.{.{.'._._.'.I.N F k Z Z Z Z Z Z Z Z Z k F N O O O ",
"O O O O - c j j 3 3 O O % M N F N F F J J  X.XR././.).'.'.{.{.W.Q.Q.}.{.!.@X#XR.J H N v k Z Z Z Z k k k Z k k M N O O O ",
"O O O O 2 V x c M 3 O O # x z z x z z z A oXk..X^.^.).'.].{.{.{.{.{.{.{.E.8X6X( v S z z Z Z Z Z Z z x x z z x z z O O O ",
"O O O O 2 [ b V n g O O @ Z Z Z Z j A / / 8.0.OXP.P.Y.).'.`.`.`.|.`.U.U.E.8X6X! Z Z Z Z Z Z Z Z k S F N N N F k k O O O ",
"O O O O 2 [ V V V g O O % Z Z Z Z Z _ 7X7X~  .X.o.o.G.~.~.~.~.~.~.K.C Z ) 7X3X^ Z Z Z Z Z Z Z Z Z x F F F B M k k O O O ",
"O O O O 2 { V V b 3 O O @ Z Z Z Z Z _ 7X6X~  .X.o.o.S.~.~.~.~.~.~.L.C Z ) 7X3X( Z Z Z Z Z Z Z Z Z v B F F F M S Z O O O ",
"O O O O 2 [ V V V < o O @ Z Z Z Z Z _ 7X7X~  .#.P.P.K.~./.).).'.`.Y.Y.Y.G.^ ^ 8.1X7.S Z Z k Z Z Z S F F B F F Z Z O O O ",
"O O O O 2 [ V V V < o O @ Z Z Z k l _ 7X6X^  .] ~.~.~.~.~.'.'.|.{.{.'.'.P.A A 1X8XoXl k k k k l l S E B B E N l k O O O ",
"O O O O , V V V V < O O @ Z Z Z n  .z.7X6X@.Y D L.~.~.~./.'.'.|.{.{.].'.D.n v 7.+X8./ / m m m m m T  . . . .} b m O O O ",
"O O O O , V V V V < O O @ Z Z Z V X.z.7X6X@.Y D L.~.~.~.~.'.'.|.{.{.].'.D.V x k l / 8X8XE m V V Y [ o.o.o.o. .Y m O O O ",
"O O O O > V V V V < o O @ Z Z Z V X.z.7X3X@.V H ~.~.~.~./.'.'.|.{.{.].'.D.m c k k / 8X8XE V V V V [ o.o.o.o. .Y V O O O ",
"O O O O > V V V V < o o @ Z Z Z V o.+.@.z...Y D ~.~.~.~./.'.'.|.{.{.].'.D.b x k j A / / m V V V V [ o.o.o.o. .b V O O O ",
"O O O O > V V m m < o O @ Z Z Z m X.X.X.X.X.b D ~.~.~.~./.'.'.|.{.{.].'.F.V x Z Z Z Z l n V V V V [ X.X.X.o.X.b m O O O ",
"O O O O = B B B B < O O @ Z Z Z n [ [ [ [ G H A.~.~./././.'.'.|.{.{.].'.S.B x Z Z Z Z l [ [ [ [ [ [ [ [ [ [ [ m E O O O ",
"O O O O = N N N N 6 O O @ Z Z Z c b m V m H.~.~.~.~.(.'.'.'.'.|.{.{.'.'.S.F x Z Z Z Z l  .X.X.o.o.[ V V V V m N N O O O ",
"O O O O = N N N N 6 O O @ Z Z Z x b V V m H.~.~.~.~.).'.'.'.'.|.{.{.].'.S.F x Z Z Z Z l  .X.X.X.o.[ V V V b V N N O O O ",
"O O O O = N N N N 6 O O @ Z Z Z x V V V V H.~.~.~.~.).'.'.'.'.|.{.{.].'.S.F x Z Z Z Z l  .o.o.o...[ m Y V V m N F O O O ",
"O O O O = N N N N 6 O O @ Z Z Z c V V V V H.~.~.~.~.).'.'.'.'.|.{.{.].'.S.F x Z Z Z Z l  .o.o.o.o.T Y Y V V V N N O O O ",
"O O O O = F M M M 6 O O @ Z Z Z c V B D H K.~.~././.'.'.'.].].{.{.{.`.].U.J J Z Z Z Z l }  . . ...T m m m m m M N O O O ",
"O O O o = x k l k 3 O O @ Z Z Z x V J ~.~.~.~./.'.'.'.'.].{.{.{.{.{.{.{.[.'.'.C Z Z Z l b Y Y Y Y m N n N N n N N O O O ",
"O O O O = S k k Z 3 O O @ Z Z Z n V J /.~.~.~./.'.'.'.'.].{.{.{.{.{.{.{.|.'.].C Z Z Z S V V V V Y m F N N N N N N O O O ",
"O O O O O O O O O O O O O O O O o o O O O O O O O O O O O O O O O O O O O O O O O O O o O O o O O O O O O O O O O O O O ",
"O O O O O O O O O O O O O O O O O O O O O O O O O O O O O O O O O O O O O O O O O O O O O O O O O O O O O O O O O O O O ",
"O O O O O O O O O O O O O O O O O O O O O O O O O O O O O O O O O O O O O O O O O O O O O O O O O O O O O O O O O O O O "
};
