/* XPM */
static char *result[] = {
/* columns rows colors chars-per-pixel */
"60 60 197 2 ",
"   c #050101",
".  c #1E0404",
"X  c #350807",
"o  c #430A09",
"O  c #65100E",
"+  c #6C110F",
"@  c #691612",
"#  c #721210",
"$  c #65251C",
"%  c #692A1A",
"&  c #6E3118",
"*  c #4C4B35",
"=  c #575535",
"-  c #2E7853",
";  c #387279",
":  c #707E56",
">  c #44747B",
",  c #68797C",
"<  c #74797E",
"1  c #BB6A3D",
"2  c #E3563A",
"3  c #A3794E",
"4  c #CF7348",
"5  c #D97745",
"6  c #FC6644",
"7  c #F36B47",
"8  c #FB6D45",
"9  c #FD7347",
"0  c #F77D42",
"q  c #F87A42",
"w  c #FD7B4A",
"e  c #F56E50",
"r  c #F27256",
"t  c #F37D59",
"y  c #5CB83C",
"u  c #76E53F",
"i  c #298058",
"p  c #248E5F",
"a  c #388558",
"s  c #2F9D57",
"d  c #26925D",
"f  c #2B965D",
"g  c #2E9A5D",
"h  c #319B5B",
"j  c #3FB34F",
"k  c #35A556",
"l  c #3BAD53",
"z  c #36A25E",
"x  c #3AA65F",
"c  c #3CAA59",
"v  c #3EB051",
"b  c #1F8C68",
"n  c #1A8D78",
"m  c #228C60",
"M  c #388D65",
"N  c #2B9461",
"B  c #229772",
"V  c #30A56C",
"C  c #2EB06D",
"Z  c #2CA671",
"A  c #2BA07A",
"S  c #45894F",
"D  c #6F9252",
"F  c #689954",
"G  c #57A74F",
"H  c #40B34F",
"J  c #45BD4C",
"K  c #56BA4F",
"L  c #43AE53",
"P  c #50AF56",
"I  c #6CA64D",
"U  c #68A75F",
"Y  c #4D916A",
"T  c #589F63",
"R  c #56926C",
"E  c #6C9572",
"W  c #5AA362",
"Q  c #60AB60",
"!  c #4AC34A",
"~  c #4ECC49",
"^  c #56CD48",
"/  c #54D346",
"(  c #59D745",
")  c #58D945",
"_  c #4BCE57",
"`  c #6ECE45",
"'  c #61C34B",
"]  c #79C759",
"[  c #F29B3F",
"{  c #EEB33E",
"}  c #8DEE3D",
"|  c #9BEC3C",
" . c #97F23C",
".. c #A5E33E",
"X. c #ECC63D",
"o. c #EBCD3D",
"O. c #F0CF3F",
"+. c #EED03E",
"@. c #8F954A",
"#. c #88AF4F",
"$. c #93B044",
"%. c #AD8F7C",
"&. c #A89B76",
"*. c #B4967A",
"=. c #CF8D46",
"-. c #EC8E4B",
";. c #F68141",
":. c #F98643",
">. c #FF854C",
",. c #FC8C4B",
"<. c #FE984A",
"1. c #F4875B",
"2. c #F4885C",
"3. c #FE9C53",
"4. c #D0A946",
"5. c #FCAC4F",
"6. c #E6816E",
"7. c #E48473",
"8. c #84D24D",
"9. c #99C365",
"0. c #FFC446",
"q. c #FEDD44",
"w. c #FEDC50",
"e. c #FFE044",
"r. c #FFE34A",
"t. c #FFE957",
"y. c #F5E359",
"u. c #FFD868",
"i. c #FEE96E",
"p. c #FFF46E",
"a. c #FEEE70",
"s. c #E4F17B",
"d. c #FEF572",
"f. c #97748C",
"g. c #CA7998",
"h. c #189486",
"j. c #259F83",
"k. c #1AB398",
"l. c #3CAD9F",
"z. c #0D95A6",
"x. c #0791AE",
"c. c #0A91AB",
"v. c #0797B6",
"b. c #0293BF",
"n. c #13BAA8",
"m. c #0CB1B3",
"M. c #33AABA",
"N. c #78948F",
"B. c #73BD9C",
"V. c #60A8AC",
"C. c #65B2AF",
"Z. c #31C38E",
"A. c #14CEA7",
"S. c #24D1B9",
"D. c #3CD5B1",
"F. c #42D6AF",
"G. c #0093C4",
"H. c #0992C1",
"J. c #019BC5",
"K. c #00A4C7",
"L. c #00ACC9",
"P. c #03B6C4",
"I. c #00BEC3",
"U. c #00B6CC",
"Y. c #00BACA",
"T. c #01C3C7",
"R. c #00CBC5",
"E. c #09CDC1",
"W. c #00C2C8",
"Q. c #8F918B",
"!. c #9A9899",
"~. c #A68B87",
"^. c #B18F87",
"/. c #AD918F",
"(. c #BDA284",
"). c #8B9EA6",
"_. c #ADABA2",
"`. c #ABB1A0",
"'. c #DC8E82",
"]. c #CB9485",
"[. c #D59787",
"{. c #DB9186",
"}. c #D88795",
"|. c #EE8A84",
" X c #FA8787",
".X c #E69B8A",
"XX c #E99D8C",
"oX c #F5978C",
"OX c #F39D8E",
"+X c #CAA288",
"@X c #D2B794",
"#X c #E6A58E",
"$X c #ECA18E",
"%X c #F2BD8A",
"&X c #EEA591",
"*X c #F2A792",
"=X c #83E09A",
/* pixels */
"# # # # # # # # # # # # # # # # # # # # # # # # # # # # # # # # # # # # # # # # # # # # # # # # # # # # # # # # # # # # ",
"# # # # # # # # # # # # # # # # # # # # # # # # # # # # # # # # # # # # # # # # # # # # # # # # # # # # # # # # # # # # ",
"# # # # # # # # # # # # # # # # # # # # # # + + # # # # # # # # # # # # # # # # # # # # # # # # # # # # # # # # # # # # ",
"# # # v j l c x x # # # x x x x x x # # # p z  . . . .u ( ( ( ( ( H l l l l N m m m - # # $ x x x h m # # # m '  .# # # ",
"# # # v v v c x x # # # x x x x x x # # # m z  .......8.` ` ` ` ` G G G L v N m m m - # # % x x x g p # # # m '  .# # # ",
"# # # v v l c x x # # # z z x z x L # # # h g 4.>.:.,.>.>.>.>.>.>.w 6 7 D z N m m m - # # % x x z h d # # # f '  .# # # ",
"# # # v v c x x x # # # m m m m K  .# # # | ` 4.>.>.>.>.>.>.>.>.>.w 6 7 D L N m m m - # # $ m m m l ~ # # # ~ ( ) # # # ",
"# # # v v c x x x # # # m m m m K  .# # # 4.4.-.>.,.0.0.<.9 8 9 8 6 6 6 4 4 3 m m m - # # $ m m m l ) # # # ) ) ) # # # ",
"# # # v v c x x x # # # m m m m K  .# # + ,.>.>.>.<.O.e.5.6 6 6 6 6 6 6 6 6 4 i m m - # + $ m m m k ) # # # ) ) ) # # # ",
"# # # v v c x x x # # # m m m m K  .# # # ,.>.w w >.w.t.5.[ 0 6 6 6 6 6 6 6 4 : : a - # # $ m p m l ) # # # ) ) ) + # # ",
"# # # l v c x x x # # # m m m m K } # # # >.>.8 6 w i.d.r.o.X.q 6 6 6 6 6 6 6 6 7 : - # # $ p p m k ) # # # ) ) ( # # # ",
"# # # z x x x x x # # # m m m m l ) # # # >.>.9 6 w i.p.y.o.X.q 6 6 6 6 6 6 6 6 7 : - # # $ d d d l / # # # / / / # # # ",
"# # # x x x x x x # # # m m m m l ) # # # u.u.3.8 w i.d.y.o.X.q 8 [ [ { q 6 6 6 6 : - + # % l l v v j # # # j j j # # # ",
"# # # x x x x x x # # # m m m m l ) # # # a.d.3.6 w i.d.y.o.X.q 8 :.o.o.0 6 6 6 6 : - + # % v v v v v # # # v v v # # # ",
"# # # c x x x x x # # # m m m m l ) # # # d.d.5.:.,.a.d.y.+.o.:.;.[ o.X.;.6 6 6 6 : - # # % v j v v v + # # v v v # # # ",
"# # # z x x x x x # # # m m m m l ) # # # d.d.t.e.r.p.d.t.e.e.+.o.o.o.X.;.6 6 6 6 : - # # % v v v v v + # # v v v # # # ",
"# # # f f d f f N # # # g g h V s l @ # # i.d.t.e.r.p.p.t.e.q.q.o.o.o.o.0 6 6 6 6 @.L + # $ g f g k l # # # l c c # # # ",
"# # # m m m m m m # # # x x x x N m # # # 3.3.3.<.<.3.3.<.:.0 q q 9 0 q 7 6 6 6 6 $.y + # $ p p p N x # # # x m m # # # ",
"# # # m m m m m m # # # x x x x g m # # # >.>.>.,.>.>.>.9 6 6 6 6 6 6 6 6 6 6 6 7 $.y # # $ m m p f x # # # z d m # # # ",
"# # # m m m m m m # # # x x x x g m # # # 1.1.6.1.1.2.2.t r r r r e 6 6 6 6 7 =.=.$.y # # $ m m m N x # # # z p m # # # ",
"# # # m m m m m m # # # x x x x N m # # # {.{.{.{.{.{.{.{.{.{.{.{.t e 6 6 6 5 ( / ( y # # % m m m N x # # # z p m # # # ",
"# # # m m d f f g # # # L c c c z f # # @ 7.{.{.{.{.{.{.{.{.{.{.[.t e 6 6 6 5 / / / y # # $ p p d g z # # # z f f # # # ",
"# # # m m v / / / # # # / / / / ! l + # # E , ~.$X$X$X$X/., , ].$X.X7.7.9 6 5 H j @.1 # # % z x x N m # # # f ~ / # # # ",
"# # # m b v ) ) ) # # # ) ( ( ) ! v # # # ; ; ~.&X*X*X*XQ.; > ].*XXX{.'.r 6 5 P j 1 2 # # % x x x g m # # + d ~ ) # # # ",
"# # # m m v ) ) ( # # # ( ( ) ) ! H # # # , < ^.*X*X*X*X^., < {.OXXX{.'.r 6 5 D D 4 2 # # @ = = = = * # # # d / ) # # # ",
"# # # m m v ) ) ( # # # ) ) ) ) ! H # # # |. XoX*X*X*X*XoX X X X X|.{.'.r 6 6 6 6 6 2 # # # # # # # # # # # f ~ ) # # # ",
"# # # m b l ) ) ( # # # ) ( ( ) ! H # # # |. XoX*X*X*X*XoX X X X X|.{.{.r 6 6 6 6 6 2 # # # # # # # # # # # d ~ ) # # # ",
"# # # j j J J ! J # # # ! ! ! ! H c # # # $XOX}.g.g.*X*X*XOXOX*X$X$X{.].#.I F F F F D # # # # # # # # # # + d J ! # # # ",
"# # # ) ) ! v v v # # # v v v v c x # # # #X*Xg.g.g.$X*X*X*X*X*X*X$X{.7.U l c x c x S # # # # o . O # # # # p l v # # # ",
"# # # ) ) ~ v v v # # # v v v v l x # # # +X(.~.f.f.XX$XXX*X&XXX$X+X*.&.Q j l x z c S # # # # X   O # # # # p l v # # # ",
"# # + ) ) ! v v v # # # v v v v c x # # # z m m b M ].'.{.{.'.{.'.&.v v v v c x x x S # # # # o   + # # # # d l v # # # ",
"# # @ ) ) ! v v v # # # v v v v l x # # # z m m m M ].{.{.{.{.{.'.&.v v v v c x x x S # # # # X   + # # # + p l v # # # ",
"# # # / / J l l k # # # v v v v z x # # # z.c.N.+X+X#X$X$X$X$X$X$X[.*.*.l.m.m.z.z.A S # # # # X   O # # # # d l l # # # ",
"# # # H j k p p p # # # z z c z x x # # # J.J.).&X*X*X&X*X*X*X*X*XXX[.[.M.U.L.H.J.j.S # # # # # + # # # # # m z x # # # ",
"# # # v v s m m p # # # x x x x x x # # # J.J.V._.`.%X%X@X`.`.`._._.!.!.M.L.K.G.G.j.S # # # # # # # # # # # d z x # # # ",
"# # # v l s m m m + # # x x x x x x # # # U.U.T.E.S.s.d.=XE.R.U.U.Y.Y.U.J.G.G.G.G.j.S # # # # # # # # # # # m z x # # # ",
"# # # v v s m m m # # # x x x x x x # # # P.U.Y.R.S.s.d.B.E.R.U.U.U.U.U.J.J.G.G.b.j.S # # # # # # # # # # # m z x # # # ",
"# # + v v s p p m # # # x x x x x x # # # _._.F.R.E.D.F.S.E.R.I.U.L.J.H.N./.Q.A A V S # # $ i - i i i # # # d z x # # # ",
"# # # ~ ! j k s h # # # f f f f d f # # # &X*XC.R.R.R.R.E.R.R.U.U.L.G.H.!.'.^.f g g a + # $ m m m N N # # # g N f # # # ",
"# # # ) ) ! l v l # # # m m m m m m # # # &X&XB.A.A.T.I.R.W.T.U.L.K.c.z.N.~.%.R R M - # # $ m m m g x # # # x m m # # # ",
"# # # ) ( ! v l H # # # m m m m m m # # # &X*X9.) _ v.G.G.G.G.G.b.z.m m m m Y &X&XE - # # $ p m m g x # # # z m p # # # ",
"# # # ) ) ! v v H # # # m m m m m m # # # #X*X9.) _ v.G.G.G.G.G.b.z.m p m m Y &X&XE - # # $ m m m N x # # # z m p # # # ",
"# # # ( ) ~ L v l # # # m m m m m m # # # R ] Z.A.m.I.I.U.L.K.J.G.b.x.c.n m Y &X&XE - # + $ m m m N x # # # x m m + # # ",
"# # # / / ! H l H # # # m m m m m N # # # N / Z.U.U.R.R.W.U.U.J.G.G.G.b.n d Y &X&XE - # # $ p d d h x # # # c f p # # # ",
"# # # v H H l H l # # # m m m m W ] # # # ^ H k.U.Y.R.R.W.U.U.J.G.G.G.b.Z l T &X$XE - # # % l l v ! / # # # ~ j l # # # ",
"# # # v l H H l H # # # m m m m +X*X# # # ( v k.U.Y.R.R.W.U.U.J.G.G.G.b.Z j T $X&XE - # # % v v v ! ) + # # / H v # # # ",
"# # # v H l l H l # # # m m m m +X*X# # # ) H k.U.Y.R.R.W.U.U.J.G.G.G.b.Z j W &X&XE - # # % v v v ! ( # # # / H v # # # ",
"# # # v H l H l H # # # m m m m Q 8.# # # ( H n.U.U.R.R.Y.U.U.J.G.G.G.b.Z j z R R M - # # % v v H ! ( # # # / H v # # # ",
"# # # v v l j l v # # # p m m m l ) # # # ) v k.U.Y.R.R.W.U.U.J.G.G.G.G.Z l s m m m - # # % j l v ! ( + # # ( j v # # # ",
"# # # c c c c l c # # # m m m m k ! # # # ! v k.U.U.R.R.W.U.U.K.J.G.G.G.j.A B m m m - # # % ! ! ! ! ! # # # ! l c # # # ",
"# # # x x x z z x # # # m m m m s v + # # j v k.U.Y.R.R.W.U.Y.U.U.L.G.G.G.G.x.m m m - # # & ) ) ) ! j # # # l z x # # # ",
"# # # x x x x c x # # # m m m m s v # # # l v k.U.Y.R.R.W.U.U.U.U.L.G.G.G.G.x.m m m - # # & ) ) ) ! v # # # H z x # # # ",
"# # # x x x x x x # # # m m m m s v # # # v l k.U.Y.R.R.W.U.U.U.U.L.G.G.G.G.x.m m m - # # & ) ( ( ! H # # # l c x # # # ",
"# # # x x x x x x # # # m m m m s v # # # v j k.U.Y.R.R.W.U.U.U.U.K.G.G.G.G.x.m m p - # # & ) ( ( J v # # # l x x # # # ",
"# # # x x x x z z # # # m m m m s l # # # C C n.W.Y.R.R.W.Y.I.U.U.L.J.J.G.G.v.n n b - # # & / / ( ! l # # # l c x # # # ",
"# # # x x N p p m # # # m m m m s v # # # P.U.I.R.R.R.R.R.R.R.Y.U.U.U.U.J.G.G.G.G.h.- # # % H H H l z # # # x x x # # # ",
"# # # x x g m m m # # # m m m m s l # # # P.U.T.R.R.R.R.R.R.R.Y.U.U.U.U.J.J.G.G.G.h.- # # $ l H v c x # # # x x x # # # ",
"# # # # # # # # # # # # # # # # # # # # # # # # # # # # # # # # # # # # # # # # # # # # # # # # # # # # # # # # # # # # ",
"# # # # # # # # # # # # # # # # # # # # # # # # # # # # # # # # # # # # # # # # # # # # # # # # # # # # # # # # # # # # ",
"# # # # # # # # # # # # # # # # # # # # # # # # # # # # # # # # # # # # # # # # # # # # # # # # # # # # # # # # # # # # "
};
