/* XPM */
static char *result[] = {
/* columns rows colors chars-per-pixel */
"60 60 200 2 ",
"   c #030000",
".  c #1D0403",
"X  c #390908",
"o  c #470B0A",
"O  c #610F0D",
"+  c #67100E",
"@  c #6C110F",
"#  c #6D1D17",
"$  c #721210",
"%  c #63291F",
"&  c #75281D",
"*  c #622B24",
"=  c #722B23",
"-  c #792C24",
";  c #5F5A2E",
":  c #6A782C",
">  c #573E41",
",  c #397E4F",
"<  c #317450",
"1  c #35566F",
"2  c #3D6665",
"3  c #36746F",
"4  c #356573",
"5  c #356974",
"6  c #357571",
"7  c #554244",
"8  c #404D5B",
"9  c #6C484A",
"0  c #5B7259",
"q  c #707E56",
"w  c #44747B",
"e  c #677B7C",
"r  c #74797E",
"t  c #8D2A1C",
"y  c #8D311E",
"u  c #8B2B24",
"i  c #BB3E2B",
"p  c #B7482C",
"a  c #B24E31",
"s  c #BB4B32",
"d  c #B4672A",
"f  c #B67929",
"g  c #B36F39",
"h  c #B47739",
"j  c #8C5952",
"k  c #A34D47",
"l  c #AB554D",
"z  c #AE584D",
"x  c #BA504F",
"c  c #B35D52",
"v  c #BE704B",
"b  c #CC7348",
"n  c #D87645",
"m  c #FC6644",
"M  c #F56B47",
"N  c #FB6D45",
"B  c #FD7247",
"V  c #F77D42",
"C  c #F87A42",
"Z  c #FD7B4A",
"A  c #F27155",
"S  c #59AD3C",
"D  c #5DB33B",
"F  c #76E53F",
"G  c #248E5E",
"H  c #298B5E",
"J  c #2F9D57",
"K  c #26925D",
"L  c #2B965E",
"P  c #2D995D",
"I  c #329B5C",
"U  c #3FB34F",
"Y  c #35A655",
"T  c #3CAD53",
"R  c #36A25E",
"E  c #3AA65F",
"W  c #3CAB5A",
"Q  c #3EB051",
"!  c #1D8D6E",
"~  c #228C60",
"^  c #2C8F63",
"/  c #2A9263",
"(  c #2EA96E",
")  c #39A660",
"_  c #34A368",
"`  c #3ABA64",
"'  c #2DA770",
"]  c #2CA871",
"[  c #2AA37A",
"{  c #489144",
"}  c #4B9942",
"|  c #458950",
" . c #76974D",
".. c #669A54",
"X. c #59AA4F",
"o. c #40B44F",
"O. c #46BD4C",
"+. c #56BA4F",
"@. c #46AE54",
"#. c #4E8D69",
"$. c #4D916A",
"%. c #56946B",
"&. c #76946F",
"*. c #6C9572",
"=. c #3DC168",
"-. c #4AC34A",
";. c #4FCC49",
":. c #51CF47",
">. c #59CA49",
",. c #54D346",
"<. c #58D645",
"1. c #57D844",
"2. c #58D945",
"3. c #68C948",
"4. c #63D54A",
"5. c #7ACB56",
"6. c #45C960",
"7. c #B4BD3F",
"8. c #F29B3F",
"9. c #EEB33E",
"0. c #ACD43D",
"q. c #8DEE3D",
"w. c #9AEE3C",
"e. c #97F23C",
"r. c #98F03C",
"t. c #A3E23D",
"y. c #ECC63D",
"u. c #EBCC3D",
"i. c #EED03E",
"p. c #B08E4D",
"a. c #8CB444",
"s. c #93B343",
"d. c #998F78",
"f. c #AA917D",
"g. c #AD907C",
"h. c #CA8744",
"j. c #CD894A",
"k. c #E78648",
"l. c #F68141",
"z. c #F98847",
"x. c #FF854C",
"c. c #FE974B",
"v. c #F4885C",
"b. c #FE9B53",
"n. c #D1A040",
"m. c #FDAB57",
"M. c #D98A79",
"N. c #E58270",
"B. c #88D841",
"V. c #8EC561",
"C. c #FDDE43",
"Z. c #FFE247",
"A. c #FFE957",
"S. c #FFD868",
"D. c #FFEF70",
"F. c #FFF572",
"G. c #259F83",
"H. c #18AF9E",
"J. c #19B397",
"K. c #19B298",
"L. c #22A896",
"P. c #0D98AB",
"I. c #0997B6",
"U. c #0294BF",
"Y. c #17A4A4",
"T. c #0CB7AE",
"R. c #07ADB6",
"E. c #33A8B2",
"W. c #63A0A4",
"Q. c #69B7A7",
"!. c #0093C4",
"~. c #0992C1",
"^. c #019BC5",
"/. c #00A4C7",
"(. c #00ACC9",
"). c #01B7C5",
"_. c #00B6CC",
"`. c #00BACA",
"'. c #00C3C7",
"]. c #00CBC5",
"[. c #87948F",
"{. c #9A9899",
"}. c #A9958E",
"|. c #8CA382",
" X c #A5A59F",
".X c #ABADA1",
"XX c #DC8E83",
"oX c #CE9C8C",
"OX c #D49587",
"+X c #DB9186",
"@X c #EE8A85",
"#X c #FA8787",
"$X c #E89684",
"%X c #E99D8C",
"&X c #F39F8F",
"*X c #E5A58F",
"=X c #ECA18E",
"-X c #EEA691",
";X c #EEA890",
":X c #F1A792",
/* pixels */
"$ $ $ $ $ $ $ $ $ $ $ $ $ $ $ $ $ $ $ $ $ $ $ $ $ $ $ $ $ $ $ $ $ $ $ $ $ $ $ $ $ $ $ $ $ $ $ $ $ $ $ $ $ $ $ $ $ $ $ $ ",
"$ $ $ $ $ $ $ $ $ $ $ $ $ $ $ $ $ $ $ $ $ $ $ $ $ $ $ $ $ $ $ $ $ $ $ $ $ $ $ $ $ $ $ $ $ $ $ $ $ $ $ $ $ $ $ $ $ $ $ $ ",
"$ $ $ $ $ $ $ $ $ $ $ $ $ $ $ $ $ $ $ $ $ $ $ $ $ @ $ $ $ @ $ $ $ $ $ $ $ $ $ $ $ $ $ $ $ $ $ $ $ $ $ $ $ $ $ $ $ $ $ $ ",
"$ $ $ Q Q T W E $ $ $ E E E E E ) ) K ~ G H E r.r.r.r.F 2.2.: $ $ ; T W Q Q / * $ $ < K ) E E E E P ~ ~ G G ! 3.r.$ $ $ ",
"$ $ $ T Q Q W E $ $ $ R E E E ) E E / ~ ~ ~ Y w.t.t.t.B.3.4.: $ $ ; X.X.@.@.^ % $ $ < / E E ) ) E P G G ~ G G >.r.$ $ $ ",
"$ $ $ o.Q Q Y E $ $ $ ) R ) R R E @.I I I I T s.m m Z x.x.x.s $ @ p x.x.p.W L % $ $ < / R R R R R I K K G K G 3.q.$ $ $ ",
"$ $ $ T o.W E E $ $ $ G ~ ~ ~ ~ +.r.e.e.r.r.2.a.m m Z x.x.z.s $ $ p x.x.p.E ^ % $ $ < / K G ~ K G Y :.:.:.:.:.,.2.$ $ $ ",
"$ $ $ o.T W E E $ $ $ ~ ~ ~ ~ ~ +.r.e.e.r.n.j.n m m N N B B i $ @ d c.x.k.j.p.= $ $ < / ~ ~ ~ ~ G T 2.2.2.2.2.<.<.$ $ $ ",
"$ $ $ o.o.W R E $ $ $ H ~ ~ ~ ~ +.r.w.t.r.k.m m m m m m m m i @ $ d c.x.x.x.z.& $ $ < / ~ ~ ~ ~ G T 1.1.1.<.2.2.2.$ $ $ ",
"$ $ $ T T W E E $ $ $ H ~ ~ ~ ~ +.w.t.0.0.V m m m m m m m l.p $ $ d x.Z x.x.z.& $ $ < ^ ~ ~ ~ ~ G Y 2.1.1.1.2.2.2.$ $ $ ",
"$ $ $ T o.W E E $ $ $ ~ ~ ~ ~ ~ O.q.7.m m m m m m m m m C y.f $ $ g Z m B x.x.t $ $ < G ~ ~ G ~ ! T 2.2.1.1.1.1.2.$ $ $ ",
"$ $ $ E E E E ) $ $ $ G ~ ~ ~ ~ U 1.s.m m m m m m m m m C y.f $ @ g Z m B x.x.t $ $ < G K G K K K T :.,.,.,.:.:.,.$ $ $ ",
"$ $ $ E E E E E $ $ $ ~ ~ ~ ~ ~ T 1.s.m m m m C 9.9.l.m C y.f @ $ g Z m b.S.S.y $ $ < G Y Q T T T U U U U U U U o.$ $ $ ",
"$ $ $ E ) E E E $ $ $ G ~ ~ ~ ~ T 1.s.m m m m l.u.i.l.m C y.f @ $ g Z m b.F.D.y $ $ < G T Q Q Q U T U T Q Q U T o.$ $ $ ",
"$ $ $ E E ) E ) $ $ $ G ~ ~ ~ ~ T 1.s.m m m m l.u.u.8.l.c.i.f $ $ h c.z.m.F.D.y $ $ < G Q Q Q Q T U T U Q Q Q Q Q $ $ $ ",
"$ $ $ E E E E E $ $ $ ~ ~ ~ ~ ~ T ,.s.m m m m l.u.u.u.i.i.i.f $ $ h Z.Z.A.F.D.y $ $ < G Y Q Q Q U T U U Q Q Q Q Q $ $ $ ",
"$ $ $ L K K K K $ $ $ P / I / I J Y  .m m m m V y.u.C.y.u.C.f @ $ h Z.Z.A.F.D.y $ $ } O.P J L J P Y T o.T T T W W $ $ $ ",
"$ $ $ ~ ~ G G ~ $ $ $ E W ) W ) P G q m m m m M V V V V V V s $ $ a c.c.b.b.b.t $ $ D ,.K ~ ~ ~ G / ) E ) E E ~ ~ $ $ $ ",
"$ $ $ ~ ~ ~ ~ ~ $ $ $ E ) ) ) ) P G q m m m m m m m m m m m p $ $ p x.x.x.x.x.t $ $ D ,.K ~ ~ ~ ~ P ) E E ) R G ~ $ $ $ ",
"$ $ $ ~ ~ ~ ~ ~ $ $ $ E ) ) ) ) P G 0 v v M m m m m M A A A s $ $ a v.v.v.v.v.t $ @ D ,.K ~ ~ ~ G / E E E E ) ~ ~ $ $ $ ",
"$ $ $ ~ G G ~ ~ $ $ $ R ) ) ) ) P ~ ~ ~ G b m m m m A +XXX+Xl @ $ k +X+X+X+XXXt $ $ D ,.K ~ ~ ~ ~ / W ) E E R K ~ $ $ $ ",
"$ $ $ ~ ! K K J $ $ $ W W @.W @.R K K K H b m m m m XX+X+X+Xl $ $ k +X+X+XXXXXu $ $ S ;.K G G G K P I ) R R R K K $ $ $ ",
"$ $ $ ~ ~ Q ,.,.$ $ $ ,.<.,.<.<.p.v p.T T b m M N.M.$X=XoXe 9 @ $ l =X%X}.e e & $ $ { U E E R E ) P ~ ~ G G / ;.,.$ $ $ ",
"$ $ $ ~ ~ Q 2.2.$ $ $ 2.2.2.<.2.h.M p.T S b m M XX+X=X:XoXw 7 $ $ l :X%X}.5 6 % $ $ { T E E E E ) P ~ ~ ~ ~ K ,.2.$ $ $ ",
"$ $ $ ~ ~ Q 2.2.$ $ $ 2.2.2.2.2.h.m b  . .n m A XX+X%X&X+Xr 9 $ $ u c z j > > # $ $ { T ) W E E ) P ~ ~ ~ ~ ^ ;.2.$ $ $ ",
"$ $ $ ~ ~ Q 2.2.$ $ $ <.2.2.2.2.h.m m m m m m A XX+X@X#X#X#Xx $ $ $ $ $ $ @ $ $ $ $ { o.E E ) E ) P ~ ~ ~ ~ K ,.2.$ $ $ ",
"$ $ $ ~ ! T 2.2.$ $ $ <.2.2.2.2.h.m m m m m m A +X+X#X#X#X#Xx $ $ $ $ $ $ $ $ $ $ $ { W E E E ) ) P ~ ~ ~ ~ / :.<.$ $ $ ",
"$ $ $ o.U O.-.-.$ $ $ O.O.-.O.-.X...........0 &.+X+X%X&X&X&Xc $ $ $ $ $ $ $ $ $ $ $ { W E E E E ) P ~ ~ ~ G G O.-.$ $ $ ",
"$ $ $ 2.2.-.U Q $ $ $ T Q Q Q Q Q E E E E E G #.OX+X%X-X:X:Xc $ $ $ $ o . + $ $ $ $ | E ) ) E E E L ~ ~ ~ ~ G T T $ $ $ ",
"$ $ $ 2.2.-.Q Q $ $ $ o.Q Q Q Q T E E E E E G #.d.f.OX%X=X=Xc $ $ $ $ X   O $ $ $ $ | E ) ) E ) E L ~ ~ ~ ~ G T o.$ $ $ ",
"$ $ $ 2.2.-.Q Q $ $ $ T Q T Q Q W E E E E E H ~ ~ ~ d.XX+X+Xl $ $ $ $ o   @ $ $ $ $ | E W ) E ) E L ~ ~ ~ ~ G T Q $ $ $ ",
"$ $ $ 2.2.-.Q Q $ $ $ o.T o.Q Q T E E E E R ~ ~ ~ ~ }.+X+X+Xl $ $ $ $ X   @ $ $ $ $ | E ) E E ) ) P ~ ~ ~ ~ G T o.$ $ $ ",
"$ $ $ ,.,.-.Y Y $ $ $ T T T T T W E [ P.P.Y.R.E.}.g.OX=X:X:Xc $ $ $ $ X   O $ $ $ $ | E R R R R I L G ~ ~ ~ G T T $ $ $ ",
"$ $ $ U Q Y K G $ $ $ Y E E E W E E G.U.!.(._.E.OX+X=X;X:X:Xc $ $ $ $ $ @ $ $ $ $ $ | R G G G G G ~ G ~ ~ ~ G R E $ $ $ ",
"$ $ $ Q Q J ~ ~ $ $ $ R E E E E E E G.!.!./.(.E.{.{. X.X.X.Xj $ $ $ $ $ $ $ $ $ $ $ | R G ~ ~ ~ ~ ~ ~ G ~ ~ G ) E $ $ $ ",
"$ $ $ Q Q J ~ ~ $ $ $ R E E E E E E G.!.!.!.!.^._._._.).'.].6 $ $ $ $ $ $ $ $ $ $ $ | R H ~ ~ ~ ~ ~ ~ G ~ ~ G I E $ $ $ ",
"$ $ $ Q Q J ~ ~ $ $ $ E E ) E E E E G.U.~.~.~.I._._._._.`.].3 $ $ $ $ $ $ $ @ $ $ $ | E ~ ~ ~ ~ ~ ~ ~ G G ! G ) E $ $ $ ",
"$ $ $ U Q J ~ K $ $ $ R E E ) E E R _ [ [ [.{.W.^.^.(._.`.].3 $ @ 0 T.T.Q.}. X= $ $ | R G ~ ~ ~ ~ G G ! G G ~ ) R $ $ $ ",
"$ $ $ -.-.U J J $ $ $ P L L L L L L L L P }.$X{.~.!.(._.`.].3 $ @ 2 '.].Q.;X*X= $ $ , K ~ ~ ~ ~ H K P P L L P L K $ $ $ ",
"$ $ $ 2.2.-.Q Q $ $ $ H ~ ~ ~ ~ H H ^ %.%.f.g.|.L.Y./._.(.).3 $ $ 2 T.T.Q.;X*X= $ $ < ~ ~ ~ ~ ~ G L E E E E R ~ ~ $ $ $ ",
"$ $ $ 2.2.-.Q Q $ $ $ G G G ~ ~ ~ ~ *.-X;X$.,.2.2.<.L.!.!.!.1 $ @ 8 ! ~ &.:X*X= $ $ < ~ ~ ~ ~ ~ ~ / E E E E R G ~ $ $ $ ",
"$ $ $ 2.2.-.Q Q $ $ $ G G G ~ ~ ~ ~ *.-X;X$.,.1.2.2.H.!.!.!.1 $ $ 8 ! G &.:X*X- $ $ < ~ ~ ~ ~ ~ K / E E E E R / ~ $ $ $ ",
"$ $ $ 2.2.-.Q Q $ $ $ G ~ ~ ~ ~ G ~ *.-X;X$.,.6.Y.Y.~.!.^.(.4 $ $ 2 R.R.L.$.%.- $ $ < ~ ~ ~ ~ ~ ~ P ) ) E ) ) ~ ~ $ $ $ ",
"$ $ $ ,.,.-.Q Q $ $ $ G ~ ~ ~ ~ K K *.;X-X$.,.=.!.!.!.!.^._.5 $ $ 2 `._.Y.^ H - $ $ < G G K G G / I W W W W W K H $ $ $ ",
"$ $ $ o.U Q Q Q $ $ $ G ~ ~ ~ ~ Y ,.V.;X=X5.o.] !.!.!.!.^._.4 $ $ 2 `._.K.T I = $ $ q %.T T T Y T O.,.,.,.,.:.Q T $ $ $ ",
"$ $ $ Q Q Q Q Q $ $ $ H ~ ~ ~ ~ T 2.V.;X;X5.o.' U.!.!.!.^.(.4 $ $ 2 `._.J.T J * $ $ M.:X@.T Q U Q -.2.2.2.2.,.o.T $ $ $ ",
"$ $ $ Q Q Q Q Q $ $ $ G ~ ~ ~ ~ T 2.V.;X;X5.o.' !.!.!.!.^._.5 $ $ 2 `._.J.Q J * $ $ M.:X@.Q Q Q Q -.2.2.2.2.,.o.Q $ $ $ ",
"$ $ $ Q Q Q Q Q $ $ $ G ~ ~ ~ ~ Q 2.4.5.V.2.o.' U.!.!.!.^._.5 $ $ 2 `._.J.T J * $ $ 0 %.T Q Q Q o.-.2.2.2.2.,.o.Q $ $ $ ",
"$ $ $ Q Q o.T Q $ $ $ G G ~ ~ ~ T 1.1.1.1.1.U ' !.!.!.!.^._.5 $ $ 2 `._.J.Q J * $ $ < ~ T Q Q Q U -.1.1.1.1.1.U o.$ $ $ ",
"$ $ $ W T Y T W $ $ $ G ~ ~ ~ ~ Y -.-.-.-.` ] G.!.!.!.^./._.5 $ $ 2 `._.K.W P % $ $ < K -.-.-.-.-.-.-.-.-.-.-.T W $ $ $ ",
"$ $ $ E E E R E $ $ $ ~ ~ ~ ~ ~ J Q Q Q T P.!.!.!.!.(._._._.5 $ $ 2 _._.H.) L % $ $ < K :.1.2.2.1.-.Q Q Q Q T E E $ $ $ ",
"$ $ $ E E E E E $ $ $ G ~ ~ ~ ~ J T Q Q Q P.!.!.!.!.(._._._.5 $ $ 2 `._.H.E L % $ $ < K ,.1.2.2.1.-.Q Q Q Q Q E E $ $ $ ",
"$ $ $ E E ) E E $ $ $ ~ ~ ~ ~ ~ J Q Q Q Q P.!.!.!.!.(._.`._.5 $ $ 2 `.`.H.) L % $ $ < K ,.2.2.2.<.-.o.T Q Q Q E E $ $ $ ",
"$ $ $ E E E ) E $ $ $ H ~ ~ ~ ~ J Q Q Q T P.!.!.!.!.(._._.`.5 $ $ 2 `.`.H.) L % $ $ < K ,.2.2.2.2.-.T o.Q Q Q E E $ $ $ ",
"$ $ $ E ) ) I E $ $ $ ~ ~ ~ ~ ~ J Q W ( ] I.!.!.^.^.(.`._._.5 $ $ 2 `.`.T.[ [ % $ $ < K ,.,.,.,.,.O.Q T T T T R ) $ $ $ ",
"$ $ $ E ) P H ~ $ $ $ ~ ~ ~ ~ ~ J Q [ !.!.!.!.^._._._.`.`.].6 $ $ 2 ].].'._.).* $ $ < K U U o.o.o.o.R W R W Y R E $ $ $ ",
"$ $ $ ) E I ~ ~ $ $ $ ~ ~ ~ ~ ~ J Q [ !.!.!.!.^._._.`.`.`.].6 $ $ 2 ].].]._.).* $ $ < ~ T Q Q Q o.W R E E E ) E E $ $ $ ",
"$ $ $ $ $ $ $ $ $ $ $ $ $ $ $ $ $ $ $ $ $ $ $ $ $ $ $ $ $ $ $ $ $ $ $ $ $ $ $ $ $ $ $ $ $ $ $ $ $ $ $ $ $ $ $ $ $ $ $ $ ",
"$ $ $ $ $ $ $ $ $ $ $ $ $ $ $ $ $ $ $ $ $ $ $ $ $ $ $ $ $ $ $ $ $ $ $ $ $ $ $ $ $ $ $ $ $ $ $ $ $ $ $ $ $ $ $ $ $ $ $ $ ",
"$ $ $ $ $ $ $ $ $ $ $ $ $ $ $ $ $ $ $ $ $ $ $ $ $ $ $ $ $ $ $ $ $ $ $ $ $ $ $ $ $ $ $ $ $ $ $ $ $ $ $ $ $ $ $ $ $ $ $ $ "
};
