/* XPM */
static char *result[] = {
/* columns rows colors chars-per-pixel */
"60 60 204 2 ",
"   c black",
".  c #1C0404",
"X  c #420B09",
"o  c #560E0C",
"O  c #6E110F",
"+  c #70110F",
"@  c #721210",
"#  c #711D1C",
"$  c #7A3A1C",
"%  c #5A3835",
"&  c #613627",
"*  c #693C26",
"=  c #77302D",
"-  c #7B451A",
";  c #595C2E",
":  c #4A4F38",
">  c #4E5337",
",  c #585533",
"<  c #565C37",
"1  c #5B652E",
"2  c #576031",
"3  c #586130",
"4  c #65742A",
"5  c #573E41",
"6  c #387279",
"7  c #564040",
"8  c #707E56",
"9  c #44747B",
"0  c #677A7D",
"q  c #74797E",
"w  c #922B1D",
"e  c #8F311E",
"r  c #8C2E28",
"t  c #83372A",
"y  c #923B23",
"u  c #924423",
"i  c #DE6A3E",
"p  c #A3794E",
"a  c #B87167",
"s  c #D56D49",
"d  c #C97948",
"f  c #DA7346",
"g  c #D87945",
"h  c #FC6644",
"j  c #F36B47",
"k  c #FB6D45",
"l  c #F77D42",
"z  c #F87A42",
"x  c #FD7848",
"c  c #F56E50",
"v  c #F27256",
"b  c #F37D59",
"n  c #C7786C",
"m  c #CF7F71",
"M  c #D07F71",
"N  c #76E53F",
"B  c #248E5F",
"V  c #38885D",
"C  c #2F9D57",
"Z  c #26925D",
"A  c #2B965D",
"S  c #2D995D",
"D  c #309E57",
"F  c #319B5C",
"G  c #37985C",
"H  c #3FB34F",
"J  c #35A556",
"K  c #3BAD53",
"L  c #36A25E",
"P  c #3AA65F",
"I  c #3BAA5A",
"U  c #3EB051",
"Y  c #3AB058",
"T  c #1F8C68",
"R  c #1A8D78",
"E  c #228C60",
"W  c #288F64",
"Q  c #2A9263",
"!  c #30956A",
"~  c #30A56C",
"^  c #2FB16D",
"/  c #2CA671",
"(  c #2BA07A",
")  c #5E8F57",
"_  c #6F9252",
"`  c #699955",
"'  c #57A74F",
"]  c #40B34F",
"[  c #45BD4C",
"{  c #43AE53",
"}  c #5EA95B",
"|  c #6AA552",
" . c #4D916A",
".. c #599D67",
"X. c #54926C",
"o. c #4F9B76",
"O. c #6C9572",
"+. c #59A163",
"@. c #4AC24A",
"#. c #4ECC49",
"$. c #51CF47",
"%. c #57CB49",
"&. c #54D246",
"*. c #5AD645",
"=. c #57D844",
"-. c #58D945",
";. c #6ECE45",
":. c #61C34B",
">. c #71CB54",
",. c #94B833",
"<. c #DE9A39",
"1. c #E8A43C",
"2. c #EEB33E",
"3. c #ACDC3F",
"4. c #8DEE3D",
"5. c #97F23C",
"6. c #98F03B",
"7. c #ECC63D",
"8. c #EBCD3D",
"9. c #F0CF3F",
"0. c #EED03E",
"q. c #8F954A",
"w. c #B48248",
"e. c #8DAF4A",
"r. c #AD8F7C",
"t. c #A89B76",
"y. c #B4967A",
"u. c #B1B973",
"i. c #CB8947",
"p. c #D29B4A",
"a. c #C38651",
"s. c #F68141",
"d. c #FA8947",
"f. c #FF854C",
"g. c #FD9C46",
"h. c #F4875A",
"j. c #FF9D54",
"k. c #DEAB44",
"l. c #CEBA5F",
"z. c #DEB959",
"x. c #F2A947",
"c. c #D1926B",
"v. c #D38372",
"b. c #E58270",
"n. c #88D841",
"m. c #81CB59",
"M. c #B4D340",
"N. c #DEC059",
"B. c #FFC646",
"V. c #FEDE43",
"C. c #FFE044",
"Z. c #F5E359",
"A. c #FFE958",
"S. c #FFD868",
"D. c #FFEF70",
"F. c #FEF572",
"G. c #1F7994",
"H. c #19958D",
"J. c #259F83",
"K. c #1AA09B",
"L. c #3CAD9F",
"P. c #0A91AB",
"I. c #0A93AA",
"U. c #0591B3",
"Y. c #0293BF",
"T. c #0BACB3",
"R. c #33AABA",
"E. c #6A9992",
"W. c #22D1B9",
"Q. c #42D6AF",
"!. c #0093C4",
"~. c #0992C1",
"^. c #019BC5",
"/. c #00A4C7",
"(. c #00ACC9",
"). c #02B6C5",
"_. c #00BEC4",
"`. c #00B6CC",
"'. c #00BACA",
"]. c #00CCC5",
"[. c #00C2C8",
"{. c #8F918B",
"}. c #9A9899",
"|. c #AA968B",
" X c #B0A391",
".X c #ABACA2",
"XX c #ACB1A0",
"oX c #DC8E83",
"OX c #CE9C8C",
"+X c #D59787",
"@X c #DB9186",
"#X c #EE8A85",
"$X c #FA8787",
"%X c #E89684",
"&X c #E99D8C",
"*X c #F5978C",
"=X c #F39F8F",
"-X c #C8A98B",
";X c #E5A58F",
":X c #ECA18E",
">X c #F5BD88",
",X c #EEA691",
"<X c #F2A792",
"1X c #83E09A",
/* pixels */
"@ @ @ @ @ @ @ @ @ @ @ @ @ @ @ @ @ @ @ @ @ @ @ @ @ @ @ @ @ @ @ @ @ @ @ @ @ @ @ @ @ @ @ @ @ @ @ @ @ @ @ @ @ @ @ @ @ @ @ @ ",
"@ @ @ @ @ @ @ @ @ @ @ @ @ @ @ @ @ @ @ @ @ @ @ @ @ @ @ + @ @ @ @ @ @ @ @ @ @ @ @ @ @ @ @ @ @ @ @ @ @ @ @ @ @ @ @ @ @ @ @ ",
"@ @ @ @ @ @ @ @ @ @ @ @ @ @ @ @ @ @ @ @ + @ @ @ @ @ @ + @ + @ @ @ @ @ @ @ @ @ @ @ @ @ @ @ @ @ @ @ @ @ @ @ @ @ @ @ @ @ @ ",
"@ @ @ @ 3 U I P P P P P P P @ @ @ P Q E B B J - @ @ ,.N -.-.-.-.=.K U K ] K Q B E E E A P P P P P F E E E E E :.6.@ @ @ ",
"@ @ @ @ 3 U I P P P P P P P @ @ @ P E E E E J t @ @ ,.n.;.;.;.;.;.' ' ' { H Z E E E E A P P P P P S B B E E E :.6.@ @ @ ",
"@ @ @ @ 3 K I P P P P L P L @ @ @ { L S F F J $ @ @ i f.d.d.f.f.f.x h j _ P Z E E E E Q L L L L L S Z Z Z Z A :.4.@ @ @ ",
"@ @ @ @ 3 I P P P P P E E E @ @ @ 5.5.5.6.6.*.$ @ @ f f.f.f.f.f.f.x h j _ P A E E E E W B E B B Z J $.$.$.$.$.=.-.@ @ @ ",
"@ @ @ @ 3 I P P P P P E E E @ @ @ 5.5.5.3.k.p.r @ @ <.B.g.k k k k h h h f d p B E E E Q E E E E B Y -.-.-.-.-.-.-.@ @ @ ",
"@ @ @ @ 3 K L P P P P B E E @ @ @ 6.6.6.3.d.f.w @ @ k.C.g.k k h h h h h h h s E E E E Q E E E E B J =.=.=.=.=.-.-.@ @ @ ",
"@ @ @ @ 3 I P P P P L B E E @ @ @ 6.3.M.l.d.f.w @ @ k.C.x.d.s.k h h h h h h s 8 ) V E W E E E E E K =.=.=.=.=.-.-.@ @ @ ",
"@ @ @ @ 3 I P P P P P E E E @ @ @ 4.k.x s.d.f.w @ @ z.F.Z.0.7.z h h h h h h h h h 8 E E E E B B E Y =.-.=.=.=.=.-.@ @ @ ",
"@ @ @ @ < P P P P P P B E E @ @ @ -.p.f.d.d.f.w @ @ z.F.Z.8.7.z h h h k h h h h h 8 B B B Z Z Z Z K &.&.&.$.&.$.&.@ @ @ ",
"@ @ @ @ < P P P P P L B E E @ @ @ -.p.f.j.S.S.y + + z.F.Z.8.7.z h s.2.2.z h h h h 8 E E K K K K K H H H H H H H H @ @ @ ",
"@ @ @ @ < P P P P P P Q E E @ @ @ -.p.f.j.D.F.y @ + z.F.Z.8.7.z h d.8.7.l h h h h 8 E B K K U U U U U U U U U U H @ @ @ ",
"@ @ @ @ < P P P P P P E E E @ @ @ -.p.f.j.D.F.u @ @ N.F.A.0.9.s.s.1.8.7.l h h h h 8 E B K H U K U K H U U U U U H @ @ @ ",
"@ @ @ @ < P P P P P L E E E @ @ @ -.p.f.j.D.F.u @ @ N.F.A.C.V.0.8.8.8.7.s.h h h h 8 E B K H K K U U U U U U U U K @ @ @ ",
"@ @ @ @ > A A A Z A A S F ! @ @ @ J a.f.j.D.F.u @ @ N.F.A.C.C.0.0.8.0.8.s.h h h h q.U H C Z C C C I K U K K K I I @ @ @ ",
"@ @ @ @ : E E E B E Z L P P @ @ @ E a.f.d.j.j.r @ @ g j.g.x f.l z z l l k h h h h ,.-.&.Z E E E E Q P P P P L B B @ @ @ ",
"@ @ O @ : E E E E E E L P P @ @ @ B a.f.f.f.f.w @ @ i f.x h h h h h h h h h h h z e.-.&.Z E E E E A P P P P L Q B @ @ @ ",
"@ @ O O : E E E E E W P P P @ @ @ W a.f.f.h.h.r @ @ s h.b v v v v c h h h h j i.<.| -.&.Z E E E Z Q P P P P L B E @ @ @ ",
"@ @ @ @ : E E B E B B L P P @ @ @ B a.f.h.v.@Xr + + n @XoXoX@X@X@Xb.h h h h g *.&.=.=.&.Z E E E E A P P P P L E E @ @ @ ",
"@ @ @ @ : B A Z A A A Y { I @ @ @ Z a.f.h.%X@Xr + + n oX@X@X@X@X@Xb.h h h h g *.&.%.&.#.Z B B Q Q A L L L F L A A @ @ @ ",
"@ @ @ @ > Y &.&.&.&.&.&.*.&.@ @ @ Y ' | ` 0 0 = @ @ M &X|.0 0 OX&X%Xb.b.c h f ] ] q.d w.L L L P L A B B B B Z #.&.@ @ @ ",
"@ @ @ @ > Y -.=.=.=.=.=.-.-.@ @ @ U ] K P 6 6 = @ @ M =X{.6 9 OX<X,X@XoXv h g { { d h f I P P P P A E E E B Z &.-.@ @ @ ",
"@ @ @ @ > U =.=.-.-.-.-.-.-.@ @ @ ; ; ; , 7 5 # @ @ v.<X|.q q @X=X&X@XoXv h f _ _ d h f P P P P P Q E E E E Z &.-.@ @ @ ",
"@ @ @ @ : U =.=.-.-.-.-.-.-.@ @ @ @ @ @ @ @ @ @ @ @ v.<X*X$X$X$X$X#X@XoXv h h h k h h f P P P P P S E E E E Z $.=.@ @ @ ",
"@ @ @ @ > Y =.=.-.-.-.-.-.*.@ @ @ @ @ @ @ @ @ @ @ @ M <X*X$X$X$X$X#X@X@Xv k h h h h h f Y P P P P D W E E E Z &.=.@ @ @ ",
"@ @ @ @ 1 H @.@.@.[ @.@.[ @.@ @ @ @ @ @ @ @ @ @ @ @ M <X=X=X=X=X=X:X@Xc.q.| | ` ` ` ` } P P P P P ! E E E E Z H [ @ @ @ ",
"@ @ @ @ 4 @.U U K ] U K U U @ @ @ @ @ o . o @ @ @ @ v.<X<X<X<X<X<X;X@X@X} U K P L P P P P P P P J A E E E E Z Y U @ @ @ ",
"@ @ @ @ 4 #.U U U U U U U U @ @ @ @ + X   X @ @ @ @ m :X:X:X:X:X:X+Xy.t.} U I P P P P P P P P P P A E E E E B K U @ @ @ ",
"@ @ @ @ 4 #.U U K ] K U U U @ @ @ @ @ o   o @ @ @ @ a @X@X@X@X@X@Xt.U U { ] I P P P P P P P P P P Q E E E E B K U @ @ @ ",
"@ @ + + 4 @.U U U ] U U U U @ @ @ @ @ o   o @ @ @ @ a @X@X@X@X@X+Xt.U U U { K P P P P P P P P P P F E E E B B K U @ @ @ ",
"@ @ @ @ 4 [ K K K J K K K U @ @ @ @ @ X   X @ @ @ @ m ,X,X:X:X:X:X+Xy.t.L.T.T.I.I.( P P L L L F L A E E E E Z I U @ @ @ ",
"@ @ @ @ 3 J E B B Z B L L P @ @ @ @ @ @ @ @ @ @ @ @ v.<X<X<X<X<X<X:X@XOXR.`.).~.^.J.P L E Q B Q E E E E E E E L P @ @ @ ",
"@ @ @ @ 2 D E E B E B L P P @ @ @ @ @ @ @ @ @ @ @ + c.>X;XXXXX.X.X.X}.}.R.(./.!.~.J.I L B E E E E E E E E E B L P @ @ @ ",
"@ @ @ @ 2 C E E E E E J P P @ @ @ @ @ @ @ @ @ @ @ + l.F.1X].].'.`.'.'.'.^.!.!.!.!.J.P P B E E E E E E E E E B L P @ @ @ ",
"@ @ @ @ 2 C E E E E B L P P @ @ @ @ @ @ @ @ @ @ @ @ z.D.Q.W.].).`.`.'.`.^.!.!.!.!.( P L B E E E E E E E E E W L P @ @ @ ",
"@ @ @ @ 2 C E E B B B L L P @ @ @ G L ! o. X X= @ @ L.Q.W.].].'.`.(.^.~.E.}.{.( ( ~ L L E E E E E E E E E E Z L P @ @ @ ",
"@ @ @ @ 1 U D D C C C A A A @ @ O A S Q ..;X<X= @ @ K.].].].].'.`.(.~.~.|.oX|.V A A A A E E E E E Z S S A S A A A @ @ @ ",
"@ @ @ @ 4 #.U U U U K B B B @ @ O E W E X.;X<X= @ @ K.).T.]._.).(./.P.P.{.|.r. .X.! E E E E E E E S P P P P L B B @ @ @ ",
"@ @ @ @ 4 @.U U U U K Z E E O @ @ B B E  .;X<Xe @ + G.!.!.!.!.!.Y.I.E E E E  .,X=XO.E E E E E E E Q I P P P L W B @ @ @ ",
"@ @ @ @ 4 @.U U U U K B E E @ @ @ B B B X.;X<Xt @ + G.!.!.!.!.!.Y.I.E E E E  .,X,XO.E E E E E E E A P P P P L E E @ @ @ ",
"@ @ @ @ 4 @.U U U U K B E E @ @ @ B t.-X|.X.>.* @ @ K.'.`.(.(.!.Y.Y.P.P.R E  .,X<XO.E E E B E E E A P P P P P Z E @ @ @ ",
"@ @ @ @ 4 @.U U U U K Z E E @ @ @ A  X<X-XZ %.* @ @ K.].[.`.`.^.!.!.!.Y.R B  .,X:XO.E B B Z B Z W L I I Y I P Q B @ @ @ ",
"@ @ @ @ 3 ] U U H K K B E E @ @ @ >.u.-Xu.%.] & @ @ K.].[.`.`.^.!.!.!.Y./ K +.,X:XO.B B J K K K K [ &.&.&.&.$.K K @ @ @ ",
"@ @ @ @ 3 U U U U H K Z E E @ @ @ <Xm.*.-.-.U & @ @ K.].[.`.`.^.!.!.!.Y./ U +.,X,XO.E B K H U U U @.-.-.-.=.=.] U @ @ @ ",
"@ @ @ @ 3 U U U K U K B E E @ @ @ <Xm.-.-.-.{ & @ @ K.].[.`.`.^.!.!.!.Y.~ U +.,X,XO.E B K U U U U @.-.-.-.-.&.H U @ @ @ ",
"@ @ @ @ 3 U U U U U K B E E @ @ @ m.*.-.-.=.K & @ @ K.].[.`.(.^.!.!.!.Y.~ ] G X.X.! E B K U U U U @.-.-.-.-.=.H U @ @ @ ",
"@ @ @ @ 3 U U U U U K B B B @ @ @ =.=.=.=.=.] & @ @ K.].[.`.`.^.!.!.!.!.~ U C E E E E B K K H H U @.=.=.=.=.=.H U @ @ @ ",
"@ @ @ @ < K K I I I J B B B @ @ @ @.@.@.@.@.U & @ @ K.].[.`.`.(.^.!.!.!.H./ R E E E E B [ @.@.@.@.@.@.@.@.@.[ K K @ @ @ ",
"@ @ @ @ < P L P P P P E E E O @ @ U U U U U U & @ @ K.].[.`.`.`.`.(.!.!.!.!.I.W E E B Z &.=.=.-.=.@.] U U U U P P @ @ @ ",
"@ @ @ @ < P P P P P P E E E + @ @ K U U U U K & @ @ K.].[.`.`.`.'.(.!.!.!.Y.U.W E B B Z &.=.=.-.=.@.H U U ] K I P @ @ @ ",
"@ @ @ @ < P P P P P L Z E E @ @ @ U U U U U U & @ @ K.].[.`.`.`.`.(.!.!.!.!.P.E E E E B =.-.-.=.=.@.U U U U K P P @ @ @ ",
"@ @ @ @ < P P P P P P E E E @ @ @ U U U U U U & @ @ K.].[.`.`.`.`.(.!.!.!.!.U.E E E E B &.-.-.=.=.@.U U U U K P P @ @ @ ",
"@ @ @ @ < P L L L L L B E E @ @ @ U U U I ^ ^ & @ @ K.].[.[.'.`.`.(.^.^.!.!.U.R R T B Z $.&.=.&.&.[ { K K { K P P @ @ @ ",
"@ @ @ @ < F B E E B B B E E @ @ @ U U U ^ '.`.% @ @ K.].].].].'.`.`.'.'.^.!.!.!.Y.H.E B H ] ] ] ] { L I J P J P P @ @ @ ",
"@ @ @ @ < Q E E E E E E E E @ @ @ U U U ^ ).'.% @ @ K.].].].].'.`.`.`.`.^.^.!.!.!.H.E B K { K K H I P P P P P P P @ @ @ ",
"@ @ @ @ @ @ @ @ @ @ @ @ @ @ @ @ @ @ @ @ @ @ @ @ @ @ @ @ @ @ @ @ @ @ @ @ @ @ @ @ @ @ + + @ @ @ @ @ @ @ @ @ @ @ @ @ @ @ @ ",
"@ @ @ @ @ @ @ @ @ @ @ @ @ @ @ @ @ @ @ @ @ @ @ @ @ @ @ @ @ @ @ @ @ @ @ @ @ @ @ @ @ @ + + @ @ @ @ @ @ @ @ @ @ @ @ @ @ @ @ ",
"@ @ @ @ @ @ @ @ @ @ @ @ @ @ @ @ @ @ @ @ @ @ @ @ @ @ @ @ @ @ @ @ @ @ @ @ @ @ @ @ @ @ @ @ @ @ @ @ @ @ @ @ @ @ @ @ @ @ @ @ "
};
