/* XPM */
static char *result[] = {
/* columns rows colors chars-per-pixel */
"60 60 202 2 ",
"   c black",
".  c #1C0404",
"X  c #420B09",
"o  c #560E0C",
"O  c #6E110F",
"+  c #70110F",
"@  c #721210",
"#  c #6C3E1D",
"$  c #733F1B",
"%  c #582F39",
"&  c #583039",
"*  c #7A2C2C",
"=  c #643621",
"-  c #7A451A",
";  c #4A4F38",
":  c #565831",
">  c #565C37",
",  c #5B652E",
"<  c #576031",
"1  c #586130",
"2  c #65742A",
"3  c #387279",
"4  c #707E56",
"5  c #44747B",
"6  c #68797C",
"7  c #74797E",
"8  c #801B16",
"9  c #91251C",
"0  c #83312A",
"q  c #B23928",
"w  c #92452A",
"e  c #A04029",
"r  c #DC5338",
"t  c #DA6538",
"y  c #D57735",
"u  c #BE704B",
"i  c #997060",
"p  c #D65941",
"a  c #CE704D",
"s  c #FC6644",
"d  c #FC6E45",
"f  c #FB7745",
"g  c #F87A42",
"h  c #FD7B4A",
"j  c #F27457",
"k  c #C0796B",
"l  c #CD7B6E",
"z  c #D0726B",
"x  c #76E53F",
"c  c #248E5F",
"v  c #298B5E",
"b  c #2F9D57",
"n  c #26925D",
"m  c #2B965D",
"M  c #2D995D",
"N  c #309E57",
"B  c #38975C",
"V  c #329B5C",
"C  c #3FB34F",
"Z  c #35A556",
"A  c #3BAD53",
"S  c #36A25E",
"D  c #3AA65F",
"F  c #3BAA59",
"G  c #3EB051",
"H  c #1C9174",
"J  c #228C60",
"K  c #2C8F63",
"L  c #2A9263",
"P  c #2F8F70",
"I  c #39A660",
"U  c #32AE6A",
"Y  c #2AA877",
"T  c #478A5C",
"R  c #54875A",
"E  c #6E9256",
"W  c #57A94F",
"Q  c #40B44E",
"!  c #45BD4C",
"~  c #46AC55",
"^  c #56AB54",
"/  c #6AA756",
"(  c #4D916A",
")  c #54926C",
"_  c #59936C",
"`  c #559969",
"'  c #6C9572",
"]  c #769872",
"[  c #59A667",
"{  c #65A767",
"}  c #4AC24A",
"|  c #4FCC49",
" . c #51CF47",
".. c #59CA49",
"X. c #53D346",
"o. c #58D645",
"O. c #57D844",
"+. c #58D945",
"@. c #6ECE45",
"#. c #61C34B",
"$. c #63D54A",
"%. c #7ACB56",
"&. c #94B833",
"*. c #B4BD3F",
"=. c #CFA232",
"-. c #B4C93E",
";. c #91EE3C",
":. c #97F23C",
">. c #98F03C",
",. c #A1E33C",
"<. c #ECC63D",
"1. c #EBCE3D",
"2. c #EED03E",
"3. c #8D8A51",
"4. c #B38C4F",
"5. c #93B044",
"6. c #99817C",
"7. c #99977B",
"8. c #AC977E",
"9. c #B9A276",
"0. c #CE9049",
"q. c #D29B4A",
"w. c #C38651",
"e. c #CA8D51",
"r. c #E78648",
"t. c #FA8747",
"y. c #FF854C",
"u. c #FE984A",
"i. c #F6875A",
"p. c #F4885B",
"a. c #FD9753",
"s. c #FF9D54",
"d. c #FCAC4F",
"f. c #88D841",
"g. c #8EC561",
"h. c #FFCC49",
"j. c #FEDD44",
"k. c #FFE146",
"l. c #FFE957",
"z. c #F5E359",
"x. c #FFD868",
"c. c #FEE96E",
"v. c #FFEF70",
"b. c #E4F17B",
"n. c #FEF572",
"m. c #1A759A",
"M. c #1C7998",
"N. c #9E7D88",
"B. c #BF6C9B",
"V. c #CA7998",
"C. c #1B8A9E",
"Z. c #0FA59D",
"A. c #18AF9D",
"S. c #19B397",
"D. c #19B298",
"F. c #26A195",
"G. c #0D98AB",
"H. c #1794A2",
"J. c #0593B7",
"K. c #0CB6AE",
"L. c #10B3AD",
"P. c #09ADB3",
"I. c #59AE98",
"U. c #67B2AA",
"Y. c #24D1B9",
"T. c #3CD5B1",
"R. c #42D6AF",
"E. c #0093C4",
"W. c #009AC5",
"Q. c #00ABC9",
"!. c #01B5C6",
"~. c #00BEC3",
"^. c #00B6CC",
"/. c #00BACA",
"(. c #01C3C7",
"). c #00CBC5",
"_. c #09CDC1",
"`. c #00C2C8",
"'. c #918B84",
"]. c #A68987",
"[. c #B29585",
"{. c #B6A990",
"}. c #8B9EA6",
"|. c #ADABA2",
" X c #ABB1A0",
".X c #CD9785",
"XX c #DB9186",
"oX c #D5988A",
"OX c #D88795",
"+X c #FA8787",
"@X c #EB9087",
"#X c #F5978C",
"$X c #F39D8E",
"%X c #C5A584",
"&X c #D2B794",
"*X c #E6A68F",
"=X c #EBA18E",
"-X c #F2BD8A",
";X c #EEA591",
":X c #EEA890",
">X c #F2A792",
",X c #83E09A",
/* pixels */
"@ @ @ @ @ @ @ @ @ @ @ @ @ @ @ @ @ @ @ @ @ @ @ @ @ @ + @ @ @ @ @ @ @ @ @ @ @ @ @ @ @ @ @ @ @ @ @ @ @ @ @ @ @ @ @ @ @ @ @ ",
"@ @ @ @ @ @ @ @ @ @ @ @ @ @ @ @ @ @ @ @ @ @ @ @ @ @ + + @ @ @ @ @ @ @ @ @ @ @ @ @ @ @ @ @ @ @ @ @ @ @ @ @ @ @ @ @ @ @ @ ",
"@ @ @ @ @ @ @ @ @ @ @ @ @ @ @ @ @ @ @ @ @ @ @ @ @ @ @ + @ @ @ @ @ @ @ @ @ @ @ @ @ @ @ @ @ @ @ @ @ @ @ @ @ @ @ @ @ @ @ @ ",
"@ @ @ @ 1 G F D D I D D D D @ @ @ I n J v v N - @ @ &.x +.+.+.+.O.G A A Q A L c J J c m D D D I I M J J J J J #.:.@ @ @ ",
"@ @ @ @ 1 G F D D I D I D D @ @ @ I L J J J N - @ @ &.f.@.@.@.@.@.W W W ~ A L J J J J L D D D D D V J J J c c ..:.O @ @ ",
"@ @ @ @ 1 A F D D D D S I D @ @ @ ~ S V M M Z $ @ @ t y.y.y.y.y.y.y.y.y.4.~ L J J J J L S S S I S M n m n m b W :.+ @ @ ",
"@ @ @ @ 1 F D D I D S c J J @ @ @ >.>.:.>.>.+.$ @ @ t y.y.y.y.y.y.y.y.y.4.I K J J J J J n J J n n Z  . . . .X.o.+.+ @ @ ",
"@ @ @ @ 1 F D D D D I c J J @ @ @ >.:.:.>.q.0.9 @ @ r d d d f u.h.h.y.a.r.e.4.T J J J K J J J J J Z +.+.+.+.+.+.+.@ @ @ ",
"@ @ @ @ 1 F D D D D D c J J @ @ + >.>.;.>.r.s 9 @ @ r s s s s u.j.h.u.y.y.y.r.R J J J J J J J J J A +.+.O.+.+.+.+.@ @ @ ",
"@ @ @ @ 1 F D D D D S c J J @ @ + >.,.-.-.g s 9 @ @ r s s t.t.d.l.k.y.h y.y.t.3.R R J K J J J J J G +.+.O.O.+.+.+.@ @ @ ",
"@ @ @ @ < F D D D D D c J J @ @ + ;.*.s s s s 9 @ @ r s g <.1.z.n.c.h s d y.y.y.y.w.J c J J J J J A +.+.O.O.O.O.+.@ @ @ ",
"@ @ @ @ > D D D D D S c J J @ @ + O.&.s s s s 9 @ @ r s g 1.1.z.n.c.h s f y.y.y.y.w.J c n n n n n A  . .X.X. . .X.@ @ @ ",
"@ @ @ @ > D D D D D S J J J @ @ + +.5.s s s s 9 + + t s g <.1.z.n.c.h s a.x.x.a.y.w.J J A A A A A A C C C C C C C @ @ @ ",
"@ @ @ @ > D D D D D D c J J @ @ @ +.5.s s s s 9 + + y s g <.1.z.n.c.h s s.n.v.s.y.w.J n A G G G G C G G C G G G C @ @ @ ",
"@ @ @ @ > D D D D D D J J J @ @ + O.5.s s s s 9 + + y t.t.1.2.z.n.c.u.y.d.n.v.s.y.w.J L A G A C G G G G A G G G G @ @ @ ",
"@ @ @ @ > D D D D I D c J J @ @ + O.5.s s s s 9 @ + =.1.2.j.k.l.n.n.k.k.l.n.v.s.y.4.J n A G G A G G G G G G G G G @ @ @ ",
"@ @ @ @ ; n m n m m m M L V @ @ + Z E s s s s 9 @ @ =.1.1.j.j.l.n.n.k.k.l.n.n.s.y.0.Q C m b m b m S A G A A ~ F F @ @ @ ",
"@ @ @ @ ; c c J J J c S I I @ @ @ n E s s s s 9 @ @ t g g t.g u.s.s.a.u.s.s.s.y.y.q.+.X.n J c J c V I D I D S n J @ @ @ ",
"@ @ @ @ ; c J J J J c S F I @ @ O J 4 s s s s 9 @ @ r s s s s h y.y.y.y.y.y.y.y.y.q.+.X.n J J J c m D D D I S J J @ @ @ ",
"@ @ @ @ ; J J J J J L I I I @ @ O J 4 u u s s 9 @ @ p j j j j j p.p.p.p.p.p.i.y.y.q.+.X.n J J J J M I D D D S c J @ @ @ ",
"@ @ @ @ ; J J c J c c S I I @ @ O J c v v a s 9 + + z XXXXXXXXXXXXXXXXXXXXXXXXp.y.q.O.X.n J J J J L D D I D S c J @ @ @ ",
"@ @ @ @ ; n m m m m m F F ~ @ @ O v n v c t s 9 + O a XXXXXXXXXXXXXXXXXXXX@X9.p.y.q. .| n c c c n m S S S S S m m @ @ @ ",
"@ @ @ @ ; A X.X.X.X.X.X.o.X.@ @ @ a 3.G A y s 9 + + z #XoX7 6 ].=X=X=X=X[.6 6 E / / C C S S F I S M n c J J n | X.@ @ @ ",
"@ @ @ @ ; G +.+.+.+.O.O.+.+.@ @ @ s 4.Q G a s 9 + + 9.>X.X5 3 '.>X>X;X$X].3 3 B G G C C D D I I D L J J J J n X.+.@ @ @ ",
"@ @ @ @ ; G +.+.+.+.+.+.+.+.@ @ @ q w 1 : e q 8 @ @ z $XOX7 7 [.>X>X>X>X[.7 6 ~ G G G A D I D I D M J J J J n X.+.@ @ @ ",
"@ @ @ @ ; C +.+.+.+.+.+.+.+.@ @ @ @ @ @ @ @ @ @ @ @ z +X+X+X+X#X>X>X>X>X#X+X+X/ G G G ~ D D D D F L J J J J n  .+.@ @ @ ",
"@ @ @ @ ; C +.+.+.+.+.o.+.+.@ @ @ @ @ @ @ @ @ @ @ @ z +X+X+X+X#X>X>X>X>X#X+X+X{ G G Q A F D D D I S c J J J n  .o.@ @ @ ",
"@ @ @ @ 1 C } } } ! } } ! } @ @ @ @ @ @ @ @ @ @ @ @ z #X$X$X$X>X>X;XV.V.OX$X*X{ F F A F D D D I I L J J J J n ! ! @ @ @ ",
"@ @ @ @ 2 } G G G G G G A Q @ @ @ @ @ o . o @ @ @ @ l >X>X;X>X>X;X;XV.B.OX>X;X{ D I D D D I D D F m J J J J c A Q @ @ @ ",
"@ @ @ @ 2 | G G G G G G ~ Q @ @ @ @ @ X   X @ @ @ @ k ;X;X=X=X=X;X@XN.N.[.9.{.[ D D I D D D D D I m J J J J c A A @ @ @ ",
"@ @ @ @ 2 } G G G G G G A A @ @ @ @ @ o   o @ @ @ @ i XXXXXXXXXXXX.X^ Q Q Q A I D D D D I D D I I L J J J J n A Q @ @ @ ",
"@ @ @ O 2 } G G G C A G G C @ @ @ @ @ o   o @ @ @ @ i XXXXXXXXXXXX.X^ A Q A F D D I D D D D D I I M J J J J J A Q @ @ @ ",
"@ @ @ @ 2 } Z A A Z Z C A A O O @ @ @ X   X @ @ @ @ k =X>X=X=X$X=X=X%X%XI.H.H.L.L.A.I I B I S S S m J J J J c A A @ @ @ ",
"@ @ @ @ , b c c n n n S F S @ @ @ @ @ @ @ @ @ @ @ @ e.>X>X>X>X>X>X>X>X>X}.E.E.Q.^.L.I I K J J J J J J J J J c S S @ @ @ ",
"@ @ @ @ 1 b J J J J J S I D @ @ @ @ @ @ @ @ @ @ @ @ N.|.|. X X&X-X-X X XU.E.W.^.^.L.I I J J J J J J J J J J c S D @ @ @ ",
"@ @ @ @ < b J J J J J S D I @ @ @ @ @ @ @ @ @ @ @ @ C.^.^.)._.,Xn.b.Y._.(.^.^.^.^.L.I I J J J J J J J J J J c I D @ @ @ ",
"@ @ @ @ 1 N J J J J J S D I @ @ @ @ @ @ O O @ O @ @ C././.).).,Xn.b.Y.).)./.P.^.!.L.I S J J J J J J J J J J c I D @ @ @ ",
"@ @ @ @ 1 N J J J c c I D D @ @ + T B P P '.].* @ @ C.^.^.).).Y.R.T._.).R.|. XI.Y Y D S J J J J J c J c c c J I D @ @ @ ",
"@ @ @ @ , G N N b b b m M M @ @ @ M M V M 8..X0 @ @ C.^./.).).).).).).).U.>X=X` V L m m c J J J J n M M m M m m m @ @ @ ",
"@ @ @ @ 2 | G G G G A n J J @ @ @ J K _ _ 6.9.* @ @ C.Q.^.~.~.~.(.~.K.K.U.>X=X) J J J J J J J J c L I D I I S J J @ @ @ ",
"@ @ @ @ 2 } G G G G A n J J O O @ J ' ;X;X( X.- @ @ P E.E.E.E.E.E.J.H J ] ;X*X) J J J J J J J J J L F I I I S n J @ @ @ ",
"@ @ @ @ 2 } G G G G A c J J @ @ @ c ' ;X;X(  .- @ @ M.E.E.E.E.E.E.J.H J ] :X*X( J J J J J J J J J V I I D D S L J @ @ @ ",
"@ @ @ @ 2 } G G G G A c J J @ @ + n ' ;X;X( X.# @ @ M.E.E.Q.^.^.~.~.P.P.F.) ) [.%X7.L J J J J J J L I I I I I J J @ @ @ ",
"@ @ @ @ 2 } G G G G A n J J @ @ + m ' >X;X`  .# @ @ m.E.E.^.^.`.).(./.^.Z.c K %X>X[.J J c c n n J S F F ~ D F n n @ @ @ ",
"@ @ @ @ 1 C G G G G A n J J @ @ @ X.g.:X=X%.Q = @ @ M.J.E.^.^.`.).)./.^.S.A V 7.{.8._ _ A F A A A ! X.X.X.X.X.G A @ @ @ ",
"@ @ @ @ 1 G G G G A A c J J @ @ + +.g.>X:X%.A = @ @ m.E.W.^.^.`.).)./.^.S.G N J c _ >X>X~ Q G G G } +.+.+.+.X.Q A @ @ @ ",
"@ @ @ @ 1 G G G G G A c J J @ @ + +.g.:X:X%.Q # @ @ m.E.W.^.^.`.).)./.^.S.A m c c _ >X>X~ G G G G } +.+.+.+.X.Q G @ @ @ ",
"@ @ @ @ 1 G G G G G A n J J @ @ + +.$.%.g.+.~ = @ @ m.E.W.^.^.`.).)./.^.S.A b v c v _ _ A G G G Q } +.+.+.+.X.Q G @ @ @ ",
"@ @ @ @ 1 A C G G G A v c c @ @ @ O.O.O.O.+.Q # @ @ m.E.E.^.^.`.).).^.^.S.A b J J J J J G G G G C } O.O.O.O.O.C A @ @ @ ",
"@ @ @ @ > A F F F F Z c J J @ @ @ } } } } U Y = @ @ m.Q.W.^.^.`.).)./.^.D.F M J J J J n } } } } } } } } } } } A A @ @ @ ",
"@ @ @ @ > D D D D I D c J J O @ @ G G G A G.J.% @ @ C.^.^.^.^.`.).).^.^.A.I m J J J J n  .+.+.+.O.} G G G G G S D @ @ @ ",
"@ @ @ @ > D D D D D I c J J @ @ @ G G G A G.E.% @ @ C.^.^.^.^.`.).)./.^.A.I M J J J J n X.+.+.+.O.} G G G G A F D @ @ @ ",
"@ @ @ @ > D D D D D I J J J @ @ @ G G A G G.E.& @ @ C.^.^.^.^.`.).)./.^.A.I L c J J J n X.+.+.+.+.} G G G G A D D @ @ @ ",
"@ @ @ @ > D D D D D S c J J @ @ @ G G A A G.E.& @ @ C.^.^.^.^.`.).)././.A.I m J J J J n X.+.+.+.+.} G G G G G D D @ @ @ ",
"@ @ @ @ > S S S S S S c J J @ @ @ G I U U J.E.% @ @ C.^.^././.(.).)././.L.Y Y J J J J n  .X.+.X.O.! A G G G A D D @ @ @ ",
"@ @ @ @ > M c c c J c J J J @ @ @ G Y E.E.E.E.& @ @ H.^./.).).).).).).).`.^.^.H J J J n G C C C Q A Z D S S F S D @ @ @ ",
"@ @ @ @ > M J J J J J J J J @ @ @ G Y E.E.E.E.& @ @ H.^./.).).).).).).).(.^.!.H J J J J G G G G G F D D D D D D D @ @ @ ",
"@ @ @ @ @ @ @ @ @ @ @ @ @ @ @ @ @ @ @ @ @ @ @ @ @ @ @ @ @ @ @ @ @ @ @ @ @ @ @ @ @ @ @ @ @ @ @ @ @ @ @ @ @ @ @ @ @ @ @ @ ",
"@ @ @ @ @ @ @ @ @ @ @ @ @ @ @ @ @ @ @ @ @ @ @ @ @ @ @ @ @ @ @ @ @ @ @ @ @ @ @ @ @ @ @ @ @ @ @ @ @ @ @ @ @ @ @ @ @ @ @ @ ",
"@ @ @ @ @ @ @ @ @ @ @ @ @ @ @ @ @ @ @ @ @ @ @ @ @ @ @ @ @ @ @ @ @ @ @ @ @ @ @ @ @ @ @ @ @ @ @ @ @ @ @ @ @ @ @ @ @ @ @ @ "
};
