/* XPM */
static char *result[] = {
/* columns rows colors chars-per-pixel */
"60 60 212 2 ",
"   c #6C5C37",
".  c #3D3D4A",
"X  c #272F52",
"o  c #282F52",
"O  c #283653",
"+  c #293258",
"@  c #383154",
"#  c #373558",
"$  c #2F3863",
"%  c #353E67",
"&  c #323C69",
"*  c #4A2A4C",
"=  c #482D55",
"-  c #45345A",
";  c #553657",
":  c #743850",
">  c #783659",
",  c #2A4753",
"<  c #2B5757",
"1  c #375354",
"2  c #2F6456",
"3  c #336955",
"4  c #2C755A",
"5  c #39795D",
"6  c #334067",
"7  c #346063",
"8  c #57465D",
"9  c #5A6C52",
"0  c #6E7D5E",
"q  c #4A4E63",
"w  c #47436A",
"e  c #4D4A6E",
"r  c #594E6C",
"t  c #584F6F",
"y  c #5E5270",
"u  c #765A68",
"i  c #666B6B",
"p  c #787462",
"a  c #9D223F",
"s  c #A8223E",
"d  c #B1253F",
"f  c #C2243D",
"g  c #D1253B",
"h  c #D92A3F",
"j  c #927529",
"k  c #892742",
"l  c #972845",
"z  c #99344E",
"x  c #8E3755",
"c  c #A32742",
"v  c #B8334A",
"b  c #A83B57",
"n  c #D0374B",
"m  c #EE3646",
"M  c #E73748",
"N  c #FC3E4C",
"B  c #E63D64",
"V  c #E83C64",
"C  c #9B4156",
"Z  c #B65C5F",
"A  c #90655F",
"S  c #B1615E",
"D  c #8C5066",
"F  c #A75662",
"G  c #B85A66",
"H  c #8D6260",
"J  c #86626D",
"K  c #966C77",
"L  c #9C7274",
"P  c #A56766",
"I  c #BA6966",
"U  c #AC6F73",
"Y  c #B77476",
"T  c #FF404D",
"R  c #CA4763",
"E  c #D34963",
"W  c #D04965",
"Q  c #C55768",
"!  c #ED4165",
"~  c #ED4966",
"^  c #E7446A",
"/  c #F54566",
"(  c #F84766",
")  c #FC4A67",
"_  c #FF4C68",
"`  c #E4526E",
"'  c #FC556D",
"]  c #E75677",
"[  c #FB5B74",
"{  c #F3666F",
"}  c #FB6279",
"|  c #F6797C",
" . c #76E53F",
".. c #2A875C",
"X. c #248E5F",
"o. c #35845A",
"O. c #2F9D57",
"+. c #26925D",
"@. c #2A965D",
"#. c #2D995E",
"$. c #309E57",
"%. c #319B5C",
"&. c #3FB34F",
"*. c #35A655",
"=. c #3CAD52",
"-. c #36A25E",
";. c #3AA65F",
":. c #3BAA59",
">. c #3EB051",
",. c #228C60",
"<. c #2B8A61",
"1. c #338560",
"2. c #2A9362",
"3. c #45864D",
"4. c #4B9556",
"5. c #72835C",
"6. c #619A53",
"7. c #4BAF4D",
"8. c #40B34F",
"9. c #4AB14D",
"0. c #4BB14D",
"q. c #45BC4C",
"w. c #59B64A",
"e. c #56BA4F",
"r. c #45AD54",
"t. c #61B348",
"y. c #73B84B",
"u. c #7AAE59",
"i. c #4B9269",
"p. c #698960",
"a. c #4AC34A",
"s. c #4FCC49",
"d. c #51CF47",
"f. c #57CC48",
"g. c #54D346",
"h. c #59D645",
"j. c #57D844",
"k. c #58D945",
"l. c #63C34A",
"z. c #6DE141",
"x. c #BF9218",
"c. c #B08D2E",
"v. c #86B338",
"b. c #99B93C",
"n. c #ABAD27",
"m. c #B5AE23",
"M. c #D8A312",
"N. c #E4B10C",
"B. c #EDB009",
"V. c #F0B207",
"C. c #F0B10E",
"Z. c #EBB312",
"A. c #F4BA14",
"S. c #F19028",
"D. c #8DEE3C",
"F. c #97F23C",
"G. c #B4E535",
"H. c #DAD32D",
"J. c #C5CB30",
"K. c #EEC42D",
"L. c #FEC426",
"P. c #FAC428",
"I. c #FCC131",
"U. c #FFCD31",
"Y. c #8BA744",
"T. c #89B840",
"R. c #B7A857",
"E. c #81836C",
"W. c #849877",
"Q. c #B08E77",
"!. c #BCA46E",
"~. c #C9AA44",
"^. c #C1827E",
"/. c #C9977F",
"(. c #EBA97C",
"). c #85E340",
"_. c #D2C059",
"`. c #EDDB50",
"'. c #FEE14F",
"]. c #FFE85B",
"[. c #FFF673",
"{. c #A27A80",
"}. c #C56E88",
"|. c #E66885",
" X c #F86D83",
".X c #E4758E",
"XX c #F67989",
"oX c #F77E90",
"OX c #B0A080",
"+X c #DA8983",
"@X c #EA8E94",
"#X c #F58A95",
"$X c #EAA490",
"%X c #EDA893",
"&X c #F2A792",
"*X c #F2A893",
"=X c #E897A6",
"-X c #EFB1A4",
";X c #E1AAB6",
":X c #E9ADB6",
">X c #E6B6BC",
",X c #E9C4BA",
"<X c #E6BBC2",
"1X c #DFCBCF",
"2X c #DFD2D5",
"3X c #DFDFDF",
"4X c #E2C7C9",
"5X c #E8D4D1",
"6X c #F2E0DB",
"7X c #E2E2E2",
"8X c #ECECEC",
"9X c #F2F2F2",
/* pixels */
"a.>.>.>.>.>.=.=.>.=.=.>.>.=.>.>.>.=.+.,.,.,.$.F.F.F.F. .k.k.k.k.j.>.>.>.>.>.@.@.X.X.X.@.;.;.;.;.;.%.,.,.2.+.,.e.D.D.z.).",
"&.>.>.>.>.>.:.:.;.;.;.;.:.;.;.;.;.;.+.,.,.,.%.F.F.F.F. .k.k.k.k.g.>.>.>.>.>.2.,.X.,.X.@.;.;.;.;.;.%.,.,.,.,.,.l.F.F.F.F.",
"=.>.>.>.>.>.:.;.;.;.;.;.-.;.;.;.;.-.+.,.X.X.$.F.F.F.F. .k.k.k.k.j.>.>.>.>.>.@.,.,.,.,.+.;.;.;.;.;.-.,.,.,.,.,.f.F.F.F.F.",
">.>.>.>.>.>.:.;.;.;.;.;.;.;.;.;.;.;.+.,.2...$.F.F.F.F. .k.k.k.k.g.>.>.>.>.>.@.,.,.,.X.2.;.;.;.;.;.2.,.,.,.,.,.l.F.F.F.F.",
">.>.>.>.>.&.:.;.;.;.;.;.;.;.;.;.;.;.@.,.,.,.-.F.F.F.F.z.k.k.k.k.j.>.=.>.>.=.2.,.,.,.,.2.;.;.;.;.;.#.,.,.,.X.,.w.F.F.F.F.",
">.>.>.>.>.=.:.;.;.;.;.-.;.-.;.;.;.r.-.;.%.%.*.z. .z.z.f.q.q.q.q.q.:.:.:.*.:.@.,.,.,.,.2.-.-.-.-.-.#.+.@.@.@.@.l.D.D.D.D.",
"8.>.>.>.&.:.-.;.;.;.;.,.,.,.,.,.e.F.F.F.F.F.% & i [.[.E.& % % % $ X X 2 ;.;.@.,.,.,.,.2.,.X.X.X.+.=.d.d.d.d.d.j.k.z.k.k.",
"8.>.>.>.>.:.;.;.;.;.;.,.,.,.,.,.e.).F.F.F.F.6 & i [.[.E.& & & % $ X X 2 ;.;.@.,.,.,.,.,.,.,.,.,.,.=.k.k.k.k.j.j.k.k.k.j.",
"8.>.>.>.>.:.;.;.;.;.;.,.,.,.,.,.a.F.F.G.G.G.6 & i [.[.E.& & 9     X X , 4 o.+.,.,.,.,.<.,.,.,.,.,.=.j.j.k.k.k.k.k.k.k.k.",
"&.>.>.>.>.:.;.;.;.;.;.,.,.,.,.,.e.F.F.H.L.I.6 6 i [.[.E.& & M.C.x.o X X X X ..,.,.,.,.2.,.,.,.X.,.*.k.k.j.j.k.k.k.k.k.k.",
"8.=.=.=.r.:.;.;.;.;.;.,.,.,.,.,.e.).D.H.I.L.6 & i [.[.E.& & M.C.x.o X X X O ..,.,.,.,.X.,.,.X.X.X.*.j.k.j.j.j.j.j.j.k.k.",
"-.-.;.-.;.;.;.;.;.;.;.+.,.,.,.,.8.k.k.J.L.L.c.c.~.].]._.R.R.Z.V.N.j c.  X X , < < ,.X.X.+.X.+.+.+.=.d.g.d.d.g.d.g.d.d.g.",
"-.;.;.;.;.;.;.;.;.;.;.,.,.,.,.,.>.k.k.J.L.L.L.L.U.'.'.'.'.'.C.V.V.V.V.j X X X X O ,.,.,.*.=.=.=.=.>.&.&.&.&.&.&.&.&.&.&.",
"-.;.;.;.;.;.;.;.;.;.;.,.,.,.,.,.>.k.k.J.L.L.L.L.I.'.'.'.'.'.Z.B.V.V.V.j X X X X O ,.,.,.=.>.>.>.>.>.>.>.>.>.>.>.&.&.>.>.",
"-.;.;.;.;.;.;.;.;.;.;.,.,.,.,.,.r.k.k.5 q q q q q q q q q q - 1 . . . O X X X X O ,.,.,.=.>.>.>.>.&.>.>.>.>.>.>.>.>.>.>.",
"-.;.;.;.;.;.;.;.;.;.-.,.,.,.,.,.=.k.h.5 & & & & & % & & % $ o o X X X X X X X X , ,.,.+.=.>.>.>.>.=.>.>.>.>.>.>.>.>.>.=.",
"@.@.@.2.@.+.@.@.2.@.2.2.%.2.-.-.-.*.*.7 & & y t t y y y r y r 8 8 8 q - X X X X , 8.q.8.O.@.O.@.#.*.>.>.:.>.>.:.:.:.:.;.",
"+.,.,.,.,.,.,.,.,.X.+.;.;.;.;.;.%.X.4 : l @ Y b k P +XY z z U Y C k U J X X X X , j.j.g.+.,.,.,.X.2.;.;.;.;.-.X.X.,.,.,.",
"+.,.,.,.,.,.,.,.,.,.,.;.;.;.;.;.O...x { (.l C M M l D b | | b b T h l 8 X X X X , j.h.g.X.X.,.,.,.2.;.;.;.;.-.X.,.,.,.,.",
"+.,.,.,.,.,.,.,.,.,.,.;.;.;.;.;.#.4 d #X{ n a T N f * n &X_ v v T T s * X X u u p j.j.g.+.,.,.,.X.#.;.;.;.;.-.X.,.,.,.,.",
",.,.,.,.,.,.,.,.,.,.+.-.;.;.;.;.#.4 a n T T T N g v : l m T T T N g c - o o ^.+X/.h.h.g.+.X.X.X.,.#.;.;.;.;.;.,.,.X.,.,.",
"+.,.,.,.,.+.@.@.@.@.@.:.;.r.:.:.$.+.4 a M M m h s D %XU s m m M g a P K o o ^.@X/.g.d.d.+.X.X.X.X.#.-.-.-.%.-.2.@.@.@.@.",
",.,.,.,.,.=.g.g.g.g.j.g.g.g.g.h.a.=.=.o.a f g s = r e t - a g g a * 8 # o o {.+X/.>.&.>.-.;.;.-.;.#.,.X.X.X.+.s.g.g.g.g.",
",.,.,.,.,.&.j.j.j.j.j.j.k.k.k.k.a.>.>.>.o.a a * & % & & & # a a = X X o o o OX+X/.>.>.=.;.;.;.;.;.2.,.,.X.X.+.g.j.j.j.j.",
"+.,.,.,.,.=.j.j.k.k.k.k.k.k.k.k.a.=.8.8.=.3.; e e w w e e e - @ $ X X X X X U +XQ.>.>.=.;.;.;.;.;.#.,.,.,.,.+.g.k.j.k.k.",
",.,.,.,.,.=.j.j.k.k.k.k.k.k.k.k.a.8.=.=.>.=.$X$X+XG G .X$X$Xe & $ X X X X X @ + , >.>.>.;.;.;.;.:.2.,.,.,.,.+.g.k.j.k.k.",
",.,.,.,.,.=.j.j.h.k.k.k.k.k.k.k.a.8.=.8.>.>.$X$X@XQ Q +X*X*Xe & $ X X X X X X + , =.&.&.;.;.;.;.;.#.,.,.,.,.+.d.j.j.j.j.",
"&.&.&.q.&.q.a.a.a.a.q.q.q.a.a.q.8.:.:.@.5 5 {.{.L D D K {.{.w & $ X X = > > 1 < 3 ;.:.:.;.;.;.;.;.#.,.,.,.,.X.q.a.a.a.a.",
"g.k.k.k.j.a.=.>.8.=.8.8.>.>.>.>.:.;.;.7 & & & & & & & & & & & & $ o o > V ^ 4.;.-.;.;.;.;.;.;.;.;.#.,.,.,.,.,.=.>.>.=.>.",
"g.k.j.j.k.s.>.>.=.>.=.8.>.>.>.>.:.;.;.7 & & & & & & & & & & & & $ + o x V ! 4.-.;.;.;.;.;.;.;.;.;.#.,.,.,.,.,.=.>.>.>.>.",
"g.k.j.j.j.a.>.>.>.>.>.>.>.>.>.>.r.;.;.< + + + + + + + + + + + + - b b }.;X;XI G P ;.;.;.;.;.;.;.;.2.,.,.,.,.+.=.>.>.&.&.",
"g.k.j.j.j.s.>.>.>.>.>.>.>.>.>.>.:.;.;.< X X X X X X X X X X X X ; V V @X3X7X] B E ;.;.;.;.;.;.;.;.#.,.,.,.,.,.=.=.&.=.&.",
"d.g.g.g.g.q.*.=.=.8.r.0.0.0.0.7.r.;.;.1 # @ # @ @ @ @ @ # @ @ @ ; V V .X2X2X] B W ;.;.;.-.-.-.-.-.+.,.,.,.,.X.=.=.=.=.=.",
":.q.&.&.&.*.+.X.u.`.`.K.K.K.N.N.n.;.;.I ~ ~ ~ ~ ~ ~ ~ ~ ^ / ~ ~ / V V ^ ^ B B B W ;.;.-.<.,.,.,.+.,.,.,.,.,.X.-.;.;.-.:.",
":.>.:.&.=.O.,.,.u.'.'.U.L.L.B.B.m.;.r.I _ _ _ _ ) ) ) _ ) ) _ _ ( V V V V V V V W ;.;.-.,.,.,.,.,.,.,.,.,.,.X.-.;.;.;.;.",
"=.>.>.&.&.O.,.,.u.].'.U.L.L.V.V.m.;.;.I _ ) / / ' XXXXoXoXoX' _ ' |..X] V V V V W ;.;.;.2.,.,.,.,.,.,.,.,.,.X.-.;.;.;.;.",
"=.&.=.>.>.O.,.,.u.'.'.U.L.L.V.V.m.;.;.I ) ) V V |.3X3X8X9X9X[ )  X7X3X=XV V V V E ;.;.-.,.,.,.,.,.,.,.,.,.,.X.-.;.;.;.;.",
"=.>.&.&.&.O.,.,.u.'.'.U.L.L.V.V.m.:.;.I ) ) V B |.3X3X7X9X9X X_  X7X3X=XV V V V E ;.;.-.,.,.,.,.,.,.,.,.,.,.X.;.;.;.;.;.",
"a.s.a.a.a.&.O.O.T.P.P.A.A.A.V.V.M.P P ` ) ) B B |.3X3X8X9X9X X) [ #X#X|.V V V V E @.@.@.,.,.,.,.X.2.2.#.#.#.#.2.2.#.#.2.",
"k.k.j.j.k.a.>.>.v.B.V.V.V.V.V.V.S._ _ _ _ _ B B |.3X3X8X9X9X[ ) ) _ ( ^ V V V V E ,.,.,.,.,.,.,.X.#.;.;.;.;.-.X.X.X.,.,.",
"k.k.k.k.k.a.=.>.v.N.N.V.B.B.N.N.S._ _ ) ) _ ^ ^ |.3X7X8X9X9X} ' ' _ _ / V B ^ ^ W <.<.<.,.,.,.,.X.2.;.;.;.;.-.X.,.,.,.,.",
"k.k.k.k.k.a.r.>.9.w.0.!.(.(.4.3.p ) _ / V V 4X4X2X9X8X9X9X9X5X4X:X_ _ ) ) ) >X4X<XR R u ,.,.,.,.X.#.;.;.;.;.;.X.,.,.,.,.",
"z.j.k.k.k.a.>.>.=.&.=.Q.%X$X,.,.0 ) ) ! V ! 3X3X7X9X9X9X9X9X7X3X<X) _ _ ) _ 4X3X1XB B H ,.,.,.,.,.2.;.;.;.;.;.+.,.,.X.,.",
"j.g.g.g.g.a.>.>.9.t.t.!.(.(.i.i.E.[ { [ ] ] 3X3X7X9X9X9X9X9X7X3X<X) _ _ _ _ ;X4X;XB B H X.+.X.+.X.%.:.:.:.:.;.2.+.,.,.X.",
"8.8.8.8.8.8.>.>.v.P.P.P.P.I.%X%X&X&X&X4X3X3X3X3X7X9X9X9X9X9X7X7X<X) _ _ _ _ ! ^ V V V H *.*.>.>.=.a.g.g.g.g.d.&.=.=.=.=.",
">.>.>.>.>.>.>.>.T.L.L.L.L.P.&X*X*X*X&X,X3X3X3X3X7X9X9X9X9X9X7X7X<X) _ _ _ _ V V V V V H =.&.>.>.>.a.j.j.k.k.g.&.>.>.>.=.",
"8.>.>.>.>.>.>.>.t.b.b.Y.Y.Y.W.W.Q.| | >X3X3X7X3X8X9X9X9X9X9X,X,X-X| | } _ _ ! V V V B H *.>.>.>.>.a.k.j.k.k.g.&.>.>.>.>.",
"8.>.>.>.>.>.>.>.8.8.=.X.,.,.X.X.5.) ) :X3X3X3X3X7X9X9X9X9X9X*X&X*X*X*X| _ _ V V V V B H >.>.>.>.>.a.k.k.k.k.g.&.>.>.>.>.",
">.>.&.>.&.>.>.>.>.>.=.X.X.X.,.,.5.) _ :X3X3X3X3X7X9X9X9X9X9X-X&X*X*X*X(.V ) V V V V V H =.=.8.8.=.a.h.h.j.j.j.&.>.>.>.>.",
"=.=.:.:.:.:.:.*.:.:.*.X.,.,.,.,.5.) _ :X3X3X8X8X9X9X9X9X9X9X6X6X5X5X5X#X) ) ( ) / B V H a.a.a.a.a.a.a.a.a.a.a.=.:.:.:.>.",
";.;.;.;.;.;.;.;.;.;.;.,.,.,.,.,.0 ) _ :X3X3X9X9X9X9X9X9X9X9X9X9X8X3X3X=X_ _ ) _ ) B V A g.k.k.k.h.a.8.=.>.>.=.;.;.;.;.;.",
";.;.;.;.;.;.;.;.;.;.;.+.,.,.,.,.0 ) _ :X3X3X9X9X9X9X9X9X9X9X9X9X8X7X3X=X_ _ _ _ ) ^ ] A l.l.h.k.k.a.=.8.>.>.>.;.;.;.;.;.",
";.;.;.;.;.;.;.;.;.;.;.,.,.,.,.,.0 _ _ :X3X3X9X9X9X9X9X9X9X9X9X9X8X3X3X=X_ _ _ _ [ 3X3X=XB B y.k.h.a.=.8.>.>.>.-.;.;.;.;.",
";.;.;.;.;.;.;.;.;.;.-.,.,.,.,.,.0 _ _ :X3X3X9X9X9X9X9X9X9X9X9X9X8X3X3X=X_ _ _ _ [ 3X3X=XV V y.k.h.q.8.8.>.>.>.;.;.;.;.;.",
";.;.;.;.;.-.-.-.-.-.%.X.,.,.,.,.0 _ _ :X3X3X9X9X9X9X9X9X9X9X9X9X9X3X3X<XoXoX' ) ' ;X;X.XV V y.g.j.q.=.=.=.>.=.-.;.;.;.;.",
";.;.;.;.;.#.X.+.X.,.,.X.,.,.,.,.0 _ ) ;X3X3X9X9X9X9X9X9X9X9X9X9X8X3X3X3X3X7X[ _ ( V V V V V 6.8.8.=.;.;.*.-.:.;.;.;.;.;.",
";.;.;.;.;.%.X.,.,.,.,.,.,.,.,.,.0 ) _ :X3X3X8X9X9X9X9X9X9X9X9X9X8X3X3X3X3X3X[ ) ) V V V V V 6.8.8.:.;.;.;.;.;.;.;.;.;.;.",
";.;.;.;.;.%.X.,.,.,.,.,.,.<.F F Q V V ;X3X3X9X9X9X9X9X9X9X9X9X9X8X3X7X3X3X3X] V V V V V V V G Z S S Z p.;.;.;.;.;.;.;.;.",
";.;.;.;.;.2.,.,.,.,.,.,.,.1.B B V V V ;X3X3X9X9X9X9X9X9X9X9X9X9X8X3X3X3X3X3X] V V V V V V V V V ! ! B p ;.;.;.-.;.;.;.;.",
";.;.;.;.;.#.,.,.,.,.,.,.,.<.B ^ V V V ;X3X3X9X9X9X9X9X9X9X9X9X9X9X3X3X3X3X3X] V V V V V V V V V B ^ ^ A ;.;.;.*.;.;.;.;."
};
