/* XPM */
static char *result[] = {
/* columns rows colors chars-per-pixel */
"60 60 205 2 ",
"   c #6C5C37",
".  c #3D3D4A",
"X  c #272F52",
"o  c #282F52",
"O  c #283653",
"+  c #293258",
"@  c #363756",
"#  c #383154",
"$  c #2F3863",
"%  c #353E64",
"&  c #3B3F60",
"*  c #323C69",
"=  c #473557",
"-  c #553256",
";  c #623357",
":  c #793459",
">  c #2A4753",
",  c #2B5757",
"<  c #375354",
"1  c #2F6456",
"2  c #306A55",
"3  c #39795D",
"4  c #374166",
"5  c #2C5766",
"6  c #296664",
"7  c #346064",
"8  c #474747",
"9  c #444649",
"0  c #574E55",
"q  c #56485F",
"w  c #6A5C53",
"e  c #715E59",
"r  c #4E7C57",
"t  c #6E7D5E",
"y  c #4A4E63",
"u  c #47436A",
"i  c #4C4B6E",
"p  c #564F70",
"a  c #5E5270",
"s  c #765A68",
"d  c #666B6B",
"f  c #746E63",
"g  c #7F7C61",
"h  c #927529",
"j  c #803459",
"k  c #AE375E",
"l  c #E63D64",
"z  c #E83C64",
"x  c #B65C5F",
"c  c #B1615E",
"v  c #884D69",
"b  c #A75662",
"n  c #B85A66",
"m  c #8D6260",
"M  c #87636D",
"N  c #956D67",
"B  c #956D76",
"V  c #987174",
"C  c #A76A62",
"Z  c #BA6966",
"A  c #A97772",
"S  c #CA4763",
"D  c #D34963",
"F  c #D04965",
"G  c #C55768",
"H  c #ED4165",
"J  c #ED4966",
"K  c #E7446A",
"L  c #F54566",
"P  c #F84766",
"I  c #FC4A67",
"U  c #FF4C68",
"Y  c #E4526E",
"T  c #FC526D",
"R  c #FA5A6F",
"E  c #E65375",
"W  c #E95A78",
"Q  c #FB5B74",
"!  c #FB6573",
"~  c #FB627A",
"^  c #F77A7D",
"/  c #76E53F",
"(  c #2A875C",
")  c #248E5F",
"_  c #35845A",
"`  c #2F9D57",
"'  c #26925D",
"]  c #2A965D",
"[  c #2D995E",
"{  c #309E57",
"}  c #319B5C",
"|  c #3FB34F",
" . c #35A655",
".. c #3CAD52",
"X. c #36A25E",
"o. c #3AA65F",
"O. c #3BAA59",
"+. c #3EB051",
"@. c #228C60",
"#. c #2B8A61",
"$. c #338560",
"%. c #2A9362",
"&. c #4B9556",
"*. c #72835C",
"=. c #619A53",
"-. c #4BAF4D",
";. c #55AD46",
":. c #40B34F",
">. c #4AB14D",
",. c #45BC4C",
"<. c #56BA4F",
"1. c #45AD54",
"2. c #47B350",
"3. c #61B348",
"4. c #73B84B",
"5. c #7AAE59",
"6. c #4B9269",
"7. c #698960",
"8. c #4AC34A",
"9. c #4FCC49",
"0. c #51CF47",
"q. c #57CC48",
"w. c #54D346",
"e. c #59D645",
"r. c #57D844",
"t. c #58D945",
"y. c #63C34A",
"u. c #6DE141",
"i. c #BF9218",
"p. c #B08D2E",
"a. c #86B338",
"s. c #99B93C",
"d. c #ABAD27",
"f. c #B5AE23",
"g. c #D8A312",
"h. c #E4B10C",
"j. c #EDB009",
"k. c #F0B207",
"l. c #F0B10E",
"z. c #EBB312",
"x. c #F4BA14",
"c. c #D89B24",
"v. c #F19028",
"b. c #8DEE3C",
"n. c #97F23C",
"m. c #B4E535",
"M. c #DAD32D",
"N. c #C5CB30",
"B. c #EEC42D",
"V. c #FEC426",
"C. c #FAC428",
"Z. c #FCC131",
"A. c #FFCD31",
"S. c #8BA744",
"D. c #89B840",
"F. c #B7A857",
"G. c #81836C",
"H. c #849877",
"J. c #B08E77",
"K. c #BCA46E",
"L. c #C9AA44",
"P. c #C1827E",
"I. c #C9977F",
"U. c #EBA97C",
"Y. c #85E340",
"T. c #D2C059",
"R. c #EDDB50",
"E. c #FEE14F",
"W. c #FFE85B",
"Q. c #FFF673",
"!. c #A27A80",
"~. c #C56E88",
"^. c #E66885",
"/. c #F86D83",
"(. c #E4758E",
"). c #F5788C",
"_. c #F77E90",
"`. c #D88B84",
"'. c #DA9186",
"]. c #E69387",
"[. c #E59B8B",
"{. c #E98896",
"}. c #DFA48D",
"|. c #E7A190",
" X c #EDA591",
".X c #EDA893",
"XX c #F2A792",
"oX c #F2A893",
"OX c #E897A6",
"+X c #DDB7BF",
"@X c #EFB1A4",
"#X c #E1AAB6",
"$X c #E9ADB6",
"%X c #E6B6BC",
"&X c #E9C4BA",
"*X c #E6BBC2",
"=X c #DFCBCF",
"-X c #DFD2D5",
";X c #DFDFDF",
":X c #E2C7C9",
">X c #E8D4D1",
",X c #F2E0DB",
"<X c #E2E2E2",
"1X c #ECECEC",
"2X c #F2F2F2",
/* pixels */
"8.+.+.+.+.+.......+...+.+...| ......' ) @.@.o.n.n.n.n./ e.t.t.t.r.+.| +.+.+.[ ) ) ) ) ] o.o.o.o.o.} %.@.%.' ) <.b.Y.Y.b.",
"| +.+.+.+.+.O.O.o.o.o.o.o.O.o.o.O.X.' ) @.@.{ n.n.n.n./ e.t.t.t.w.+.+.+.+.+.%.) ) ) ) ] o.o.o.o.o.} @.@.@.@.@.q.n.n.b.n.",
"..+.+.+.+.+.O.o.o.o.o.o.o.o.o.o.o.o.' @.@.@.o.n.n.n.n./ t.t.t.t.e.+.+.+.+.+.' ) @.@.) ' o.o.o.o.o.} @.@.@.@.@.y.n.n.n.n.",
"+.+.+.+.+.+.O.o.o.o.o.o.o.o.o.o.o.o.@.@.@.( { n.n.n.n./ t.t.t.t.e.+.+.+.+.+.] ) @.@.@.@.o.o.o.o.o.%.@.@.@.@.@.y.n.n.n.n.",
"+.+.+.+.+.| O.o.o.o.o.o.o.o.o.o.o.o.] @.@.@.} n.n.n.n.u.t.t.t.t.r.........+.%.@.@.@.@.@.o.o.o.o.o.[ @.) @.@.@.y.n.n.n.n.",
"+.+.+.+.+...O.o.o.o.o.X.o.X.o.X.o.1.X.o.} }  .u.u.u.u.q.8.,.,.,.,.O.O.O.O.O.' @.@.@.@.%.X.o.X.o.X.} ' ' ' ' ] q.b.b.b.b.",
":.+.+.+.| O.X.o.o.o.o.@.@.@.@.@.<.n.n.n.n.n.% * d Q.Q.G.* * % * $ X X 1 o.o.] ) @.@.@.%.@.@.' @.) O.0.0.0.9.q.t.t.u.e.t.",
":.+.+.+.+.O.o.o.o.o.o.@.@.@.@.@.<.Y.n.n.n.n.% * d Q.Q.G.* * % * $ X X 1 o.o.] @.@.@.@.%.@.@.@.@.@...t.t.t.t.t.r.t.t.t.r.",
":.+.+.+...O.o.o.o.o.o.@.@.@.@.@.8.n.n.m.m.m.4 * d Q.Q.G.* * w w   X X > 3 ( ) ) @.@.@.%.@.@.@.@.@. .r.r.t.t.t.t.t.t.t.t.",
":.+.+.+.:.O.o.o.o.o.o.@.@.@.@.@.<.n.n.M.Z.Z.4 * d Q.Q.G.* * g.k.i.o X X X X ( @.@.@.@.#.@.@.@.@.@...r.r.r.r.t.t.t.t.t.t.",
":.........O.o.o.o.o.o.@.@.@.@.@.<.Y.b.M.V.V.4 4 d Q.Q.G.* 4 g.k.i.o o o X X ( @.@.@.@.) @.@.) @.@...r.r.r.r.t.r.r.r.t.t.",
"X.X.o.X.o.o.o.o.o.o.o.@.@.@.@.@.2.t.t.N.V.V.p.p.L.W.W.T.F.F.h.k.j.h p.  X X > , , @.@.) ' ' ' ' ' ..w.w.w.0.w.0.0.w.0.0.",
"X.o.o.o.o.o.o.o.o.o.X.@.@.@.@.@.+.t.t.N.V.V.V.V.A.E.E.E.E.E.z.k.k.k.k.h X X X X O @.@.@...........+.| | | | | | | | | | ",
"X.o.o.o.o.o.o.o.o.o.o.%.@.@.@.@.+.t.t.N.C.C.V.C.A.E.E.E.E.E.z.j.k.k.k.h X X X X O @.@.) ......| ..| +.+.+.+.+.+.+.| +.+.",
"o.o.o.o.o.o.o.o.o.o.o.@.@.@.@.@.O.t.t.r y y y y y y y y y y < = . . > O X X X X > @.@.) ..| | ..+...| | +.+.+.| +.+.+.+.",
"X.o.o.o.o.o.o.o.o.o.o.@.@.@.@.@.+.t.w.3 * * * * * * * * 4 @ o X o o o X X X X X O @.@.) ..........| +...+.+.+...+.+.+.+.",
"] ] ] ] ] ] ] %.] ] %.%.[ X.%.X.{ .. .6 * * p p a a a a a a q q q q q @ O o X X > :.,.:.[ ` [ ` [  .O.+.+.+.O.O.O.O.O.O.",
") @.@.@.@.@.@.@.) ) %.X.o.o.o.o.%.@.@.5 * * `.'.'.'.'.'.'.'.'.'.'.'.'.M o o X X > e.t.w.' @.@.@.) [ o.o.o.o.X.' @.@.@.@.",
") @.@.@.@.@.@.@.) @.@.o.o.o.o.o.[ @.@.5 $ * '.'.'.'.'.'.'.'.'.'.'.'.'.M o X X X > r.t.w.' @.@.@.@.[ o.o.o.o.X.@.@.@.@.@.",
") @.@.@.@.@.@.@.@.@.@.o.o.o.o.o.[ @.' 6 6 6 N N A [.[.[.[.[.V N A [.[.M o X s s f t.t.w.' @.@.@.@.[ o.o.o.o.X.) @.@.@.@.",
") @.@.@.@.@.@.@.@.@.@.X.o.o.o.o.[ @.@.@.@.@.9 8 e XXXXXXoXXXw 8 e  XoXV o o ~.`.I.e.t.w.' @.@.@.@.] o.o.X.X.o.) @.) @.@.",
"' @.@.@.@.' ] ] ] ] ] O.1.O.O.O.X.' ' ' ' ) 9 9 e  X XXXXX X0 8 w |. XV o O P.].I.w.w.8.] ) #.' ) [ o.} X.X.X.] ] ] ] ] ",
") @.@.@.@...w.w.w.r.w.w.e.w.w.w.8.+.........4 $ & p p p p p 4 > 4 q q @ o o !.].I.:...:.X.X.o.X.o.[ @.@.) ) ' 9.w.w.w.w.",
"@.@.@.@.@.| r.r.r.r.r.r.t.t.t.t.8.+.+.+.+.| $ 4 * * * * * * * % $ X X X o o J.`.I.:.:...o.o.o.o.o.%.@.@.@.@.' w.t.t.r.r.",
") @.@.@.@.| r.r.t.t.t.t.t.t.t.t.8.:...:.+.+.i i i u u u i i % % $ o X X X X A `.J.+.+.+.o.o.o.o.o.[ @.@.@.@.] w.t.r.t.t.",
") @.@.@.@.| r.r.t.t.t.t.t.t.t.t.8...:...+.+.|.|.`.G G (.|.|.i * $ o X X X X # O > +.+.+.o.o.o.o.o.[ @.@.@.@.' w.t.t.t.t.",
") @.@.) @.O.r.r.t.t.w.r.t.t.t.t.8.:...:.+.+.|. X].G G `.oX Xi * $ o o o X X X X O +.+.+.o.o.o.o.o.[ @.@.@.@.' 0.t.t.t.t.",
"| | | | | ,.8.8.,.8.8.8.8.,.8.,.2.O.O.] 3 3 !.!.B v v !.!.!.u * $ o o = : : < 1 2 O.O.O.O.o.o.o.o.%.@.@.@.@.' ,.8.8.,.8.",
"r.t.t.t.r.8.| ..+.+.+.+.+.+.+.+.O.o.o.7 * * * * * * * * * * * * $ X X j z z &.o.o.o.o.o.o.o.o.o.o.[ @.@.@.@.' ..+.+.+.+.",
"w.t.t.t.r.9...| +.+.+.+.+.1.+.+.O.o.o.7 * * * * * * * * * * * * $ X X : z H 6.X.o.o.o.o.o.o.o.o.o.[ @.@.@.@.@.....+.+.+.",
"w.t.t.r.r.8.+.+.+.+.+.+.+.+.+.+.O.o.o., + + + + + + + + + + + + = k k ~.#X#XZ n C o.o.o.o.o.o.o.o.[ @.@.@.@.) ..+.+.+.+.",
"w.t.t.t.t.8.+.+.+.+.+.+.+.+.+.:...o.o., X X X X X X X X X X X X - l l {.;X<XE z D o.o.o.o.o.o.o.o.%.@.@.@.@.'  .+.+.+.+.",
"9.r.9.r.w.,. . .+.2.2.2.2.-.-.-.1.o.o.< # # # # # # # # # # # # ; z z (.-X-X^.z F } o.o.} X.X.X.X.[ @.@.@.@.'  ...+.....",
"+.| | +.|  .' ' 5.R.R.B.B.B.h.h.d.o.o.C J J J J J J J J J J J J H z z K K z z z D o.o.o.#.%.@.@.@.@.@.@.@.@.@.o.o.o.O.o.",
"O.+.+.+...` @.@.5.E.E.A.V.V.k.k.f.o.1.Z U U U U U U U U U U U U P l z z z z z z D o.o.} @.@.@.@.@.@.@.@.@.@.@.o.o.o.o.o.",
"..+.+.+.| ` @.@.5.W.E.A.V.V.k.k.f.o.o.Z U U P P T ).)._._._.T U T ^.^.^.z z z z D o.o.o.@.@.@.@.@.@.@.@.@.@.' } o.o.o.o.",
"..+.+.+.+.` @.@.5.E.E.A.V.V.k.k.f.o.o.Z I I l l ^.;X;X1X1X2XQ U /.;X;XOXl l z l D o.o.X.@.@.@.@.@.@.@.@.@.@.@.X.o.o.o.o.",
"..+.+...+.` @.@.5.E.E.A.V.V.k.k.f.O.o.Z I I z l ^.;X;X1X2X2X/.U ).;X;XOXl l z z D o.o.X.@.@.@.@.@.@.' @.@.) ' X.o.o.o.o.",
"9.9.8.8.9...` ` D.C.C.x.x.x.k.k.c.C C Y I I z z ^.;X;X1X2X2X/.U Q {.{./.z z z z D ] [ [ @.@.@.@.@.' %.[ [ [ %.[ %.] [ ] ",
"t.r.r.r.r.8.+.+.a.j.k.k.k.k.k.k.v.U U U U I z z ^.;X;X<X2X2XQ U I U U z z z z z F @.@.@.@.@.@.@.@.[ o.o.o.o.X.) ) @.@.@.",
"t.t.t.t.t.8...:.a.h.h.h.l.l.h.h.v.I I I I I K K ^.;X;X1X2X2X~ T T U U P z z K K F #.#.#.@.@.@.@.@.%.O.o.o.o.X.' @.@.@.@.",
"t.t.t.t.t.8.:...>.;.;.K.U.U.&._ g U I L z z :X:X-X1X2X2X2X2X>X:X$XU U P U P %X:X+XS S s @.@.@.@.@.[ o.o.o.o.X.) @.@.@.@.",
"t.t.t.t.t.8...:.+.+...K. X}.' ) t U I H z l ;X;X<X2X2X2X2X2X<X;X*XU U U U U :X;X=Xz z m @.@.@.@.@.%.o.o.o.o.o.%.@.@.@.@.",
"e.e.w.w.w.8.+.+.>.3.;.K.U.U.6.6.G.R R ! W W ;X;X<X2X2X2X2X2X<X;X*XU U U U U #X:X#Xz z m ) ) ' ' ' } O.o.O.O.o.%.' ) ) ' ",
",.:.:.:.:.:.+.+.a.C.V.V.V.Z. X X XoXXX:X;X;X;X;X<X2X2X2X2X2X,X;X*XU U U U U H K H z z m  .........8.w.w.w.w.0...........",
"2.....:.+.+.+.+.D.V.V.V.V.Z.oXoXoX XoX&X;X<X;X;X<X2X2X2X2X2X<X<X*XU U U U U z z l z z m ..| ..| +.8.t.t.r.r.r.| ..+.+.+.",
"+.1.:...+.+.+.+.3.s.s.S.S.S.H.H.J.^ ^ %X;X;X<X;X<X2X2X2X2X2X&X&X@X^ ^ ! U U z z l z l m ..+.| ..+.8.t.t.t.t.r.| +.+.+.+.",
"+.:...:.+.+.+.+.+.+...) ) ) ) ) *.U U $X;X;X<X<X<X2X2X2X2X2X@XXX.XXXXX^ U U z z z z l m ..+...| ..8.t.r.t.t.w.| +.+.+.+.",
"+.+.| | ......| | +...) ) ) @.@.t I U $X;X;X;X;X<X2X2X2X2X2X@XXXoXoXXX^ I U H z z z z m ....:.:...8.t.e.t.r.r.| :.+...+.",
"+.O.O.O.O...O...O.O.O.) @.@.@.@.*.U U $X;X;X1X1X2X2X2X2X2X2X,X,X>X>X>XOXI I P P L z z m ,.8.8.9.8.8.8.8.8.8.,...O.O.O.O.",
"o.o.o.o.o.o.X.o.o.o.o.@.@.@.@.@.t U U $X;X;X2X2X2X2X2X2X2X2X2X2X1X;X;XOXU U I U I z z m e.t.t.t.t.8.:...+.+.+.O.o.o.o.o.",
"o.o.o.o.o.o.o.o.o.o.o.) @.@.@.@.t I U $X;X;X2X2X2X2X2X2X2X2X2X2X1X;X<XOXU U U U P Y Y N 3.y.e.t.t.8...:.+.+...o.o.o.o.o.",
"o.o.o.o.o.o.o.o.o.o.o.@.@.@.@.@.t U U $X;X;X1X2X2X2X2X2X2X2X2X2X1X;X<XOXU U U U Q ;X;XOXl z 4.t.e.8.+.+.+.+...O.o.o.o.o.",
"o.o.o.o.o.o.o.o.o.o.X.@.@.@.@.@.t U U $X;X;X2X2X2X2X2X2X2X2X2X2X1X;X<XOXU U U U Q ;X;XOXz z 4.t.t.,.+.+.+.+...o.o.o.o.o.",
"o.o.o.o.o.X.X.X.X.X.} ) @.@.@.@.t U U $X;X;X2X2X2X2X2X2X2X2X2X2X1X<X;X%X_._.T U T #X#X(.z z 4.w.e.8.......1...o.o.o.o.o.",
"o.o.o.o.o.[ ) ) ) @.@.) @.@.@.@.t U U $X;X;X2X2X2X2X2X2X2X2X2X2X1X;X;X;X;X;X! U P z z z z z =.:.| ..o.o. .o. .o.o.o.o.o.",
"o.o.o.o.o.X.) @.@.@.@.@.@.@.@.@.t I I $X;X;X2X2X2X2X2X2X2X2X2X2X1X;X;X;X;X;X! I I z z z z z =.:.+...X.o.o.o.o.o.o.o.o.o.",
"o.o.o.o.o.%.@.@.@.@.@.@.@.#.b b n z z $X;X;X1X2X2X2X2X2X2X2X2X2X1X<X;X;X;X;XW z z z z z z z x x c x c 7.o.o.o.o.o.o.o.o.",
"o.o.o.o.o.} @.@.@.@.@.@.@.$.K l z z z #X;X;X1X2X2X2X2X2X2X2X2X2X1X;X;X;X;X;XE z z z z z z z z z z z l g o.o.o.o.o.o.o.o.",
"o.o.o.o.O.%.@.@.@.@.@.@.@.#.l l z z z #X;X;X2X2X2X2X2X2X2X2X2X2X1X;X;X;X;X<XE z z z z z z z z z z z l g o.o.o.o.o.o.o.o."
};
