/* XPM */
static char *result[] = {
/* columns rows colors chars-per-pixel */
"60 60 213 2 ",
"   c #6C5C37",
".  c #3D3D4A",
"X  c #272F52",
"o  c #282F52",
"O  c #283753",
"+  c #293258",
"@  c #383154",
"#  c #373659",
"$  c #2F3863",
"%  c #363C65",
"&  c #323C69",
"*  c #53294F",
"=  c #472E56",
"-  c #453359",
";  c #773649",
":  c #673854",
">  c #793459",
",  c #563E61",
"<  c #2D4450",
"1  c #335456",
"2  c #37664D",
"3  c #3D7C4B",
"4  c #346B5A",
"5  c #354C66",
"6  c #376163",
"7  c #55475E",
"8  c #704F48",
"9  c #4D7E4A",
"0  c #766E51",
"q  c #6E7D5F",
"w  c #4A4E63",
"e  c #47436A",
"r  c #4D4B6D",
"t  c #5A4E6B",
"y  c #564F70",
"u  c #5E5270",
"i  c #765A68",
"p  c #4A7B60",
"a  c #666C69",
"s  c #766565",
"d  c #6B7960",
"f  c #9B223F",
"g  c #A6233F",
"h  c #CB243B",
"j  c #D0253B",
"k  c #D6283D",
"l  c #927529",
"z  c #8C2A45",
"x  c #982743",
"c  c #87334D",
"v  c #96314C",
"b  c #9B3A51",
"n  c #A52742",
"m  c #B6354C",
"M  c #A83B57",
"N  c #CB3348",
"B  c #EE3646",
"V  c #E5394A",
"C  c #F33B4A",
"Z  c #FB3E4C",
"A  c #E63C64",
"S  c #E83C64",
"D  c #90655F",
"F  c #AF625E",
"G  c #8E5267",
"H  c #BF4F62",
"J  c #A95562",
"K  c #BA5766",
"L  c #8C6261",
"P  c #87636D",
"I  c #966E72",
"U  c #956D76",
"Y  c #A76967",
"T  c #BA6966",
"R  c #AD6F73",
"E  c #B47174",
"W  c #FF404D",
"Q  c #FF535D",
"!  c #D34963",
"~  c #D04965",
"^  c #C95167",
"/  c #ED4165",
"(  c #ED4966",
")  c #E7446A",
"_  c #F54566",
"`  c #F84766",
"'  c #FC4A67",
"]  c #FF4C68",
"[  c #E4526E",
"{  c #FC556C",
"}  c #E75677",
"|  c #FB5B74",
" . c #EA6D76",
".. c #FB6573",
"X. c #FB627A",
"o. c #F77A7D",
"O. c #7DD13F",
"+. c #76E53F",
"@. c #248E5F",
"#. c #3A885A",
"$. c #2F9D57",
"%. c #26925D",
"&. c #2B965D",
"*. c #2D995E",
"=. c #309E57",
"-. c #319B5C",
";. c #38985E",
":. c #3FB34F",
">. c #35A655",
",. c #3CAD52",
"<. c #36A25E",
"1. c #3AA65F",
"2. c #3BAA59",
"3. c #3EB051",
"4. c #228C60",
"5. c #2B8A61",
"6. c #398260",
"7. c #2A9362",
"8. c #4C8D4A",
"9. c #449552",
"0. c #52975B",
"q. c #689E4D",
"w. c #4EA74C",
"e. c #40B34F",
"r. c #45BD4C",
"t. c #56B74A",
"y. c #56BA4F",
"u. c #47A657",
"i. c #70A848",
"p. c #66A859",
"a. c #4C9368",
"s. c #4AC24A",
"d. c #4FCC49",
"f. c #51CF47",
"g. c #57CC48",
"h. c #54D346",
"j. c #59D645",
"k. c #57D844",
"l. c #58D945",
"z. c #61C34B",
"x. c #71D640",
"c. c #6DE141",
"v. c #BF9218",
"b. c #B08D2E",
"n. c #9ABA3C",
"m. c #AAAD27",
"M. c #B5AE23",
"N. c #B3B239",
"B. c #DAA611",
"V. c #EAB00A",
"C. c #F0B207",
"Z. c #F0B10E",
"A. c #E7B210",
"S. c #F4BA14",
"D. c #F19028",
"F. c #E2AD26",
"G. c #8FCF3C",
"H. c #A7CF36",
"J. c #8DEE3D",
"K. c #92E93C",
"L. c #97F23C",
"P. c #FEC426",
"I. c #FAC428",
"U. c #EDC530",
"Y. c #FCC131",
"T. c #FFCD31",
"R. c #99B840",
"E. c #B7A857",
"W. c #81836C",
"Q. c #AD8B78",
"!. c #92AA6F",
"~. c #BAA36F",
"^. c #C9AA44",
"/. c #EBA97C",
"(. c #85E340",
"). c #D2C059",
"_. c #EDDB50",
"`. c #FEE14F",
"'. c #FFE85B",
"]. c #FFF673",
"[. c #A27A80",
"{. c #C56E88",
"}. c #E66885",
"|. c #F86D83",
" X c #E4758E",
".X c #F67989",
"XX c #F77E90",
"oX c #AE9E81",
"OX c #CF8D82",
"+X c #DA9186",
"@X c #EC8992",
"#X c #DFA48D",
"$X c #EBA490",
"%X c #EDA892",
"&X c #F2A792",
"*X c #F2A893",
"=X c #E897A6",
"-X c #DDB7BF",
";X c #F7ACA5",
":X c #E1AAB6",
">X c #E9ADB6",
",X c #E6B6BC",
"<X c #E9C4BA",
"1X c #E6BBC2",
"2X c #DFCBCF",
"3X c #DFD2D5",
"4X c #DFDFDF",
"5X c #E2C7C9",
"6X c #E8D4D1",
"7X c #F2E0DB",
"8X c #E2E2E2",
"9X c #ECECEC",
"0X c #F2F2F2",
/* pixels */
"s.3.3.3.3.3.,.,.3.,.3.3.,.,.3.3.,.,.%.@.4.4.;.L.L.L.L.+.k.k.k.k.k.3.:.,.e.,.-.@.%.@.%.&.1.1.1.1.1.-.7.4.4.%.4.g.J.J.(.(.",
":.3.3.3.3.3.2.2.1.1.1.1.1.2.1.1.2.<.%.@.4.@.;.L.L.L.L.+.k.k.l.l.h.3.,.e.,.e.7.4.4.4.4.%.1.1.1.1.1.-.4.4.4.4.4.z.L.L.K.K.",
",.3.3.3.3.3.2.1.1.1.1.1.1.1.1.1.1.1.4.4.@.@.;.L.L.L.L.+.k.l.l.k.j.3.e.,.e.e.7.4.4.4.4.7.1.1.1.1.1.-.4.4.4.4.4.z.L.L.L.L.",
"3.3.3.3.3.3.2.1.1.1.1.1.1.1.1.1.1.1.%.4.@.@.,.L.L.L.L.+.l.l.l.l.l.,.,.e.,.e.7.4.4.4.4.&.1.1.1.1.1.7.4.4.4.4.4.z.L.L.L.L.",
"e.,.e.,.3.:.2.1.1.1.1.1.1.1.1.1.1.1.7.%.4.4.<.L.L.L.L.+.k.k.k.k.j.e.2.3.3.3.7.4.4.4.4.4.2.1.1.1.1.*.4.4.4.4.4.z.L.L.L.L.",
"e.e.,.e.3.,.>.1.1.1.1.<.1.<.<.1.1.u.1.2.-.-.>.c.c.c.c.g.s.r.r.r.e.;.2.1.>.1.7.4.4.4.4.7.<.<.<.<.<.-.&.%.%.&.%.g.J.J.J.J.",
"e.2.e.,.e.2.1.1.1.1.1.4.4.4.4.4.z.L.L.(.L.L.l.l.#.o o $ & & % & p.].].a $ % %.5.4.4.4.7.4.4.4.7.@.>.f.f.f.f.g.j.c.l.l.l.",
"e.e.,.e.,.2.1.1.1.1.1.4.4.4.4.4.y.(.L.L.L.L.l.l.3 o o $ & & & & I ].].a & 5 &.4.4.4.4.7.4.4.4.4.4.,.l.l.l.l.l.j.l.l.l.l.",
"e.,.e.e.3.2.1.1.1.1.1.@.4.4.4.4.t.L.L.L.L.J.w.w.2 o o   8 8 5 $ W.].].a & & i.q.0.4.4.7.4.4.4.4.4.,.k.l.l.k.l.l.k.l.l.l.",
"e.,.e.,.3.2.1.1.1.1.1.4.4.4.4.4.t.L.L.L.L.O.X X o o o v.V.B.& & W.].].a & 5 P.P.N.4.4.4.4.4.4.4.4.,.l.l.k.k.l.l.l.l.l.l.",
"3.,.2.,.,.2.1.1.1.1.1.@.4.4.4.4.t.J.J.J.J.O.X X X X X v.A.B.& & W.].].a & % P.P.N.@.4.4.4.4.4.4.4.>.l.l.k.k.k.k.k.k.l.l.",
"<.1.1.1.1.1.1.1.1.1.1.4.4.4.4.4.:.k.k.3 2 2 X X   b.l V.C.B.E.E.).'.'.^.b.E.P.P.N.@.4.4.%.%.%.%.%.,.f.f.f.h.f.f.h.f.h.h.",
"<.1.1.1.1.1.1.1.1.1.1.4.4.4.4.4.,.k.k.< X X X X l C.C.C.C.S.`.`.`.`.`.T.P.I.P.I.N.4.4.@.,.,.,.,.3.3.:.:.:.:.:.:.:.:.:.:.",
"1.1.1.1.1.1.1.1.1.1.1.4.4.4.4.4.,.k.k.< X X X X l C.C.C.V.S.`.`.`.`.`.Y.P.P.P.I.N.4.@.@.,.:.,.:.3.3.3.3.3.3.3.3.,.:.3.3.",
"<.1.1.1.1.1.1.1.1.1.1.4.4.4.4.4.:.k.k.< X X X X . = < . - < w w w w w w w w w w 6 4.4.@.,.,.:.,.3.,.3.3.3.3.3.3.:.,.3.3.",
"<.1.1.1.1.1.1.1.1.1.<.4.4.4.4.4.,.k.k.< X X X X X X X X X X & & & & & & & & $ $ 6 4.4.@.,.:.,.:.3.:.3.3.3.3.3.3.,.:.3.3.",
"&.&.&.&.%.&.7.&.&.*.*.7.*.<.7.<.=.>.>.< o o o X # t 7 7 7 7 u t u u u u u t & & 6 e.r.e.$.*.*.$.*.>.,.3.,.,.3.2.2.2.2.2.",
"4.4.4.4.4.4.4.4.4.4.4.<.1.1.1.1.*.4.4.O o o X X P +XE b b E E M z T +XY v b $ # z ; t.g.%.4.4.4.4.7.1.1.1.1.1.4.4.4.4.4.",
"%.4.4.4.4.4.4.4.4.4.4.1.1.1.1.1.*.4.4.O o o o o P R b .X .M b C k v G M @X .; v C k ; t.%.4.4.4.4.7.1.1.1.1.1.4.4.4.4.4.",
"4.4.4.4.4.4.4.4.4.4.4.1.1.1.1.1.*.4.@.a i i o o P Y N *XQ m m Z C g * V ;XQ n N Z B f w.%.4.4.4.4.*.1.1.1.1.<.4.4.4.4.4.",
"%.4.4.4.4.4.4.4.4.4.4.>.1.1.1.1.*.4.@.OX+XQ.o o U R n B W W W C h x > g Z Z Z Z C j f w.%.4.4.4.4.7.2.1.<.1.1.%.4.@.4.4.",
"%.4.4.4.4.%.&.&.&.&.*.2.u.2.2.2.=.%.%.oX+XOXo o U $XY n B B B k n R $X: g B B B k z 8.d.%.%.4.4.%.*.<.1.<.<.<.%.&.&.&.&.",
"4.4.4.4.4.,.h.h.h.h.h.h.h.j.h.j.s.3.,.OX+XE # o # w w = f h j f = y y e = g j j f 3 :.:.>.1.1.<.1.*.4.4.4.@.%.d.h.h.h.h.",
"4.4.4.4.4.3.l.l.k.l.l.l.l.l.l.l.s.3.3.OX+X[.@ o X X o $ @ f f - & & & & & = g z 8.,.3.,.1.1.1.1.1.7.4.4.4.4.%.h.k.k.k.k.",
"4.4.4.4.4.,.k.k.l.l.l.l.l.l.l.l.s.3.:.Q.OXR X X X X X $ & - , r r e e e r y 9 8.3.3.3.3.1.1.1.1.1.*.4.4.4.4.&.h.l.l.l.l.",
"%.4.4.4.4.:.k.k.l.l.l.l.l.l.l.l.s.3.3.< + + X X X X X $ & r $X$XOXK K +X$X#Xs.e.3.3.3.3.1.1.1.1.2.7.4.4.4.4.%.f.l.l.l.l.",
"4.4.4.4.4.,.k.k.l.l.l.g.l.l.l.l.s.e.,.O X X X X X X X $ & r $X&X X^ ^ +X&X$Xr.e.3.3.3.3.1.1.1.1.1.-.4.4.4.4.4.h.l.l.k.k.",
":.r.:.:.:.r.s.s.s.r.s.r.r.s.s.r.e.2.>.4 4 1 > > = o X $ & e [.[.[.i G U [.[.#.4 #.>.2.2.1.1.1.1.1.7.4.4.4.4.4.s.s.r.s.s.",
"h.l.k.l.k.s.,.3.e.,.e.e.,.e.,.e.2.1.1.1.<.0.S S c o o $ & & & & & & & & & & & & 6 1.1.1.1.1.1.1.1.*.4.4.4.4.%.,.3.3.3.3.",
"h.l.l.l.k.d.3.3.2.e.,.e.e.,.e.,.,.1.1.1.<.a.S S > o o & & & & & & & & & & & & & 6 1.1.1.1.1.1.1.1.*.4.4.4.4.4.,.3.3.3.3.",
"h.l.k.l.k.s.3.3.e.,.e.,.2.e.,.e.,.1.1.Y H K -X:X{.M M - + + + + + + + + + + + + 6 1.1.1.1.1.1.1.1.*.4.4.4.4.4.,.3.3.3.3.",
"h.l.k.k.k.d.3.3.,.e.,.e.,.e.e.e.>.1.1.! S }.4X9X XS S = X X X X X X X X X X X X 1 1.1.1.1.1.1.1.1.*.4.4.4.4.4.,.3.3.3.3.",
"d.h.h.h.h.s.>.>.,.,.>.3.3.,.,.,.2.1.1.! S } 3X3X@XS S , # @ @ @ @ @ @ @ @ @ @ @ 1 1.1.u.u.u.u.u.u.1.;.4.4.4.4.2.,.,.,.,.",
"2.r.:.:.:.=.%.@.4.%.%.<.1.1.2.1.1.1.1.! S S ) ) A S S / ( ) ( ( ( ( ( ( ( ( ( ( T 1.1.m.B.A.F.U.U._._.p.4.4.4.1.1.1.1.2.",
",.:.:.2.3.$.4.4.4.4.4.<.1.1.1.1.1.1.1.! S S S S S S S ` ] ] ' ' ] ` ] ] ] ] ] ] T 1.1.M.C.C.P.P.T.`.`.p.4.4.4.<.1.1.1.1.",
",.2.:.:.:.$.4.4.4.4.4.>.1.1.1.1.1.1.1.! S S A S }  X}.{ ] ] XXXXXX.X.X{ _ _ ' ] T 1.1.M.C.C.P.P.T.`.`.p.4.4.7.<.1.1.1.1.",
",.3.3.3.3.*.4.4.4.4.4.<.1.1.1.1.1.1.1.~ S S S S =X4X4X|.] |.0X0X9X4X4X}.A A ] ] T 1.1.M.C.C.P.P.T.`.`.p.4.4.%.<.1.1.1.1.",
",.3.3.3.:.$.4.4.4.4.4.<.1.<.1.1.1.1.1.~ S S S S =X4X4X|.S |.0X0X9X4X4X}.A A ] ] T 1.1.M.C.C.P.P.T.`.`.p.4.4.4.<.<.1.1.1.",
"d.d.s.s.s.:.*.$.=.=.$.&.*.&.7.*.7.*.7.~ S S S S }.@X@X| ' | 0X0X9X4X4X}.A S S ' [ Y Y B.C.C.S.S.S.I.I.i.*.*.7.*.*.*.&.7.",
"l.l.k.k.l.s.:.:.3.3.,.%.4.4.4.4.4.4.4.~ S S S S S ' ] ] ' |.0X0X9X4X4X}.A A ' ' ] ] ] D.C.C.C.C.C.C.C.i.1.1.1.%.4.4.4.4.",
"l.l.l.l.l.s.3.3.3.3.,.4.4.4.4.4.@.#.5.~ ) ) S S _ ] ' { { X.0X0X9X8X4X}.) ) ' ] ] ] ] D.A.V.C.Z.V.A.V.i.1.1.<.4.4.4.4.4.",
"l.l.k.l.l.s.3.3.3.3.,.%.4.4.4.4.s ~ ~ -X5X-X' ` ' ] ] >X5X6X0X0X9X0X9X6X5X5XA / _ ] { 0 #.9././.~.9.w.u.1.1.1.4.4.4.4.4.",
"l.l.l.l.l.s.3.3.3.3.3.4.4.4.4.4.L A A 2X4X2X] ] ] ] ' ,X8X8X0X0X0X0X0X8X4X4X/ A / Q ' d @.4.#X*XoX&.1.1.1.1.1.4.4.4.4.4.",
"k.k.h.h.h.s.3.3.3.3.,.%.4.4.4.4.L A A ,X-X:X] ] ] ] ' 5X4X8X0X0X0X0X0X4X4X4X} } } ..{ W.a.a././.~.p.y.u.2.1.1.%.%.4.%.%.",
"r.e.e.e.:.:.3.3.,.:.,.4.4.4.4.4.D S S S ) / ] ] ] ] ] 1X8X8X0X0X0X0X0X8X4X4X4X4X5X&X&X$X%X$XY.P.I.I.I.G.h.h.f.:.,.,.,.>.",
"e.3.e.,.3.3.3.3.:.:.,.%.4.4.4.4.D S S S A / ] ] ] ] ] 1X8X8X0X0X0X0X0X8X4X4X4X4X5X&X&X&X*X&XI.P.I.I.P.G.k.k.h.:.:.,.:.:.",
"e.e.,.e.3.3.3.3.3.,.,.4.4.4.4.4.D S S S A S ] ] ..o.o.;X<X<X0X0X0X0X0X8X4X4X4X4X,Xo.o.Q.!.!.R.n.n.H.H.x.l.k.h.:.3.3.3.3.",
"e.,.e.,.3.3.3.3.3.3.,.%.4.4.4.4.D S S S S S ] ] o.*X%X%X*X*X0X0X0X0X0X8X4X4X4X4X>X] ] d ,.,.e.e.3.s.l.l.l.l.h.:.3.3.3.3.",
"e.,.3.3.3.3.3.3.,.:.,.@.@.@.4.4.P S S S S S ] ] .X*X*X*X*X;X0X0X0X0X0X8X8X4X4X4X>X] ] d ,.:.,.3.3.s.k.k.k.k.h.e.3.3.3.3.",
"2.2.2.2.,.>.,.2.2.2.>.@.4.4.4.4.D S S _ _ ' ] ] @X6X6X6X7X7X0X0X0X0X0X0X9X9X4X4X>X] ] d s.s.s.s.s.s.s.s.s.s.s.,.2.u.2.2.",
"1.1.1.1.1.1.1.1.1.1.1.4.4.4.4.4.L S S ' ] ] ] ] =X8X8X9X0X0X0X0X0X0X0X0X0X0X4X4X>X] ] q h.k.k.l.k.s.3.3.3.3.:.1.1.1.1.1.",
"2.1.1.1.1.1.1.1.1.1.1.%.4.4.3 6.I [ [ ' ] ] ] ] =X4X4X9X0X0X0X0X0X0X0X0X0X0X4X4X>X] ] q h.k.l.l.l.s.3.3.3.3.3.1.1.1.1.1.",
"2.1.1.1.1.1.1.1.1.1.1.4.@.p A A =X4X4X| ] ] ] ] =X8X8X9X0X0X0X0X0X0X0X0X0X0X4X4X>X] ] q h.l.l.k.j.s.e.,.3.3.3.1.1.1.1.1.",
"1.1.1.1.1.1.1.1.1.1.1.4.@.p A S =X4X4X| ] ] ] ] =X4X4X9X0X0X0X0X0X0X0X0X0X9X4X4X>X] ] q h.l.l.k.j.r.,.e.3.3.,.1.1.1.1.1.",
"1.1.1.1.1.1.<.;.;.<.-.@.4.p S S  X:X:X| ] { XXXX,X4X8X9X0X0X0X0X0X0X0X0X0X0X4X4X>X] ' q h.h.k.h.j.r.e.,.,.,.,.1.1.1.1.1.",
"1.1.1.1.1.7.%.4.@.4.4.@.4.p A S A A A ` ] | 4X4X4X4X4X9X0X0X0X0X0X0X0X0X0X0X4X4X>X] ] q :.:.e.e.e.e.2.<.>.1.>.1.1.1.1.1.",
"1.1.1.1.1.7.4.4.4.4.4.4.4.p A S A A S S ] | 8X4X4X4X8X9X0X0X0X0X0X0X0X0X0X9X4X4X>X] ] d ,.3.3.3.e.2.1.1.1.1.1.1.1.1.1.1.",
"1.1.1.1.1.<.4.4.d J J J J K A A A A S S S | 8X8X4X4X4X9X0X0X0X0X0X0X0X0X0X0X4X4X:X/ / H F J u.3.,.2.1.1.1.1.1.1.1.1.1.1.",
"1.1.1.1.2.7.4.4.P S A A S S S S S S S S S ) 4X8X4X4X4X9X0X0X0X0X0X0X0X0X0X0X4X4X:XS S S A A w.3.3.2.1.1.1.1.1.1.1.1.1.1.",
"1.1.1.1.2.7.4.4.L S S S S S S S S S S S S } 4X8X4X4X8X9X0X0X0X0X0X0X0X0X0X0X4X4X:XS S S A A w.3.3.2.1.1.1.1.1.1.1.1.1.1."
};
