/* XPM */
static char *result[] = {
/* columns rows colors chars-per-pixel */
"60 60 206 2 ",
"   c #6C5C37",
".  c #3D3D4A",
"X  c #272F52",
"o  c #282F52",
"O  c #283753",
"+  c #293258",
"@  c #363756",
"#  c #383154",
"$  c #2F3863",
"%  c #373E64",
"&  c #323C69",
"*  c #473557",
"=  c #553256",
"-  c #623357",
";  c #793459",
":  c #2D4450",
">  c #335456",
",  c #37664D",
"<  c #3D7C4B",
"1  c #306655",
"2  c #3C755C",
"3  c #384164",
"4  c #2C5766",
"5  c #376263",
"6  c #474747",
"7  c #464748",
"8  c #574E55",
"9  c #56485F",
"0  c #6A5C53",
"q  c #715E59",
"w  c #766E51",
"e  c #6E7D5F",
"r  c #4A4E63",
"t  c #47436A",
"y  c #4D4B6E",
"u  c #564F70",
"i  c #5E5270",
"p  c #765A68",
"a  c #4A7B60",
"s  c #666C69",
"d  c #766565",
"f  c #6B7960",
"g  c #927529",
"h  c #803459",
"j  c #AE375E",
"k  c #E63C64",
"l  c #E83C64",
"z  c #90655F",
"x  c #AF625E",
"c  c #884D69",
"v  c #BF4F62",
"b  c #A95562",
"n  c #BA5766",
"m  c #8C6261",
"M  c #87636D",
"N  c #956C67",
"B  c #956D76",
"V  c #997274",
"C  c #A76A62",
"Z  c #BA6966",
"A  c #A97772",
"S  c #D34963",
"D  c #D04965",
"F  c #C95167",
"G  c #ED4165",
"H  c #ED4966",
"J  c #E7446A",
"K  c #F54566",
"L  c #F84766",
"P  c #FC4A67",
"I  c #FF4C68",
"U  c #E4526E",
"Y  c #FC526D",
"T  c #FA5A6F",
"R  c #E65375",
"E  c #E95A78",
"W  c #FB5B74",
"Q  c #FB6573",
"!  c #FB627A",
"~  c #F77A7D",
"^  c #7DD13F",
"/  c #76E53F",
"(  c #248E5F",
")  c #3A885A",
"_  c #2F9D57",
"`  c #26925D",
"'  c #2B965D",
"]  c #2D995E",
"[  c #309E57",
"{  c #319B5C",
"}  c #38985E",
"|  c #3FB34F",
" . c #35A655",
".. c #3CAD53",
"X. c #36A25E",
"o. c #3AA65F",
"O. c #3BAA59",
"+. c #3EB051",
"@. c #228C60",
"#. c #2B8A61",
"$. c #398260",
"%. c #2A9362",
"&. c #4A8957",
"*. c #449552",
"=. c #52975B",
"-. c #689E4D",
";. c #4CA74E",
":. c #40B34F",
">. c #45BC4C",
",. c #56BA4F",
"<. c #5ABC4D",
"1. c #48A755",
"2. c #45A55A",
"3. c #70A848",
"4. c #61AA56",
"5. c #68A75A",
"6. c #4C9368",
"7. c #4AC34A",
"8. c #4FCC49",
"9. c #51CF47",
"0. c #57CC48",
"q. c #54D346",
"w. c #59D645",
"e. c #57D844",
"r. c #58D945",
"t. c #61C34B",
"y. c #6FDA41",
"u. c #6DE141",
"i. c #75E440",
"p. c #BF9218",
"a. c #B08D2E",
"s. c #9ABA3C",
"d. c #AAAD27",
"f. c #B5AE23",
"g. c #B3B239",
"h. c #DFAB0E",
"j. c #D5A114",
"k. c #E0AF0E",
"l. c #EAB00A",
"z. c #F0B207",
"x. c #F0B10E",
"c. c #EBB312",
"v. c #F4BA14",
"b. c #F19028",
"n. c #8FCF3C",
"m. c #A7CF36",
"M. c #8DEE3D",
"N. c #97F23C",
"B. c #FEC426",
"V. c #FAC428",
"C. c #EDC530",
"Z. c #FCC131",
"A. c #FFCD31",
"S. c #99B840",
"D. c #B7A857",
"F. c #81836C",
"G. c #AD8B78",
"H. c #92AA6F",
"J. c #BAA36F",
"K. c #C9AA44",
"L. c #C1827E",
"P. c #C7957F",
"I. c #EBA97C",
"U. c #85E340",
"Y. c #D2C059",
"T. c #EDDB50",
"R. c #FEE14F",
"E. c #FFE85B",
"W. c #FFF673",
"Q. c #A27A80",
"!. c #C56E88",
"~. c #E66885",
"^. c #F86D83",
"/. c #E4758E",
"(. c #F5788C",
"). c #F77E90",
"_. c #AE9E81",
"`. c #D88B84",
"'. c #C49181",
"]. c #DA9186",
"[. c #E69387",
"{. c #E59B8B",
"}. c #E98896",
"|. c #DFA48D",
" X c #E9A390",
".X c #EDA491",
"XX c #EDA892",
"oX c #F2A792",
"OX c #F2A893",
"+X c #E897A6",
"@X c #DDB7BF",
"#X c #EFB1A4",
"$X c #E1AAB6",
"%X c #E9ADB6",
"&X c #E6B6BC",
"*X c #E9C4BA",
"=X c #E6BBC2",
"-X c #DFCBCF",
";X c #DFD2D5",
":X c #DFDFDF",
">X c #E2C7C9",
",X c #E8D4D1",
"<X c #F2E0DB",
"1X c #E2E2E2",
"2X c #ECECEC",
"3X c #F2F2F2",
/* pixels */
"7.+.+.+.+.+.....+.....+.+...+...| ..` ( @.@.} N.N.N.N./ w.r.r.r.w.+.+.+.+.+.] ( ` ( ( ' o.o.o.o.o.%.%.` @.` @.<.M./ n.U.",
"| +.+.+.+.+.O.O.o.o.o.o.O.o.o.o.o.X.` ( @.( [ N.N.N.N./ r.r.r.r.w.+.+.+.+.+.%.@.( @.( ' o.o.o.o.o.X.@.@.@.@.@.0.N.N.N.N.",
"..+.+.+.| ..O.o.o.o.o.o.o.o.o.o.o.X.` @.( ( [ N.N.N.N./ r.r.r.r.e.+...| +.+.' @.@.@.@.` o.o.o.o.o.] @.@.@.@.@.<.N.N.N.N.",
"+.+.+.+...| O.o.o.o.o.o.o.o.o.o.o.X.` @.( ( 2.N.N.N.N./ r.r.r.r.q.+.| ..+.+.%.( @.@.@.` o.o.o.o.o.] @.@.@.@.#.t.N.N.N.N.",
"+.+.+.+.| :.O.o.o.o.o.o.o.o.o.o.o.o.%.@.@.@.X.N.N.M.N./ r.r.e.e.r...+.+.+.+.%.@.@.@.@.%.X.o.o.o.o.] ( ( @.( ( 0.N.N.N.N.",
"+.+.+.+.....O.o.o.o.o.X.X.o.X.o.O.2.2.o.{ {  .u./ / / 0.>.>.>.>.>.O.O.O.O.O.%.@.@.@.@.%.X.X.X.o.X.{ ` ` ' ` ' <.M.M.N.M.",
":.+.+.+.+.O.o.o.o.o.o.@.@.@.@.@.t.U.N.N.N.N.r.r.< X o $ & & & & F.W.W.s $ & ' @.@.@.@.%.@.@.` @.(  .9.9.9.9.0.w.u.r.r.r.",
":.+.+.+.+.O.o.o.o.o.o.@.@.@.@.@.,.U.N.N.N.N.r.r.< X o $ & & & & F.W.W.s & & %.@.@.@.@.%.@.@.@.@.@...r.r.r.r.r.r.r.r.r.r.",
":.+.+.+.+.O.o.o.o.o.o.@.@.@.@.@.,.N.N.N.M.M.;.;., X o   0 0 + $ F.W.W.s & & 3.-.*.@.( %.@.@.@.@.@...e.r.e.r.r.e.r.r.r.r.",
":.+.+.+.+.O.o.o.o.o.o.@.@.@.@.@.,.N.N.N.N.n.X X X X o p.z.j.& 3 F.W.W.s & 3 B.B.g.@.@.#.@.@.@.@.@...r.r.e.e.r.r.r.r.r.r.",
":.........O.o.o.o.o.o.@.@.@.@.@.,.M.M.M.M.^ X X X X X p.x.j.& & F.W.W.s & % B.B.g.@.@.( @.@.@.@.@...r.e.e.e.e.e.e.e.r.r.",
"X.X.o.o.o.o.o.o.o.o.o.( @.@.@.@...e.e.< , , X X   a.g h.z.k.D.D.Y.E.E.K.a.D.B.B.g.@.@.( ` ` ` ` ` ..9.9.9.q.9.9.q.9.q.q.",
"o.o.o.o.o.o.o.o.o.o.o.@.@.@.@.@...e.e.: X X X X g z.z.z.z.v.R.R.R.R.R.A.B.B.B.B.g.@.@.(  .+.........| | | | | | | | | | ",
"X.o.o.o.o.o.o.o.o.o.o.@.@.@.@.@...e.e.: X X X X g z.z.z.z.c.R.R.R.R.R.Z.B.B.B.B.g.@.( ( ..+.+.+.+.| +.+.+.+.+.+...| +.+.",
"X.o.o.o.o.o.o.o.o.o.o.@.@.@.@.@.| e.e.: X X X X . . : * * : r r r r r r r r r r 5 @.@.( ..+.+.+.+.| | +.+.+.+.+.| +.+.+.",
"X.o.o.o.o.o.o.o.o.o.o.@.@.@.@.@...e.e.: X X X X X X X X X + & 3 & & & & & $ & & 4 @.( ( ....+.+.+.....+.+.+.+.+...| ..+.",
"' ' ' ` ' ' %.' ' ' ' ] %.X.%.X.[  . .: X X X X * 9 9 9 9 9 i i i i i i i i & & 5 | | | ] _ ' _ ] O.......+.+.O.O.O.O.2.",
"@.@.@.@.@.@.@.@.@.( @.o.o.o.o.o.] @.@.O X X X X M ].].].].].].].].].].].].`.& & 2 e.r.e.` @.@.@.@.%.o.o.o.o.X.@.@.@.@.@.",
"` @.@.@.@.@.@.@.@.@.@.o.o.o.o.o.] @.@.O X X X X M ].].].[.P.].].].].].].].`.& & 2 r.r.q.` @.@.@.@.' o.o.o.o.X.@.@.@.@.@.",
"@.@.@.@.@.@.@.@.@.@.@.o.o.o.o.o.] @.@.s p p X X M |.{.A N V {.{.{.{. XA N N &.&.1.r.r.q.` @.@.@.@.] o.o.o.o.X.` @.@.@.@.",
"` @.@.@.@.@.@.@.@.@.@.X.o.o.o.o.] @.@.'.].G.o X B OXOXq 6 8 oXoXOXOXOXq 7 7 i.r.r.r.r.q.( ( @.@.@.' o.o.o.X.X.@.@.@.@.@.",
"@.@.@.@.@.` ' ' ' ' _ O.O.:.2.O.[ ` ` '.[.!.o X B .X Xq 6 0 .XoX X X Xq 7 7 u.q.q.q.q.8.` ( ( ( %.' X.o.X.X.X.' ] ] _ ` ",
"` @.@.@.@...q.q.q.q.q.q.q.q.q.w.7.....P.].L.O X @ 9 9 @ % 3 u u u u u 3 3 3 7.+.| | | | o.o.X.o.o.' @.@.` @.` 8.q.q.9.q.",
"@.@.@.@.@.+.r.r.e.e.e.e.r.r.r.r.7.| | P.].L.o X X X o $ & & $ % & & 3 3 $ 3 7.+...+.+...o.o.o.o.o.' @.@.@.@.` q.r.e.e.e.",
"` @.@.@.@...e.e.r.r.r.r.w.r.r.r.7.+.:.G.'.A X X X X X $ & & y y t t t y y u 7.+.+.+.+.+.o.o.o.o.o.%.@.@.@.@.` q.r.r.r.r.",
"@.@.@.@.@...e.e.r.r.r.r.r.r.r.r.7.+.2.: o + X X X X X $ & y  X X`.n n `. X{.7.+.+.+.+.+.o.o.o.o.o.] @.@.@.@.` q.r.r.r.r.",
"` @.@.@.@...r.r.r.r.r.r.r.r.r.r.7.| +.: o o X X X X X $ & y OXOX`.F F [.OX X7.+.+.+.| +.o.o.o.o.o.%.` @.@.@.` 9.r.r.r.r.",
"| | | >.| >.7.7.7.>.7.>.7.>.7.>.:.O.2.1 1 > ; ; * X X + & t Q.Q.Q.c c B Q.Q.$.2 ) O.O.O.o.o.o.o.o.] @.@.@.@.` >.7.>.7.>.",
"q.r.e.r.e.7...+.+.+.+.+.+.+.+.+...o.o.o.o.6.k l ; X X $ & & & & & & & & & & & & 5 X.o.o.o.o.o.o.o.] @.@.@.@.@.+.:.O.:...",
"q.r.r.r.r.8.+.+.+.+.+.+.+.+.+.+.O.o.o.o.o.6.k l h X X $ & & & & & & & $ & & & & 5 o.o.o.o.o.o.o.o.] @.@.@.@.( ..:.....:.",
"q.r.r.r.e.7.+.+.+.+.+.+.+.+.+.+.O.o.o.C n Z $X$X!.j j * + + + + + + + + + + + + 4 o.o.o.o.o.o.o.o.] @.@.@.@.@.....:...:.",
"q.r.e.e.e.8.+.+.+.+.+.+.+.+.+.+.O.o.o.S k R :X:X}.l k = X X X X X X X X X X X X 1 o.o.o.o.o.o.o.o.%.@.@.@.@.@...:.O.:.:.",
"8.e.q.q.q.7. . .................O.o.o.S l R ;X;X}.l l - # # # # # # # # # # # # > o.o.2.2.2.2.2.1.o.} @.@.@.( O.+. .+...",
"+.+.| +.| [ ` ` @.@.`  .o.o.o.o.o.o.o.S l k J J J l k J H H H H H H H H H H H H Z o.o.d.k.k.v.C.C.T.T.4.@.@.@.X.O.o.o.O.",
"O.+.+.+.+._ @.@.@.@.@.X.o.o.o.o.o.o.o.S l l l l k k l L I I I I I P I I I I I I Z o.o.f.z.z.V.B.A.E.R.5.@.@.@.o.o.o.o.o.",
"..+.+.+.+._ @.@.@.@.` X.o.o.o.o.o.o.o.S l l l k R /.~.Y I Y ).).).(.(.Y K K P I Z o.o.f.z.z.B.B.A.R.R.5.@.@.@.o.o.o.o.o.",
"..| +.+.+._ @.@.@.@.( X.o.o.o.o.o.o.o.S l l l l +X:X:X^.I ! 3X3X2X:X:X~.k k I I Z o.o.f.z.z.B.B.A.R.R.5.@.@.@.X.o.o.o.o.",
"O.| +.+.+._ @.@.@.@.( X.o.o.o.o.o.o.o.S l l l l +X:X1X^.I ! 3X3X2X:X:X~.k k I I Z o.o.f.z.z.B.B.A.R.R.4.` @.@.X.o.o.o.o.",
"8.8.7.7.8.+._ _ _ _ _ ' ] ' %.' ' %.%.D l l l l ~.}.}.W I ! 3X3X1X:X:X~.l l P P U C C j.z.z.v.v.v.V.V.3.%.] ' ' ' ' ' ' ",
"r.e.e.e.q.7.+.+.| | ..` @.@.@.@.@.@.@.D l l l l l P I I I ! 3X3X2X:X:X~.l l P P P P P b.z.z.z.z.z.z.z.3.o.o.X.` @.@.@.@.",
"r.r.r.r.r.7.+.+.| ....( @.@.@.@.( #.) F k J l l K P P P Y ! 3X3X2X:X:X~.J J P I P P I b.l.l.z.x.l.k.l.3.o.o.o.@.@.@.@.@.",
"r.r.r.r.r.7.+.+.+.| | ( @.@.@.@.d D D @X-X@XP P P Y P %X>X,X3X3X3X2X3X,X>X>Xl l K Y Y w ) *.I.I.J.=.;.2.o.o.X.%.@.@.@.@.",
"r.r.r.r.r.7.+.+.+.....( @.@.@.@.m l k -X:X-XI I P P I =X1X1X3X3X3X3X3X1X:X:Xk k l Y I e @.#.|.XX_.{ o.X.o.o.o.@.@.@.@.@.",
"r.r.q.q.q.7.+.+.+.+...( @.@.@.@.m k k $X=X$XI I Y P I =X:X1X3X3X3X3X3X:X:X:XE E E T T F.6.6.I.I.J.;.4.2.O.O.o.' ( ( ` ( ",
">.:.:.:.| +.+.+...| ..` @.@.@.@.z l l G J G I I I I I =X1X1X3X3X3X3X3X1X:X:X:X:X*XoXoXXXXX.XV.B.B.V.V.n.q.q.9.| ...... .",
":.+.+.+...+.+.+.| | ..@.@.@.@.@.z l l l l l I I I I I =X1X<X3X3X3X3X3X1X:X:X:X:X>XoXOXOXOXoXZ.B.B.V.B.n.r.r.q.:.+.+.| | ",
":.+.+.+.+.+...+...| ..` @.@.@.@.z l l l l l P Y Q ~ ~ #X&X>X3X3X3X3X3X1X:X:X:X:X&X~ ~ G.H.H.S.s.s.m.m.y.r.r.q.| +.+.+...",
":.+.+.+.+.+.| +.| ....@.@.@.@.@.z l l l l l P P ~ OXOXOXoXOX3X3X3X3X3X1X:X:X1X:X%XI P f ..+.+.+.+.7.r.r.r.r.q.| +.+.+.| ",
"+.+.+...| +.+.+.+.....( ( ( @.@.m l l l l l P P I.oXoXoXoX#X3X3X3X3X3X1X:X:X:X:X%XI I e ..+.| +.+.7.w.e.e.e.w.| +.+.+.+.",
"..O.O...O.O... .O.O. .( ( ( @.@.m k l K K P I P }.,X=X<X<X<X3X3X3X3X3X3X2X2X:X:X%XI I e >.7.7.7.7.7.7.7.7.7.7. .O.2.O...",
"o.o.o.o.o.o.o.o.o.o.o.@.( @.@.@.m l l P I I I I +X1X1X2X3X3X3X3X3X3X3X3X3X3X:X:X%XI I e q.e.r.r.e.7.| | +.+.| O.o.o.o.o.",
"o.o.o.o.o.o.o.o.o.o.o.( @.@.2 $.N R R P I I I I +X:X:X2X3X3X3X3X3X3X3X3X3X3X:X:X%XI I e q.e.r.e.e.7.| ..+.+...o.o.o.o.o.",
"o.o.o.o.o.o.o.o.o.o.o.( @.a k k +X:X:XW I I I I +X1X1X2X3X3X3X3X3X3X3X3X3X3X:X:X%XP Y e q.r.r.e.r.7.:...+.....O.o.o.o.o.",
"o.o.o.o.o.o.o.o.o.o.o.@.@.a k l +X:X:XW I I I I +X:X:X2X3X3X3X3X3X3X3X3X3X3X:X:X%XI I e q.r.r.e.r.>...:.+.+...o.o.o.o.o.",
"o.o.o.o.o.X.o.X.o.X.{ @.@.a l l /.$X$XY P Y ).).%X1X1X2X3X3X3X3X3X3X3X3X3X3X:X:X%XI P e q.q.w.q.w.>...........O.o.o.o.o.",
"o.o.o.o.o.] @.( ( @.@.@.@.a l l k k k P P ! :X:X:X1X:X2X3X3X3X3X3X3X3X3X3X2X:X:X$XI I e | | :.:.:.:.O.X.O.X.o.o.o.o.o.o.",
"o.o.o.O.o.X.@.@.@.` @.@.@.a k k k k k K P W 1X:X:X:X:X2X3X3X3X3X3X3X3X3X3X3X:X:X$XI I e +.+.+.+.:.O.O.o.o.o.o.o.o.o.o.o.",
"o.o.o.o.o.%.@.@.s b b b b n k l k k l l l E :X:X:X:X1X2X3X3X3X3X3X3X3X3X3X3X:X:X$XG l v b x 1.+...O.o.o.o.o.o.o.o.o.o.o.",
"o.o.o.o.o.{ @.@.m l k k l l k k l l l l l R :X:X:X:X:X2X3X3X3X3X3X3X3X3X3X3X:X:X$Xl l l l k ;.+.+.O.o.o.o.o.o.o.o.o.o.o.",
"o.o.o.o.o.%.@.@.m l k k l l l k l l l l l R :X:X:X:X1X2X3X3X3X3X3X3X3X3X3X3X:X:X$Xl l l l k ;.+.+.O.o.o.o.o.o.o.o.o.o.o."
};
