/* XPM */
static char *_f68673280db45dcd2a6be33c7c9f1264T4IVcsKyaf1bTeR[] = {
/* columns rows colors chars-per-pixel */
"60 60 162 2 ",
"   c None",
".  c #6C5C37",
"X  c #3F3E49",
"o  c #34374C",
"O  c #272F52",
"+  c #282F52",
"@  c #2B3255",
"#  c #293258",
"$  c #303454",
"%  c #383154",
"&  c #3B3A58",
"*  c #2F3863",
"=  c #2F3868",
"-  c #353E64",
";  c #323C69",
":  c #3B3F60",
">  c #473557",
",  c #553256",
"<  c #623357",
"1  c #763459",
"2  c #7F3459",
"3  c #3C4165",
"4  c #474747",
"5  c #40404C",
"6  c #4D455E",
"7  c #56485F",
"8  c #5E5451",
"9  c #5C544B",
"0  c #655B4D",
"q  c #6E5C58",
"w  c #715E59",
"e  c #6E6149",
"r  c #4A4D63",
"t  c #454169",
"y  c #4D4A6E",
"u  c #4B476C",
"i  c #564961",
"p  c #564F70",
"a  c #5E5270",
"s  c #6F5666",
"d  c #7C5D6A",
"f  c #666B6B",
"g  c #927529",
"h  c #803459",
"j  c #AE375E",
"k  c #E73B63",
"l  c #E83C64",
"z  c #884D69",
"x  c #BF586A",
"c  c #87636D",
"v  c #936D67",
"b  c #9F736C",
"n  c #8C6870",
"m  c #936C75",
"M  c #9B6E7A",
"N  c #A97674",
"B  c #A57978",
"V  c #C75A6B",
"C  c #ED4165",
"Z  c #ED4966",
"A  c #E74369",
"S  c #E7496D",
"D  c #E84269",
"F  c #F54566",
"G  c #FD4A67",
"H  c #FF4C68",
"J  c #F84766",
"K  c #FC526D",
"L  c #FC5D6F",
"P  c #F6536F",
"I  c #E64F72",
"U  c #E65375",
"Y  c #E95A78",
"T  c #FA5C75",
"R  c #FB5670",
"E  c #FB627A",
"W  c #FB6573",
"Q  c #F8767B",
"!  c #F77C7D",
"~  c #BF9218",
"^  c #A98420",
"/  c #B8963C",
"(  c #F3991D",
")  c #DFA60D",
"_  c #D5A114",
"`  c #EDB007",
"'  c #F0B207",
"]  c #F0B10D",
"[  c #EBB312",
"{  c #F4B912",
"}  c #F5BD18",
"|  c #F48F26",
" . c #F49026",
".. c #FEC425",
"X. c #FEC32C",
"o. c #F5C524",
"O. c #FFCD31",
"+. c #FDC131",
"@. c #B7A857",
"#. c #81846C",
"$. c #C9AA44",
"%. c #C1827E",
"&. c #F3AB75",
"*. c #F3AA7D",
"=. c #D2C059",
"-. c #FEE24F",
";. c #FFE85B",
":. c #FFF673",
">. c #A27A80",
",. c #C56E88",
"<. c #E56583",
"1. c #E46C88",
"2. c #EC6480",
"3. c #F76F84",
"4. c #FB6980",
"5. c #E4758E",
"6. c #F4778B",
"7. c #F87A8E",
"8. c #F37E91",
"9. c #FA7D90",
"0. c #D68E85",
"q. c #DA8983",
"w. c #DA9186",
"e. c #E18882",
"r. c #F48E86",
"t. c #E59B8B",
"y. c #E69387",
"u. c #E3849A",
"i. c #F18898",
"p. c #EF929C",
"a. c #E7A08F",
"s. c #F2A78F",
"d. c #E7A190",
"f. c #EDA491",
"g. c #F2A792",
"h. c #F2A893",
"j. c #F2B19F",
"k. c #E393A5",
"l. c #ED9AA7",
"z. c #ECB0A8",
"x. c #F2B1A0",
"c. c #E1A6B4",
"v. c #E9ADB6",
"b. c #E2AEBA",
"n. c #E3A9B5",
"m. c #E6B6BC",
"M. c #E9C4BA",
"N. c #E6BBC2",
"B. c #E0B7C1",
"V. c #DFCBCF",
"C. c #DFD2D5",
"Z. c #DFDFDF",
"A. c #E0C6CB",
"S. c #E3C8C8",
"D. c #E3D0CA",
"F. c #E5CFD2",
"G. c #E9D6D5",
"H. c #F2DED8",
"J. c #F2E0DB",
"K. c #E2E2E2",
"L. c #ECECEC",
"P. c #F2F2F2",
/* pixels */
"                                                                                                                        ",
"                                                                                                                        ",
"                                                                                                                        ",
"                                                                                                                        ",
"                                                                                                                        ",
"                                                                                                                        ",
"                                                O O O * ; ; ; ; #.:.:.f ; ;                                             ",
"                                                O O O * ; ; ; ; #.:.:.f ; ;                                             ",
"                                                O O O 9 e 0 ; ; #.:.:.f ; ;                                             ",
"                                            O O O O O ~ ' _ ; ; #.:.:.f ; - ......                                      ",
"                                            O O O O O ~ ' _ ; ; #.:.:.f ; - ......                                      ",
"                                      O O O O O . ^ ^ ) ' [ @.@.=.;.;.$./ / ......                                      ",
"                                      O O O O O g ' ' ' ' { -.-.-.-.-.O...........                                      ",
"                                      O O O O O g ` ` ` ` [ -.-.-.-.-.O...........                                      ",
"                                      O O O O O o X X X X 5 r r r r r r r r r r r                                       ",
"                                      O O O O O O O O O O @ ; ; ; ; ; ; ; ; ; ; ;                                       ",
"                                      O O O O O > 7 7 7 7 i a a a a a a a a ; ; ;                                       ",
"                                      O O O O O c w.w.w.w.w.w.w.w.w.w.w.w.0.; ; ;                                       ",
"                                      O O O O O c w.w.w.w.w.w.w.w.w.w.w.w.0.; ; ;                                       ",
"                                      d d s O O n t.t.N v b t.t.t.t.t.N v v = ;                                         ",
"                                      w.w.%.+ O m g.g.w 4 8 g.g.g.g.g.w 4 4                                             ",
"                                      w.w.%.+ O m f.f.q 4 8 f.f.f.f.f.w 4 4                                             ",
"                                      w.w.%.+ O & 6 6 : - 3 p p p p p 3 - -                                             ",
"                                      w.w.%.+ O O O O * ; ; ; ; ; ; ; ; ; ;                                             ",
"                                      %.%.N O O O O O * ; ; y y u t t y y y                                             ",
"                                      $ $ @ O O O O O * ; y d.d.q.x x w.d.a.                                            ",
"                                      O O O O O O O O * ; y g.g.e.V V y.g.g.                                            ",
"                                      O O % 1 1 > O O * ; t >.>.m z z M >.B                                             ",
"                                            l l h O O * ; ; ; ; ; ; ; ; ; ; ; ; ;                                       ",
"                                            k k 2 O O * ; ; ; ; ; ; ; ; ; ; ; ; ;                                       ",
"                                      k k I b.b.,.j j > # # # # # # # # # # # # @                                       ",
"                                      l l U Z.Z.u.l l , O O O O O O O O O O O O O                                       ",
"                                      l l U C.C.u.l l < % % % % % % % % % % % % %                                       ",
"                                      l l l S S A l l C Z Z Z Z Z Z Z Z Z Z Z Z Z     ' ' ' ....O.-.-.                  ",
"                                      l l l l l l l l G H H H H H H H H H H H H G     ' ' ' ....O.-.-.                  ",
"                                      l l l l l U 1.1.P H K 9.9.7.6.6.P F F G H G     ' ' ' ....O.-.-.                  ",
"                                      l l l l l k.Z.Z.3.H E P.P.L.Z.Z.<.k k H H G     ' ' ' ....O.-.-.                  ",
"                                      l l l l l k.Z.Z.3.H E P.P.L.Z.Z.<.l l H H G     ' ' ' ....O.-.-.                  ",
"                                      l l l l l 2.i.i.T H E P.P.L.Z.Z.<.l l H H G G G ( ' ' { { } o.o.                  ",
"                                      l l l l l F H H H H E P.P.L.Z.Z.<.l l H H H H H  .' ' ' ' ' ' '                   ",
"                                      A A A l l F H H K K 4.P.P.L.K.K.1.A A G G G H H | ' ' ] ] ] ' '                   ",
"                                  l k B.A.m.G G G H H v.A.F.P.P.P.L.L.F.A.A.l l F H H       *.*.&.                      ",
"                                k l l V.Z.A.H H H H H N.Z.K.P.P.P.P.P.K.Z.Z.k l C H H       g.g.g.                      ",
"                                k l l b.A.b.H H H H H N.Z.K.P.P.P.P.P.K.Z.Z.Y Y Y L L       *.*.&.                      ",
"                                k l l l D C H H H H H N.Z.K.P.P.P.P.P.K.Z.Z.Z.Z.S.g.g.g.g.s.+.........                  ",
"                                k l l l l l H H H H H N.Z.K.P.P.P.P.P.K.Z.Z.Z.Z.S.g.g.g.g.s.X.........                  ",
"                                k l l l l l H H W ! ! z.M.M.P.P.P.P.P.K.Z.Z.Z.Z.m.Q Q r.                                ",
"                                k l l l l l H H ! g.g.g.g.j.P.P.P.P.P.K.Z.Z.Z.Z.v.H H                                   ",
"                                k l l l l l H H ! g.g.g.h.x.P.P.P.P.P.K.Z.Z.Z.Z.v.H H                                   ",
"                                k l l F J G H H p.D.D.H.H.J.P.P.P.P.P.L.L.L.Z.Z.v.H H                                   ",
"                                k l l G H H H H l.Z.Z.L.P.P.P.P.P.P.P.P.P.P.Z.Z.v.H H                                   ",
"                                S I I G H H H H l.Z.Z.L.P.P.P.P.P.P.P.P.P.P.Z.Z.v.H H                                   ",
"                            k k k.Z.Z.T H H H H l.Z.Z.L.P.P.P.P.P.P.P.P.P.P.Z.Z.v.H H                                   ",
"                            l l k.Z.Z.T H H H H l.Z.Z.L.P.P.P.P.P.P.P.P.P.P.Z.Z.v.H H                                   ",
"                            l l 5.c.c.R H K 8.8.m.Z.Z.L.P.P.P.P.P.P.P.P.P.P.Z.Z.v.H H                                   ",
"                            l l l l l G H E Z.Z.Z.Z.Z.L.P.P.P.P.P.P.P.P.P.P.Z.Z.v.H H                                   ",
"                            l l l l l G H E Z.Z.Z.Z.Z.L.P.P.P.P.P.P.P.P.P.P.Z.Z.v.H H                                   ",
"                  l l l l k l l l l l C C Y Z.Z.Z.Z.Z.L.P.P.P.P.P.P.P.P.P.P.Z.Z.n.C C l l k                             ",
"                l l l l l l l l l l l l l U Z.Z.Z.Z.Z.L.P.P.P.P.P.P.P.P.P.P.Z.Z.c.l l l l l                             ",
"                l l l l l l l l l l l l l U Z.Z.Z.Z.Z.L.P.P.P.P.P.P.P.P.P.P.Z.Z.c.l l l l l                             "
};
