/* XPM */
static char *result[] = {
/* columns rows colors chars-per-pixel */
"60 60 202 2 ",
"   c #6F5D36",
".  c #393A4A",
"X  c #272F52",
"o  c #282F52",
"O  c #293052",
"+  c #283A53",
"@  c #343154",
"#  c #2F3964",
"$  c #353C65",
"%  c #323C69",
"&  c #4D3155",
"*  c #6C3357",
"=  c #75395A",
"-  c #7E3A5B",
";  c #2C4350",
":  c #284D55",
">  c #2D5556",
",  c #29705A",
"<  c #2D5866",
"1  c #315565",
"2  c #356663",
"3  c #44464B",
"4  c #554E4D",
"5  c #595154",
"6  c #64595A",
"7  c #725F59",
"8  c #7C635E",
"9  c #484A67",
"0  c #54486C",
"q  c #5B5371",
"w  c #765267",
"e  c #5A7B61",
"r  c #666B6B",
"t  c #776968",
"y  c #91742B",
"u  c #89375A",
"i  c #BE3960",
"p  c #E43D63",
"a  c #E83C64",
"s  c #B05F5F",
"d  c #9D605F",
"f  c #AD645D",
"g  c #B37459",
"h  c #8F4164",
"j  c #B74F63",
"k  c #B15D62",
"l  c #8D666E",
"z  c #996D72",
"x  c #94737E",
"c  c #9D727B",
"v  c #B1706B",
"b  c #C2575F",
"n  c #CE4763",
"m  c #D14563",
"M  c #D34A62",
"N  c #C65869",
"B  c #D85C6D",
"V  c #EE4064",
"C  c #E8466B",
"Z  c #F24365",
"A  c #F84766",
"S  c #FC4A67",
"D  c #FF4C68",
"F  c #FC5D6F",
"G  c #EE5770",
"H  c #E65879",
"J  c #E5607F",
"K  c #F7637B",
"L  c #FA637B",
"P  c #F8777B",
"I  c #72AF3C",
"U  c #76E53F",
"Y  c #22825E",
"T  c #248E5F",
"R  c #388A5A",
"E  c #2F9D57",
"W  c #26925D",
"Q  c #2A965D",
"!  c #2D995D",
"~  c #309E57",
"^  c #37935C",
"/  c #319B5C",
"(  c #3FB34F",
")  c #36A655",
"_  c #3CAD52",
"`  c #36A25E",
"'  c #3AA65F",
"]  c #3BAA59",
"[  c #3EB051",
"{  c #248460",
"}  c #228C60",
"|  c #298B61",
" . c #388862",
".. c #2A9362",
"X. c #479654",
"o. c #54965D",
"O. c #6F9656",
"+. c #47AC4F",
"@. c #40B34F",
"#. c #45BC4C",
"$. c #59B64C",
"%. c #56BA4F",
"&. c #4DAE54",
"*. c #74AE48",
"=. c #65A65A",
"-. c #559668",
";. c #738966",
":. c #4AC34A",
">. c #4FCC49",
",. c #51CF47",
"<. c #57CC48",
"1. c #54D346",
"2. c #59D645",
"3. c #57D844",
"4. c #58D945",
"5. c #64C54A",
"6. c #6DE141",
"7. c #AD861F",
"8. c #BF9218",
"9. c #AF8927",
"0. c #BA973B",
"q. c #8CAB37",
"w. c #A9AE2A",
"e. c #B4B939",
"r. c #C1AF1D",
"t. c #D9A117",
"y. c #E7AC0A",
"u. c #E9B00B",
"i. c #F0B207",
"p. c #F1B30A",
"a. c #F3BA14",
"s. c #DAA022",
"d. c #F6BF28",
"f. c #A6CF36",
"g. c #8DED3C",
"h. c #97F23C",
"j. c #CECA2E",
"k. c #C6CB30",
"l. c #FEC526",
"z. c #FBC428",
"x. c #FCCA31",
"c. c #FFD136",
"v. c #8BA743",
"b. c #82B54D",
"n. c #8CA059",
"m. c #BAAA57",
"M. c #84866B",
"N. c #9B9B7D",
"B. c #AF9573",
"V. c #B3A86D",
"C. c #C7957F",
"Z. c #F0AA7D",
"A. c #81D256",
"S. c #B1C64F",
"D. c #85E340",
"F. c #8AE253",
"G. c #A1C069",
"H. c #F6DB50",
"J. c #FFE24F",
"K. c #FFE350",
"L. c #FFF36E",
"P. c #FFF673",
"I. c #D57084",
"U. c #E56885",
"Y. c #EE748B",
"T. c #E8758D",
"R. c #F37E90",
"E. c #C58982",
"W. c #C78E88",
"Q. c #D68E84",
"!. c #D88F84",
"~. c #DB9186",
"^. c #D08C90",
"/. c #ED8F8C",
"(. c #E8879B",
"). c #F1AA85",
"_. c #EEA590",
"`. c #EDA890",
"'. c #F2A792",
"]. c #F2A893",
"[. c #E48CA0",
"{. c #E896A6",
"}. c #F898A7",
"|. c #EBB9AB",
" X c #E2A9B5",
".X c #E7B4BC",
"XX c #E7C1B9",
"oX c #EFBBC3",
"OX c #C7D4CF",
"+X c #CAD8CF",
"@X c #D4D1D0",
"#X c #DFDFDF",
"$X c #E0C2C9",
"%X c #F4C7C6",
"&X c #E2CED1",
"*X c #EAD7D3",
"=X c #D8E5DF",
"-X c #DBE8DF",
";X c #E4E4E4",
":X c #ECECEC",
">X c #F2E7E5",
",X c #F2F2F2",
/* pixels */
":.[ [ [ [ [ _ _ [ [ [ [ [ _ ( [ _ _ W } T T ~ h.h.h.h.U 4.4.4.4.4.[ [ [ [ [ Q W T T W Q ' ' ' ' ' ! } ..T T T %.g.D.D.D.",
"( [ [ [ [ [ ] ] ' ' ' ' ' ' ' ' ) ' W } T T / h.h.h.h.U 4.4.4.4.1.[ [ [ [ [ ..} T } } Q ' ' ' ' ] ..} } } } } <.h.h.h.h.",
"_ [ [ [ [ [ ] ' ' ' ' ' ' ' ' ' ' ' ..} T Y ^ h.h.h.h.U 4.4.4.4.1.( [ [ [ [ Q T } } } Q ' ' ' ' ] ....} } } } 5.h.h.h.h.",
"[ [ [ [ [ [ ] ' ' ' ' ' ' ' ' ' ' ` W } T T ] h.h.h.h.U 4.4.4.4.1.[ [ [ [ [ Q | } } T ..' ' ' ' ' ` } } } } } 5.h.h.h.h.",
"@._ @._ [ ( ] ' ' ' ' ' ' ' ' ' ' ` | } } } ' h.h.h.h.U 4.4.4.4.1.( _ [ ( _ ..} } } } ..` ` ` ' ' ! } } } } } 5.h.h.h.h.",
"_ @._ @.[ _ ) ' ' ' ' ` ` ` ` ` ' &.' ' / / ) 6.6.6.6.<.#.#.#.#.#.] ] ] ] ] Q } } } } ..` ` ` ` ` / W W W W W <.g.g.g.g.",
"@.@.@._ ( ] ' ' ' ' ` } } } } } :.h.h.h.h.h.4.4.2.2.2.:.@._ @.@.[ ' ' ' ' ' ..T } } } ..W } ..} ..) ,.,.1.1.<.2.4.6.4.4.",
"@._ _ @._ ] ' ' ' ' ` ..} } } } %.D.h.h.h.h.4.4.4.4.2.:._ @._ @._ ` ' ' ' ' Q } } } } | } } } } } _ 4.3.3.2.2.1.4.4.4.3.",
"@._ @._ ] ] ' ' ' ' ' } } } } } %.h.h.h.h.h.4.4.4.4.2.:.[ ( ( ( _ ` ' ' ' ' ! } } } } ..} } } } } ) 3.3.3.3.4.4.4.3.4.4.",
"@.@._ @.@.] ' ' ' ' ` ..} } } } %.h.h.h.h.h.4.+.&.%.F.A.o.^ R R R  .R , ^ ' / } } } } } } } } } } _ 4.4.3.3.4.4.4.4.3.4.",
"@._ _ _ @.' ' ' ' ' ' } } } } } %.g.h.g.g.g.1.$ $ r P.P.M.% $ % % # X X 2 ` ..} } } } T } } } } } _ 4.3.3.3.3.3.3.3.4.4.",
"` ' ' ' ' ' ' ' ' ' ' T } } } } [ 4.2.2.2.4.( $ % r P.P.;.% % % % # X X , +...} } } } T W W W W W ) 1.1.1.,.1.1.1.,.,.1.",
"` ' ' ' ' ' ' ' ' ' ' T } } } } _ 3.3.3.f.j.k.$ 1 r P.P.M.% % y 8.y o X ; : : Y } } } T _ [ _ _ _ [ ( ( ( ( ( ( ( ( ( ( ",
"` ' ' ' ' ' ' ' ' ' ` ..} } } } _ 3.3.3.k.l.l.$ # r P.P.M.% $ t.i.8.X X X X X Y } } T T ) [ [ [ [ [ [ [ [ [ _ [ [ ( [ [ ",
"` ' ' ' ' ' ' ' ' ' ' } } } } } [ 4.3.3.k.l.l.9 9 t L.L.M.9 0 t.i.8.. . + o X , Y Y } T [ [ [ [ [ _ [ [ [ [ [ [ [ [ [ [ ",
"` ' ' ' ' ' ' ' ' ' ` } } } } } _ 3.3.4.k.l.l.d.d.x.K.K.J.H.H.a.i.i.y.y.y X X X + + T T ) [ [ [ [ ( [ [ [ [ [ [ [ [ [ [ ",
"! W ..W Q Q W Q Q ....` ` ..` ` ~ ) ) _ e.d.d.d.l.x.K.K.K.K.K.a.p.p.i.i.y o X X X + #.@.Q E Q E ! ) ] [ [ [ _ ] ] ] ] ' ",
"T } W } } } T } } } } ` ' ' ' ' ! } } } v.0.0.0.0.0.m.m.m.m.m.9.7.7.7.7.  o X X X ; 2.1.W } } } } ! ' ' ' ' ` T ..} } } ",
"W } } } } } } } } } } ` ' ' ' ' ! } } } < % % % $ % $ % % % % O o o o o o X X X X ; 4.1.W } } } } ..' ' ' ' ` T } } } } ",
"T } } } } } } } } } } ` ' ' ' ' ..} } } < % % % % % % % % % % O X X o X X X X X X ; 3.1.W } } } } ! ' ' ' ' ` T } } } } ",
"T } } } } } } } } } W ` ' ' ' ' ! T } } < 1 % c c c c c c c c z z z z z 6 X O O X ; 4.1...} } } } ! ' ' ' ' ' T } } } } ",
"W } } } } W Q Q Q Q Q ] ] ] ] ] ~ W T W < # % Q.~.~.~.~.~.~.~.~.~.~.~.~.l X o O X ; 1.>...} ..W ....` ` ` ~ ` ..Q W Q Q ",
"} } } } } _ 1.1.1.1.1.1.1.1.3.1.:._ _ _ 2 $ % Q.!.!.~.~.~.~.~.~.Q.Q.~.Q.l X O O O + @.[ ` ` ' ` ) ! T T T T W >.1.1.1.1.",
"T } } } } [ 3.4.3.4.4.4.4.2.3.4.>._ [ [ ) ~ { 4 4 l _._._._.'.6 4 8 _._.l X + c E.B.+.@.' ' ' ' ' ..} } } T W 1.3.3.3.3.",
"T } } } } _ 3.3.4.4.4.4.4.3.4.4.:.[ [ [ _ [ Q 3 3 7 '.'.'.'.'.5 3 7 '.'.z O o I.^.C.[ [ ' ' ' ' ' ! } } } } ..1.4.3.4.3.",
"T } } } } _ 4.3.3.4.4.4.4.4.4.4.:.[ [ [ @.@.T ; 3 6 W.W.W.W.W.5 ; 6 E.E.t O o E.~.C.[ _ ' ' ' ' ' ! } } } } W 1.4.3.4.4.",
"T } } } } _ 4.4.3.4.2.2.4.4.4.4.:.@.[ [ _ @...# # $ % % % % % % # # X X o o o W.~.W.[ [ ' ' ' ' ' ! } } } } W 1.3.3.3.3.",
"( ( ( #.( #.:.:.:.:.:.:.#.:.#.:.@.] ] ] ] ] } % # $ % % % % % % % # X X o o o v ~.C.] ] ' ' ' ' ' ..} } } } T #.:.:.:.:.",
"1.4.4.4.3.:._ _ _ [ [ [ @._ @._ _ ' ' ' ' ' } x x l h w l x x 9 % # X X X X X 6 t t ' ' ' ' ' ' ' ! } } } } T _ [ [ [ [ ",
"1.4.4.4.3.>.[ [ [ [ [ [ +.@._ @.] ' ' ' ' ' } `.].(.N N ~.'._.0 % # X X X X X X + + ' ' ' ' ' ' ' Q } } } } T _ [ [ [ [ ",
"1.4.4.4.3.:.[ [ [ [ [ [ _ _ @._ ] ' ' ' ` ` } `._./.N N ~.]._.0 % # X X X X X X X + ' ' ' ' ' ' ' ! } } } } T ) [ [ [ [ ",
"1.4.4.3.3.>.[ [ [ [ [ [ [ [ _ @._ ' ' ' 2 1 < q q q 0 0 0 q q % % # X X * i i e ^ ^ ' ' ' ' ' ' ' ! } } } } W _ [ [ [ [ ",
">.1.1.1.1.:.) ) _ ) ) ) _ _ _ _ +.' ' ' 2 % % % % % % % % % % % % # X X = a a o./ ` ' ' ` ` ` ` ` ! } } } } T _ _ _ _ _ ",
"[ ( ( ( ( ~ W W W W &.S.S.S.e.e.w.w.q.' 1 % # # % # # # # # # # # # & & h H H ;.o.-.' ` W } } } T } } } } } W ` ` ' ] ' ",
"] [ [ [ [ E } } T } =.K.J.c.z.z.p.i.r.' > @ O X X X X X X X X X X & p p T.#X#XC p n ' ` } } } } } } } } } } } ` ' ' ' ' ",
"_ [ [ [ [ E } } } } =.K.J.c.l.z.a.p.r.' > @ O X X X X X X X X X X & p p [.#X#XU.p M ' ` ..} } } } } } } } } } ` ' ' ' ' ",
"_ ( _ [ [ E } } } } =.J.J.c.l.l.p.i.r.' 6 - = = = = = = = = = = = u a a U. X{.C p M ' ` T } } } } } } } } } T ' ' ' ' ' ",
"] ( _ _ [ E T } } } =.J.J.c.l.l.p.i.r.X.g D D D D D D D D D D D D A a a a a a a a M ' ` T } } } } } } } } T T ` ` ' ' ` ",
">.>.:.>.:.[ ~ ~ E E *.z.z.a.a.a.i.i.t.f B S D D S D D D D D D D D a a a a a a a a m Q Q } } } } } ..! ! ..! ! ....! ..! ",
"4.3.3.3.3.:.[ [ ( ( I p.p.i.i.i.i.p.s.D D D D V V H .X.XoX%X%XL D U..X.XT.a a a p m } } } } } } } ! ' ' ' ' ' T T T T } ",
"4.4.4.4.2.:.[ [ ( ( I y.y.y.u.i.y.y.s.D D D D p a U.#X#X:X,X,XL S Y.#X#X[.a a a a m R { | } } } } ..] ' ' ' ` } } } } } ",
"4.4.4.4.4.:.[ [ ( _ +.X.^ V.Z.Z.o.X.8 D D D A a H {.#X;X:X,X,X}./.{.#X.XY.Z Z a H (.@XJ n j } } T ! ' ' ' ' ' } } } } } ",
"6.3.2.2.2.:.[ [ _ ( ) W } N._._.^ | e D D Z p p (.#X#X,X,X,X,X,X>X#X#XL D D D D {.#X#XU.a m } } } ..' ' ' ' ' } } } } } ",
"3.1.1.1.1.:.[ [ ( _ @.X.X.V.Z.Z.-.-.;.F F F J H {.#X#X:X,X,X,X,X>X#X#XL D D D D (.$XoXU.a m T T ..! ] ] ] ] ] ..W T W W ",
"@.( @.@.@.@.[ [ ( @.*.z.z.z.z.z.).].].'._.|.#X#X#X#X#X,X,X,X,X,X;X#X#XK D D D D Z a p a a M _ _ _ :.1.1.1.1.,.[ _ _ ) _ ",
"( ( [ [ [ [ [ [ [ @.*.z.l.l.z.z.].].].]._.|.#X#X#X#X#X:X,X,X,X,X:X#X#XK D D D D Z a a a a m +.[ [ :.3.3.4.4.1.( [ [ [ [ ",
"@.[ [ [ [ [ [ [ [ [ $.v.v.v.v.v.n.G.V.P P {.#X#X#X#X#X,X,X,X,X,X*X|..X/.P P D D Z a a a a M _ [ [ :.4.4.4.4.1.( [ [ [ [ ",
"@.[ [ [ [ [ [ [ [ [ _ T } } } | ] 2.b.D D /.#X#X#X#X#X:X,X,X,X,X%X'.'.'.'._.D D Z a a a a M [ [ [ :.4.4.4.4.1.( [ [ [ [ ",
"( [ [ [ [ ( [ [ [ [ _ T T T } } _ 1.b.D D R.#X#X=X#X#X:X,X,X,X,X%X].).].]._.S S Z a a a a M +.@.@.#.2.2.2.3.1.@.[ [ [ [ ",
"_ ] ] ] ] ) ] ) ] ] ) T } } } } ) :.*.D D R.#X#X;X:X:X,X,X,X,X,X>X>X*X&X*XXXS S A A A a a M :.:.:.:.:.:.:.:.:.[ ] ] ] ] ",
"' ' ' ' ' ' ' ' ' ' ' } } } } } E [ O.D D R.#X#X:X,X,X,X,X,X,X,X,X,X,X;X-X&XD D D D D a a M 2.2.4.:.@._ [ _ _ ' ' ' ' ' ",
"] ' ' ' ' ' ' ' ' ' ' W } } } } E [ O.S D R.#X#X;X,X,X,X,X,X,X,X,X,X,X;X#X&XD S D D D G G B 5.5.5.:.@.@.[ ( [ ' ' ' ' ' ",
"' ' ' ' ' ' ' ' ' ' ` } } } } } ! @.O.D D R.#X#X;X,X,X,X,X,X,X,X,X,X,X#X#X&XD D D D D .X#X&Xa p g :.[ [ [ [ _ ' ' ' ' ' ",
"' ' ' ' ' ' ' ' ' ' ' } } } } } ! _ O.D D R.#X#X:X,X,X,X,X,X,X,X,X,X,X;X#X&XD D D D D .X#X&Xa a g :.[ [ [ [ _ ] ' ' ' ' ",
"' ' ' ' ' ' ` ` ` ` / T } } } } E _ O.D D R.#X#X;X,X,X,X,X,X,X,X,X,X,X#X#X*X(.R.L D D [. X{.a a g #.[ _ _ [ _ ' ' ' ' ' ",
"' ' ' ' ' ! T T T } } T } } } } ! @.O.D D R.#X#X;X,X,X,X,X,X,X,X,X,X,X;X#X#X#X#X{.D D a p p a a f _ ` ] ` ` ] ' ' ' ' ' ",
"' ' ' ' ' ....} } } } } } } } T E ( O.D D R.#X#X;X,X,X,X,X,X,X,X,X,X,X#X#X#X#X#X{.D D V a a a a f ) ] ' ' ' ' ' ' ' ' ' ",
"' ' ' ' ' ` } } } } } } } } } | d s b a V T.#X#X:X,X,X,X,X,X,X,X,X,X,X;X#X#X#X#X[.V V V a a a a M s k k s d ' ' ' ' ' ' ",
"' ' ' ' ' ..} } } } } } } } } T m a a a a T.#X#X;X,X,X,X,X,X,X,X,X,X,X#X#X#X#X#X[.p p a a p p p a a a a a N ' ' ' ' ' ' ",
"' ' ' ' ] ..} } } } } } } } } T m a a a V I.+X+X=X-X-X-X-X-X-X=X-X=X#X+XOXOXOXOX^.m m m M M M n M M M M M k ' ' ' ' ' ' "
};
