/* XPM */
static char *result[] = {
/* columns rows colors chars-per-pixel */
"60 60 200 2 ",
"   c #6F5D36",
".  c #393A4A",
"X  c #272F52",
"o  c #282F52",
"O  c #293152",
"+  c #273952",
"@  c #2F3964",
"#  c #343D66",
"$  c #323C69",
"%  c #4D3155",
"&  c #6C3357",
"*  c #75395A",
"=  c #2B4052",
"-  c #335253",
";  c #3B7A4C",
":  c #376B59",
">  c #3F715C",
",  c #334067",
"<  c #335565",
"1  c #346863",
"2  c #45474A",
"3  c #575050",
"4  c #67585A",
"5  c #725F59",
"6  c #40725C",
"7  c #7C635E",
"8  c #484A67",
"9  c #54486C",
"0  c #405A63",
"q  c #5B5371",
"w  c #765267",
"e  c #4A7B60",
"r  c #666C69",
"t  c #7A6566",
"y  c #767564",
"u  c #7F7461",
"i  c #91742B",
"p  c #89375A",
"a  c #BE3960",
"s  c #E53D64",
"d  c #E83C64",
"f  c #90655F",
"g  c #8F7659",
"h  c #AF625E",
"j  c #8F4164",
"k  c #A95562",
"l  c #B55062",
"z  c #8C6261",
"x  c #87636D",
"c  c #817760",
"v  c #827860",
"b  c #926C70",
"n  c #976D73",
"m  c #94747E",
"M  c #9D727B",
"N  c #AB716A",
"B  c #CE4663",
"V  c #CA4D62",
"C  c #D14663",
"Z  c #D24962",
"A  c #C75A69",
"S  c #D35A69",
"D  c #ED4064",
"F  c #E7456B",
"G  c #F84766",
"H  c #FB4967",
"J  c #FF4C68",
"K  c #FC5A6E",
"L  c #E64F72",
"P  c #E55476",
"I  c #E95A79",
"U  c #FB5B74",
"Y  c #C46665",
"T  c #FA6279",
"R  c #F77A7D",
"E  c #76E53F",
"W  c #248E5F",
"Q  c #298E5F",
"!  c #398D59",
"~  c #2F9D57",
"^  c #26925D",
"/  c #2B965D",
"(  c #2D995E",
")  c #309E57",
"_  c #319B5C",
"`  c #389B5E",
"'  c #3FB34F",
"]  c #36A655",
"[  c #3CAD53",
"{  c #36A25E",
"}  c #3AA65F",
"|  c #3BAA59",
" . c #3EB051",
".. c #228C60",
"X. c #288F64",
"o. c #388461",
"O. c #2A9362",
"+. c #449652",
"@. c #53965F",
"#. c #45AD4D",
"$. c #4CB147",
"%. c #40B34F",
"&. c #45BC4C",
"*. c #55BD4A",
"=. c #56BA4F",
"-. c #48A755",
";. c #45A55A",
":. c #54A454",
">. c #6FAD4C",
",. c #79AD59",
"<. c #4A9366",
"1. c #6A8B62",
"2. c #75BE65",
"3. c #4AC34A",
"4. c #4FCC49",
"5. c #55C947",
"6. c #51CE47",
"7. c #54D346",
"8. c #59D645",
"9. c #57D844",
"0. c #58D945",
"q. c #61C34B",
"w. c #6DE141",
"e. c #AD861F",
"r. c #BF9218",
"t. c #AF8927",
"y. c #BA973B",
"u. c #94B33C",
"i. c #AAAD27",
"p. c #B5AE23",
"a. c #B7B338",
"s. c #D9A612",
"d. c #E5AD0B",
"f. c #E9B00B",
"g. c #F0B207",
"h. c #F0B10E",
"j. c #F3B913",
"k. c #F19028",
"l. c #F2BF28",
"z. c #9BCB39",
"x. c #B3C835",
"c. c #8DED3C",
"v. c #97F23C",
"b. c #FEC526",
"n. c #FAC428",
"m. c #EDC530",
"M. c #FAC432",
"N. c #FFCE32",
"B. c #BA9C42",
"V. c #91AF42",
"C. c #BAAA57",
"Z. c #84866B",
"A. c #B68C79",
"S. c #92AA6F",
"D. c #BAA36F",
"F. c #C1827E",
"G. c #C7957F",
"H. c #EBA97C",
"J. c #85E340",
"K. c #EDDB50",
"L. c #F6DB50",
"P. c #FFE24F",
"I. c #FFF36E",
"U. c #FFF673",
"Y. c #EB6A85",
"T. c #E8748D",
"R. c #E47991",
"E. c #F37E91",
"W. c #AE9E81",
"Q. c #C58982",
"!. c #C78E88",
"~. c #D68E84",
"^. c #D88F84",
"/. c #DB9186",
"(. c #E88B8F",
"). c #EFA590",
"_. c #EFA993",
"`. c #F2A792",
"'. c #F2A893",
"]. c #E897A6",
"[. c #F292A1",
"{. c #EFB1A4",
"}. c #E1A5B3",
"|. c #E4ABB6",
" X c #E9ADB6",
".X c #E7B5BC",
"XX c #E9C4BA",
"oX c #E8BBC2",
"OX c #DFCBCF",
"+X c #C8D5CE",
"@X c #CAD8CF",
"#X c #DFDEDE",
"$X c #E3C7C7",
"%X c #EDCFCE",
"&X c #D8E5DF",
"*X c #DBE8DF",
"=X c #F2E0DB",
"-X c #E3E3E3",
";X c #EDEDED",
":X c #F2F2F2",
/* pixels */
"3. . . . . .[ [  . . . . .[  . . .[ ^ ......` v.v.v.v.E 9.0.0.0.9.[  . . . .( ^ ^ W ^ / } } } } } _ ....O.^ ..5.c.J.J.J.",
"'  . . . . .| | } } } } | } } } } } ^ ......` v.v.v.v.E 0.0.0.9.9. . . . . .O........./ } } } } } _ ..........q.v.v.v.v.",
"[  . . .' [ | } } } } } { } } } } } ^ ..W ..` v.v.v.v.E 0.0.0.0.9.[  . . . .O.........^ } } } } } { ..........q.v.v.v.v.",
" . . . .[ ' | } } } } } } } } } } { ^ ..W Q ] v.v.v.v.E 9.0.9.0.9.[  . . . ./ ........O.} } } } } O...........q.v.v.v.v.",
" . . . .'  .| } } } } } } } } } } } O.......) v.v.c.v.E 9.0.9.9.9.[ '  .[ ' O.........^ } } } } } O...........q.v.v.v.v.",
" . . . .[  .| } } } } { } { { { | ;.} } _ ` ] E w.E E 5.&.&.&.&.&.| | ] ] | O.......W O.{ { { { } ) ^ / ^ ^ ^ q.c.c.c.c.",
"%. . . .' | } } } } { X.........3.v.v.v.v.v.8.0.9.9.0.3. . .%.'  .} } } } } / ........X...^ ......[ 6.6.6.6.7.8.0.w.0.0.",
"%. . . . .| } } } } { ..........=.J.v.v.v.v.0.0.0.9.0.3. . . . . .} } } } } ( ........X...........[ 0.0.0.9.9.9.0.0.0.9.",
"'  . . .[ | } } } } } X.........*.v.v.v.v.v.9.9.9.9.8.3. .%. . . .{ } } } } ( ....W W X...........] 0.0.9.0.0.9.0.0.0.0.",
"%. . . .%.| } } } } } W ........*.v.v.v.v.v.9.9.*.#.#.+.! ! ! ! :.2.2.<.o.o.( ....W W X...........[ 0.0.9.9.0.0.0.0.0.0.",
" .[ [ [ %.} } } } } { W ........=.c.c.c.c.c.7.6.; X X @ $ $ # @ m U.U.r , $ O.........W ....W ....[ 0.0.9.9.9.9.9.9.0.0.",
"{ } } { } } } } } } } W ........[ 0.0.9.9.9.' ' : X X O $ $ $ $ 1.U.U.r , , O.........W ^ ^ ^ ^ ^ [ 4.7.6.7.7.7.6.7.6.7.",
"{ } } } } } } } } } { W ........[ 9.9.9.0.5.- - = o o i t.t.$ $ Z.U.U.r # , a.a.V.......[ [ [ [ [ ' ' ' ' '  .'  .' ' ' ",
"{ } } } } } } } } } { W ........ .9.9.9.0.3.X X o o o r.g.s.$ $ Z.U.U.r # # b.b.a.......[ [ ' [ [ ' ' '  .[  . . . . . .",
"{ } } } } } } } } } } W ........[ 9.9.5.5.$.X X . . . r.f.s.8 8 Z.I.U.y 8 3 n.b.a.......[ ' ' [ ' [ ' [  . . . . . . . .",
"{ } } } } } } } } } { X.........[ 8.8.- O O X X i d.d.g.g.h.L.L.L.P.P.M.l.l.n.n.a.......[  .[ ' [ ' [ '  . . . . . . . .",
"/ / / O./ ^ / / / O.( O.( O.{ { ) ] ] = X X X X i g.g.g.g.j.P.P.P.P.P.N.b.b.b.b.x.$.&.%.~ ( ( / ( ]  .|  . . .| | | ;.} ",
"W ................^ ..} } } } } ( ....= X X X X   e.e.e.e.t.C.C.C.C.C.B.y.y.y.y.u.8.8.7.^ ........O.} } } } { ^ ........",
"W ....................} } } } } / ....+ X X X X o O O o o O $ $ $ $ $ $ # $ $ $ e 0.0.7.^ ........O.} } } } { ..........",
"W ....................} } } } } ( ....+ X X X o o X X X o O $ $ $ $ $ $ $ $ $ $ 1 0.0.7.^ ........( } } } } } ..........",
"^ ................W W { } } } } ( ....+ X X o o 4 n n n n n M M M M M M M M $ $ > 9.8.7.^ W ......O.} } } } { ..........",
"W ........^ / / / / / | | ;.| | ) ^ ^ = X X o o x /./././././././././././.~.$ $ > 7.6.4.^ W W W ^ ( { } ) { { / ( ( / / ",
"W ........[ 7.7.7.9.7.7.8.7.8.8.3.[ [ = + O O o x /.^.^.^.^./././././.~.~.~., , 1 %. .#.{ } { } } / W W W ..^ 4.7.7.7.7.",
"W ........' 9.9.9.9.9.9.9.9.8.0.3. . .A.Q.M O o b ).).7 3 4 `.`.).).).7 3 3 #.] | %. .[ } } } } } ( ......W ^ 7.9.9.9.9.",
"W ........' 9.9.0.0.9.0.9.0.0.0.4. .' G.(.W.X X n `.).5 2 3 '.'._.'.'.5 2 2 3. . . . .[ } } } } } O.........^ 7.0.0.0.0.",
"W ....W ..' 9.9.0.0.0.0.0.0.0.0.3. .' G.~.Q.X X w Q.Q.4 2 3 !.!.!.!.!.4 2 2 3. . . . . .} } } } } ( ........^ 7.0.0.0.0.",
"W ....W ..[ 9.9.0.0.0.8.0.0.0.0.3.'  .!.^.Y X X O O o @ $ $ $ $ $ $ $ $ $ , 3. . . .'  .} } } } } ( ^ ......^ 4.0.0.0.0.",
"' ' ' ' ' &.&.3.3.&.3.&.&.3.3.&.%.| } !./.Q.X X O o o @ $ $ $ $ $ $ $ @ $ $  .| | | | | } } } } } O.........^ &.3.&.3.&.",
"7.0.0.9.0.3.[  . . . . . . . . .[ } } t w w + X X X X @ $ , m m x j w b m m | } { } } } } } } } } ( ........^ ] [ %.[ %.",
"7.0.0.0.0.4. . . . . . . . . . .| } } + X X X X X X X @ $ 9 '.'.(.S A (._.).| } { { } } } } } } } O.........^ [ %.[ %.[ ",
"7.0.9.0.9.3. . . . . . . . . . .| } } = X X X X X X X @ $ 9 '.'.F.S A /.).).} } } } } } } } } } } ( ........^ ] [ %.[ %.",
"7.0.9.9.9.4. . . . . . . . . . .| } } ( ! e a a & X X $ $ $ q q 9 9 9 q q q < < 1 } } } } } } } | O.........^ [ %.[ %.[ ",
"4.7.7.7.9.&.[ [ ] [ [ [ [ [ [ [ | } } } } @.s d * o o @ $ $ $ $ $ $ $ $ $ $ $ $ < } } ;.;.;.;.;.-.{ ` Q ....W ] [  .[ [ ",
" .' ' ' ' ) ^ ....^ / { { ] } | } } } @.@.1.P L p % % @ @ $ @ @ $ @ @ @ @ @ @ @ < } } i.d.s.l.m.m.K.K.,.....W { } } } } ",
"|  . . .[ ~ ..........{ } } } } } } } Z F P #X#XR.d s % X X X o X X X X X X X X 0 } } p.g.g.b.b.N.P.P.,.....W { } } } } ",
" . . . .' ~ ..........{ } } } } } } } Z s P #X#X(.d d % X X X o X X X X X X X X - ;.} p.g.g.b.b.N.P.P.,.......{ } } } } ",
"|  . . . .( ..........{ } } } } } } } C d L }.}.T.s d p p * * * * * * * * * * * 4 } { p.g.g.b.b.N.P.P.,.......{ } } } } ",
" . . . .' ~ ....W W ..{ } } } } } } } C d d d d d s d H H H J J H H J J J J J J Y } { p.g.g.b.b.N.P.P.,...W X.{ } } } { ",
"4.4.3.3.3.[ ~ ~ ~ ~ ~ / O.( O.( / / / C d d d d d s d d J J J J J J J J H J J J S N N s.g.g.h.j.j.n.l.>.( ( ( / / / / / ",
"0.9.9.9.9.4.[ ' ' ' [ ^ ..............C d d d d R.oX}.Y.J U %XoXoXoXoXI d d J J S H J k.g.g.g.g.g.g.g.u.} { { ^ W W W ..",
"0.0.0.0.0.3. . .[ ' [ ..........W W ..B d d d d ].-X-XY.J T :X:X;X#X#XY.d s J J S H H k.f.d.h.h.h.f.f.>.;.} { X.........",
"0.0.0.0.0.3. . .' [ [ ..........7 B B R.R.T.D D Y. X].[.(.[.:X:X;X-X-X].R.R.G G G H H g +.+.H.H.D.+.:.;.} } { ..........",
"0.0.0.0.0.3. . .[ [ [ ^ ........z d F OX#XOXH J J J J oX#X-X:X:X;X:X:X-X#X#Xd d D H J c W ^ /._.W.` } } } } } ^ ....W ..",
"0.0.7.7.7.3. . .' ' [ ^ ........z d s |.oX|.J J J J H .X#X-X:X:X:X:X;X-X#X#XP I U K K Z.<.<.H.).D.:.=.-.| | } ^ W W W ^ ",
"&.%.%.%.' '  . .' [ [ W ........f d d d F D J J J J J oX-X-X:X:X:X:X:X-X#X#X#X#X$X).`.`._.).n.b.b.n.n.z.7.7.6.[ [ [ [ [ ",
" . . . . .'  . .' ' [ ^ ........f d d d s D J J J J J oX*X-X:X:X:X:X:X-X#X#X#X#X$X`.`.`.).`.M.b.b.b.b.z.9.9.9.' ' [ ' [ ",
"%. . . .' [ [ ' [ ' [ ..........f d d d s d J J T R R {.XXXX:X:X:X:X:X-X-X#X#X#X.XR R A.S.S.V.u.u.z.x.w.9.9.9.'  . . . .",
"%. . . .[ ' ' [ ' [ [ ^ ........f d d d d d J J R '.`._.'._.:X:X:X:X:X-X#X#X#X#X XH J c [ %.%.&.%.3.8.9.9.9.7.'  . . . .",
" . . .'  .[ ' [  . .[ W W ......z F d d d d J J R ).).)._.{.:X:X:X:X:X-X-X#X#X#X XJ J u [  . .' [ 3.0.9.9.0.9.' %. .[  .",
"[ | | | [ | | | | [ | W ........f s d G G G J J [.%X%X=X=X=X:X:X:X:X:X;X;X;X#X#X XJ J c &.3.3.3.3.3.3.3.3.3.&.[ | | | | ",
"} } } } } } } } } } { W ........z d d H J J J J ].-X-X;X;X:X:X:X:X:X:X:X:X;X#X#X XJ J v 9.8.9.9.0.3.'  . . . .} } } } } ",
"} } } } } } } } } } { W ..W 6 o.f L L J J J J J ].#X#X;X:X:X:X:X:X:X:X:X:X:X#X#X XJ J v 7.9.9.9.0.3. . . . . .} } } } } ",
"} } } } } } } } } } } W W e s s ].#X#XU J J J J ].-X#X;X:X:X:X:X:X:X:X:X:X:X#X#X XJ J v 7.9.9.9.8.3. . . . . .] } } } } ",
"} } } } } } } } } } { X...e d d ].#X#XU J J J J ].#X#X;X:X:X:X:X:X:X:X:X:X:X#X#X XJ J v 7.9.9.9.9.3. . . . .[ } } } } } ",
"} } } } { { { { { { _ W ..e d d T.}.}.K H K E.E..X#X-X;X:X:X:X:X:X:X:X:X:X:X#X#X XJ J c 6.8.9.7.9.&. .[ [ #.[ } } } } } ",
"} } } } } ( W ^ W ....W ..e d d s s d H H T #X#X-X#X#X;X:X:X:X:X:X:X:X:X:X:X#X#X XJ J u ' ' %.' %.[ } } { ] } } } } } } ",
"} } } } } { ..............e d d s d d G J T #X#X#X#X#X;X:X:X:X:X:X:X:X:X:X:X#X#X|.J J u [  . . .' | } } } } } } } } } } ",
"} } } } } ( ....r k k k k l d d s d d d d I #X#X#X-X#X;X:X:X:X:X:X:X:X:X:X:X#X#X}.D D V h h -.'  .| } } } } } } } } } } ",
"} } } } } ( ....z d F s d d d d d d d d d P #X#X#X#X#X;X:X:X:X:X:X:X:X:X:X:X#X#X}.d d d s s #.[  .[ } } } } } } } } } } ",
"} } } } | O.....7 B C B B B B B C Z Z C Z S @X@X@X@X@X&X*X*X*X*X*X&X&X&X&X&X+X+X}.d d d s s -.[  .| } } } } } } } } } } "
};
