/* XPM */
static char *result[] = {
/* columns rows colors chars-per-pixel */
"60 60 205 2 ",
"   c #387279",
".  c #707E56",
"X  c #44747B",
"o  c #68797C",
"O  c #74797E",
"+  c #A3794E",
"@  c #D56D48",
"#  c #C97948",
"$  c #DA7346",
"%  c #D77845",
"&  c #FC6644",
"*  c #F36B47",
"=  c #FB6D45",
"-  c #FD7347",
";  c #F77D42",
":  c #F87A42",
">  c #FD7B4A",
",  c #F56E50",
"<  c #F27256",
"1  c #F37D59",
"2  c #76E53F",
"3  c #248E5F",
"4  c #38885D",
"5  c #2F9D57",
"6  c #26925D",
"7  c #2B965D",
"8  c #2E995D",
"9  c #309E57",
"0  c #319B5C",
"q  c #34985D",
"w  c #3FB34F",
"e  c #35A556",
"r  c #3BAD53",
"t  c #36A25E",
"y  c #3AA65F",
"u  c #3CAA59",
"i  c #3EB051",
"p  c #3AB058",
"a  c #1F8C68",
"s  c #1A8D78",
"d  c #228C60",
"f  c #288F64",
"g  c #388D65",
"h  c #2A9362",
"j  c #229772",
"k  c #2EA96C",
"l  c #35A765",
"z  c #2FB16D",
"x  c #2CA671",
"c  c #2BA479",
"v  c #6F9252",
"b  c #699955",
"n  c #57A74F",
"m  c #40B34F",
"M  c #45BD4C",
"N  c #56BA4F",
"B  c #5ABC4D",
"V  c #44AC55",
"C  c #50AF56",
"Z  c #67A75B",
"A  c #70A350",
"S  c #4D916A",
"D  c #599D67",
"F  c #54926C",
"G  c #6C9572",
"H  c #5AA464",
"J  c #63A865",
"K  c #4AC34A",
"L  c #4ECC49",
"P  c #51CF47",
"I  c #56CC49",
"U  c #54D346",
"Y  c #5AD645",
"T  c #57D844",
"R  c #58D945",
"E  c #4BCE57",
"W  c #6ECE45",
"Q  c #61C34B",
"!  c #71CB54",
"~  c #F29B3F",
"^  c #EEB33E",
"/  c #ACDC3F",
"(  c #8EEE3C",
")  c #97F23C",
"_  c #98F03B",
"`  c #A5E33E",
"'  c #ECC63D",
"]  c #EBCD3D",
"[  c #F0CF3F",
"{  c #EED03E",
"}  c #8F954A",
"|  c #B48248",
" . c #88AF4F",
".. c #93B044",
"X. c #B9A849",
"o. c #9A967B",
"O. c #A89B76",
"+. c #B4967A",
"@. c #B1B973",
"#. c #CB8947",
"$. c #D29B4A",
"%. c #C38651",
"&. c #EC8E4B",
"*. c #F68141",
"=. c #F98643",
"-. c #FF854C",
";. c #FC8C4B",
":. c #FE984A",
">. c #F48759",
",. c #F4885C",
"<. c #FD9753",
"1. c #FF9D54",
"2. c #D0A946",
"3. c #F7AA4D",
"4. c #E6816E",
"5. c #E48473",
"6. c #C9B47E",
"7. c #88D841",
"8. c #81CB59",
"9. c #B4D340",
"0. c #85E340",
"q. c #99C365",
"w. c #FFC446",
"e. c #FEDD44",
"r. c #FEDC50",
"t. c #FFE044",
"y. c #FFE34A",
"u. c #FFE957",
"i. c #F5E359",
"p. c #FFD868",
"a. c #FEE96E",
"s. c #FFF46E",
"d. c #FFEF70",
"f. c #E4F17B",
"g. c #FEF572",
"h. c #97748C",
"j. c #CA7998",
"k. c #189486",
"l. c #0D909E",
"z. c #169892",
"x. c #169A9D",
"c. c #259F83",
"v. c #1AAF9B",
"b. c #1BB597",
"n. c #1AB398",
"m. c #3CAD9F",
"M. c #0D95A6",
"N. c #0791AE",
"B. c #0A91AB",
"V. c #0696B7",
"C. c #0294BE",
"Z. c #0FB3AF",
"A. c #12B7AA",
"S. c #0FB5B0",
"D. c #33AABA",
"F. c #78948F",
"G. c #58A99E",
"H. c #73BD9C",
"J. c #65B2AF",
"K. c #31C38E",
"L. c #14CEA7",
"P. c #24D1B9",
"I. c #3CD5B1",
"U. c #42D6AF",
"Y. c #0093C4",
"T. c #0992C1",
"R. c #009BC5",
"E. c #00A4C7",
"W. c #00ACC9",
"Q. c #02B6C5",
"!. c #00BEC3",
"~. c #00B6CC",
"^. c #00BACA",
"/. c #01C3C7",
"(. c #00CBC5",
"). c #09CDC1",
"_. c #00C2C8",
"`. c #8F918B",
"'. c #9A9899",
"]. c #A68B87",
"[. c #B18F87",
"{. c #AB958A",
"}. c #BDA284",
"|. c #8B9EA6",
" X c #ADABA2",
".X c #ABB1A0",
"XX c #DC8E83",
"oX c #CB9485",
"OX c #D59787",
"+X c #DB9186",
"@X c #D88795",
"#X c #EE8A85",
"$X c #FA8787",
"%X c #E69989",
"&X c #E99D8C",
"*X c #F5978C",
"=X c #F39D8E",
"-X c #C7A287",
";X c #D2B794",
":X c #E6A58F",
">X c #EBA18E",
",X c #F2BD8A",
"<X c #EEA591",
"1X c #F2A792",
"2X c #83E09A",
/* pixels */
"K i i i i i r i r i r i i r w r r r 6 3 d d y _ _ _ ) 2 R R R R T r i i i i 8 3 3 3 3 7 y y y y y 0 d d 6 d d I ( ( W ( ",
"w i i i i i r y y y y y y u y y u t 6 3 d d q _ ) _ ) 2 R R R R T i i i i i h d 3 d 3 7 y y y y y 0 d d d d f B ) ) ) ) ",
"r i i i r w u y y y y y y y y y y y 6 d d d e ) ) ) ) 2 R R R R T i V r i i 7 3 d d 3 6 y y y y y 0 f d d d 3 Q ) ) ) ) ",
"i i i i w r u y y y y y y y y y y y d d d d 9 ) ) ) ) 2 R R R R T i w r i i h 3 d d 3 h y y y y l 0 d d d d d Q ) ) ) ) ",
"i i i i r m y y y y y y y y y y y y 7 d 3 d e ` ` ` ` 7.W W W W W n n n V m 7 d d d d 6 y y y y y 7 3 3 d 3 3 Q _ _ _ _ ",
"i i i i m r u y y y y t t y y t y V y y q q e 2.-.-.-.-.;.;.-.-.-.> & * v e 3 3 d d 3 h t t t t y 5 6 6 6 6 6 Q ( _ ( ( ",
"m i i i i r y y y y y d d d d d N ) ) ) _ _ Y X.-.-.;.-.-.-.-.-.-.> & * v y 6 3 d d d f d d 3 d d u P P P P I R R R R R ",
"m i i i i u y y y y y d d d d d N 0.) ) / 2.$.&.-.;.w.w.:.= = = = & & & $ # + d d d d f d d d d d r R R R R R R R R R T ",
"m i i i i u y y y y y d d d d d N ) ) ) / ;.-.-.-.:.e.e.:.& & & & & & & & & @ d 3 3 3 f d d d d d e R R T R R R R R R R ",
"m i i i i u y y y y y d d d d d N ) / 9.2.;.-.> > ;.r.y.3.~ ; = & & & & & & @ . . 4 3 f d d d 3 d r R R T T R R R R R R ",
"m r r r u u V y y y y 3 d d d d N ( $.-.;.;.-.- & > a.g.i.] ' : & & & & & & & & * . 3 3 d d 3 3 d r T T T T T T T T R R ",
"t t y t y y l y y y y d d d d d i R $.-.-.;.-.- & > a.g.i.] ' : & & & & & & & & & . 3 3 3 3 6 6 6 r P U P P P P U P U U ",
"t y y y y y y y y y y d d d d d p R $.-.<.p.p.<.= > a.g.i.] ' : & ; ^ ^ : & & & & . d d r r r r r i w w w w w w w w w w ",
"t y y y y y y y y y y d d d d d r R $.-.1.d.g.1.& > a.g.i.] ' : & ~ ] ' ; & & & * . d d r i i i i i i i i i i i w w i i ",
"t y y y y y y y y y y d d d d d r R $.-.1.g.g.3.=.:.a.g.i.[ [ ~ ; ~ ] ] ; & & & & . d d r i i i i i i i i i i i w i i i ",
"t y y y y y y y y y y d d d d d r R $.-.1.g.g.u.e.y.s.g.u.e.e.' ] ] ] ' *.& & & & . d d r i i r i i i i i i i i i i i i ",
"7 7 7 7 7 6 6 7 7 7 h h 0 0 h l 9 e #.;.1.g.g.u.t.y.s.g.u.e.e.{ w.] ] ] *.* & & & } w w 8 5 7 7 5 e u i i r r u u u V y ",
"3 d d d d 3 3 d d d 6 t y y y y 8 d %.;.-.1.1.1.:.:.1.1.<.=.=.; ; ; *.*.* & & & & ..T U 6 d 3 3 d 7 y y y y t d d d d d ",
"3 d d d d d d d d d d y y y V l h d %.-.-.-.-.-.-.-.-.-.- & & & & & & & & & & & & ..T U 6 d d d d h y y y y t 6 d d d d ",
"6 d d d d d d d d d d y y y y y 0 d %.-.-.>.>.>.>.,.,.,.1 < < < < , & & & & * #.#.W T U 3 d d d d 7 y y y y t 3 d d d d ",
"3 d d d d d d d d 3 3 t l y y l h d %.-.>.+XXX+X+X+X+X+XXX+X+X+X+X1 * & & & % Y Y T T U 6 3 d d d 8 y y t y l 3 d 3 d d ",
"3 d d d d 6 7 7 7 7 7 u u V V u t 7 %.-.>.XXoX+X+X+X+X+X+XXX+X+X+X4.& & & & % P U I P L 6 3 6 6 6 h t t t t t 7 7 7 7 7 ",
"d d d d d r U U U U U T U U U U K i n A b o o [.>X>X=X>X].o o OX>X%X5.4.- & % m m } # | y y y 9 y 8 d 6 3 3 6 L U U T P ",
"3 d d d d r T R R R R R R R R R K i m i y     ].1X1X1X1X`.  X -X1X>X+X+X< & % C m # & $ y y y y y h d d d d 6 U T R R T ",
"3 d 3 d d w T T T R R R R R R R K m r w V o O [.1X1X1X1X[.O O OX=X%XXXXX< & $ v v # & @ y y y y y h d d d d 6 P R R R R ",
"3 d 3 3 d p T T T T R R R R R R K r m r J #X$X=X1X1X1X1X*X$X$X$X$X#X+XXX< & & & = & & % u y y y y 8 d d d d 6 U T T R R ",
"d 3 3 a d p R R Y T T T R R R R K m V w Z $X$X*X1X1X1X1X*X$X$X$X$X#X+XOX< & & & & & & % y y y y y t 3 d d d 6 P Y T T T ",
"w w w w w M K K K K M K K K M K m r e y J &X1X@Xj.j.1X1X1X=X=X=X1X&X+X5. .A b b b b b Z y y y y y h d d d d 6 M K K K M ",
"U R R R T K p i i i i i i i i i u y y y J :X1X@Xj.j.>X1X1X1X1X1X<X:X+XOXZ i u y y y y y y y y y y 7 d d d d 6 r r m r m ",
"T R R R T L i i i i i i i i i i r y y y H }.}.].h.h.&X>X>X>X>X>X>XOX+.O.Z r u y y y y y y y y y y 7 d d d d d r m i m u ",
"U R R R R K i i i i i i i i i i u y y y t y d d a g oX+X+X+X+X+X+XO.i i i i r y y y y y y y y y y 7 d d d d 3 r i i i i ",
"U R R R R K i i i i i i i i i V u y y y S t d d d g oX+X+X+X+X+XOXO.i i i i r y y y y y l y y y u h d d d d 3 r i i i r ",
"L U U U U K r r e r r r r r r r u y v.S.Z.B.N.F.}.oX:X<X>X>X>X>X>XOX+.+.m.S.Z.M.M.c y y q y t t t 7 d d d d 6 u r i i r ",
"i w w w w 5 d 6 3 3 6 t e t y u y y Z.~.W.Y.T.|.1X1X1X1X1X1X1X1X1X>X+XOXD.~.W.Y.Y.c.y y d d d d d d d d d d d t y y y y ",
"p i i i i 5 d d d d 3 t y y y y y y S.~.~.R.R.J..X.X,X,X;X.X.X X X X'.|.D.W.E.Y.Y.c.y y d d d d d d d d d d 3 t y y y y ",
"i i i i i 5 d d d d 3 t y y y y y y Z.^.~.~.~._.).P.f.g.2X).(.^.~.Q.^.Q.Y.Y.Y.Y.Y.c.y y 3 d d d d d d d d d 3 t y y y y ",
"r i i i i 5 d d d d d t y y y y y y Z.^.Q.~.Q.^.(.P.f.g.H.).(.^.~.~.~.~.R.T.Y.Y.Y.c.y t 3 d d d d d d d d d d t y y y y ",
"r w w w w 5 d 6 d 3 3 y y y t y y q x c G. X XU.(.).I.U.P.(.(.^.~.W.R.T.F.'.`.c c l y t d d d d d 6 d d 6 d d y e y t y ",
"K K K K K i 5 5 5 5 5 7 7 h 7 7 7 7 7 5 D :X>XJ.(.(.(.(.(.(.(.^.~.W.Y.T.'.XX[.q 7 h 8 8 3 d d d d 7 0 h 7 0 8 7 8 h 8 8 ",
"R T R R R K i i i i i 6 d d d d 3 3 3 3 S :X1XH.L.L./.!.(.(.^.~.W.E.B.M.`.].o.F F g d d d d d d d h y y y y y d d d d d ",
"R T T T R K i i i i r 6 3 d d d d d d d S :X1Xq.R E V.Y.Y.Y.Y.Y.Y.l.d d d d S <X1XG d d d d d d d h u y y y t d d d d d ",
"R T T R R K i i i i r 3 d d d d d d d d S :X1Xq.R E V.Y.Y.Y.Y.Y.Y.M.d 3 d d S :X<XG d d d d d d d 8 y y y y t h d d d d ",
"R R R R R K i i i i r 3 d d d d 3 d o.6.{.F ! K.L.S./.!.~.W.W.Y.Y.C.N.B.s 3 S <X<XG 3 d 3 3 d d d h y l y y y d d d d d ",
"Y Y U U U K i i i i r 6 d d d d 3 7 +.<X-X8 I K.~.~.(.(._.~.~.R.Y.Y.Y.C.s 3 S <X<XG 3 3 3 3 3 3 6 0 u u p y u d 3 6 3 6 ",
"M m m m w w r i i i r 3 d d d d J 8.@.;X@.I m b.~.^.(.(._.~.~.Y.Y.Y.Y.C.x r D <X>XG d 3 e r r r i K P U U U L w r r r r ",
"m m i V i i i i i w r 3 d d d d -X1X8.Y R T i n.~.^.(.(._.~.~.R.Y.Y.Y.C.k r H >X>XG d 3 r r i i i K R R R T U w i i i i ",
"m i i i i i i i i i r 3 d d d d -X1X8.R R R m n.~.~.(.(._.~.~.R.Y.Y.Y.C.x w H <X1XG 3 3 r i i i i K R R R R U w i i i i ",
"m i i i i i i i i i r 3 d d d d J 8.Y R R R m A.~.~.(.(.^.~.~.R.Y.Y.Y.C.k V e F F g 3 3 r i r i i K R R R R U w i i i i ",
"w w i i i i i i w w r 3 3 d d d r T T T T T i n.~.^.(.(./.~.~.R.Y.Y.Y.C.x r 5 d d d d 3 r r w i i K T T T T U m i i i i ",
"u u u u r e r e u u u 3 d d d d e K K K K K i n.~.^.(.(._.~.~.E.R.Y.Y.Y.c.c j d d d d 3 M K K K K K K K K K K r y V u u ",
"y y y y y y y y y y y d d d d d 5 i i i i i i n.~.^.(.(._.~.~.~.~.W.Y.Y.Y.Y.N.d d d 3 6 U T T R T K w i i i i y y y y y ",
"u y y y y y y y y y y d d d d d 5 i i i i i i n.~.~.(.(._.~.~.~.~.W.Y.Y.Y.Y.N.a d 3 3 6 U T T R T K w i i i V e y y y y ",
"y y y y y y y y y y y d d d d d 5 i i i i i r n.~.^.(.(._.~.~.~.~.W.Y.Y.Y.Y.N.d d d d 3 T T T T T K i V i i i y y y y y ",
"y y y y y y y y y y t d d d d d 7 i i i i i w n.~.^.(.(._.~.~.^.~.W.Y.Y.Y.Y.N.d d d d 3 U T T T R K i m i i r y y y y y ",
"y y y y y t t t t t 0 3 d d d d 5 w i i r z z A._.^.(.(./.^.^.~.~.W.R.R.Y.Y.N.s s a 3 6 P T U U U M r r r r r y y y y y ",
"y y y y y 0 3 d 6 d d d d d d d 5 i i i z Q.Q./.(.(.(.(.(.(.(.^.~.~.~.~.R.Y.Y.Y.C.k.3 3 i m m m m i y u e y e y y y y y ",
"y y y y y l d d d d d d d d d d 5 i i i z Q.~./.(.(.(.(.(.(.(.!.~.~.~.~.R.Y.Y.Y.Y.k.3 3 r i i i w r t y y y y y y y y y ",
"y y y y u h d d d d d d d d d d 7 w i i z C.R.R.R.E.C.R.R.E.R.R.R.R.R.R.Y.Y.Y.Y.Y.C.N.l.r i i i i u y y y y y y y y y y ",
"y y y y y h d d d d d d d d d d 5 i i i z V.Y.Y.Y.Y.R.Y.Y.Y.Y.Y.Y.Y.Y.Y.Y.Y.Y.Y.Y.Y.Y.N.r i V r r u y y y y y y y y y y ",
"y y y y y 0 d d d d d d d d d d 5 i i i l z.x.x.x.x.x.x.x.x.x.x.x.l.l.B.l.l.l.l.l.l.l.z.r i r r m r y y y y y y y y y y "
};
