/* XPM */
static char *result[] = {
/* columns rows colors chars-per-pixel */
"60 60 209 2 ",
"   c #387279",
".  c #6C7F56",
"X  c #707E56",
"o  c #44747B",
"O  c #57787B",
"+  c #60797D",
"@  c #78797D",
"#  c #B57A4B",
"$  c #D57645",
"%  c #D37048",
"&  c #D87248",
"*  c #E56E46",
"=  c #FC6644",
"-  c #F46845",
";  c #FB6B44",
":  c #FB7645",
">  c #F97942",
",  c #FD7A4A",
"<  c #F46F53",
"1  c #EE775C",
"2  c #F37155",
"3  c #76E53F",
"4  c #248E5F",
"5  c #3C875C",
"6  c #2F9D57",
"7  c #26925D",
"8  c #2B965D",
"9  c #2E995D",
"0  c #309E57",
"q  c #33955D",
"w  c #319B5C",
"e  c #3FB34F",
"r  c #35A655",
"t  c #3BAD52",
"y  c #36A25E",
"u  c #3AA65F",
"i  c #3BAA59",
"p  c #3EB051",
"a  c #3AB058",
"s  c #1E8F6C",
"d  c #1C8D75",
"f  c #228C60",
"g  c #288F64",
"h  c #388D64",
"j  c #2A9362",
"k  c #2FA96B",
"l  c #39A661",
"z  c #35AD62",
"x  c #2FB16D",
"c  c #29A478",
"v  c #4D9F5C",
"b  c #529E5B",
"n  c #7D934F",
"m  c #6A9758",
"M  c #759256",
"N  c #40B34F",
"B  c #45BD4C",
"V  c #56BA4F",
"C  c #5ABC4D",
"Z  c #43AE51",
"A  c #4FAF53",
"S  c #45A65C",
"D  c #56A655",
"F  c #71A44F",
"G  c #64A95A",
"H  c #74AC54",
"J  c #4B9666",
"K  c #549768",
"L  c #429574",
"P  c #699C6C",
"I  c #669570",
"U  c #6B9572",
"Y  c #59A264",
"T  c #64A66A",
"R  c #4AC34A",
"E  c #4FCC49",
"W  c #51CF47",
"Q  c #57CC48",
"!  c #54D346",
"~  c #5AD645",
"^  c #57D844",
"/  c #58D945",
"(  c #48CA58",
")  c #61C34B",
"_  c #6FCE4B",
"`  c #6DE141",
"'  c #F1A23F",
"]  c #EDBD3D",
"[  c #A1DA3F",
"{  c #8DEE3C",
"}  c #9BED3C",
"|  c #97F23C",
" . c #98F13C",
".. c #ECC63D",
"X. c #EBCD3D",
"o. c #EED03E",
"O. c #859C4B",
"+. c #A08949",
"@. c #B68048",
"#. c #90AC45",
"$. c #92B245",
"%. c #B4AA48",
"&. c #9D8F79",
"*. c #989675",
"=. c #A19976",
"-. c #B8937E",
";. c #8BB169",
":. c #A9A67E",
">. c #B7B974",
",. c #C8914D",
"<. c #D59A4A",
"1. c #C38651",
"2. c #F68341",
"3. c #F58946",
"4. c #FF854C",
"5. c #FD8A4B",
"6. c #FD9748",
"7. c #F18D52",
"8. c #FF9752",
"9. c #FF9B53",
"0. c #FCAF4F",
"q. c #F18961",
"w. c #E48473",
"e. c #83C347",
"r. c #81CA59",
"t. c #85E340",
"y. c #A3C06A",
"u. c #FFCA45",
"i. c #FEDD44",
"p. c #FEDC52",
"a. c #FFE044",
"s. c #FFE34A",
"d. c #FAE658",
"f. c #DFF07C",
"g. c #FFE36C",
"h. c #FEE96E",
"j. c #FFF46E",
"k. c #FFEF70",
"l. c #F6F475",
"z. c #FFF672",
"x. c #8E7A86",
"c. c #BF6C9B",
"v. c #C77699",
"b. c #158F83",
"n. c #0D919E",
"m. c #189A91",
"M. c #259F83",
"N. c #19B29A",
"B. c #26AA8A",
"V. c #0B91A2",
"C. c #0791AF",
"Z. c #0A92AA",
"A. c #0F98A9",
"S. c #1296A0",
"D. c #0696B5",
"F. c #0996B1",
"G. c #0394BD",
"H. c #0AACAE",
"J. c #0FB3AE",
"K. c #13B5A5",
"L. c #09A9B7",
"P. c #09B5BA",
"I. c #34A9B4",
"U. c #76958F",
"Y. c #56B4B3",
"T. c #6FBDA2",
"R. c #1DD099",
"E. c #18CEAF",
"W. c #27D2B8",
"Q. c #0093C4",
"!. c #0992C1",
"~. c #009BC4",
"^. c #00A1C7",
"/. c #00ABC9",
"(. c #02B6C4",
"). c #00B9C4",
"_. c #00B6CC",
"`. c #00BACA",
"'. c #00C3C6",
"]. c #00CBC5",
"[. c #00C2C8",
"{. c #988D8A",
"}. c #86989F",
"|. c #A68E86",
" X c #AE9788",
".X c #B89385",
"XX c #BDA899",
"oX c #96ABA6",
"OX c #98B4A4",
"+X c #A5B6A0",
"@X c #D88E84",
"#X c #CC9785",
"$X c #D69687",
"%X c #DB9186",
"&X c #D68596",
"*X c #EE8985",
"=X c #FA8787",
"-X c #E69989",
";X c #E99F8D",
":X c #F5998D",
">X c #CBA288",
",X c #CFB18E",
"<X c #E6A58F",
"1X c #EDA28F",
"2X c #E8A98D",
"3X c #EEA591",
"4X c #F2A692",
"5X c #82E19A",
"6X c #F2C388",
/* pixels */
"R p p p p p t p p p t p t t t t t t 7 4 f f w  . . .| 3 ^ ^ ^ / / p p p p p q 7 7 4 7 8 u u u u l w g 7 7 f f C { t.t.t.",
"e p p p p p t u u u u u u i u i i u 7 f f f S }  . .| 3 ^ ^ / / ! p p p p p j f f f f 8 l u u u l w f f f f f Q | | | | ",
"t p p p t e i u l u u u u u u u u u 7 f 4 4 0 |  .| | 3 / / / / / p p e p p 8 f f f f 7 u u u l u w f f f f f ) | | | | ",
"p p p p e t i u u u u u u u u u u y 7 f g 4 0  .| | | 3 / ^ / / ! p p t p p 8 f f f f j u u u u l w f f f f f ) | | | | ",
"t N t e t N u u u u u u u l u l u u 7 f f f 0  .| {  .3 / ^ ^ ^ ! p p Z p p j f f f f 7 l u u u u 9 4 4 f 4 f ) | | | | ",
"N t e t N t i u u u u l u y y y i S y w w w r 3 3 3 3 Q R B B B B i r i r i j f f f f j y y y y y w 7 7 8 7 4 Q { { { { ",
"N t Z e p i u u u l l 4 f f f f V | | |  .| / / ! ^ / E p p p p t u u l u u 8 f f f f g 4 4 f 4 4 r W W W W Q ~ / ` / ~ ",
"N N t p p t u u u u y 4 f f f f V | | |  . ./ _ $._ e.H F F F F F m m M S u 8 f f f f j f f f f f t / / / / / ~ / / / ^ ",
"N N t N t i u u u u u 4 f f f f V | |  . . .~ %.3.4.4.4.4.4.4.4.4., = - m u q f f f 4 f f f f f f t ^ ^ ^ / / / ^ / / / ",
"N t t Z e i u u u u u 4 f f f f V | |  . . ._ %.4.4.5.5.4.4.4.4.4.: = - M S 4 f f f f j f f f f f t / / ^ ^ / / / / / / ",
"p t t t p i u u u u y 4 f f f f V { | { [ <.<.7.4.5.u.u.6.; ; ; ; = = = * % # f f f f 4 f f f f f t / / ^ ^ ^ ^ ^ ^ / ^ ",
"y u u l u u l u l u u 4 f f f f t ^ / / e.5.4.4.4.6.i.i.0.= = = = = = = = = % f f f f 4 7 7 7 7 7 t W W ! W W W ! W ! ! ",
"u u u u u u u u u u u 4 f f f f t ^ _ $.%.3.4., , 5.p.d.0.3.2.> = = = = = = * X . 5 f 4 t t t t t t e e e e e e e e e e ",
"y u l u u u u l u u u f f f f f t ^ <.5.4.4.4.: ; > h.j.s.X...> = = = = = = = = = X f 4 t t p p p e p p p p p p p p p p ",
"l u u u l u u u u l u 4 f f f f t ^ <.5.4.4.4.: = , h.j.d.X...> = = = = = = = = - X f 4 t e t e p e p p p p p p p p p e ",
"y u u u u u u u u u y 4 f f f f e ^ <.4.8.g.g.9.= , g.l.d.X...> = 2.] ] > = = = = X 4 4 t t e e p t p p p p p p p p p t ",
"7 j 9 7 7 7 8 7 8 8 9 9 9 w w w 0 r ,.4.9.z.z.9.; , h.z.d.X.X.> - 2.X.X.2.= = = = O.N e 8 6 8 8 6 r t p t t t i i i i i ",
"7 f f f 7 f f f f f f y l u l u 9 f 1.4.9.k.z.0.6.9.h.z.d.o.X.6.3.' X.X.2.= = = = $.^ ! 7 f f f f j l u u l l 7 f f f f ",
"7 f f f f f f f f f f y l u u z 9 f 1.4.9.z.z.d.a.s.j.z.d.a.a.X.X.X.X...2.= = = = $.^ ! 7 f f f f j u u u l y f f f f f ",
"7 f f f f f f f f f 7 u u u u u 9 4 1.4.9.j.z.d.a.s.j.z.d.a.a.X.X.X.X...2.= = = = $./ ! 7 f f f f 9 u u u u y 4 f f f f ",
"7 f f f f f f 7 f 4 4 y l u u u 9 f 1.4.5.8.8.6.6.6.8.8.6., > > > > > > ; = = = = $.^ ! 7 f 4 f f j u u y u l 7 f 4 f f ",
"f f f f f 7 7 8 8 8 8 i a S a S 9 7 1.4.4.4.4.4.4.4.5.4., = = = = = = = = = = = = #.W E 7 7 g 7 7 9 y u y y y 7 9 8 8 8 ",
"f f f f f a ! ! ! ! ! ! ! ! ! ~ R p ,.4.4.q.q.q.q.q.q.q.1 1 1 1 2 < = = = = * # @.F e e r y u y l 9 4 4 4 f 7 E ! ! ! ! ",
"7 f f f f p / / / / / / / / / / R p ,.4.q.%X%X%X%X%X%X%X%X%X%X%X-Xw.= = = = $ Z e t t t y u u u l 8 f f f f 7 ! ^ ^ ^ ^ ",
"f f f f f a ^ ^ / / / / / / / / R p ,.3.q.@X@X@X%X%X%X%X@X@X@X@X@Xw.= - = = $ p N Z Z A u u u u u 8 f f f f 7 ! / / / / ",
"f f f f f a ^ ^ / / / / / / / / R p D G b O O |.3X3X;X3X|.O + #X3X-Xw.w.2 = $ Z Z +.& @.u u u u u j f f f f 7 ! / / / / ",
"f f f j f p ^ ^ / / / / / / / / R N t Z w     |.4X4X4X4X{.  o >X3X3X$Xw.2 = & Z Z @.= & i u u u u j 7 f f f 7 ! / / / ! ",
"e e e e e R R R B R B R R B R B N t i t v @ @ .X4X4X4X4X X@ x.%X:X-X$X*X2 = * n n $ = & u u z u u 9 f f f f 4 B B R R R ",
"^ / / / ^ R e a p p p p p p p p t l u u T *X=X:X4X4X4X4X:X=X=X=X=X*X%X%X< = = = = = = % l u u u u j f f f f f t Z p p p ",
"! / / / ^ R p p p p p p p p p p t l l u P *X=X:X4X4X4X4X:X=X=X=X=X*X%X%X2 = = = = = = % u u u u u 9 f f f f 4 t N t p p ",
"! / / / / R p p p p p t p p Z p t u u u T 3X4X&Xc.v.3X4X4X:X1X1X4X-X%X$Xm D D b b b b S u u u u u 9 f f f f 7 t t N t p ",
"! / / / / R p p p p p p p p t Z i u u u T 3X4X&Xc.v.4X4X4X4X4X4X4X;X%X%XG N S u u u u u u u u u u j f f f 4 7 r N t N p ",
"W ^ ! ! ! R r r t t r t t t t t t l l l Y :. X{.# x.<X<X;X;X;X;X;X#X=.*.D t i u u u u u y y y y w 8 f f f f 4 t t t t t ",
"a e e p e 0 7 7 4 4 7 y i u u u u l u u u u f f d d #X@X%X%X%X%X%X=.u l u i u l u l l y 4 f f f f f f f f f 4 y u i u u ",
"p p p p p 6 f f f f f y u u u u l l l l l l g g g h #X@X%X%X%X%X%X=.S l S u l l l l l y 4 f f f f f f f f f f y u u u u ",
"t p p p e 0 f f f f f r u u u u l l N.P.L.F.C.U.>X#X;X;X3X3X3X3X1X<X-..XI.P.L.D.A.c l l 4 f f f f f f f f f j y u u u u ",
"t p p p p 0 f f f f 4 y u u u u S l J._./.Q.!.oX4X4X2X4X4X4X4X4X4X<X%X$XI.`./.Q.Q.M.l y 4 f f f f f f f f f f y u u u l ",
"t p e e e 0 f f 4 f 4 y u u u u w l J._._.^.~.Y.OX+X6X6X,XOXOXOXoXoX}.}.I./.^.Q.Q.M.y y 4 f f f f f 4 f 4 f 4 l y u u l ",
"R R R R R p 0 0 0 0 0 9 8 8 8 8 8 8 L._._._._.[.].W.6Xl.5X].].[._._._._.~.Q.Q.Q.Q.M.8 8 4 f f f f 8 w 8 8 w 8 8 q 8 9 8 ",
"/ ^ / / ^ R p p p t t 4 f f f 4 4 g H._._._._.].].W.f.l.5X].].]._._._._.~.Q.!.Q.Q.d f f f f f f f 8 l l u l y 4 f f f f ",
"/ / / / / R p p t N t 4 4 f f f f f s d c ,XXXY.].].W.W.E.].].`._./.Q.!.}. X{.d d f f f f f f f f 9 l u l u l 4 f f f f ",
"/ / / / / R p p N t t 4 f f f f f f f f K <X4XT.].].].].].].].`._./.Q.!.{.%X-.f f f f f f f f f 4 j y u u u y 4 f f f f ",
"/ / / / / R p p Z p t 7 f f f f f f f f K <X3XT.R.R.`.).`._._././.L.V.n.U.&.*.I I h f f f f f f f 9 u l u l l 7 f f f f ",
"~ ~ ! ! ! R p p p p t 4 f f f f 7 7 7 7 K ;X3X;.~ ( D.Q.Q.Q.Q.Q.Q.V.4 4 g f J 3X3XU f f 4 4 4 4 4 y i u i a u 7 4 4 7 4 ",
"B e N N e e t p p p t f f f f f t ! W W _ 4X4X;.N z D.Q.~.Q.Q.Q.Q.m.i t t t K 3X1XU f 4 r t t t t R ! ! ! ! W e t t t t ",
"N Z t e p p p p p e t 7 f f f f t / >.2X,X_ A B.P.P.'.].`././.~.Q.Q.D.F.k p Y 3X4XI f 4 t p p p p R / / / / ! N e t e t ",
"N t e t p p p p t e t 4 f f f f t / ,X4X,X~ p N._.`.].].[._./.~.Q.Q.Q.G.k p Y 3X3XU 4 4 t p p p p R / / / / ! N e t t e ",
"N N t N p e t p p p t 4 f f f f ;.y.y.>.y.~ p K._._.].].[._._.~.Q.Q.Q.Q.c N K 4X4XU 4 4 t p p p p R / / / / ! N t e e t ",
"N p t t Z p p p p p t 4 f f f f >X4Xr./ / / a J._.`.].].[._._.~.Q.Q.Q.Q.M.t Y 3X3XU f 4 t p p p p R ^ ^ ^ ^ ! N p p p p ",
"t t t i i i r t i t r 7 f f f f >X3XH R E R p J._._.].].[._._.^.~.~.Q.Q.m.c L <X;XU f 4 B R R R R R R R R R B t i t t i ",
"l u u u u u u u u u y g f f f f J G N p p p a J._.`.].].[._._._._./.Q.Q.Q.Q.F.J J g 4 7 ! / / / / R e p p Z p r u u l S ",
"u u u u u u u u u u y f f f f f 6 e p p p p p J._.`.].].[._._._._./.Q.Q.Q.Q.D.f f f 4 7 ! / / / / R p p p t Z i u l u l ",
"u u u u u u u u u u y 7 f f f f 6 p p p p p p K._.`.].].[._._._././.Q.Q.Q.Q.C.f f f f 4 ! / / / / R p p p p t u u l u l ",
"u l u u u u u u l y u f f f f f 6 p p p p p p N._.`.].].[._.`.`._./.Q.Q.Q.Q.C.f f f f 4 ! / / / / R p p p p p u u u i l ",
"i u u u l y y y y y y 4 f f f f 6 t p p a x x K.`.[.].].'.`.`.`._./.~.~.Q.Q.G.d d s 4 7 W ! ! ! ! B t Z t p t u u u u u ",
"u u u l u w f 4 4 f 4 4 f f f f 6 p p p x (.`.].].].].].].].].`._._._._.~.Q.Q.Q.G.b.4 4 e N N N N t r u y r u u u u l u ",
"u u u l u 9 f f f f f f f f f f 6 p p p x (.`.[.].].].].].].].`._._._._.~.Q.Q.Q.Q.b.f 4 t p p p N i u u u u u u u u l u ",
"u u u u u j f f f f f f f f f f 6 t p p x G.~.~.~.^.~.^.G.^.^.~.~.~.~.~.Q.Q.Q.Q.Q.D.C.V.t p p p p t u l u u l u u u u u ",
"u u u u u 9 4 4 f f f f f f f f 6 p p p k Q.Q.Q.Q.Q.Q.Q.Q.Q.Q.Q.Q.Q.Q.Q.Q.Q.Q.Q.Q.Q.Q.C.t p p p t i u u l u u u u u u u ",
"u l u u l 9 f g f f f f f f f f 6 p p p z S.A.A.A.A.A.A.A.A.A.A.Z.Z.C.F.Z.Z.Z.Z.Z.Z.Z.n.t t p p Z t u u u u u l u l u u "
};
