/* XPM */
static char *result[] = {
/* columns rows colors chars-per-pixel */
"60 60 212 2 ",
"   c #387279",
".  c #707E56",
"X  c #44747B",
"o  c #68797C",
"O  c #74797E",
"+  c #BE704B",
"@  c #CF6E49",
"#  c #C97947",
"$  c #D87645",
"%  c #FC6644",
"&  c #F56B47",
"*  c #FB6D45",
"=  c #FD7347",
"-  c #F77D42",
";  c #F87A42",
":  c #FD7B4A",
">  c #F27256",
",  c #F37D59",
"<  c #76E53F",
"1  c #248E5F",
"2  c #298B5E",
"3  c #2F9D57",
"4  c #26925D",
"5  c #2B965D",
"6  c #2E995D",
"7  c #309E57",
"8  c #30975F",
"9  c #329B5C",
"0  c #3FB34F",
"q  c #35A655",
"w  c #3BAD53",
"e  c #36A25E",
"r  c #3AA65F",
"t  c #3CAA59",
"y  c #3EB051",
"u  c #1D8D6E",
"i  c #1A9278",
"p  c #228C60",
"a  c #2C8F63",
"s  c #328E64",
"d  c #2A9362",
"f  c #219D77",
"g  c #2EA96E",
"h  c #39A660",
"j  c #34A368",
"k  c #3ABA64",
"l  c #2DA770",
"z  c #2CA975",
"x  c #2AA37A",
"c  c #478A5C",
"v  c #54875A",
"b  c #76974D",
"n  c #618A5A",
"m  c #669A54",
"M  c #6E9B59",
"N  c #5BA94F",
"B  c #40B34F",
"V  c #45BD4C",
"C  c #56BA4F",
"Z  c #5ABC4D",
"A  c #46AC55",
"S  c #56AB54",
"D  c #6AA756",
"F  c #4D916A",
"G  c #54926C",
"H  c #59936C",
"J  c #559969",
"K  c #76946F",
"L  c #6C9572",
"P  c #59A667",
"I  c #65A767",
"U  c #3DC168",
"Y  c #4AC24A",
"T  c #4FCC49",
"R  c #51CF47",
"E  c #56CB49",
"W  c #54D346",
"Q  c #59D645",
"!  c #57D844",
"~  c #58D945",
"^  c #6ECE45",
"/  c #61C34B",
"(  c #63D54A",
")  c #7ACB56",
"_  c #45C960",
"`  c #B4BD3F",
"'  c #F29B3F",
"]  c #EEB33E",
"[  c #B4C93E",
"{  c #A4DF3C",
"}  c #8EEE3C",
"|  c #9AEE3C",
" . c #97F23C",
".. c #98F03C",
"X. c #A3E23D",
"o. c #ECC63D",
"O. c #EBCD3D",
"+. c #F0CF3F",
"@. c #8D8A51",
"#. c #B08E4D",
"$. c #8CB444",
"%. c #93B343",
"&. c #988E78",
"*. c #99977B",
"=. c #A98F7B",
"-. c #A7947D",
";. c #B9A276",
":. c #CA8744",
">. c #CE9049",
",. c #D29B4A",
"<. c #C38651",
"1. c #CA8D51",
"2. c #E78648",
"3. c #F68141",
"4. c #FF854C",
"5. c #FA8848",
"6. c #FE984A",
"7. c #F6875A",
"8. c #F4885B",
"9. c #FD9753",
"0. c #FF9D54",
"q. c #FCAC4F",
"w. c #E6816E",
"e. c #E48473",
"r. c #88D841",
"t. c #85E340",
"y. c #8EC561",
"u. c #FFC446",
"i. c #FEDD44",
"p. c #FEDC50",
"a. c #FFE044",
"s. c #FFE34A",
"d. c #FFE957",
"f. c #F5E359",
"g. c #FFD868",
"h. c #FEE96E",
"j. c #FFEF70",
"k. c #E4F17B",
"l. c #FEF572",
"z. c #9E7D88",
"x. c #BF6C9B",
"c. c #CA7998",
"v. c #0D909E",
"b. c #139291",
"n. c #129395",
"m. c #169B9B",
"M. c #259F83",
"N. c #17A393",
"B. c #18AF9D",
"V. c #19B397",
"C. c #19B298",
"Z. c #22A896",
"A. c #0A91A5",
"S. c #0D98AB",
"D. c #109AA7",
"F. c #0797B8",
"G. c #0293BE",
"H. c #17A4A4",
"J. c #0CB6AE",
"K. c #11B3AB",
"L. c #09ADB5",
"P. c #0EB0B0",
"I. c #33A8B2",
"U. c #60A79B",
"Y. c #67B2AA",
"T. c #24D1B9",
"R. c #3CD5B1",
"E. c #42D6AF",
"W. c #0093C4",
"Q. c #0992C1",
"!. c #009BC5",
"~. c #00A4C7",
"^. c #00ACC9",
"/. c #01B5C6",
"(. c #00BEC3",
"). c #00B6CC",
"_. c #00BACA",
"`. c #01C3C7",
"'. c #00CBC5",
"]. c #09CDC1",
"[. c #00C2C8",
"{. c #8F918B",
"}. c #9A9899",
"|. c #A78A87",
" X c #B18F87",
".X c #AC9782",
"XX c #B1968B",
"oX c #8CA382",
"OX c #B2A893",
"+X c #8B9EA6",
"@X c #ADABA2",
"#X c #ABB1A0",
"$X c #DC8E83",
"%X c #CD9785",
"&X c #D49587",
"*X c #DB9186",
"=X c #D88795",
"-X c #EE8A85",
";X c #FA8787",
":X c #E69A89",
">X c #E99D8C",
",X c #F5978C",
"<X c #F39D8E",
"1X c #C5A584",
"2X c #D2B794",
"3X c #E6A68F",
"4X c #EBA18E",
"5X c #F2BD8A",
"6X c #EEA591",
"7X c #EEA890",
"8X c #F2A792",
"9X c #83E09A",
/* pixels */
"Y y y y y y w w B w w w y w B w w w 4 1 p p 9 .. . . .< ~ ~ ~ ~ ! y y y y y 6 2 4 4 1 5 r r r r r 9 4 p 4 p d Z } } < t.",
"0 y y y y y t t r r t r e t r r t e 1 1 p p q |  . . .< ~ ~ ~ ~ ! w y y y y d p p p p 5 r h h r h 9 p p p p p E  . .| | ",
"w y y y y y t r r r r r r r r r r r 4 p 1 1 q .. . . .< ~ ~ ~ ~ ! y y y y y 4 p p p p 5 r r r r h d p p p p p /  . . . .",
"y y y y y y t r r r h r r r r r r r a p 1 2 9 .. . . .< ~ ~ ~ ~ ! w y y y y 5 p p p p p r h r r h 9 p p p p p /  . . . .",
"y y y y y y q r h r r h r r r h r r d 1 p p q | { { X.r.^ ^ ^ ^ ^ S N S S w d 1 p p p d r r r h r 9 1 1 p 1 1 Z  . . . .",
"y y y y y y t r r r r r e h e e h A 9 9 6 9 0 %.& % : 4.4.4.4.4.4.4.5.4.#.t 4 1 p p p d e e e e e 9 4 4 4 5 5 / }  .} } ",
"B y y y y t r r h r e 1 p p p p C  . . .....~ $.% % : 4.4.4.4.4.4.4.4.4.#.h s a p p p d 1 1 1 1 1 q R R R W R ! ( ~ ~ ~ ",
"B y y y y t r r r r h p p p p p C  . . ...,.:.$ % % % * = * = 6.u.u.9.4.2.1.#.c p p p d p p p p 1 t ~ ~ ~ ! ! ! ~ ~ ~ ! ",
"B y y y y t r r r r r 1 p p p p Z  . . ...$ % % % % % % % % % ' a.i.6.4.4.4.2.v p p p p p p p p p q ~ ~ ! ~ ~ ~ ~ ~ ~ ~ ",
"B y y y y t r r r r r 1 p p p p Z  .X.[ [ - % % % % % % * ' - q.s.p.4.: : 4.7.@.n v p a p p p p p w ~ ~ ! ! ~ ~ ~ ~ ~ ~ ",
"B w w w A t r r r r h 1 p p p p C } ` % % % % % % % % % ; o.O.f.l.h.: % = 4.4.4.4.<.p 1 p p 1 p 1 q ~ ~ ! ! ! ! ! ! ~ ~ ",
"e r e e r r r r r r h 1 p p p p w ! %.% % % % % % % % % ; o.O.f.l.h.: % = 4.4.4.4.<.1 1 4 4 4 4 4 w W R R W R W W R W W ",
"e r r r r r r r h r h 1 p p p p w ! $.% % % % ; ] ] 3.% ; o.O.f.l.h.: % 9.g.g.9.4.<.p 1 w w w w w 0 0 0 0 0 0 0 0 0 0 0 ",
"e r r r r r r r r r e 1 p p p p w ! %.% % % % 3.O.O.5.% ; o.O.f.l.h.: % 0.l.l.0.4.<.p 4 w y w y 0 0 0 w w 0 y y y y y y ",
"e h r h r r r r h r e p p p p p w ! %.% % % % 3.O.O.' - ' O.+.d.l.h.6.5.q.l.j.0.4.<.p p w y y y w 0 w 0 y y y 0 y y y y ",
"e r r r r r r r r r h 1 p p p p w ! $.% % % % 3.O.O.O.o.+.i.a.d.l.j.s.s.d.l.j.0.4.<.p 4 w y y w w 0 0 w y y y w y y y y ",
"5 4 5 5 5 5 4 4 5 5 5 6 9 9 9 9 7 q b % % % % ' ] O.u.O.O.a.a.d.l.l.s.a.d.l.l.0.4.>.V y 3 5 3 5 6 q w B w w w t t t t t ",
"4 1 u p p p 4 p p p p e h h h h 6 1 . % % % % % - - - - 3.3.3.9.0.0.6.6.0.0.0.4.4.,.~ W 1 p 1 1 p 8 h h h h e 1 p p p p ",
"1 1 p p p p p p p p 4 h h h h h 5 p . % % % % % % % % % % % % = 4.4.4.4.4.4.4.4.4.,.~ W 4 p p p p 5 r r r r e 1 p p p p ",
"1 1 p p p p p 1 p p p r h h h h 5 1 v + + & % % % % & > > > > , 8.8.8.8.8.8.8.4.4.,.~ W 4 p p p p d r h r r r 1 p p p p ",
"1 p p p p p p 1 p 1 1 e h h h h 5 1 1 1 2 @ % % % % w.$X*X*X*X*X*X*X*X*X$X$X$X, 4.,.Q R 4 1 1 p p d r r r r e 4 p 1 1 1 ",
"1 p p p p 4 4 5 5 5 5 t A t t t e 2 2 2 2 @ % % % % w.*X&X$X&X$X*X*X*X*X*X&X$X8.7.,.W T 4 1 1 a 4 9 e e e 7 9 5 5 5 4 5 ",
"1 p p p 1 0 W W W W W W W Q Q Q #.# @.B w @ % & e.e.:X4X&XO o |.6X>X4X4X Xo o M D N B y e e r e r d 1 1 1 1 5 T W W W W ",
"1 p p p u y ~ ~ ! ~ ! ! ~ ~ Q ~ :.% #.B B $ % & $X*X4X8X%XX   {.8X6X6X6X|.    A B y B A w e r h r 6 p p 1 u 4 W ! ~ ! ! ",
"1 1 p p p w ! ! ~ ~ ~ ~ ~ ~ ~ ~ :.% # b b @ % > $X*X>X<X*XO o  X8X8X8X8XXXO o A w B B w r r r r r 6 p p p p 5 R ~ ~ ~ ! ",
"1 p p p p y ~ ~ ~ ~ ~ ~ ~ ~ ~ ~ :.% % % % % % > *X*X-X;X;X;X;X,X8X8X8X8X,X;X-XD B w B w r h r r r d p p p p 5 R ~ ~ ~ ~ ",
"1 1 p p p 0 ~ ~ Q ~ ~ ~ ~ ~ ~ ~ :.% % % % % & > $X*X-X;X;X;X;X,X8X8X8X8X,X;X-XI w B B w t r r h r d 4 p 1 1 4 R Q ~ ~ ~ ",
"0 0 0 0 0 0 Y Y Y Y V V Y V Y V N m m m m m . K &X$X>X<X<X<X<X8X8X8Xc.c.=X<X>XI w r t t r r r r r 6 p p p u 4 V Y Y V Y ",
"W ! ~ ~ ~ Y y y B w B w y y y y q r r r r r 1 G &X*X>X8X8X8X8X8X6X6Xc.x.=X8X6XI h r r h h r r h t 5 p p p p 1 w y y y y ",
"W ~ ~ ! ~ T y y w y w B y y y y w e r r r r 1 c =. X&X6X4X6X4X4X4X:Xz.z..X1X.XP h h r r r r r r r 4 p p p p 1 w y y y y ",
"W ~ ~ ~ W Y y y y y y y y y y y w r r r r r 1 p 1 p &.*X*X*X*X*X*X%XS y B B t e h r r r h r r r r 5 p p p p 4 w w y w B ",
"W ~ ! ! ! T y y y y y y y y w A w r r r r e p p p p &.*X*X*X*X*X*X%XS A w B A r r r r h r r r r r 6 p p p p p w w A B B ",
"W W W W W Y q q w w q w w w w w w e x S.S.P.L.I.=.=.&X6X4X4X4X4X4X4X1X1XU.m.D.P.P.H.h r 9 e e e e 5 p p p p 1 w w w w w ",
"y y 0 0 0 7 4 4 1 1 1 q t r r t r r M.Q.W.^.).I.&X*X>X8X8X8X8X8X8X8X8X8X+XW.Q.^.).K.h h a p p 2 p p p p p p 1 e e r r t ",
"t y y y y 3 p p p p 1 e r r r r r r M.W.W.~.^.I.}.}.@X@X@X#X#X2X5X5X#X#XY.W.!.).).J.h h 1 p p p p p p p p p 1 e r r r r ",
"y y y y y 3 p p p p 1 e r r r r r r M.W.W.W.W.!.).).).).(.'.].9Xl.k.T.].`.).).)._.P.h h p p p p p p p p p p 1 h r r r r ",
"w y y y y 3 p p p p 1 e r r r r h r M.Q.W.W.Q.Q.).).).)._.'.'.9Xl.k.T.'.'./.(./.).P.h r 1 p p p p p p p p p 1 h r r h r ",
"w y 0 t y 3 p p 1 1 p r r r h r h h j x M.{.|.U.Q.!.^.).).'.'.T.E.R.].'.E.@XOXU.z l r e 1 p p p p p 1 p 1 1 p h r e e h ",
"T Y T T Y 0 3 7 3 3 7 5 5 5 5 5 6 5 5 5 8  X&X}.Q.W.^.)._.'.'.'.'.'.'.'.Y.8X4XJ d 6 5 5 1 p p p p 2 6 6 5 5 5 5 5 6 5 8 ",
"! ~ W ~ ! Y y y y w w 1 p p p p p p s G H -.;.oXH.H.L.^.)._._.`.`.L.].J.Y.<X3XG p p p p p p p p p 8 h r h h h 4 p p p p ",
"~ ~ ~ ~ ~ Y w B y y w 1 1 p p p p p L 6X6XF W ! ~ ~ Z.W.W.W.W.W.G.G.u 1 K 7X3XG p p p p p p p p p 6 h r h r e p p p p p ",
"~ ~ ~ ~ ~ Y B w y y w 1 1 p p p p p L 6X6XF ! ! ~ ~ C.W.W.W.W.W.W.F.u u K 7X3XG p p p p p p p p p 6 h r r r e 1 p p p 1 ",
"( ~ ~ ~ ~ Y w B y y w 4 p p p p p p L 6X6XF ! _ H.H.Q.W.W.^.^.).(.(.L.L.Z.G G .X1X*.d p 1 1 p p p d r r h h h 4 p p 1 1 ",
"! ! W W W Y B w y y w 1 p p p p 4 5 L 6X6XF R U W.W.W.W.!.).).[.'.'._._.H.p 4 %X8XXX4 1 1 1 1 1 4 9 t r t t r 5 1 1 1 1 ",
"V B B B B B y B 0 w w 1 p p p p q W y.7X6X) B g W.W.W.W.!.).).[.'.'.).).V.q 9 *.OX-.H H w w w w w Y W W W W R y q w w w ",
"B B B w w y y w 0 0 w 1 p p p p y ! y.7X6X) B l G.W.W.W.W.).).[.'.'.(.).V.y 7 1 1 H 8X8XA w 0 w y Y ! ~ ! ! W B B w y y ",
"B B w B y y y y w y w 1 p p p p y ! y.7X3X) B l W.W.W.W.!.).).[.'.'.).).V.y 3 1 1 H 8X8XA y y y y Y ~ ~ Q ~ Q B B w y y ",
"B w B w y 0 w y y y w 1 p p p p y ~ ( ) y.~ y g G.W.W.W.!.).).[.'.'._.).V.y 5 1 1 s H H w y y y y Y ~ ~ ~ ~ W B w B w y ",
"B w A w y y y y y y w 1 1 1 p p w ! ! ! ! ! B l W.W.W.W.!.).).[.'.'._.).C.w 6 1 p p p 1 w w 0 0 y Y ! ! ! ! Q 0 w w w w ",
"w w t w q t w q t t q 1 1 1 p p q V Y Y Y k l M.W.W.W.!.!.).).[.'.'._._.C.t 5 1 p p p 1 Y Y Y Y Y Y Y Y Y Y V w t A w w ",
"h r h r r r r r r r r p p p p p 3 0 w 0 t S.W.W.W.W.^.).).).).[.'.'.).).B.h 5 1 p p p 4 W ! ! ! ! Y 0 y w B y q h r h h ",
"r r r r r r r r h r r 1 p p p p 3 w 0 w y S.W.W.W.W.^.).).).).[.'.'.).).B.h 5 1 p p p 4 W ! ! ! ! Y 0 y B w B r h h h h ",
"r r r r r r r r h r r 1 p p p p 3 y y y y S.W.W.W.W.^.).).).).[.'.'._.).B.h 5 p p p p 4 ! ~ ! ! ! Y y y w w w r r h A h ",
"r r h r r r r h r r e p p p p p 3 y y y y S.W.W.W.W.^.).).)._.[.'.'._._.B.h d p p p p 4 W ! ! ! ! Y y y B B A r r r h h ",
"r r r h h h e e e e e 1 p p p p 3 y t g g F.W.W.!.!.^.)._._._.'.'.'.[._.K.x f p p p 1 4 R ! W W W V w y w w w t r h h h ",
"r r r h e 9 1 1 1 1 p 1 p p p p 3 y x W.W.W.W.!.).).).)._.'.'.'.'.'.'.'.`._._.i p p p 1 0 0 0 0 B w e t e t e e r r r h ",
"r r r r r d 4 p p p p p p p p p 6 y x W.W.W.W.!.).).).)._.'.'.'.'.'.'.'.`._./.i 1 p p 4 w y y y B w e r r r r r r h r r ",
"r r r r r d p p p p p p p p p p n.S.F.W.W.W.W.W.!.!.!.!.W.!.!.!.!.!.!.~.!.W.G.i p p p 1 w y y y B t r r r r r h r r h r ",
"r r r r h 9 p p p p p p p p p p A.W.W.W.W.W.W.G.W.W.W.W.W.W.W.W.W.W.W.W.W.W.G.i 1 1 p 4 w y y y B t r r r r r r h h A h ",
"r r r r h 9 p p p p p p p p p p b.m.m.N.N.m.m.m.m.m.m.m.m.D.m.m.m.v.v.v.v.v.v.u p 1 u 1 w y y w w t r r r r r r h h h h "
};
