/* XPM */
static char *ea28bf5be39a4460ed28d2d4e1aac35dt5Q9bkWzVvHxTeke[] = {
/* columns rows colors chars-per-pixel */
"60 60 138 2 ",
"   c None",
".  c #37717A",
"X  c #3C737B",
"o  c #4B747B",
"O  c #50767C",
"+  c #6F777D",
"@  c #71777D",
"#  c #74787E",
"$  c #FC6644",
"%  c #FB6B44",
"&  c #F66D4E",
"*  c #F96949",
"=  c #FC7346",
"-  c #F87B43",
";  c #FC7348",
":  c #FD7C49",
">  c #F46F52",
",  c #E97C66",
"<  c #E87E69",
"1  c #F19C3F",
"2  c #EFAE3E",
"3  c #EFB43E",
"4  c #EEBB3E",
"5  c #EBCD3E",
"6  c #ECC53D",
"7  c #F3C83F",
"8  c #ECD03F",
"9  c #F3D53F",
"0  c #F58B40",
"q  c #FF854C",
"w  c #FE8C4C",
"e  c #F49440",
"r  c #F98654",
"t  c #F3875A",
"y  c #FF9250",
"u  c #FF9A53",
"i  c #FDB046",
"p  c #F4B940",
"a  c #FFBA46",
"s  c #FFA256",
"d  c #FDAB5A",
"f  c #FFB75D",
"g  c #FFBA5E",
"h  c #DF8B7E",
"j  c #E7806C",
"k  c #EA8B6D",
"l  c #E48372",
"z  c #FEC345",
"x  c #FFCC45",
"c  c #FECB4A",
"v  c #FCDD43",
"b  c #FFD056",
"n  c #FED35F",
"m  c #FEDC5A",
"M  c #FFE044",
"N  c #FFE34A",
"B  c #FFE95A",
"V  c #FFD664",
"C  c #FED867",
"Z  c #FEDA69",
"A  c #FAEC64",
"S  c #FEEC69",
"D  c #FFF169",
"F  c #FBE47A",
"G  c #E2F17B",
"H  c #FFF472",
"J  c #BF6C9B",
"K  c #CF7E97",
"L  c #C3719A",
"P  c #1793BD",
"I  c #23A7BE",
"U  c #33AEBB",
"Y  c #37B2BD",
"T  c #38B3BE",
"R  c #38BABB",
"E  c #4091B1",
"W  c #7F9DA9",
"Q  c #72BAAC",
"!  c #15CFBE",
"~  c #17D0BD",
"^  c #3FC4B6",
"/  c #37C3B9",
"(  c #38C2B9",
")  c #4AC6B3",
"_  c #0093C4",
"`  c #0A92C1",
"'  c #0099C4",
"]  c #00A2C7",
"[  c #01ADC5",
"{  c #00ADC9",
"}  c #00B2C4",
"|  c #00BCC6",
" . c #00B6CC",
".. c #08B5C9",
"X. c #00B8CB",
"o. c #1AB5C5",
"O. c #1DB8C0",
"+. c #25B3C2",
"@. c #00C6C6",
"#. c #00CCC5",
"$. c #0ACDC2",
"%. c #00C1C8",
"&. c #0CC1C4",
"*. c #9C8D86",
"=. c #9A9B9A",
"-. c #A38E86",
";. c #B48F87",
":. c #B88C86",
">. c #93B4A4",
",. c #CF8E85",
"<. c #D18E83",
"1. c #DE8E81",
"2. c #C4978A",
"3. c #C1988B",
"4. c #D69085",
"5. c #DB9186",
"6. c #D29188",
"7. c #D0998C",
"8. c #D58596",
"9. c #E08F83",
"0. c #F78786",
"q. c #FA8787",
"w. c #F98887",
"e. c #E4998A",
"r. c #F5978C",
"t. c #F39C8E",
"y. c #E08C92",
"u. c #E69992",
"i. c #EA9C93",
"p. c #EEA38F",
"a. c #EFA490",
"s. c #F2A792",
"d. c #A7E78E",
"f. c #BCEA87",
"g. c #B4E98A",
"h. c #C9DA89",
"j. c #D4DD86",
"k. c #CBED83",
/* pixels */
"                                                                                                                        ",
"                                                                                                                        ",
"                                              q q q q q q q q q q q % $ $                                               ",
"                                              q q q q q q q q q q q % $ $                                               ",
"                                          q q q q w a z i = % % % % $ $ $ $ $                                           ",
"                                          q q q q w x M z % $ $ $ $ $ $ $ $ $                                           ",
"                                          q q q : q c N c - - % $ $ $ $ $ $ $ $                                         ",
"                                    q q q q q ; $ ; C H A 6 6 e $ $ $ $ $ $ $ $ $ $                                     ",
"                                    q q q q q ; $ ; Z H A 5 5 e $ $ $ $ $ $ $ $ $ $                                     ",
"                                    q q y f g w $ ; Z H A 5 5 e $ % 0 e 0 $ $ $ $ $                                     ",
"                                    q q s H H d $ ; Z H A 5 5 e $ % 4 5 2 % $ $ $ $                                     ",
"                                    q q s H H d % : Z H A 8 5 e % = 4 5 2 % $ $ $ $                                     ",
"                                    q q s H H m z c S H A v v 7 4 4 5 5 2 % $ $ $ $                                     ",
"                                    q q s H H B M N D H A M v 9 5 5 5 5 2 % $ $ $ $                                     ",
"                                    q q u V Z b x c V Z n z z p 3 3 3 3 1 % $ $ $ $                                     ",
"                                    q q q q q q q q q q : % % $ $ $ $ $ $ $ $ $ $ $                                     ",
"                                    q q q q q q q q q q : $ $ $ $ $ $ $ $ $ $ $ $ $                                     ",
"                                    q q r k k k k k k k k < < < < , * $ $ $ $ $                                         ",
"                                    q q t 5.5.5.5.5.5.5.5.5.5.5.5.1.& $ $ $ $                                           ",
"                                    q q t <.,.4.5.5.5.5.5.<.,.4.5.1.> * $ $ $                                           ",
"                                          o o -.a.a.a.a.2.O o -.a.p.9.h j $ $       $ $                                 ",
"                                          . . *.s.s.s.s.3.X X *.s.s.5.5.l $ $       $ $                                 ",
"                                          + + ;.s.s.s.s.7.# @ :.t.t.5.5.l $ $ $     $ $                                 ",
"                                          q.q.r.s.s.s.s.t.w.q.q.q.0.9.5.l $ $ $ $ $ $ $                                 ",
"                                          q.q.r.s.s.s.s.t.w.q.q.q.0.9.5.l $ $ $ $ $ $ $                                 ",
"                                          t.t.y.K 8.i.s.s.t.t.t.t.t.5.5.h                                               ",
"                                          s.s.8.J L u.s.s.s.s.s.s.s.5.5.5.                                              ",
"                                          s.s.8.J L u.s.s.s.s.s.s.p.5.5.5.                                              ",
"                                                    5.5.5.5.5.5.5.5.                                                    ",
"                                                    5.5.5.5.5.5.5.5.                                                    ",
"                                                    e.e.e.e.e.e.e.e.                                                    ",
"                                     . .{ _ _ W s.s.s.s.s.s.s.s.s.s.5.5.=... .] _ _                                     ",
"                                     . .{ _ _ W s.s.s.s.s.s.s.s.s.s.5.5.=... .] _ _                                     ",
"                                     . . .{ { O./ ) j.F h.^ ( R T Y U U I ' ' _ _ _                                     ",
"                                     . . . . .%.#.~ k.H f.$.#.%. . . . .{ _ _ _ _ _                                     ",
"                                     . ...o.o.&.#.! g.G d.$.#.%. . . . .[ P P ` _ _                                     ",
"                                          s.s.Q #.#.#.#.#.#.#.%. . .' _ E 6.5.                                          ",
"                                          s.s.Q #.#.#.#.#.#.#.%. . .' _ E 6.5.                                          ",
"                                          s.s.>.#.@.} [ [ [ [ [ ] ] _ _ E 6.5.                                          ",
"                                          s.s.      _ _ _ _ _ _ _ _           s.s.s.                                    ",
"                                          s.s.      _ _ _ _ _ _ _ _           s.s.s.                                    ",
"                                    s.s.s.    +. .X.%.@.|  . .] _ _ _ _ _     s.s.s.                                    ",
"                                    s.s.s.     . .X.@.#.@.X. .] _ _ _ _ _     s.s.s.                                    ",
"                                    s.s.s.     . .X.@.#.@.X. .] _ _ _ _ _     s.s.s.                                    ",
"                                s.s.           . .X.@.#.@.X. .] _ _ _ _ _     s.s.s.                                    ",
"                                s.s.           . .X.@.#.@.X. .] _ _ _ _ _     s.s.s.                                    ",
"                                               . .X.@.#.@.X. .] _ _ _ _ _                                               ",
"                                               . .X.@.#.@.X. .] _ _ _ _ _                                               ",
"                                               . .X.@.#.@.X. .] _ _ _ _ _                                               ",
"                                               . .X.@.#.@.X. . . .{ ' _ _ _ _                                           ",
"                                               . .X.@.#.@.X. . . . .' _ _ _ _                                           ",
"                                               . .X.@.#.@.X. . . . .' _ _ _ _                                           ",
"                                               . .X.@.#.@.X. . . . .' _ _ _ _                                           ",
"                                               . .X.@.#.@.X. . . . .' _ _ _ _                                           ",
"                                           . .| @.@.#.#.#.@.@.|  . .{ { ] _ _ _ _ _                                     ",
"                                           . .%.#.#.#.#.#.#.#.%. . . . .{ _ _ _ _ _                                     ",
"                                           . .| @.@.@.@.@.@.@.|  . . . .{ _ _ _ _ _                                     ",
"                                          _ _ _ ' ' ' ' ' ' ' _ _ _ _ _ _ _ _ _ _ _ _ _                                 ",
"                                          _ _ _ _ _ _ _ _ _ _ _ _ _ _ _ _ _ _ _ _ _ _ _                                 ",
"                                            _ _ _ _ _ _ _ _ _ _ _ _ _ _ _ _ _ _ _ _ _ _                                 "
};
