/* XPM */
static char *result[] = {
/* columns rows colors chars-per-pixel */
"60 60 200 2 ",
"   c #387279",
".  c #707E56",
"X  c #57787B",
"o  c #60797D",
"O  c #78797D",
"+  c #C67948",
"@  c #D57546",
"#  c #DA7E43",
"$  c #FC6644",
"%  c #F56B44",
"&  c #FB6B44",
"*  c #E67244",
"=  c #FB7645",
"-  c #F97942",
";  c #FD7A4A",
":  c #F46F53",
">  c #EE775C",
",  c #F37155",
"<  c #76E53F",
"1  c #248E5F",
"2  c #3E885C",
"3  c #2F9D57",
"4  c #26925D",
"5  c #2B965D",
"6  c #2E995D",
"7  c #309E57",
"8  c #329B5C",
"9  c #389A5C",
"0  c #3FB34F",
"q  c #35A655",
"w  c #3BAD52",
"e  c #36A25E",
"r  c #3AA65F",
"t  c #3BAA59",
"y  c #3EB051",
"u  c #1F8E69",
"i  c #1D916D",
"p  c #1C8D73",
"a  c #1B9477",
"s  c #228C60",
"d  c #2B8E63",
"f  c #2A9362",
"g  c #2E966E",
"h  c #2FA86D",
"j  c #39A661",
"k  c #2AA675",
"l  c #29A57A",
"z  c #528A5B",
"x  c #529E5B",
"c  c #7C924F",
"v  c #6C8D54",
"b  c #6A9D5A",
"n  c #40B34F",
"m  c #45BC4C",
"M  c #56BA4F",
"N  c #5ABC4D",
"B  c #43AE51",
"V  c #48A959",
"C  c #57A857",
"Z  c #71A44F",
"A  c #7AB34A",
"S  c #62AB57",
"D  c #4B9766",
"F  c #48906F",
"G  c #52926B",
"H  c #6C936F",
"J  c #699D6A",
"K  c #56A664",
"L  c #55B570",
"P  c #64A66A",
"I  c #4AC24A",
"U  c #4FCC49",
"Y  c #51CF47",
"T  c #55CA48",
"R  c #54D346",
"E  c #5AD644",
"W  c #57D844",
"Q  c #58D945",
"!  c #63C54A",
"~  c #63D345",
"^  c #78CC55",
"/  c #6DE141",
"(  c #F1A23F",
")  c #EDBD3D",
"_  c #8DED3D",
"`  c #9AED3B",
"'  c #97F23C",
"]  c #ECC63D",
"[  c #EBCD3D",
"{  c #EED03E",
"}  c #F2D13F",
"|  c #8D8856",
" . c #B58048",
".. c #AB904D",
"X. c #92AF44",
"o. c #86B944",
"O. c #988F78",
"+. c #879977",
"@. c #A79D7F",
"#. c #B5907E",
"$. c #86AE6E",
"%. c #ADA878",
"&. c #CD8648",
"*. c #CA914D",
"=. c #D29A48",
"-. c #C58751",
";. c #F68341",
":. c #F58847",
">. c #FF854C",
",. c #FE8A4B",
"<. c #FD9748",
"1. c #F38753",
"2. c #FF9752",
"3. c #FF9B53",
"4. c #FCAF4F",
"5. c #F18961",
"6. c #E48473",
"7. c #85E340",
"8. c #8EC561",
"9. c #92C661",
"0. c #FFCA45",
"q. c #FEDD44",
"w. c #FEDC52",
"e. c #FFE044",
"r. c #FFE34A",
"t. c #FAE658",
"y. c #DFF07C",
"u. c #FFE36C",
"i. c #FEE96E",
"p. c #FFF46E",
"a. c #FFEF70",
"s. c #E6F27A",
"d. c #F6F475",
"f. c #FFF672",
"g. c #BF6C9B",
"h. c #C77699",
"j. c #199282",
"k. c #159995",
"l. c #259F83",
"z. c #1CAC9A",
"x. c #19B29C",
"c. c #25AA8E",
"v. c #0A91A5",
"b. c #0A93AA",
"n. c #0F98AA",
"m. c #109AA6",
"M. c #0A97B2",
"N. c #0393BD",
"B. c #0799B8",
"V. c #0AACAE",
"C. c #0DB4AB",
"Z. c #12B2A8",
"A. c #0AADB6",
"S. c #0BB4B6",
"D. c #32A8B4",
"F. c #56B4B3",
"G. c #66BBAE",
"H. c #17CFBD",
"J. c #27D2B8",
"K. c #0093C4",
"L. c #0992C1",
"P. c #009BC4",
"I. c #00A1C7",
"U. c #00ABC9",
"Y. c #01B5C5",
"T. c #00B6CC",
"R. c #00BACA",
"E. c #00C3C6",
"W. c #00CBC5",
"Q. c #00C2C8",
"!. c #978783",
"~. c #86989F",
"^. c #999190",
"/. c #A68E86",
"(. c #B89886",
"). c #B29189",
"_. c #BDA899",
"`. c #879FA4",
"'. c #96ABA6",
"]. c #98B4A4",
"[. c #A5B6A0",
"{. c #D88E84",
"}. c #CD9785",
"|. c #DB9186",
" X c #D59588",
".X c #D68596",
"XX c #EE8985",
"oX c #FA8787",
"OX c #E79989",
"+X c #E99F8D",
"@X c #F5998D",
"#X c #CCA98E",
"$X c #E6A58F",
"%X c #ECA28F",
"&X c #E6A88E",
"*X c #EDA591",
"=X c #EEA890",
"-X c #F2A692",
";X c #82E19A",
":X c #F2C388",
/* pixels */
"I y y y y y w w n w w w y y y w y w 4 1 s s 9 ' ' ' ' < Q Q Q Q E 0 w 0 w y 6 1 1 1 1 6 r r r r j 8 f 1 4 1 1 N _ < _ 7.",
"0 y y y y y t t r r t r r r t r r r 1 1 s s q ` ' ' ' < Q Q Q Q E y 0 w y y f s 1 1 1 5 r r r r j 6 s s u 1 1 T ' ' _ ` ",
"w y y y y y t r j r r r r r r r r e 4 1 1 1 q ' ' ' ' < Q Q Q Q W w y y y y 4 s s s s 1 r r r r r 6 s s s s s N ' ' ' ' ",
"y y y y y y t r r r r r r r r r r r 1 s 1 1 9 ' ' ' ' / Q Q Q Q E w y y y y 6 1 s s s 5 r r r r j 8 s s s s 1 ! ' ' ' ' ",
"y y y y y 0 t r r r r j r r r r r r 4 s s s 9 ' ' ` ' / Q Q Q Q E w y w y y f s s s 1 4 r r e r r 6 1 1 s 1 1 N ' ' ' ' ",
"y y y y y w t r j r r e e j e e r V e 8 8 8 q / / / / R m m m m m t t t t r d s s s u f e e e 9 e 8 4 4 4 5 4 ! _ _ _ _ ",
"n y y y y t e r r r r 1 s s s s M ' ' ' ' ' Q E Q Q Q I n w n n B r r t r r 5 s s s s d 1 1 1 1 1 t Y Y Y Y Y E E < E E ",
"n y y y y t r r r j e s s s s s M ' ' ' ' ' Q ~ o.o.o.A Z Z Z Z Z b b b x r 6 s s s s d 1 1 u 1 s w Q Q Q Q Q E Q Q Q Q ",
"n y y y y t r r r r r 1 s s s s N ' ' ' ' ' W o.% & ; >.>.>.>.>.>.>.>.>...j f s s s s s s s s s s w W Q Q Q Q Q Q Q Q Q ",
"n y y y y t r r r r r 1 s s s s N ' ' ' ' ` ~ o.% $ ; >.>.>.>.>.>.>.>.>...V 9 d s s s d s s s s s q Q Q W Q Q W Q W Q Q ",
"y w w w B t r r j r e 1 s s s s M _ _ _ _ =.# * $ $ & & & & & <.0.0.,.>.1.*.-.z s s s 1 s s 1 1 s w Q Q W Q W W W W Q Q ",
"e r r r r r r r r r r 1 s s s s 0 W E E E # $ $ $ $ $ $ $ $ $ ( q.q.<.>.>.>.1.z s s s 1 4 4 4 4 4 w Y Y Y Y R Y Y R Y R ",
"r e r r r r r j r r r 1 s s s s w W ~ X.X.* $ $ $ $ $ $ & ;.:.4.t.w.>.; ; >.:.| v z s s w w w w w y 0 0 0 0 0 0 0 0 0 0 ",
"e r r r r r r r r r j 1 s s s s w W X.$ $ $ $ $ $ $ $ $ - [ { t.f.i.; $ & >.>.>.>.-.1 d w y w y y y y y w 0 0 w y y y y ",
"e r r r r r j r r r r 1 s s s s 0 W X.$ $ $ $ $ $ $ % $ - ] { t.f.a.; $ = >.>.>.>.-.s 1 w w y y y w 0 y 0 0 w 0 y y y y ",
"e r r r r r r r j r e s s s s s w W X.% $ $ $ - ) ) ;.% - [ [ t.f.i.; $ 3.u.u.3.>.-.s 1 w y y y y y y y 0 w 0 w y y y y ",
"5 5 5 5 5 5 5 4 5 5 5 6 8 6 8 e 3 q c $ $ $ $ ;.] [ :.& - ] [ t.f.i.; & 3.f.f.3.>.*.m n 5 5 3 5 3 e w n w w w t t t t t ",
"s s s s s s 1 s s s 1 e j r j j 3 1 . $ $ $ $ ;.] [ ( ;.( } { t.f.i.<.<.4.f.f.3.>.=.Q R 4 s 1 1 s 6 j r r r e 1 s s 1 s ",
"1 s s s s s s s s s 1 e j r j j 4 s . % $ $ $ ;.] [ [ [ { e.} t.f.p.r.e.t.f.f.3.>.=.Q R 4 s s s s 6 j r r r e 1 s s s s ",
"1 s s s s s s 1 s s 1 r j r j j 6 s . $ $ $ $ ;.[ [ [ [ { e.e.t.f.p.r.e.t.f.f.3.>.=.Q R 4 s s s 1 f r r r r e 1 s s s s ",
"1 s s s s s s 4 s 1 1 e j j j j 6 1 . $ $ $ $ $ = - = = ;.- - ,.2.2.2.<.2.3.3.,.>.=.Q R f s s s s 6 j j r r e 1 s 1 1 1 ",
"4 s s s s 4 4 4 5 5 5 t t B B t 7 1 . % $ $ $ $ % $ $ $ $ $ $ ; >.>.>.>.>.>.>.,.1.=.R U 4 1 4 1 1 6 9 e e 8 e 5 5 5 5 5 ",
"s s s s 1 w R R R R R R R R R R I w Z  . .* $ $ $ $ > > > , > 5.5.5.5.5.5.5.5.1.>.*.n y r e r e j 6 s 1 1 1 4 U R R R R ",
"1 s s s u y Q Q Q Q Q W Q Q Q W I 0 w w B @ $ $ $ $ > |.|.|.|.{.|.|.|.|.|.{.6.5.>.*.n t r r r r j 6 s s 1 u 4 R W W W W ",
"4 s s s s y W W W W W Q Q Q Q Q m B B y y @ $ $ $ $ >  X X X.X X|.|.|.|.|.{.{.1.:.*.y w r j r r r 5 s s s s 5 Y Q Q Q Q ",
"s s s s s 0 W W W W Q Q Q Q Q W ..@ ..B B @ $ : 6.6.OX*X Xo X /.*X*X%X%X/.X X b S C y B r t r r r f s s s s 5 Y Q Q Q Q ",
"s 1 s s i w W W E E E E Q Q Q Q &.$  .B B @ $ ,  X|.+X-X(.    !.-X-X-X-X/.    e w n n w r r r j r f 4 s s s 4 Y Q Q R Q ",
"0 0 0 0 0 m I I I m I m I I I I + $ + c c * $ , |.|.OX@X}.g.O ).-X-X-X-X).O O D t t w t r r r r r 6 s s s u 4 m m I I I ",
"R Q Q Q Q I 0 y y y y y w y y y + $ $ $ $ $ $ , OX|.oXoXXXoXoX@X-X-X-X-X@XoXXXJ r r r r r r j r q 5 s s s s 1 w y y y y ",
"R Q W Q Q I y y y y y y y y y y + $ $ $ $ $ $ : {.|.XX6.oXoXoX@X-X-X-X-X@XoXXXJ r r r r r r r r r 5 s s s s 1 w y y y y ",
"R Q Q W W U y y y y y y y y y y V x C x x x 2 H {.{.OX-X-X-X-X-X-X%Xh.h..X%X%XP r r r r r r r r r 6 s s s s 1 w y y B w ",
"R Q Q Q W I y y y y y y y y B w w r r q r 9 1 G {.{.%X-X-X-X-X-X-X+Xh.h..X%X&XP r r r r j r r r r f s s s s 1 w y y y B ",
"Y R R R R I q q w q q w y w w w t r r r r r 1 F O.O.#.@X%X+X+X+X+XOX!.!.@.%.%.K j j r t 9 e e e 9 6 s s s s 1 w w y w w ",
"y y 0 0 y q 4 4 4 4 4 e r r t r r r r r r r 1 1 s s O.|.|.|.|.|.|.}.x e r r e j r r e r s s s s s s s s s s 1 e e r r r ",
"w y y y y 3 s s s s 1 e r r r r j r j j j j s 1 4 f O.|.|.|.|.|.|.}.K j r j j j j r r r 1 s s s s s s s s s s j r r r r ",
"w y y y y 3 s s s s s e r r r r j j l b.b.A.A.D.).#. X%X-X=X=X-X@X+X#X#X~.M.M.A.S.Z.r e 1 s s s s s s s s s s r r r r r ",
"w y y y y 3 s s s s 1 e r r r r r r l.K.K.U.T.D. X{.+X-X-X=X-X-X=X-X-X-X`.K.L.T.T.C.j e 1 s s s s s s s s s 1 j r r j r ",
"y y y y y 3 s s 1 s 1 e r r r r r j l.L.K.I.U.D.`.~.'.'.'.].].#X:X:X[.].F.I.P.Y.T.C.e e s s s s s s s s s 1 1 e r e e j ",
"I U I I U y 3 3 3 3 3 5 5 5 5 5 f 6 k.K.K.K.K.P.Y.T.T.T.R.W.W.;Xf.s.J.W.R.T.T.T.T.A.6 6 1 s s s s 4 6 6 6 6 5 5 6 5 5 6 ",
"Q Q Q Q R I y y y w w 1 s s 1 1 s s j.K.K.K.L.K.T.T.T.T.R.W.W.;Xd.y.J.W.E.T.T.T.Y.V.s s s s s s s 6 j j e j j 1 1 1 s s ",
"E Q Q Q Q I y y y y w 4 1 s s s s s s p p ^.).~.L.K.U.T.R.W.W.H.J.J.W.W.F._._.g p i s s s s s s s 6 j r r r e 1 s s s s ",
"Q Q Q Q Q I y y y y w 1 1 s s s s s s s 1 #.|.^.L.K.U.T.R.W.W.W.W.W.W.W.G.-X*XG s s s s s s s s s 6 j r r r j 1 s s s 1 ",
"Q Q Q Q Q I y y y w w 1 s s s s 1 1 g H H O.%.$.z.z.A.U.U.Y.T.Y.S.E.C.C.G.-X$XG s s s s s s s s s f r j j j j 1 s s 1 1 ",
"E E R R R I y y y y w 4 s s s s 4 4 H =X*XD Y R R E z.K.K.K.K.K.N.B.u 4 +.-X$XG s s s s 1 1 1 4 4 8 t t t t t 5 1 1 1 1 ",
"m 0 n n 0 y y y y 0 w 1 s s s s q R 8.=X%X^ n y n n k.P.K.K.K.P.K.B.e w $.=X&XD s s 1 1 w w w w w m R R R R Y w w w w w ",
"n B w 0 y y y y y w w 1 s s s s w Q 8.=X=X^ y h M.M.K.K.K.U.T.T.E.E.S.S.c.C K (. X@.1 1 w B y w 0 I Q Q E W W 0 w y 0 w ",
"n w 0 w y y y y y y w 1 s s s s y Q 9.=X=X^ 0 h K.K.K.K.P.T.T.Q.W.W.T.T.x.0 q #X=X(.1 1 w y y y w I Q Q Q Q W 0 y y w 0 ",
"n n w 0 y y y y y y w 1 s s s s w Q 9.=X=X^ B l K.K.K.K.P.T.T.Q.W.W.R.T.Z.w 8 +.@.@.+.+.w y y y y I Q Q Q Q R 0 y y 0 w ",
"n y y y y y y w y w w 1 1 s s s q W 8.=X=X^ 0 l K.K.K.K.P.T.T.Q.W.W.R.T.S.y 3 s s G -X-XV y y 0 w I W W W W W 0 y y y y ",
"w t t t w t w w t t w 1 s s s s q I $.=X&XL k z.K.K.P.P.P.T.T.Q.W.W.R.T.C.t 6 s 1 G *X*XM I I I I I I I I I m w w t t t ",
"r r r r r r e e r r r s s s s s 3 y B S K n.N.K.K.K.U.T.T.T.T.Q.W.W.T.T.S.j f 4 s d F D R Q Q Q W I 0 y y y y r r r r j ",
"r r r r r r r r j r r 1 s s s s 3 y n w n n.K.K.K.K.U.T.T.T.T.Q.W.W.T.T.C.j 5 s s 1 1 4 R Q Q Q W I y y y y y r r r r r ",
"r r j r r r r r r r e 1 s s s s 3 y y y w M.K.K.K.K.U.T.T.T.T.E.W.W.R.T.Z.j f s s s s 4 R Q Q Q E I y y y y y r j r r r ",
"r r r r r r j r r r j 1 s s s s 3 y y y y n.K.K.K.K.U.T.T.T.T.E.W.W.R.R.x.j 6 s s s s 4 R Q Q Q Q I y y y y w r r r r r ",
"t r r r e j e e e e e s s s s s 3 y t h h M.K.K.P.P.U.T.T.R.R.W.W.W.R.R.Z.l a f s s s 4 Y R R W R I y w w w w t j j r r ",
"r r r r j 8 1 1 s 1 1 s s s s s 6 y l K.K.K.K.P.T.T.T.T.R.W.W.W.W.W.W.W.E.T.T.a s s s 4 0 0 0 0 0 w r 9 t q r r j V j r ",
"r j r r r 8 s s s s s s s s s s 3 y l K.K.K.K.P.T.T.T.T.R.W.W.W.W.W.W.W.E.T.Y.a s s s s w y y y 0 t r r r r r r r r r j ",
"r r r r r f s s s s s s s s s s k.b.B.K.K.K.K.K.P.P.P.P.P.P.P.P.I.P.P.I.P.K.P.p s s s 4 w y y y y t r r r r r j r r r r ",
"r r r r j 8 s s s s s s s s s s v.K.K.K.K.K.K.K.K.K.K.K.K.K.K.K.K.K.K.K.K.K.N.p s s s 4 w y y y y w r r r r r r r r r r ",
"r r r j j 8 s s s s s s s s s s k.m.m.m.m.m.n.n.n.n.n.n.n.n.n.n.n.v.b.v.b.b.v.p s s s s w y y y y t r r r r r e r j r r "
};
