/* XPM */
static char *result[] = {
/* columns rows colors chars-per-pixel */
"60 60 23 1 ",
"  c #4D0A15",
". c #560C13",
"X c #5F0E12",
"o c #681011",
"O c #6B1713",
"+ c #721210",
"@ c #741912",
"# c #772015",
"$ c #7A2617",
"% c #7D2D19",
"& c #812113",
"* c #8A2412",
"= c #862F17",
"- c #8D2A14",
"; c #962D13",
": c #903116",
"> c #993315",
", c #953E1B",
"< c #A23615",
"1 c #A53C17",
"2 c #9F4019",
"3 c #A84319",
"4 c #AE501D",
/* pixels */
"       X++4444444:++++++++++++++++++++++++++++++++          ",
"       X++4444444:++++++++++++++++++++++++++++++++          ",
"#####%%=::44444442:::::::::&++++++++++++++&::::&++XX.  XXXXX",
"<<<<<4444444444444444444444:++++++++++++++:4444:++++X  +++++",
"<<<<<4444444444444444444444:++++++++++++++:4444:++++X  +++++",
"<<<<<<<<<<<<<<<<<<<<<<<<<<<<<<<<<<<<<<<<<<<<<<<34444%  <<<<<",
"<<<<<<<<<<<<<<<<<<<<<<<<<<<<<<<<<<<<<<<<<<<<<<<34444%  <<<<<",
"<<<<<<<<<<<<<<<<<<<<<<<<<<<<<<<<<<<<<<<<<<<<<<<13344%  <<<<<",
"<<<<<<<<<<<<<<<<<<<<<<<<<<<<<<<<<<<<<<<<<<<<<<<<<<44%  <<<<<",
"<<<<<<<<<<<<<<<<<<<<<<<<<<<<<<<<<<<<<<<<<<<<<<<<<<44%  <<<<<",
"<<<<<<<<<<<<<<<<<<<<<<<<<<<<<<<<<<<<<<<<<<<<<<<<<<44%  <<<<<",
"<<<<<<<<<<<<<<<<<<<<<<<<<<<<<<<<<<<<<<<<<<<<<<<<<<44%  <<<<<",
"<<<<<<<<<<<<<<<<<<<<<<<<<<<<<<<<<<<<<<<<<<<<<<<<<<33$  <<<<<",
"<<<<<<<<<<<<<<<<<<<<<<<<<<<<<<<<<<<<<<<<<<<<<<<<<<<<#  <<<<<",
"<<<<<<<<<<<<<<<<<<<<<<<<<<<<<<<<<<<<<<<<<<<<<<<<<<<<#  <<<<<",
"<<<<<<<<<<<<<<<<<<<<<<<<<<<<<<<<<<<<<<<<<<<<<<<<<<<<#  <<<<<",
"<<<<<<<<<<<<<<<<<<<<<<<<<<<<<<<<<<<<<<<<<<<<<<<<<<<<#  <<<<<",
"<<<<<<<<<<<<<<<<<<<<<<<<<<<<<<<<<<<<<<<<<<<<<<<<<<<<#  **;<<",
"<<<<<<<<<<<<<<<<<<<<<<<<<<<<<<<<<<<<<<<<<<<<<<<<<<<<#  ++*<<",
"<<<<<<<<<<<<<<<<<<<<<<<<<<<<<<<<<<<<<<<<<<<<<<<<<<<<#  ++*<<",
"++*<<<<<<<<<<<<<<<<<<<<<<<<<<<<<<<<<<<<<<<<<<<<<<<<<#  +++++",
"++*<<<<<<<<<<<<<<<<<<<<<<<<<<<<<<<<<<<<<<<<<<<<<<<<<#  +++++",
"XX@*******<<;****;<<<<<<<<<<<<<<;*********;<<<<;****O  XXo++",
"  X+++++++<<*++++*<<<<<<<<<<<<<<*+++++++++*<<<<*++++X    X++",
"  X+++++++<<*++++*<<<<<<<<<<<<<<*+++++++++*<<<<*++++X    X++",
"     +++++++X    X++++*<<<<<<<+++++     +++++++X         X++",
"     +++++++X    X++++*<<<<<<<+++++     +++++++X         X++",
"     XXXXXXX.    .XXXXO#######XXXXX     XXXXXXX.         .XX",
"                                                            ",
"                                                            ",
"44444+++++++++++++++++X  4444444%    X++++++++++++++:4444444",
"44444+++++++++++++++++X  4444444%    X++++++++++++++:4444444",
"44444:::::::::::::::++X  3333344,%%%%=::::-*********>3344444",
"44444444444444444444++X  <<<<<4444444444443<<<<<<<<<<<<44444",
"44444444444444444444++X  <<<<<4444444444443<<<<<<<<<<<<44444",
"<<<<<<<<<<<<<<<<<<<<44%  <<<<<<<<<<<<<<<<<<<<<<<<<<<<<<<<<<<",
"<<<<<<<<<<<<<<<<<<<<44%  <<<<<<<<<<<<<<<<<<<<<<<<<<<<<<<<<<<",
"<<<<<<<<<<<<<<<<<<<<33$  <<<<<<<<<<<<<<<<<<<<<<<<<<<<<<<<<<<",
"<<<<<<<<<<<<<<<<<<<<<<#  <<<<<<<<<<<<<<<<<<<<<<<<<<<<<<<<<<<",
"<<<<<<<<<<<<<<<<<<<<<<#  <<<<<<<<<<<<<<<<<<<<<<<<<<<<<<<<<<<",
"<<<<<<<<<<<<<<<<<<<<<<#  <<<<<<<<<<<<<<<<<<<<<<<<<<<<<<<<<<<",
"<<<<<<<<<<<<<<<<<<<<<<#  <<<<<<<<<<<<<<<<<<<<<<<<<<<<<<<<<<<",
"<<<<<<<<<<<<<<<<<<<<<<#  <<<<<<<<<<<<<<<<<<<<<<<<<<<<<<<<<<<",
"<<<<<<<<<<<<<<<<<<<<<<#  <<<<<<<<<<<<<<<<<<<<<<<<<<<<<<<<<<<",
"<<<<<<<<<<<<<<<<<<<<<<#  <<<<<<<<<<<<<<<<<<<<<<<<<<<<<<<<<<<",
"<<<<<<<<<<<<<<<<<<<<<<#  <<<<<<<<<<<<<<<<<<<<<<<<<<<<<<<<<<<",
"<<<<<<<<<<<<<<<<<<<<<<#  <<<<<<<<<<<<<<<<<<<<<<<<<<<<<<<<<<<",
"<<<<<<<<<<<<<<<<<<<<<<#  <<<<<<<<<<<<<<<<<<<<<<<<<<<<<<<<<<<",
"<<<<<<<<<<<<<<<<<<<<<<#  <<<<<<<<<<<<<<<<<<<<<<<<<<<<<<<<<<<",
"<<<<<<<<<<<<<<<<<<<<<<#  <<<<<<<<<<<<<<<<<<<<<<<<<<<<<<<<<<<",
"<<<<<<<<<<<<<<<<<<<<<<#  <<<<<<<<<<<<<<<<<<<<<<<<<<<<<<<<<<<",
"<<<<<<<<<<<<<<<<<<<<<<#  <<<<<<<<<<<<<<<<<<<<<<<<<<<<<<<<<<<",
"**********<<<<<<<<<<**O  **********<<<<<<<<<<<<<<<<<;*******",
"++++++++++<<<<<<<<<<++X  ++++++++++<<<<<<<<<<<<<<<<<*+++++++",
"++++++++++<<<<<<<<<<++X  ++++++++++<<<<<<<<<<<<<<<<<*+++++++",
"++X    X++++++++++++++X  ++X         X++++*<<<<*++++++++++++",
"++X    X++++++++++++++X  ++X         X++++*<<<<*++++++++++++",
"XX.    .XXXXXXXXXXXXXX.  XX.         .XXXXO####OXXXXXXXXXXXX",
"                                                            ",
"                                                            "
};
